<svg xmlns="http://www.w3.org/2000/svg" viewBox="0 0 1881.23 3788.76"><defs><style>.cls-1{fill:#d11613;}.cls-1,.cls-2,.cls-3,.cls-4,.cls-5,.cls-6{fill-rule:evenodd;}.cls-2{fill:#bb1310;}.cls-3{fill:#af0704;}.cls-4{fill:#970000;}.cls-5{fill:#a30000;}.cls-6{fill:#b7cad6;}.cls-7{fill:#9fb3bf;}</style></defs><g id="Layer_2" data-name="Layer 2"><g id="Layer_1-2" data-name="Layer 1"><path class="cls-1" d="M1555.35,1793.29c60.59,170.86,134.66,378,224.88,629.6H101c95.6-265,171-478.93,234.31-655.16,255.85-718.39,966.87-686.11,1220,25.56Z"/><path class="cls-2" d="M509,2422.89H101c95.6-265,171-478.93,234.31-655.16,177.75-501.8,577.7-636.33,890.11-431.84C575,1404.5,484.78,1957.42,509,2422.89Z"/><path class="cls-3" d="M92.92,2422.89H1788.31c51.18,0,92.92,43.05,92.92,94.17h0c0,51.13-41.74,92.83-92.92,92.83H92.92c-51.17,0-92.92-41.7-92.92-92.83H0c0-51.12,41.75-94.17,92.92-94.17Z"/><path class="cls-4" d="M1555.35,3239.49c60.59-170.85,134.66-376.68,224.88-629.6H101c95.6,265,171,480.27,234.31,655.16,255.85,718.39,966.87,686.11,1220-25.56Z"/><path class="cls-5" d="M1555.35,3239.49c52.51-148,115.8-324.22,189.87-534.08-1517.64-51.13-1439.54,704.93-813.36,1083,246.43,0,494.21-185.66,623.49-548.89Z"/><path class="cls-3" d="M670.61,1221.53h540c26.93,0,48.48,22.87,48.48,49.78h0c0,26.91-21.55,49.78-48.48,49.78h-540c-26.92,0-49.82-22.87-49.82-49.78h0c0-26.91,22.9-49.78,49.82-49.78Z"/><path class="cls-6" d="M882,1221.53H999.19V59.19C999.19,26.9,972.26,0,939.94,0h0C909,0,882,26.9,882,59.19Z"/><path class="cls-2" d="M867.22,164.12H1014a9.2,9.2,0,0,1,9.42,9.42V764.13a9.2,9.2,0,0,1-9.42,9.42H867.22a9.2,9.2,0,0,1-9.42-9.42V173.54a9.2,9.2,0,0,1,9.42-9.42Z"/><polygon class="cls-1" points="1023.43 203.14 1695.39 469.51 1023.43 734.53 1023.43 203.14"/><rect class="cls-7" x="882.04" y="773.55" width="117.16" height="53.81"/></g></g></svg>