<svg xmlns="http://www.w3.org/2000/svg" viewBox="0 0 1129.03 148.88"><defs><style>.cls-1{opacity:0.33;}.cls-2{fill:#1c6484;}.cls-3{fill:#043f61;}.cls-4{fill:#64acbf;}.cls-5{fill:#2a6288;}</style></defs><g id="Layer_2" data-name="Layer 2"><g id="_1" data-name="1"><g class="cls-1"><rect class="cls-2" x="1051.24" y="4.88" width="14.89" height="36.93"/><rect class="cls-2" x="1033.16" y="9.06" width="42.55" height="16.03"/><rect class="cls-2" x="1087.41" y="6.27" width="21.28" height="36.23"/><rect class="cls-2" x="1070.39" y="6.27" width="58.64" height="13.24"/><rect class="cls-2" x="1117.2" y="14.63" width="6.38" height="14.63"/><rect class="cls-2" x="1022.52" y="13.24" width="21.28" height="39.71"/><rect class="cls-2" x="829.96" y="25.78" width="70.21" height="34.14"/><rect class="cls-2" x="620.23" y="15.72" width="117.06" height="41.8"/><rect class="cls-2" x="691.67" y="41.11" width="10.64" height="24.39"/><rect class="cls-2" x="561.88" y="13.93" width="31.92" height="62.7"/><rect class="cls-2" x="541.66" y="25.78" width="12.77" height="34.14"/><rect class="cls-2" x="523.58" y="22.29" width="50" height="16.03"/><rect class="cls-2" x="452.3" y="23.69" width="56.38" height="72.46"/><rect class="cls-2" x="422.52" y="27.17" width="68.08" height="29.96"/><rect class="cls-2" x="568.26" y="67.58" width="9.58" height="24.38"/><rect class="cls-2" x="257.62" y="40.41" width="32.98" height="41.8"/><rect class="cls-2" x="137.41" y="4.88" width="92.55" height="38.32"/><rect class="cls-2" x="172.52" y="34.14" width="35.11" height="51.56"/><rect class="cls-2" x="79.96" y="4.18" width="46.81" height="43.2"/><rect class="cls-2" x="10.81" y="5.57" width="102.13" height="11.84"/><rect class="cls-2" x="31.03" y="12.54" width="18.09" height="27.17"/><rect class="cls-3" x="177.84" y="12.54" width="393.62" height="17.42"/><rect class="cls-2" x="477.97" y="16.44" width="27.12" height="132.43"/><rect class="cls-4" x="505.04" y="16.44" width="27.12" height="132.43"/><polygon class="cls-3" points="75.26 4.77 75.26 69.67 59.89 67.38 59.89 4.77 75.26 4.77"/><polygon class="cls-4" points="90.6 4.77 90.6 67.38 75.23 69.67 75.23 4.77 90.6 4.77"/><rect class="cls-2" x="333.41" y="34.49" width="27.55" height="66.89"/><rect class="cls-2" x="344.42" y="97.49" width="11.02" height="13.04"/><rect class="cls-3" x="388.31" y="115.06" width="38.83" height="33.81"/><rect class="cls-3" x="375.27" y="114.1" width="6.07" height="34.78"/><polygon class="cls-3" points="402.02 148.88 399.84 115.31 379.51 115.31 379.51 148.88 402.02 148.88"/><rect class="cls-3" x="404.39" y="62.94" width="18.81" height="85.94"/><polygon class="cls-4" points="434.95 148.88 434.95 112.03 423.12 114.72 423.12 148.88 434.95 148.88"/><polygon class="cls-2" points="433.77 121.47 424.31 123.62 424.31 124.82 433.77 122.68 433.77 121.47"/><polygon class="cls-2" points="433.77 119.07 424.31 121.21 424.31 122.42 433.77 120.28 433.77 119.07"/><polygon class="cls-2" points="433.77 123.87 424.31 126.02 424.31 127.23 433.77 125.08 433.77 123.87"/><polygon class="cls-2" points="433.77 148.88 433.77 147.9 429.48 148.88 433.77 148.88"/><polygon class="cls-2" points="433.77 126.28 424.31 128.42 424.31 129.63 433.77 127.48 433.77 126.28"/><polygon class="cls-2" points="433.77 114.26 424.31 116.41 424.31 117.61 433.77 115.47 433.77 114.26"/><polygon class="cls-2" points="433.77 116.67 424.31 118.81 424.31 120.02 433.77 117.87 433.77 116.67"/><polygon class="cls-2" points="433.77 143.1 424.31 145.24 424.31 146.45 433.77 144.3 433.77 143.1"/><polygon class="cls-2" points="433.77 138.29 424.31 140.44 424.31 141.64 433.77 139.5 433.77 138.29"/><polygon class="cls-2" points="433.77 140.69 424.31 142.84 424.31 144.05 433.77 141.9 433.77 140.69"/><polygon class="cls-2" points="433.77 145.5 424.31 147.65 424.31 148.85 433.77 146.71 433.77 145.5"/><polygon class="cls-2" points="433.77 133.49 424.31 135.63 424.31 136.84 433.77 134.69 433.77 133.49"/><polygon class="cls-2" points="433.77 131.08 424.31 133.23 424.31 134.44 433.77 132.29 433.77 131.08"/><polygon class="cls-2" points="433.77 128.68 424.31 130.82 424.31 132.03 433.77 129.89 433.77 128.68"/><polygon class="cls-2" points="433.77 135.89 424.31 138.03 424.31 139.24 433.77 137.09 433.77 135.89"/><polygon class="cls-4" points="407.65 148.88 407.65 114.09 396.73 115.11 396.73 148.88 407.65 148.88"/><polygon class="cls-2" points="406.56 125.94 397.82 126.74 397.82 127.97 406.56 127.16 406.56 125.94"/><polygon class="cls-2" points="406.56 130.81 397.82 131.62 397.82 132.84 406.56 132.03 406.56 130.81"/><polygon class="cls-2" points="406.56 128.37 397.82 129.18 397.82 130.41 406.56 129.6 406.56 128.37"/><polygon class="cls-2" points="406.56 123.5 397.82 124.31 397.82 125.53 406.56 124.72 406.56 123.5"/><polygon class="cls-2" points="406.56 116.19 397.82 116.99 397.82 118.22 406.56 117.41 406.56 116.19"/><polygon class="cls-2" points="406.56 118.62 397.82 119.43 397.82 120.66 406.56 119.85 406.56 118.62"/><polygon class="cls-2" points="406.56 121.06 397.82 121.87 397.82 123.09 406.56 122.28 406.56 121.06"/><polygon class="cls-2" points="406.56 148.88 406.56 147.87 397.82 148.68 397.82 148.88 406.56 148.88"/><polygon class="cls-2" points="406.56 140.56 397.82 141.37 397.82 142.59 406.56 141.78 406.56 140.56"/><polygon class="cls-2" points="406.56 143 397.82 143.81 397.82 145.03 406.56 144.22 406.56 143"/><polygon class="cls-2" points="406.56 133.25 397.82 134.06 397.82 135.28 406.56 134.47 406.56 133.25"/><polygon class="cls-2" points="406.56 145.44 397.82 146.25 397.82 147.47 406.56 146.66 406.56 145.44"/><polygon class="cls-2" points="406.56 138.12 397.82 138.93 397.82 140.16 406.56 139.35 406.56 138.12"/><polygon class="cls-2" points="406.56 135.69 397.82 136.49 397.82 137.72 406.56 136.91 406.56 135.69"/><polygon class="cls-3" points="402.87 115.55 397.34 119.41 364.95 115.79 364.95 53.28 408.33 53.28 402.87 115.55"/><polygon class="cls-4" points="408.26 53.28 397.34 54.29 397.34 119.41 408.26 118.4 408.26 53.28"/><path class="cls-2" d="M398.43,113.47v-1.23l8.73-.81v1.23Zm0-3.67,8.73-.81v1.23l-8.73.81Zm0-2.43,8.73-.81v1.22l-8.73.81Zm0-2.44,8.73-.81v1.22l-8.73.81Zm8.73-2-8.73.81v-1.23l8.73-.81Zm0-2.44-8.73.81v-1.23l8.73-.81Zm-8.73-2.85,8.73-.81V98l-8.73.81Zm0-2.44,8.73-.81v1.22l-8.73.81Zm0-2.44,8.73-.81v1.23l-8.73.81Zm0-2.44,8.73-.8v1.22l-8.73.81Zm0-2.43,8.73-.81v1.22l-8.73.81Zm0-2.44,8.73-.81v1.22l-8.73.81Zm0-2.44,8.73-.81v1.23l-8.73.81Zm0-2.44,8.73-.81V81l-8.73.81Zm0-2.43,8.73-.81v1.22l-8.73.81Zm0-2.44,8.73-.81v1.22l-8.73.81Zm0-2.44,8.73-.81v1.23l-8.73.8Zm0-2.44,8.73-.81v1.23l-8.73.81Zm0-2.43,8.73-.81v1.22l-8.73.81Zm0-2.44,8.73-.81v1.22l-8.73.81Zm0-2.44,8.73-.81v1.23l-8.73.81Zm0-2.44,8.73-.8v1.22l-8.73.81Zm0-2.43,8.73-.81V59l-8.73.81Zm0-2.44,8.73-.81v1.22l-8.73.81Z"/><polygon class="cls-4" points="442.97 51.63 422.65 52.81 422.65 117.01 442.97 115.83 442.97 51.63"/><path class="cls-2" d="M424.68,111.13v-1.2l16.25-1v1.2Zm0-3.61,16.25-1v1.21l-16.25,1Zm0-2.4,16.25-1v1.21l-16.25,1Zm0-2.4,16.25-1V103l-16.25.94Zm16.25-2.15-16.25,1v-1.21l16.25-.94Zm0-2.4-16.25,1V97.91l16.25-1Zm-16.25-2.66,16.25-1v1.21l-16.25.94Zm0-2.4,16.25-1v1.2l-16.25,1Zm0-2.41,16.25-1V91l-16.25,1Zm0-2.4,16.25-1v1.21l-16.25,1Zm0-2.4,16.25-1v1.2l-16.25.95Zm0-2.41,16.25-.94v1.2l-16.25,1Zm0-2.4,16.25-1v1.21l-16.25,1Zm0-2.4,16.25-1V79l-16.25.94Zm0-2.41,16.25-.94v1.2l-16.25.95Zm0-2.4,16.25-.95v1.21l-16.25,1Zm0-2.4,16.25-1v1.21l-16.25,1Zm0-2.4,16.25-1v1.21l-16.25.94Zm0-2.41,16.25-.94v1.2l-16.25.95Zm0-2.4,16.25-.95v1.21l-16.25,1Zm0-2.4,16.25-.95v1.21l-16.25.95Zm0-2.4,16.25-.95v1.2l-16.25,1Zm0-2.41,16.25-.94v1.2l-16.25,1Zm0-2.4,16.25-.95v1.21l-16.25.95Z"/><path class="cls-4" d="M412.27,27.7l33.8,3.19-.86,41.22L412.05,76s-4.11-5.14-7.35-9.26Z"/><polygon class="cls-3" points="389.53 73.77 389.62 29.75 412.44 27.59 412.05 76.01 389.53 73.77"/><rect class="cls-4" x="361.61" y="50" width="28.26" height="5.2"/><rect class="cls-2" x="352.63" y="43.47" width="37.98" height="7.46"/><rect class="cls-2" x="350.09" y="22.25" width="101.28" height="21.39"/><rect class="cls-3" x="285.74" y="23.42" width="49.95" height="125.45"/><rect class="cls-2" x="322.55" y="23.69" width="9.11" height="125.19"/><rect class="cls-4" x="331.66" y="23.69" width="8.94" height="125.19"/><rect class="cls-2" x="278.89" y="23.69" width="9.11" height="125.19"/><rect class="cls-4" x="288.01" y="23.69" width="8.94" height="125.19"/><rect class="cls-2" x="276.41" y="21.58" width="67.6" height="3.81"/><rect class="cls-3" x="450.77" y="6.27" width="32.39" height="66.19"/><rect class="cls-2" x="467.2" y="6.27" width="15.96" height="66.19"/><rect class="cls-3" x="471.1" y="70.38" width="3.42" height="13.9"/><rect class="cls-3" x="197.79" y="23.13" width="29.67" height="102.95"/><rect class="cls-2" x="221.52" y="23.11" width="26.7" height="92.43"/><rect class="cls-4" x="201.6" y="125.53" width="22.89" height="4.72"/><rect class="cls-4" x="243.56" y="23.11" width="5.51" height="92.7"/><rect class="cls-3" x="173.58" y="2.79" width="152.13" height="13.93"/><rect class="cls-3" x="384.22" width="113.83" height="11.15"/><rect class="cls-3" x="352.3" y="5.57" width="7.45" height="5.57"/><rect class="cls-3" x="534.22" y="3.48" width="21.28" height="22.29"/><rect class="cls-4" x="838.47" y="6.27" width="47.81" height="131.37"/><rect class="cls-3" x="842.63" y="126.75" width="38.46" height="6.13"/><rect class="cls-3" x="103.18" y="5.15" width="52.2" height="81.48"/><rect class="cls-4" x="108.49" y="76.4" width="42.83" height="20.06"/><path class="cls-3" d="M111.31,78.24h3.12V93.6h-3.12Zm5.67,0h3.12V93.6H117Zm5.67,0h3.12V93.6h-3.12Zm5.66,0h3.13V93.6h-3.13Zm5.67,0h3.13V93.6H134Zm5.67,0h3.13V93.6h-3.13Zm5.67,15.36V78.24h3.13V93.6Z"/><rect class="cls-4" x="148.82" y="4.95" width="2.19" height="69.81"/><rect class="cls-4" x="109.14" y="4.95" width="2.19" height="69.81"/><polygon class="cls-2" points="957.55 135.08 957.55 140.86 933.35 138.92 933.35 133.91 957.55 135.08"/><polygon class="cls-4" points="957.55 135.08 957.55 140.86 975.54 138.92 975.54 133.91 957.55 135.08"/><polygon class="cls-3" points="958.87 33.73 924.07 30.72 924.07 135.04 958.87 138.06 958.87 33.73"/><polygon class="cls-2" points="958.38 133.09 924.91 130.19 924.91 131.65 958.38 134.55 958.38 133.09"/><polygon class="cls-2" points="957.26 131.86 927.03 99.77 926.03 100.31 956.26 132.4 957.26 131.86"/><polygon class="cls-2" points="926.03 129.16 956.26 102.3 957.26 103.02 927.03 129.88 926.03 129.16"/><polygon class="cls-2" points="957.26 99.67 927.03 67.58 926.03 68.13 956.26 100.22 957.26 99.67"/><polygon class="cls-2" points="926.03 96.97 956.26 70.11 957.26 70.83 927.03 97.69 926.03 96.97"/><polygon class="cls-2" points="958.71 35.27 925.24 32.37 925.24 33.84 958.71 36.73 958.71 35.27"/><polygon class="cls-2" points="957.26 66.02 927.03 33.93 926.03 34.48 956.26 66.56 957.26 66.02"/><polygon class="cls-2" points="926.03 63.32 956.26 36.46 957.26 37.18 927.03 64.03 926.03 63.32"/><polygon class="cls-4" points="958.87 33.73 985.13 30.72 985.13 135.04 958.87 138.06 958.87 33.73"/><polygon class="cls-2" points="959.24 133.09 984.49 130.19 984.49 131.65 959.24 134.55 959.24 133.09"/><polygon class="cls-2" points="960.09 131.86 982.89 99.77 983.65 100.31 960.84 132.4 960.09 131.86"/><polygon class="cls-2" points="983.65 129.16 960.85 102.3 960.09 103.02 982.89 129.88 983.65 129.16"/><polygon class="cls-2" points="960.09 99.67 982.89 67.58 983.65 68.13 960.84 100.22 960.09 99.67"/><polygon class="cls-2" points="983.65 96.97 960.85 70.11 960.09 70.83 982.89 97.69 983.65 96.97"/><polygon class="cls-2" points="958.99 33.81 984.24 30.91 984.24 32.37 958.99 35.27 958.99 33.81"/><polygon class="cls-2" points="960.09 64.56 982.89 32.47 983.65 33.01 960.84 65.1 960.09 64.56"/><polygon class="cls-2" points="983.65 61.85 960.85 35 960.09 35.72 982.89 62.57 983.65 61.85"/><polygon class="cls-3" points="659.95 54.91 659.95 10.5 637.76 14.46 637.76 76.88 659.95 54.91"/><polygon class="cls-4" points="661.01 54.91 661.01 10.5 683.2 14.46 683.2 76.88 661.01 54.91"/><polygon class="cls-4" points="683.6 76.39 660.8 51.87 638 76.39 660.8 100.91 683.6 76.39"/><polygon class="cls-3" points="679.96 76.39 660.8 55.68 641.64 76.39 660.8 97.09 679.96 76.39"/><rect class="cls-2" x="651.94" y="80.82" width="5.29" height="1.65"/><rect class="cls-2" x="649.92" y="73.39" width="21.68" height="1.49"/><rect class="cls-4" x="663.79" y="79.17" width="4.29" height="1.32"/><rect class="cls-4" x="659.25" y="9.67" width="2.77" height="43.25"/><rect class="cls-2" x="785.44" y="128.09" width="37.66" height="3.03"/><rect class="cls-4" x="805.08" y="18.26" width="20.83" height="111.19"/><rect class="cls-3" x="782.09" y="18.26" width="22.98" height="111.19"/><rect class="cls-5" x="806.21" y="125.36" width="15.54" height="1.97"/><rect class="cls-5" x="806.21" y="121.49" width="15.54" height="1.97"/><rect class="cls-5" x="806.21" y="117.62" width="15.54" height="1.97"/><rect class="cls-5" x="806.21" y="113.76" width="15.54" height="1.97"/><rect class="cls-5" x="806.21" y="109.89" width="15.54" height="1.97"/><rect class="cls-5" x="806.21" y="106.02" width="15.54" height="1.97"/><rect class="cls-5" x="806.21" y="102.15" width="15.54" height="1.97"/><rect class="cls-5" x="806.21" y="98.28" width="15.54" height="1.97"/><rect class="cls-5" x="806.21" y="94.42" width="15.54" height="1.97"/><rect class="cls-5" x="806.21" y="90.55" width="15.54" height="1.97"/><rect class="cls-5" x="806.21" y="86.68" width="15.54" height="1.97"/><rect class="cls-5" x="806.21" y="82.81" width="15.54" height="1.97"/><rect class="cls-5" x="806.21" y="78.94" width="15.54" height="1.97"/><rect class="cls-5" x="806.21" y="75.07" width="15.54" height="1.97"/><rect class="cls-5" x="806.21" y="71.21" width="15.54" height="1.97"/><rect class="cls-5" x="806.21" y="67.34" width="15.54" height="1.97"/><rect class="cls-5" x="806.21" y="63.47" width="15.54" height="1.97"/><rect class="cls-5" x="806.21" y="59.6" width="15.54" height="1.97"/><rect class="cls-5" x="806.21" y="55.73" width="15.54" height="1.97"/><rect class="cls-5" x="806.21" y="51.86" width="15.54" height="1.97"/><rect class="cls-5" x="806.21" y="48" width="15.54" height="1.97"/><rect class="cls-5" x="806.21" y="44.13" width="15.54" height="1.97"/><rect class="cls-5" x="806.21" y="40.26" width="15.54" height="1.97"/><rect class="cls-5" x="806.21" y="36.39" width="15.54" height="1.97"/><rect class="cls-5" x="806.21" y="32.52" width="15.54" height="1.97"/><rect class="cls-5" x="806.21" y="28.65" width="15.54" height="1.97"/><rect class="cls-5" x="806.21" y="24.78" width="15.54" height="1.97"/><path class="cls-5" d="M783,125.36h1.72v2H783Zm0-3.87h1.72v2H783Zm0-3.87h1.72v2H783Zm0-3.86h1.72v2H783Zm0-3.87h1.72v2H783Zm0-3.87h1.72v2H783Zm0-3.87h1.72v2H783Zm0-3.87h1.72v2H783Zm0-3.86h1.72v2H783Zm0-3.87h1.72v2H783Zm0-3.87h1.72v2H783Zm0-3.87h1.72v2H783Zm0-3.87h1.72v2H783Zm0-3.87h1.72v2H783Zm0-3.86h1.72v2H783Zm0-3.87h1.72v2H783Zm0-3.87h1.72v2H783Zm0-3.87h1.72v2H783Zm0-3.87h1.72v2H783Zm0-3.87h1.72v2H783ZM783,48h1.72v2H783Zm0-3.87h1.72v2H783Zm0-3.87h1.72v2H783Zm0-3.87h1.72v2H783Zm0-3.87h1.72v2H783Zm0-3.87h1.72v2H783Zm0-3.87h1.72v2H783Zm3.12,100.58h1.72v2h-1.72Zm0-3.87h1.72v2h-1.72Zm0-3.87h1.72v2h-1.72Zm0-3.86h1.72v2h-1.72Zm0-3.87h1.72v2h-1.72Zm0-3.87h1.72v2h-1.72Zm0-3.87h1.72v2h-1.72Zm0-3.87h1.72v2h-1.72Zm0-3.86h1.72v2h-1.72Zm0-3.87h1.72v2h-1.72Zm0-3.87h1.72v2h-1.72Zm0-3.87h1.72v2h-1.72Zm0-3.87h1.72v2h-1.72Zm0-3.87h1.72v2h-1.72Zm0-3.86h1.72v2h-1.72Zm0-3.87h1.72v2h-1.72Zm0-3.87h1.72v2h-1.72Zm0-3.87h1.72v2h-1.72Zm0-3.87h1.72v2h-1.72Zm0-3.87h1.72v2h-1.72Zm0-3.86h1.72v2h-1.72Zm0-3.87h1.72v2h-1.72Zm0-3.87h1.72v2h-1.72Zm0-3.87h1.72v2h-1.72Zm0-3.87h1.72v2h-1.72Zm0-3.87h1.72v2h-1.72Zm0-3.87h1.72v2h-1.72Zm3.12,100.58h1.72v2h-1.72Zm0-3.87h1.72v2h-1.72Zm0-3.87h1.72v2h-1.72Zm0-3.86h1.72v2h-1.72Zm0-3.87h1.72v2h-1.72Zm0-3.87h1.72v2h-1.72Zm0-3.87h1.72v2h-1.72Zm0-3.87h1.72v2h-1.72Zm0-3.86h1.72v2h-1.72Zm0-3.87h1.72v2h-1.72Zm0-3.87h1.72v2h-1.72Zm0-3.87h1.72v2h-1.72Zm0-3.87h1.72v2h-1.72Zm0-3.87h1.72v2h-1.72Zm0-3.86h1.72v2h-1.72Zm0-3.87h1.72v2h-1.72Zm0-3.87h1.72v2h-1.72Zm0-3.87h1.72v2h-1.72Zm0-3.87h1.72v2h-1.72Zm0-3.87h1.72v2h-1.72Zm0-3.86h1.72v2h-1.72Zm0-3.87h1.72v2h-1.72Zm0-3.87h1.72v2h-1.72Zm0-3.87h1.72v2h-1.72Zm0-3.87h1.72v2h-1.72Zm0-3.87h1.72v2h-1.72Zm0-3.87h1.72v2h-1.72Zm3.11,100.58h1.73v2h-1.73Zm0-3.87h1.73v2h-1.73Zm0-3.87h1.73v2h-1.73Zm0-3.86h1.73v2h-1.73Zm0-3.87h1.73v2h-1.73Zm0-3.87h1.73v2h-1.73Zm0-3.87h1.73v2h-1.73Zm0-3.87h1.73v2h-1.73Zm0-3.86h1.73v2h-1.73Zm0-3.87h1.73v2h-1.73Zm0-3.87h1.73v2h-1.73Zm0-3.87h1.73v2h-1.73Zm0-3.87h1.73v2h-1.73Zm0-3.87h1.73v2h-1.73Zm0-3.86h1.73v2h-1.73Zm0-3.87h1.73v2h-1.73Zm0-3.87h1.73v2h-1.73Zm0-3.87h1.73v2h-1.73Zm0-3.87h1.73v2h-1.73Zm0-3.87h1.73v2h-1.73Zm0-3.86h1.73v2h-1.73Zm0-3.87h1.73v2h-1.73Zm0-3.87h1.73v2h-1.73Zm0-3.87h1.73v2h-1.73Zm0-3.87h1.73v2h-1.73Zm0-3.87h1.73v2h-1.73Zm0-3.87h1.73v2h-1.73Zm3.12,100.58h1.73v2h-1.73Zm0-3.87h1.73v2h-1.73Zm0-3.87h1.73v2h-1.73Zm0-3.86h1.73v2h-1.73Zm0-3.87h1.73v2h-1.73Zm0-3.87h1.73v2h-1.73Zm0-3.87h1.73v2h-1.73Zm0-3.87h1.73v2h-1.73Zm0-3.86h1.73v2h-1.73Zm0-3.87h1.73v2h-1.73Zm0-3.87h1.73v2h-1.73Zm0-3.87h1.73v2h-1.73Zm0-3.87h1.73v2h-1.73Zm0-3.87h1.73v2h-1.73Zm0-3.86h1.73v2h-1.73Zm0-3.87h1.73v2h-1.73Zm0-3.87h1.73v2h-1.73Zm0-3.87h1.73v2h-1.73Zm0-3.87h1.73v2h-1.73Zm0-3.87h1.73v2h-1.73Zm0-3.86h1.73v2h-1.73Zm0-3.87h1.73v2h-1.73Zm0-3.87h1.73v2h-1.73Zm0-3.87h1.73v2h-1.73Zm0-3.87h1.73v2h-1.73Zm0-3.87h1.73v2h-1.73Zm0-3.87h1.73v2h-1.73Zm3.12,100.58h1.73v2h-1.73Zm0-3.87h1.73v2h-1.73Zm0-3.87h1.73v2h-1.73Zm0-3.86h1.73v2h-1.73Zm0-3.87h1.73v2h-1.73Zm0-3.87h1.73v2h-1.73Zm0-3.87h1.73v2h-1.73Zm0-3.87h1.73v2h-1.73Zm0-3.86h1.73v2h-1.73Zm0-3.87h1.73v2h-1.73Zm0-3.87h1.73v2h-1.73Zm0-3.87h1.73v2h-1.73Zm0-3.87h1.73v2h-1.73Zm0-3.87h1.73v2h-1.73Zm0-3.86h1.73v2h-1.73Zm0-3.87h1.73v2h-1.73Zm0-3.87h1.73v2h-1.73Zm0-3.87h1.73v2h-1.73Zm0-3.87h1.73v2h-1.73Zm0-3.87h1.73v2h-1.73Zm0-3.86h1.73v2h-1.73Zm0-3.87h1.73v2h-1.73Zm0-3.87h1.73v2h-1.73Zm0-3.87h1.73v2h-1.73Zm0-3.87h1.73v2h-1.73Zm0-3.87h1.73v2h-1.73Zm0-3.87h1.73v2h-1.73Zm3.12,102.55v-2h1.73v2Zm0-5.84h1.73v2h-1.73Zm0-3.87h1.73v2h-1.73Zm0-3.86h1.73v2h-1.73Zm0-3.87h1.73v2h-1.73Zm0-3.87h1.73v2h-1.73Zm0-3.87h1.73v2h-1.73Zm0-3.87h1.73v2h-1.73Zm0-3.86h1.73v2h-1.73Zm0-3.87h1.73v2h-1.73Zm0-3.87h1.73v2h-1.73Zm0-3.87h1.73v2h-1.73Zm0-3.87h1.73v2h-1.73Zm0-3.87h1.73v2h-1.73Zm0-3.86h1.73v2h-1.73Zm0-3.87h1.73v2h-1.73Zm0-3.87h1.73v2h-1.73Zm0-3.87h1.73v2h-1.73Zm0-3.87h1.73v2h-1.73Zm0-3.87h1.73v2h-1.73Zm0-3.86h1.73v2h-1.73Zm0-3.87h1.73v2h-1.73Zm0-3.87h1.73v2h-1.73Zm0-3.87h1.73v2h-1.73Zm0-3.87h1.73v2h-1.73Zm0-3.87h1.73v2h-1.73Zm0-3.87h1.73v2h-1.73Z"/><rect class="cls-4" x="724.64" y="11.96" width="49.57" height="91.18"/><rect class="cls-4" x="722.87" y="105.32" width="42.93" height="7.27"/><polygon class="cls-3" points="727.36 11.96 727.36 98.05 728.57 98.05 728.57 11.96 730.85 11.96 730.85 98.05 732.95 98.05 732.95 11.96 735.23 11.96 735.23 98.05 737.33 98.05 737.33 11.96 739.61 11.96 739.61 98.05 741.72 98.05 741.72 11.96 743.99 11.96 743.99 98.05 746.1 98.05 746.1 11.96 748.37 11.96 748.37 98.05 750.48 98.05 750.48 11.96 752.76 11.96 752.76 98.05 754.87 98.05 754.87 11.96 757.14 11.96 757.14 98.05 759.25 98.05 759.25 11.96 761.52 11.96 761.52 98.05 763.63 98.05 763.63 11.96 765.9 11.96 765.9 98.05 768.01 98.05 768.01 11.96 770.28 11.96 770.28 98.05 770.94 98.05 770.94 108.11 716.56 108.11 716.56 11.96 727.36 11.96"/><polygon class="cls-3" points="591.09 148.88 611.49 148.88 611.49 128.08 616.02 128.08 616.02 89.86 625.09 89.86 625.09 13.43 583.15 13.43 583.15 128.08 591.09 128.08 591.09 148.88"/><rect class="cls-4" x="606.61" y="127.53" width="5.07" height="21.35"/><rect class="cls-4" x="615.55" y="89.67" width="9.91" height="38.21"/><rect class="cls-4" x="621.35" y="11.81" width="9.67" height="78.57"/><rect class="cls-3" x="776.57" y="7.44" width="13.15" height="37.94"/><path class="cls-4" d="M832.61,8.28,785.15,2.55V43.7l47.46-5Z"/><path class="cls-4" d="M832.61,38.71Q810.55,41,788.48,43.36v2.76l44.13-5.33Z"/><path class="cls-2" d="M792.64,5.76l-2.91-.32v36l2.91-.28Z"/><rect class="cls-4" x="883.55" y="7.44" width="13.15" height="37.94"/><path class="cls-3" d="M840.66,8.28l47.47-5.73V43.7l-47.47-5Z"/><path class="cls-3" d="M840.66,38.71Q862.73,41,884.8,43.36v2.76l-44.14-5.33Z"/><path class="cls-2" d="M880.64,5.76l2.91-.32v36l-2.91-.28Z"/><path class="cls-4" d="M843.43,43.51a1.93,1.93,0,0,0-2.08-1.73H831.12a1.92,1.92,0,0,0-2.06,1.73h0a1.92,1.92,0,0,0,2.06,1.74h10.23a1.93,1.93,0,0,0,2.08-1.74Z"/><rect class="cls-3" x="829.18" y="5.72" width="14.13" height="37.8"/><rect class="cls-2" x="833.59" y="7.3" width="6.09" height="34.89"/><rect class="cls-2" x="775.15" y="2.63" width="125.28" height="5.64"/><path class="cls-4" d="M827.36,13q-16.15.81-32.3,1.74V14q16.14-.92,32.3-1.7Z"/><path class="cls-4" d="M827.36,16.75q-16.17.93-32.3,2v-.78q16.14-1,32.3-1.93Z"/><path class="cls-4" d="M827.36,14.87q-16.15.87-32.3,1.86V16q16.14-1,32.3-1.81Z"/><path class="cls-4" d="M827.36,20.49q-16.17,1.05-32.3,2.21v-.79q16.14-1.14,32.3-2.16Z"/><path class="cls-4" d="M827.36,18.62q-16.17,1-32.3,2.09v-.79q16.14-1.08,32.3-2Z"/><path class="cls-4" d="M827.36,11.13q-16.15.75-32.3,1.62V12q16.14-.86,32.3-1.58Z"/><path class="cls-4" d="M827.36,9.26q-16.15.69-32.3,1.51V10q16.14-.8,32.3-1.46Z"/><path class="cls-4" d="M827.36,35.47Q811.19,37,795.06,38.6v-.78q16.13-1.6,32.3-3.09Z"/><path class="cls-4" d="M827.36,31.72q-16.17,1.39-32.3,2.91v-.79q16.14-1.48,32.3-2.85Z"/><path class="cls-4" d="M827.36,33.6q-16.17,1.45-32.3,3v-.78q16.14-1.55,32.3-3Z"/><path class="cls-4" d="M827.36,39.22q-16.17,1.62-32.3,3.36V41.8q16.13-1.72,32.3-3.32Z"/><path class="cls-4" d="M827.36,22.37q-16.17,1.1-32.3,2.32V23.9q16.14-1.2,32.3-2.28Z"/><path class="cls-4" d="M827.36,37.34q-16.17,1.57-32.3,3.25v-.78q16.13-1.66,32.3-3.2Z"/><path class="cls-4" d="M827.36,29.85q-16.17,1.33-32.3,2.79v-.79q16.14-1.43,32.3-2.73Z"/><path class="cls-4" d="M827.36,24.24q-16.17,1.16-32.3,2.43v-.78q16.14-1.26,32.3-2.39Z"/><path class="cls-4" d="M827.36,26.11q-16.17,1.22-32.3,2.55v-.78q16.14-1.32,32.3-2.51Z"/><path class="cls-4" d="M827.36,28q-16.17,1.27-32.3,2.67v-.78q16.14-1.38,32.3-2.63Z"/><path class="cls-4" d="M845.43,13q16.17.81,32.3,1.74V14q-16.14-.92-32.3-1.7Z"/><path class="cls-4" d="M845.43,16.75q16.17.93,32.3,2v-.78q-16.14-1-32.3-1.93Z"/><path class="cls-4" d="M845.43,14.87q16.17.87,32.3,1.86V16q-16.14-1-32.3-1.81Z"/><path class="cls-4" d="M845.43,20.49q16.17,1.05,32.3,2.21v-.79q-16.12-1.14-32.3-2.16Z"/><path class="cls-4" d="M845.43,18.62q16.17,1,32.3,2.09v-.79q-16.14-1.08-32.3-2Z"/><path class="cls-4" d="M845.43,11.13q16.17.75,32.3,1.62V12q-16.14-.86-32.3-1.58Z"/><path class="cls-4" d="M845.43,9.26q16.16.69,32.3,1.51V10q-16.14-.8-32.3-1.46Z"/><path class="cls-4" d="M845.43,35.47Q861.6,37,877.73,38.6v-.78q-16.12-1.6-32.3-3.09Z"/><path class="cls-4" d="M845.43,31.72q16.17,1.39,32.3,2.91v-.79q-16.12-1.48-32.3-2.85Z"/><path class="cls-4" d="M845.43,33.6q16.17,1.45,32.3,3v-.78q-16.12-1.55-32.3-3Z"/><path class="cls-4" d="M845.43,39.22q16.17,1.62,32.3,3.36V41.8q-16.12-1.72-32.3-3.32Z"/><path class="cls-4" d="M845.43,22.37q16.17,1.1,32.3,2.32V23.9q-16.12-1.2-32.3-2.28Z"/><path class="cls-4" d="M845.43,37.34q16.17,1.57,32.3,3.25v-.78q-16.12-1.66-32.3-3.2Z"/><path class="cls-4" d="M845.43,29.85q16.17,1.33,32.3,2.79v-.79q-16.12-1.43-32.3-2.73Z"/><path class="cls-4" d="M845.43,24.24q16.17,1.16,32.3,2.43v-.78q-16.12-1.26-32.3-2.39Z"/><path class="cls-4" d="M845.43,26.11q16.17,1.22,32.3,2.55v-.78q-16.12-1.32-32.3-2.51Z"/><path class="cls-4" d="M845.43,28q16.17,1.27,32.3,2.67v-.78q-16.12-1.38-32.3-2.63Z"/><rect class="cls-4" x="778.38" y="45.38" width="8.98" height="1.06"/><polygon class="cls-3" points="985.58 49.17 977.41 53.42 969.68 50.23 969.68 13.85 1005.34 13.85 985.58 49.17"/><rect class="cls-4" x="977.41" y="14.06" width="31.36" height="39.36"/><rect class="cls-3" x="980.85" y="13.85" width="22.77" height="30.85"/><rect class="cls-4" x="911.03" y="31.88" width="52.09" height="34.76"/><polygon class="cls-3" points="986.31 31.48 970.89 31.48 970.89 27.89 962.94 27.89 962.94 35.51 957.11 35.51 957.11 36.23 915.8 36.23 915.8 38.35 957.11 38.35 957.11 41.01 915.8 41.01 915.8 43.14 957.11 43.14 957.11 45.8 915.8 45.8 915.8 47.93 957.11 47.93 957.11 50.59 915.8 50.59 915.8 52.71 957.11 52.71 957.11 55.38 915.8 55.38 915.8 57.5 957.11 57.5 957.11 60.16 915.8 60.16 915.8 62.09 957.11 62.09 957.11 72.13 928.47 72.13 928.47 75.68 909.22 75.68 909.22 72.13 902.37 72.13 902.37 35.51 892.24 35.51 892.24 4.19 962.94 4.19 962.94 13.51 994.79 13.51 994.79 27.89 986.31 27.89 986.31 31.48"/><rect class="cls-4" x="928.45" y="71.94" width="13.15" height="3.93"/><rect class="cls-4" x="962.79" y="4.22" width="6.58" height="31.59"/><rect class="cls-4" x="984.82" y="27.8" width="2.96" height="3.78"/><rect class="cls-4" x="992.21" y="13.59" width="4.93" height="14.96"/><rect class="cls-4" x="938.64" y="4.22" width="5.09" height="24.18"/><polygon class="cls-3" points="1024.08 61.13 1021 61.13 1021 74.61 1007.12 74.61 1007.12 61.13 1001.73 61.13 1001.73 12.61 1030.25 12.61 1030.25 44.96 1024.08 44.96 1024.08 61.13"/><rect class="cls-4" x="1017.68" y="60.9" width="3.45" height="13.91"/><rect class="cls-4" x="1023.76" y="44.88" width="6.74" height="16.17"/><rect class="cls-4" x="1027.71" y="11.93" width="6.57" height="33.25"/><rect class="cls-4" x="974.62" y="3.31" width="12.16" height="12.7"/><rect class="cls-2" x="952.77" y="3.01" width="20.87" height="9.22"/><rect class="cls-2" x="882.69" y="2.86" width="49.21" height="6.8"/><polygon class="cls-3" points="1068.66 2.67 1066.14 13.2 1026.41 13.2 1026.41 2.67 1068.66 2.67"/><polygon class="cls-4" points="1080.27 2.67 1080.27 12.53 1069.16 13.2 1066.11 13.2 1066.11 2.67 1080.27 2.67"/><rect class="cls-4" x="1060.59" y="2.67" width="2.76" height="10.53"/><rect class="cls-4" x="1054.41" y="2.67" width="2.76" height="10.53"/><rect class="cls-4" x="34.72" y="1.98" width="226.38" height="9.55"/><rect class="cls-4" y="1.71" width="34.32" height="5.3"/><rect class="cls-4" x="155.81" y="11.79" width="13.77" height="32.36"/><rect class="cls-4" x="88.58" y="8.34" width="8.5" height="25.46"/><rect class="cls-4" x="47.68" y="16.57" width="7.29" height="23.34"/><rect class="cls-4" x="25.41" y="9.94" width="4.86" height="7.43"/><rect class="cls-4" x="41.2" y="8.08" width="13.36" height="3.45"/><rect class="cls-4" x="84.13" y="1.98" width="26.73" height="9.81"/><rect class="cls-4" x="185.78" y="30.09" width="3.64" height="50.39"/><rect class="cls-4" x="482.62" y="10.73" width="6.88" height="61.27"/><rect class="cls-4" x="497.61" y="0.92" width="21.06" height="10.61"/><rect class="cls-4" x="555.11" y="3.04" width="6.48" height="22.01"/><rect class="cls-4" x="549.44" y="38.05" width="5.26" height="21.48"/><rect class="cls-4" x="575.36" y="23.46" width="10.93" height="39.78"/><rect class="cls-4" x="567.67" y="40.17" width="2.43" height="7.43"/><rect class="cls-4" x="583.46" y="8.87" width="50.62" height="7.16"/><rect class="cls-4" x="576.98" y="2.51" width="18.63" height="9.55"/><rect class="cls-4" x="699.69" y="38.84" width="3.64" height="13.79"/><rect class="cls-4" x="709" y="15.77" width="8.5" height="38.46"/><rect class="cls-4" x="681.87" y="4.1" width="24.7" height="12.73"/><rect class="cls-4" x="826.04" y="44.94" width="4.05" height="15.65"/><rect class="cls-4" x="1061.33" y="13.91" width="5.67" height="27.85"/><rect class="cls-4" x="1101.02" y="16.83" width="2.43" height="25.2"/><rect class="cls-4" x="1080.77" y="3.57" width="29.97" height="6.36"/><rect class="cls-4" x="1118.43" y="4.37" width="10.6" height="7.43"/><rect class="cls-4" x="873.43" y="2.24" width="19.03" height="7.43"/><rect class="cls-4" x="894.89" y="2.51" width="76.13" height="1.86"/><rect class="cls-4" x="994.51" y="2.51" width="94.76" height="2.39"/><rect class="cls-2" x="720.75" y="1.45" width="22.27" height="7.43"/></g></g></g></svg>