<svg xmlns="http://www.w3.org/2000/svg" xmlns:xlink="http://www.w3.org/1999/xlink" viewBox="0 0 525.73 179.75"><defs><style>.cls-1{isolation:isolate;}.cls-2{fill:url(#linear-gradient);}.cls-3{fill:url(#linear-gradient-2);}.cls-4,.cls-6{opacity:0.2;}.cls-17,.cls-26,.cls-28,.cls-4,.cls-5,.cls-6,.cls-7{mix-blend-mode:multiply;}.cls-17,.cls-26,.cls-5{opacity:0.1;}.cls-7{fill:#b9bacb;}.cls-8{fill:#b7c4d6;}.cls-9{fill:url(#linear-gradient-3);}.cls-10{fill:#2e383b;}.cls-11{fill:#151f22;}.cls-12{fill:#9aa4b2;}.cls-13{fill:#000609;}.cls-14{fill:url(#linear-gradient-4);}.cls-15{fill:#fafcff;}.cls-16{fill:#747e8c;}.cls-17{fill:url(#_2);}.cls-18{fill:url(#linear-gradient-5);}.cls-19{fill:url(#linear-gradient-6);}.cls-20{fill:url(#linear-gradient-7);}.cls-21{fill:url(#linear-gradient-8);}.cls-22{fill:url(#linear-gradient-9);}.cls-23{fill:#212b2e;}.cls-24{fill:url(#linear-gradient-10);}.cls-25{fill:#c1c7cf;}.cls-27{fill:#fff;}.cls-28{opacity:0.3;}.cls-29{fill:#466579;}</style><linearGradient id="linear-gradient" x1="451.91" y1="39.33" x2="508.05" y2="87.78" gradientUnits="userSpaceOnUse"><stop offset="0.07" stop-color="#fafcff"/><stop offset="0.19" stop-color="#fff"/><stop offset="1" stop-color="#bbc1c9"/></linearGradient><linearGradient id="linear-gradient-2" x1="255.74" y1="97.46" x2="255.74" y2="157.59" gradientUnits="userSpaceOnUse"><stop offset="0.13" stop-color="#fafcff"/><stop offset="0.3" stop-color="#f5f8fc"/><stop offset="0.48" stop-color="#e8edf3"/><stop offset="0.67" stop-color="#d2dae4"/><stop offset="0.87" stop-color="#b4c0d0"/><stop offset="1" stop-color="#9babbf"/></linearGradient><linearGradient id="linear-gradient-3" x1="43.88" y1="168.52" x2="46.55" y2="152.93" gradientUnits="userSpaceOnUse"><stop offset="0.13" stop-color="#f9fcff"/><stop offset="0.26" stop-color="#f4f8fb"/><stop offset="0.41" stop-color="#e7ebf0"/><stop offset="0.57" stop-color="#d1d7dd"/><stop offset="0.73" stop-color="#b2bac3"/><stop offset="0.89" stop-color="#8b95a2"/><stop offset="1" stop-color="#6b7787"/></linearGradient><linearGradient id="linear-gradient-4" x1="172.65" y1="132.73" x2="172.65" y2="156.56" gradientUnits="userSpaceOnUse"><stop offset="0.1" stop-color="#fafcff"/><stop offset="0.23" stop-color="#d6dee9"/><stop offset="0.36" stop-color="#b7c4d6"/><stop offset="1" stop-color="#747e8c"/></linearGradient><linearGradient id="_2" x1="234.67" y1="149.48" x2="230.53" y2="131.51" gradientUnits="userSpaceOnUse"><stop offset="0" stop-color="#fff"/><stop offset="1"/></linearGradient><linearGradient id="linear-gradient-5" x1="190.5" y1="136.17" x2="187.68" y2="164.25" gradientUnits="userSpaceOnUse"><stop offset="0.02" stop-color="#a8afb8"/><stop offset="0.1" stop-color="#cacfd6"/><stop offset="0.17" stop-color="#e4e8ed"/><stop offset="0.24" stop-color="#f4f7fa"/><stop offset="0.3" stop-color="#f9fcff"/><stop offset="0.37" stop-color="#f6f9ff"/><stop offset="0.84" stop-color="#6b7787"/></linearGradient><linearGradient id="linear-gradient-6" x1="226.59" y1="144.21" x2="223.2" y2="165.94" gradientUnits="userSpaceOnUse"><stop offset="0.02" stop-color="#8e959e"/><stop offset="0.06" stop-color="#a6acb4"/><stop offset="0.13" stop-color="#caced5"/><stop offset="0.19" stop-color="#e4e7ec"/><stop offset="0.25" stop-color="#f4f6fa"/><stop offset="0.3" stop-color="#f9fbff"/><stop offset="0.31" stop-color="#f3f5f9"/><stop offset="0.33" stop-color="#e1e4e8"/><stop offset="0.36" stop-color="#c5c8cd"/><stop offset="0.37" stop-color="#b6b9be"/><stop offset="0.95" stop-color="#515d6d"/></linearGradient><linearGradient id="linear-gradient-7" x1="239.61" y1="150.55" x2="238.58" y2="160.94" gradientUnits="userSpaceOnUse"><stop offset="0.02" stop-color="#596166"/><stop offset="0.04" stop-color="#676f74"/><stop offset="0.12" stop-color="#889398"/><stop offset="0.19" stop-color="#a0acb2"/><stop offset="0.25" stop-color="#afbcc2"/><stop offset="0.3" stop-color="#b4c1c7"/><stop offset="0.37" stop-color="#aebbc1"/><stop offset="0.47" stop-color="#9daaaf"/><stop offset="0.59" stop-color="#828d93"/><stop offset="0.71" stop-color="#5c666b"/><stop offset="0.84" stop-color="#30383d"/></linearGradient><linearGradient id="linear-gradient-8" x1="178.72" y1="135.23" x2="175.84" y2="163.59" gradientUnits="userSpaceOnUse"><stop offset="0.02" stop-color="#b5bcc5"/><stop offset="0.08" stop-color="#cbd1d8"/><stop offset="0.16" stop-color="#e5e8ed"/><stop offset="0.24" stop-color="#f5f7fa"/><stop offset="0.3" stop-color="#fafcff"/><stop offset="0.37" stop-color="#f6f9ff"/><stop offset="0.84" stop-color="#788494"/></linearGradient><linearGradient id="linear-gradient-9" x1="170.6" y1="136.99" x2="168.34" y2="161.19" xlink:href="#linear-gradient-7"/><linearGradient id="linear-gradient-10" x1="260.68" y1="153.58" x2="257.26" y2="148.33" gradientUnits="userSpaceOnUse"><stop offset="0" stop-color="#b7c4d6"/><stop offset="1" stop-color="#747e8c"/></linearGradient></defs><g class="cls-1"><g id="Layer_2" data-name="Layer 2"><g id="_2-2" data-name="2"><path class="cls-2" d="M440.32,98.1c8.24,1,16.4,2.17,24,3.44l-3.74-4.41.31-1,4.2,3.69L488,104,525.73.06H505c-3.84,0-6.7,3.19-7.47,4.29s-76,77.4-82.78,83.17c-4.91,4.15-12.5,7.23-16.35,8.62C411.88,96.16,427.16,96.55,440.32,98.1Z"/><path class="cls-3" d="M445.19,120.14c-6.31.31-10.52-.78-10.91-1.33s5.53-2.49,9.5-2.49,52.53-1.4,60.56-1.48c2.53,0,4.82.06,6.76.2-1.2-2.25-4.63-5-11.42-6.56A600.82,600.82,0,0,0,440.32,98.1c-25.5-3-59-1.68-71.62-1.68s-226.91,2.93-243,2.93-58.45,1.19-70.58,3.27S22.23,110.2,12.61,122C11.06,122.67.54,127.27,0,133.14c-.56,6.34,10.8,10.94,17.63,13.86s29.26,8.57,47.58,10.31,50,.91,66.25.91c4,0,17.64-.25,36.26-.62.32-6,1.66-19.51,1.66-19.51s0-.67.48-.83a37.07,37.07,0,0,1,15.32-1.69c8.76.84,25.26,5.48,25.26,5.48l-.11,1.41c3.18.87,24.09,6.65,31.05,8.82l-.41,4.77,12.23-.26,1.21-3.41,10.38-5.58c.82,1.31,3.43,5.65,5.22,8.63,36.07-.76,66.38-1.39,71.78-1.39,13.93,0,39.15-2.93,59.42-7.18s88.83-20.62,94.47-22.08c5.37-1.39,14.62-5,15.77-7.31C508.42,117.59,451.33,119.83,445.19,120.14Z"/><g class="cls-4"><polygon points="475.33 101.72 475.11 101.61 495.39 59.13 495.48 59.15 503.63 60.9 503.58 61.14 495.52 59.41 475.33 101.72"/><polygon points="509.2 45.63 493.52 41.87 493.58 41.63 509.26 45.4 509.2 45.63"/><rect x="499.23" y="2.4" width="17.9" height="0.25"/><rect x="433.69" y="47.98" width="112.09" height="0.25" transform="translate(197.96 444.36) rotate(-59.24)"/></g><g class="cls-5"><path d="M168.82,144.22l-5.66.2L154,148.54l7.38,9.18,6.35-.12C167.92,154.24,168.41,148.58,168.82,144.22Z"/><path d="M273.57,140.45l-62.36,2.25c5,1.38,23.69,6.55,30.19,8.58l-.41,4.77,12.23-.26,1.21-3.41,10.38-5.58c.82,1.31,3.43,5.65,5.22,8.63l13.39-.28Z"/></g><path class="cls-6" d="M14.33,145.58V121.64l-1.34,0-.21.24,1.31,0v23.6Z"/><g class="cls-4"><path d="M410.47,96.38l-.11-.22c8.89-4.82,17.37-14.18,24.19-21.7,2-2.19,3.86-4.26,5.52-6,6.81-7,47.78-52.33,60.18-66.06l.18.17C488,16.34,447.06,61.69,440.25,68.67c-1.66,1.7-3.54,3.77-5.52,6C427.9,82.16,419.41,91.54,410.47,96.38Z"/></g><path class="cls-7" d="M25.46,122.77l5.68-2.15,1.28-4.09-1.74-1.74-10.61.53a35.61,35.61,0,0,0-7.22,6.43h6.83Z"/><path class="cls-8" d="M125.19,99.35A9.23,9.23,0,0,0,122,98.1a1.68,1.68,0,0,0-1.85,1.29Z"/><path class="cls-8" d="M157.22,99l1-4.87h-1l-3.34,4.91Z"/><path class="cls-8" d="M76.63,158c1,1.43,2.76,4.05,2.76,4.05h1.25l-.94-3.94Z"/><path class="cls-9" d="M38.94,153l-1.37,7.23,14.94,3,1.13-7.47C48.63,155,43.61,154,38.94,153Z"/><path class="cls-10" d="M55.23,175.29a4.47,4.47,0,1,1-4.46-4.46A4.46,4.46,0,0,1,55.23,175.29Z"/><path class="cls-11" d="M53.73,175.29a3,3,0,1,1-3-3A3,3,0,0,1,53.73,175.29Z"/><path class="cls-12" d="M52.83,175.29a2.06,2.06,0,1,1-2.06-2.06A2.06,2.06,0,0,1,52.83,175.29Z"/><rect class="cls-13" x="45.61" y="167.76" width="5.85" height="0.62"/><rect class="cls-13" x="45.32" y="165.23" width="6.14" height="1.87"/><rect class="cls-11" x="48.53" y="163.28" width="2.54" height="1.95"/><path class="cls-11" d="M50.77,170.83v-2.45H48.53v3.05A4.46,4.46,0,0,1,50.77,170.83Z"/><path class="cls-11" d="M42.27,167.1v.66H53.4l-2.63,2.42v.65a4.53,4.53,0,0,1,1.38.22l3.32-3.29v-.66Z"/><polygon class="cls-13" points="46.3 162.02 46.3 163.28 51.33 163.28 51.33 163.04 46.3 162.02"/><path class="cls-8" d="M342.48,124a21,21,0,0,0-5-.26L225,131.29l-46.61-.83s-27.42-.52-27.1,11.21c.24,9.3,11.74,13.18,16.5,14.39.43-6.51,1.57-18,1.57-18s0-.67.48-.83a37.07,37.07,0,0,1,15.32-1.69c1.62.16,3.49.44,5.48.8h0l.76-1.62h25.94s20.75,4.39,29.17,5.22,27,.48,27,.48v.32l20.69-1.59-6.4.22-5.57-1.73-.14-.95h25.62l5.29-1.09-5.32.14L303.05,133l21.52-.22.43.42,32.52-6.73S346.15,124.43,342.48,124Z"/><path class="cls-14" d="M178.43,130.46s-27.42-.52-27.1,11.21c.24,9.3,11.74,13.18,16.5,14.39.43-6.51,1.57-18,1.57-18s0-.67.48-.83a37.07,37.07,0,0,1,15.32-1.69l6.23-.82,2.55-4Z"/><path class="cls-15" d="M337.82,123.68l-.35,0L225,131.29,179,130.47c-11.16,1.48-12,4.93-12,4.93l24.49-.65h26.36l120.46-9.63h0C337.47,124.71,337.39,124.17,337.82,123.68Z"/><polygon class="cls-16" points="324.57 132.74 327.16 135.25 307.74 135.77 303.05 132.96 324.57 132.74"/><polygon class="cls-16" points="311.52 138.62 307.77 136.72 282.15 136.72 282.29 137.67 287.86 139.4 311.52 138.62"/><path class="cls-16" d="M246.54,140c-8.42-.83-29.17-5.22-29.17-5.22H191.43l-.76,1.62c8.8,1.59,19.79,4.68,19.79,4.68l-.11,1.41c3.18.87,24.09,6.65,31.05,8.82l0,.32,13.05.78,19.14-10.29v-1.64S255,140.8,246.54,140Z"/><path class="cls-17" d="M246.54,140c-8.42-.83-29.17-5.22-29.17-5.22H191.43l-.76,1.62c8.8,1.59,19.79,4.68,19.79,4.68l-.11,1.41c3.18.87,24.09,6.65,31.05,8.82l0,.32,13.05.78,19.14-10.29v-1.64S255,140.8,246.54,140Z"/><path class="cls-18" d="M169.88,137.26a37.07,37.07,0,0,1,15.32-1.69c8.76.84,25.26,5.48,25.26,5.48l-1.91,23.59s-18.7-.18-24.89-.77-15.45-2.48-15.92-3.43,1.66-22.35,1.66-22.35S169.39,137.42,169.88,137.26Z"/><path class="cls-19" d="M210.35,142.46l-1.67,20.61c6.42-.53,32-3.17,32-3.17l.75-8.62C234.44,149.11,213.53,143.33,210.35,142.46Z"/><path class="cls-20" d="M236.75,160.3l3.9-.4.75-8.62c-1-.31-2.27-.69-3.73-1.12Z"/><path class="cls-21" d="M184.83,164l2.55-28.13c-.76-.1-1.49-.19-2.18-.26a37.07,37.07,0,0,0-15.32,1.69c-.49.16-.48.83-.48.83s-2.14,21.39-1.66,22.35,9.72,2.83,15.92,3.43Z"/><path class="cls-22" d="M171.67,136.7c-1.15.31-1.79.56-1.79.56-.49.16-.48.83-.48.83s-2.14,21.39-1.66,22.35c.11.23.74.51,1.7.81Z"/><path class="cls-16" d="M208.55,164.64l-2.32,0,2.22,1.89h2.09v-1.86Z"/><path class="cls-10" d="M279,173.74a6,6,0,1,1-6-6A6,6,0,0,1,279,173.74Z"/><path class="cls-23" d="M277,173.74a4,4,0,1,1-4-4A4,4,0,0,1,277,173.74Z"/><path class="cls-12" d="M276.19,173.74a3.17,3.17,0,1,1-3.16-3.16A3.16,3.16,0,0,1,276.19,173.74Z"/><path class="cls-10" d="M263.41,173.74a6,6,0,1,1-6-6A6,6,0,0,1,263.41,173.74Z"/><path class="cls-11" d="M261.35,173.74a4,4,0,1,1-4-4A4,4,0,0,1,261.35,173.74Z"/><path class="cls-12" d="M260.56,173.74a3.17,3.17,0,1,1-3.17-3.16A3.16,3.16,0,0,1,260.56,173.74Z"/><rect class="cls-13" x="263.23" y="168.44" width="2.81" height="2.14"/><path class="cls-24" d="M275.07,161.84l-.66-1.54-2.6-1.88s-5.71-9.56-7-11.62l-10.38,5.58-1.37,3.87,5.85,5.85,1.33,5.06L274.41,164l-.84-1.39Z"/><polygon class="cls-11" points="262.43 166.68 262.43 168.44 266.8 168.44 266.8 165.71 262.43 166.68"/><path class="cls-11" d="M267.12,174.86a5.89,5.89,0,0,1,.8-4.28H262.5a5.89,5.89,0,0,1,.8,4.28Z"/><path class="cls-25" d="M342.48,124a26.77,26.77,0,0,0-4.66-.29c-.66.77-.12,1.64,2.44,2,4.95.67,16.77.67,16.77.67h0C354.81,126,345.69,124.37,342.48,124Z"/><path class="cls-26" d="M511.47,117.47c-3.05.12-60.14,2.36-66.28,2.67-6.31.31-10.52-.78-10.91-1.33l10,18.23c23.83-5.58,48.12-11.41,51.38-12.26C501.07,123.39,510.32,119.8,511.47,117.47Z"/><path class="cls-25" d="M517.9,115.85a73.57,73.57,0,0,0-13.56-1c-8,.08-56.58,1.48-60.56,1.48s-9.89,2-9.5,2.49,4.6,1.64,10.91,1.33,66.42-2.67,66.42-2.67S517.35,116.4,517.9,115.85Z"/><path class="cls-27" d="M504.34,114.84c-8,.08-56.58,1.48-60.56,1.48s-9.89,2-9.5,2.49l83.62-3A73.57,73.57,0,0,0,504.34,114.84Z"/><g class="cls-28"><path d="M74.29,131.78H66.17a.87.87,0,0,1-.86-.87V116.12a.87.87,0,0,1,.86-.86h8.12a.87.87,0,0,1,.86.86v14.79A.87.87,0,0,1,74.29,131.78Zm-8.12-16.11a.45.45,0,0,0-.45.45v14.79a.46.46,0,0,0,.45.46h8.12a.46.46,0,0,0,.45-.46V116.12a.45.45,0,0,0-.45-.45Z"/></g><g class="cls-28"><path d="M382.41,128.62h-8.12a.87.87,0,0,1-.86-.87V113a.86.86,0,0,1,.86-.86h8.12a.86.86,0,0,1,.86.86v14.79A.87.87,0,0,1,382.41,128.62Zm-8.12-16.11a.45.45,0,0,0-.45.45v14.79a.46.46,0,0,0,.45.46h8.12a.46.46,0,0,0,.45-.46V113a.45.45,0,0,0-.45-.45Z"/></g><polygon class="cls-29" points="30.42 115.46 27.15 115.63 26.41 121.7 30.61 120.12 31.67 116.71 30.42 115.46"/><path class="cls-29" d="M21.34,115.92l-2.28.11a35.8,35.8,0,0,0-5.65,5.07h5.9Z"/><polygon class="cls-29" points="26.36 115.67 22.19 115.88 20.12 121.16 25.4 122.09 25.59 122.02 26.36 115.67"/><rect class="cls-29" x="78.49" y="118.41" width="3.01" height="4.07" rx="0.66"/><rect class="cls-29" x="84.58" y="118.36" width="3.01" height="4.07" rx="0.66"/><rect class="cls-29" x="90.67" y="118.3" width="3.01" height="4.07" rx="0.66"/><rect class="cls-29" x="96.75" y="118.25" width="3.01" height="4.07" rx="0.66"/><rect class="cls-29" x="102.84" y="118.2" width="3.01" height="4.07" rx="0.66"/><rect class="cls-29" x="108.93" y="118.14" width="3.01" height="4.07" rx="0.66"/><rect class="cls-29" x="115.02" y="118.09" width="3.01" height="4.07" rx="0.66"/><rect class="cls-29" x="121.11" y="118.03" width="3.01" height="4.07" rx="0.66"/><rect class="cls-29" x="127.2" y="117.98" width="3.01" height="4.07" rx="0.66"/><rect class="cls-29" x="133.29" y="117.93" width="3.01" height="4.07" rx="0.66"/><rect class="cls-29" x="139.38" y="117.87" width="3.01" height="4.07" rx="0.66"/><rect class="cls-29" x="145.47" y="117.82" width="3.01" height="4.07" rx="0.66"/><rect class="cls-29" x="161.19" y="117.82" width="3.01" height="4.07" rx="0.66"/><rect class="cls-29" x="174.17" y="117.82" width="3.01" height="4.07" rx="0.66"/><rect class="cls-29" x="185.62" y="117.5" width="3.01" height="4.07" rx="0.66"/><rect class="cls-29" x="191.83" y="117.46" width="3.01" height="4.07" rx="0.66"/><rect class="cls-29" x="198.03" y="117.42" width="3.01" height="4.07" rx="0.66"/><rect class="cls-29" x="204.23" y="117.38" width="3.01" height="4.07" rx="0.66"/><rect class="cls-29" x="210.43" y="117.33" width="3.01" height="4.07" rx="0.66"/><rect class="cls-29" x="216.63" y="117.29" width="3.01" height="4.07" rx="0.66"/><rect class="cls-29" x="222.84" y="117.25" width="3.01" height="4.07" rx="0.66"/><rect class="cls-29" x="229.04" y="117.21" width="3.01" height="4.07" rx="0.66"/><rect class="cls-29" x="235.24" y="117.17" width="3.01" height="4.07" rx="0.66"/><rect class="cls-29" x="241.44" y="117.12" width="3" height="4.07" rx="0.66"/><rect class="cls-29" x="247.64" y="117.08" width="3.01" height="4.07" rx="0.66"/><rect class="cls-29" x="253.84" y="117.04" width="3.01" height="4.07" rx="0.66"/><rect class="cls-29" x="260.05" y="117" width="3.01" height="4.07" rx="0.66"/><rect class="cls-29" x="266.25" y="116.96" width="3.01" height="4.07" rx="0.66"/><rect class="cls-29" x="272.45" y="116.92" width="3.01" height="4.07" rx="0.66"/><rect class="cls-29" x="278.65" y="116.88" width="3.01" height="4.07" rx="0.66"/><rect class="cls-29" x="284.85" y="116.83" width="3.01" height="4.07" rx="0.66"/><rect class="cls-29" x="291.05" y="116.79" width="3" height="4.07" rx="0.66"/><rect class="cls-29" x="297.26" y="116.75" width="3.01" height="4.07" rx="0.66"/><rect class="cls-29" x="303.46" y="116.71" width="3.01" height="4.07" rx="0.66"/><rect class="cls-29" x="309.66" y="116.67" width="3" height="4.07" rx="0.66"/><rect class="cls-29" x="315.86" y="116.62" width="3.01" height="4.07" rx="0.66"/><rect class="cls-29" x="322.06" y="116.58" width="3.01" height="4.07" rx="0.66"/><rect class="cls-29" x="328.26" y="116.54" width="3.01" height="4.07" rx="0.66"/><rect class="cls-29" x="334.46" y="116.5" width="3.01" height="4.07" rx="0.66"/><rect class="cls-29" x="340.67" y="116.46" width="3.01" height="4.07" rx="0.66"/><rect class="cls-29" x="346.87" y="116.41" width="3" height="4.07" rx="0.66"/><rect class="cls-29" x="353.07" y="116.37" width="3.01" height="4.07" rx="0.66"/><rect class="cls-29" x="359.27" y="116.33" width="3" height="4.07" rx="0.66"/><rect class="cls-29" x="365.47" y="116.29" width="3.01" height="4.07" rx="0.66"/></g></g></g></svg>