<svg xmlns="http://www.w3.org/2000/svg" viewBox="0 0 277.22 172.27"><defs><style>.cls-1{fill:#d5d8e1;}.cls-2{fill:#aeb1b5;}.cls-3{fill:#19a8f7;}.cls-4{fill:#bcbfc4;}.cls-5{fill:#2ebfff;}.cls-6{fill:#1397e8;}.cls-7{fill:#fdd110;}.cls-8{fill:#fe733e;}.cls-9{fill:#a6eeff;}.cls-10{fill:#fff;opacity:0.5;}.cls-11{fill:#1582e5;}.cls-12{fill:#1765e2;}.cls-13{fill:#989b9e;}.cls-14{fill:#1587e5;}</style></defs><g id="Layer_2" data-name="Layer 2"><g id="Layer_1-2" data-name="Layer 1"><polygon class="cls-1" points="277.22 58.7 91.1 166.89 0 114.85 186.12 6.66 277.22 58.7"/><polygon class="cls-2" points="186.12 12.03 186.12 12.03 186.12 14.98 186.12 14.98 12.44 115.54 9.9 114.06 186.12 12.03"/><polygon class="cls-3" points="186.12 14.98 186.12 39.6 186.12 39.6 34.17 127.9 12.44 115.54 186.12 14.98 186.12 14.98"/><polygon class="cls-4" points="263.41 59.96 186.12 14.98 186.12 12.03 265.96 58.49 263.41 59.96"/><polygon class="cls-5" points="242.19 72.22 186.12 39.6 186.12 14.98 263.41 59.96 242.19 72.22"/><polygon class="cls-6" points="186.12 39.6 186.12 39.6 242.19 72.22 90.55 160.05 34.17 127.9 186.12 39.6"/><polygon class="cls-7" points="108.77 88.84 107.81 86.83 206.52 29.84 207.5 31.84 108.77 88.84"/><path class="cls-8" d="M126,76.85a1.55,1.55,0,0,0,.8,1.34c.42.17.76-.15.74-.72a1.53,1.53,0,0,0-.8-1.33C126.35,76,126,76.29,126,76.85Z"/><path class="cls-8" d="M120.77,79.61a1.57,1.57,0,0,1,.8,1.33.83.83,0,0,1-.25.66l6-3.42-1-2-6,3.45h0A.49.49,0,0,1,120.77,79.61Z"/><path class="cls-8" d="M138.09,69.9a1.54,1.54,0,0,0,.8,1.34c.42.17.76-.15.74-.72a1.53,1.53,0,0,0-.8-1.33C138.41,69,138.07,69.34,138.09,69.9Z"/><path class="cls-8" d="M132.83,72.66a1.57,1.57,0,0,1,.8,1.33.83.83,0,0,1-.25.66l6-3.42-1-2-6,3.45h0A.49.49,0,0,1,132.83,72.66Z"/><path class="cls-8" d="M150,63a1.53,1.53,0,0,0,.8,1.33c.42.17.76-.15.74-.71a1.53,1.53,0,0,0-.79-1.33C150.32,62.13,150,62.45,150,63Z"/><path class="cls-8" d="M144.74,65.77a1.58,1.58,0,0,1,.8,1.34.81.81,0,0,1-.25.66l6-3.43-1-2-6,3.46h0A.52.52,0,0,1,144.74,65.77Z"/><path class="cls-8" d="M162.06,56.07a1.53,1.53,0,0,0,.8,1.33c.42.17.76-.15.74-.71a1.53,1.53,0,0,0-.8-1.33C162.38,55.19,162.05,55.5,162.06,56.07Z"/><path class="cls-8" d="M156.8,58.82a1.59,1.59,0,0,1,.8,1.34.83.83,0,0,1-.25.66l6-3.43-1-2-6,3.46h0A.49.49,0,0,1,156.8,58.82Z"/><path class="cls-8" d="M174.36,48.94a1.54,1.54,0,0,0,.8,1.33c.42.18.76-.14.74-.71a1.54,1.54,0,0,0-.79-1.33C174.68,48.06,174.35,48.38,174.36,48.94Z"/><path class="cls-8" d="M169.1,51.7a1.56,1.56,0,0,1,.8,1.33.79.79,0,0,1-.25.66l5.95-3.42-1-2-6,3.45h0A.49.49,0,0,1,169.1,51.7Z"/><path class="cls-8" d="M186.42,42a1.57,1.57,0,0,0,.8,1.34c.42.17.76-.15.74-.72a1.54,1.54,0,0,0-.79-1.33C186.74,41.11,186.41,41.43,186.42,42Z"/><path class="cls-8" d="M181.16,44.75a1.57,1.57,0,0,1,.8,1.33.79.79,0,0,1-.25.66l5.95-3.42-1-2-6,3.45h0A.49.49,0,0,1,181.16,44.75Z"/><path class="cls-8" d="M198.33,35.11a1.55,1.55,0,0,0,.8,1.33c.43.17.76-.15.74-.71a1.56,1.56,0,0,0-.79-1.34C198.65,34.22,198.32,34.54,198.33,35.11Z"/><path class="cls-8" d="M193.07,37.86a1.57,1.57,0,0,1,.8,1.33.83.83,0,0,1-.25.67l5.95-3.43-1-2-6,3.45h0A.52.52,0,0,1,193.07,37.86Z"/><path class="cls-8" d="M210.39,28.16a1.55,1.55,0,0,0,.8,1.33c.43.17.76-.15.74-.71a1.53,1.53,0,0,0-.79-1.33C210.71,27.27,210.38,27.59,210.39,28.16Z"/><path class="cls-8" d="M205.13,30.91a1.58,1.58,0,0,1,.8,1.34.81.81,0,0,1-.25.66l5.95-3.43-1-2-6,3.46h0A.52.52,0,0,1,205.13,30.91Z"/><path class="cls-7" d="M39.55,128.79l71.1-41-1-2L38,127.15C38.47,127.71,39,128.25,39.55,128.79Z"/><path class="cls-8" d="M41.17,125.82a1.55,1.55,0,0,0,.8,1.33c.43.17.76-.15.74-.71a1.53,1.53,0,0,0-.79-1.33C41.49,124.93,41.16,125.25,41.17,125.82Z"/><path class="cls-8" d="M37.64,129.87l4.79-2.74-1-2-6.05,3.48C36.06,129,36.78,129.38,37.64,129.87Z"/><path class="cls-8" d="M53.15,118.92a1.53,1.53,0,0,0,.79,1.33c.43.18.76-.14.75-.71a1.55,1.55,0,0,0-.8-1.33C53.47,118,53.13,118.36,53.15,118.92Z"/><path class="cls-8" d="M47.88,121.68a1.52,1.52,0,0,1,.8,1.33.77.77,0,0,1-.25.66l6-3.42-1-2-6,3.45h0A.47.47,0,0,1,47.88,121.68Z"/><path class="cls-8" d="M65.21,112a1.56,1.56,0,0,0,.79,1.34c.43.17.76-.15.75-.72a1.55,1.55,0,0,0-.8-1.33C65.53,111.09,65.19,111.41,65.21,112Z"/><path class="cls-8" d="M59.94,114.73a1.53,1.53,0,0,1,.8,1.33.77.77,0,0,1-.25.66l5.95-3.42-1-2-6,3.45h0A.47.47,0,0,1,59.94,114.73Z"/><path class="cls-8" d="M77.51,104.84a1.54,1.54,0,0,0,.8,1.34c.42.17.75-.15.74-.71a1.54,1.54,0,0,0-.8-1.34C77.83,104,77.49,104.28,77.51,104.84Z"/><path class="cls-8" d="M72.24,107.6a1.53,1.53,0,0,1,.8,1.33.77.77,0,0,1-.25.66l5.95-3.42-1-2-6,3.45h0A.5.5,0,0,1,72.24,107.6Z"/><path class="cls-8" d="M89.57,97.9a1.54,1.54,0,0,0,.79,1.33c.43.17.76-.15.75-.71a1.55,1.55,0,0,0-.8-1.34C89.89,97,89.55,97.33,89.57,97.9Z"/><path class="cls-8" d="M84.3,100.65a1.53,1.53,0,0,1,.8,1.33.8.8,0,0,1-.25.67l6-3.43-1-2-6,3.45h0A.5.5,0,0,1,84.3,100.65Z"/><path class="cls-8" d="M101.48,91a1.53,1.53,0,0,0,.8,1.33c.42.17.76-.14.74-.71a1.53,1.53,0,0,0-.8-1.33C101.8,90.13,101.46,90.45,101.48,91Z"/><path class="cls-8" d="M96.22,93.77A1.53,1.53,0,0,1,97,95.1a.77.77,0,0,1-.25.66l5.95-3.42-1-2-6,3.45h0A.49.49,0,0,1,96.22,93.77Z"/><path class="cls-8" d="M113.54,84.06a1.52,1.52,0,0,0,.8,1.33c.42.18.76-.14.74-.71a1.53,1.53,0,0,0-.8-1.33C113.86,83.18,113.52,83.5,113.54,84.06Z"/><path class="cls-8" d="M108.27,86.82a1.52,1.52,0,0,1,.8,1.33.77.77,0,0,1-.25.66l6-3.42-1-2-6,3.45h0A.47.47,0,0,1,108.27,86.82Z"/><polygon class="cls-7" points="137.66 105.33 136.71 103.31 235.41 46.33 236.39 48.33 137.66 105.33"/><path class="cls-8" d="M154.92,93.34a1.55,1.55,0,0,0,.8,1.33c.43.17.76-.15.75-.71a1.56,1.56,0,0,0-.8-1.33C155.24,92.46,154.91,92.77,154.92,93.34Z"/><path class="cls-8" d="M149.66,96.09a1.57,1.57,0,0,1,.8,1.34.77.77,0,0,1-.25.66l5.95-3.43-1-2-6,3.46h0A.49.49,0,0,1,149.66,96.09Z"/><path class="cls-8" d="M167,86.39a1.55,1.55,0,0,0,.8,1.33c.43.17.76-.14.75-.71a1.57,1.57,0,0,0-.8-1.33C167.3,85.51,167,85.82,167,86.39Z"/><path class="cls-8" d="M161.72,89.14a1.57,1.57,0,0,1,.8,1.34.77.77,0,0,1-.25.66l5.95-3.43-1-2-6,3.45h0A.49.49,0,0,1,161.72,89.14Z"/><path class="cls-8" d="M178.89,79.5a1.57,1.57,0,0,0,.8,1.34c.43.17.76-.15.75-.72a1.57,1.57,0,0,0-.8-1.33C179.21,78.62,178.88,78.94,178.89,79.5Z"/><path class="cls-8" d="M173.63,82.26a1.55,1.55,0,0,1,.8,1.33.77.77,0,0,1-.25.66l5.95-3.42-1-2-6,3.45h0A.49.49,0,0,1,173.63,82.26Z"/><path class="cls-8" d="M191,72.55a1.56,1.56,0,0,0,.8,1.34c.43.17.76-.15.75-.71a1.58,1.58,0,0,0-.8-1.34C191.27,71.67,190.94,72,191,72.55Z"/><path class="cls-8" d="M185.69,75.31a1.55,1.55,0,0,1,.8,1.33.77.77,0,0,1-.25.66l5.95-3.42-1-2-6,3.45h0A.49.49,0,0,1,185.69,75.31Z"/><path class="cls-8" d="M203.25,65.43a1.57,1.57,0,0,0,.8,1.33c.43.17.76-.15.75-.71a1.56,1.56,0,0,0-.8-1.33C203.57,64.54,203.24,64.86,203.25,65.43Z"/><path class="cls-8" d="M198,68.18a1.56,1.56,0,0,1,.8,1.34.79.79,0,0,1-.25.66l6-3.43-1-2-6,3.46h0A.52.52,0,0,1,198,68.18Z"/><path class="cls-8" d="M215.31,58.48a1.57,1.57,0,0,0,.8,1.33c.43.17.76-.15.75-.71a1.56,1.56,0,0,0-.8-1.33C215.63,57.59,215.3,57.91,215.31,58.48Z"/><path class="cls-8" d="M210.05,61.23a1.56,1.56,0,0,1,.8,1.34.78.78,0,0,1-.25.66l6-3.43-1-2-6,3.46h0A.52.52,0,0,1,210.05,61.23Z"/><path class="cls-8" d="M227.22,51.59a1.59,1.59,0,0,0,.8,1.34c.43.17.76-.15.75-.72a1.55,1.55,0,0,0-.8-1.33C227.54,50.71,227.21,51,227.22,51.59Z"/><path class="cls-8" d="M222,54.35a1.55,1.55,0,0,1,.8,1.33.77.77,0,0,1-.25.66l6-3.42-1-2-6,3.45h0A.47.47,0,0,1,222,54.35Z"/><path class="cls-8" d="M239.28,44.64a1.59,1.59,0,0,0,.8,1.34c.43.17.76-.15.75-.72a1.57,1.57,0,0,0-.8-1.33C239.6,43.76,239.27,44.08,239.28,44.64Z"/><path class="cls-8" d="M234,47.4a1.55,1.55,0,0,1,.8,1.33.77.77,0,0,1-.25.66l6-3.42-1-2-6,3.45h0A.47.47,0,0,1,234,47.4Z"/><path class="cls-7" d="M68.44,145.28l71.1-41-1-2L66.84,143.64C67.37,144.19,67.9,144.74,68.44,145.28Z"/><path class="cls-8" d="M70.06,142.3a1.59,1.59,0,0,0,.8,1.34c.43.17.76-.15.75-.72a1.55,1.55,0,0,0-.8-1.33C70.38,141.42,70.05,141.74,70.06,142.3Z"/><path class="cls-8" d="M66.54,146.36l4.78-2.74-1-2-6,3.47C65,145.44,65.68,145.87,66.54,146.36Z"/><path class="cls-8" d="M82,135.41a1.53,1.53,0,0,0,.8,1.33c.42.17.76-.15.74-.71a1.52,1.52,0,0,0-.8-1.33C82.36,134.52,82,134.84,82,135.41Z"/><path class="cls-8" d="M76.78,138.16a1.55,1.55,0,0,1,.79,1.34.82.82,0,0,1-.24.66l6-3.43-1-2-6,3.46h0A.52.52,0,0,1,76.78,138.16Z"/><path class="cls-8" d="M94.1,128.46a1.53,1.53,0,0,0,.8,1.33c.42.17.76-.15.74-.71a1.52,1.52,0,0,0-.8-1.33C94.42,127.57,94.08,127.89,94.1,128.46Z"/><path class="cls-8" d="M88.84,131.21a1.55,1.55,0,0,1,.79,1.34.81.81,0,0,1-.24.66l6-3.43-1-2-6,3.46h0A.49.49,0,0,1,88.84,131.21Z"/><path class="cls-8" d="M106.4,121.33a1.52,1.52,0,0,0,.8,1.33c.42.18.76-.14.74-.71a1.53,1.53,0,0,0-.8-1.33C106.72,120.45,106.39,120.77,106.4,121.33Z"/><path class="cls-8" d="M101.14,124.09a1.56,1.56,0,0,1,.8,1.33.83.83,0,0,1-.25.66l6-3.42-1-2-6,3.45h0A.49.49,0,0,1,101.14,124.09Z"/><path class="cls-8" d="M118.46,114.38a1.52,1.52,0,0,0,.8,1.33c.42.18.76-.14.74-.71a1.53,1.53,0,0,0-.8-1.33C118.78,113.5,118.45,113.82,118.46,114.38Z"/><path class="cls-8" d="M113.2,117.14a1.57,1.57,0,0,1,.8,1.33.83.83,0,0,1-.25.66l6-3.42-1-2-6,3.45h0A.49.49,0,0,1,113.2,117.14Z"/><path class="cls-8" d="M130.37,107.5a1.53,1.53,0,0,0,.8,1.33c.42.17.76-.15.74-.71a1.56,1.56,0,0,0-.79-1.34C130.69,106.61,130.36,106.93,130.37,107.5Z"/><path class="cls-8" d="M125.11,110.25a1.57,1.57,0,0,1,.8,1.33.83.83,0,0,1-.25.67l6-3.43-1-2-6,3.45h0A.52.52,0,0,1,125.11,110.25Z"/><path class="cls-8" d="M142.43,100.55a1.53,1.53,0,0,0,.8,1.33c.42.17.76-.15.74-.71a1.56,1.56,0,0,0-.79-1.34C142.75,99.66,142.42,100,142.43,100.55Z"/><path class="cls-8" d="M137.17,103.3a1.57,1.57,0,0,1,.8,1.33.83.83,0,0,1-.25.67l5.95-3.43-1-2-6,3.46h0A.52.52,0,0,1,137.17,103.3Z"/><polygon class="cls-4" points="0 114.85 0 120.26 91.1 172.27 91.1 166.86 0 114.85"/><polygon class="cls-2" points="277.22 58.7 277.22 64.11 91.1 172.27 91.1 166.86 277.22 58.7"/><path class="cls-9" d="M122.25,97.35a4.31,4.31,0,0,1-3.06.83,18.19,18.19,0,0,0-6.62.27,12.69,12.69,0,0,1,3.94-1.68A12.56,12.56,0,0,1,122.25,97.35Z"/><path class="cls-9" d="M131,99s-2.87-1.23-4.83,0a6.65,6.65,0,0,1-3.11,1.23s2.29.65,3.68-.09A17.55,17.55,0,0,1,131,99Z"/><path class="cls-9" d="M70.72,133.48s-2.87-1.23-4.83,0a6.69,6.69,0,0,1-3.11,1.22s2.29.66,3.68-.08A17.07,17.07,0,0,1,70.72,133.48Z"/><path class="cls-9" d="M160.84,77.64a4.31,4.31,0,0,1-3.07.82,18.32,18.32,0,0,0-6.62.28,10.1,10.1,0,0,1,9.69-1.1Z"/><path class="cls-9" d="M193.89,53.76a4.31,4.31,0,0,1-3.07.82,18.07,18.07,0,0,0-6.62.28,10.1,10.1,0,0,1,9.69-1.1Z"/><path class="cls-9" d="M142.35,89.88s-2.87-1.23-4.83,0a6.65,6.65,0,0,1-3.11,1.23s2.29.65,3.68-.08A17.25,17.25,0,0,1,142.35,89.88Z"/><path class="cls-9" d="M162.29,72.2a4.82,4.82,0,0,0-2.7,0,21.06,21.06,0,0,0-2.58.92,9.08,9.08,0,0,0,2.64.16A8.82,8.82,0,0,0,162.29,72.2Z"/><path class="cls-10" d="M104.56,84.17a4.35,4.35,0,0,1-3.07.83,18.19,18.19,0,0,0-6.62.27,12.8,12.8,0,0,1,3.95-1.68A12.59,12.59,0,0,1,104.56,84.17Z"/><path class="cls-9" d="M76.62,85.55a4.31,4.31,0,0,1-3.07.82,18.07,18.07,0,0,0-6.62.28A12.8,12.8,0,0,1,70.88,85,12.59,12.59,0,0,1,76.62,85.55Z"/><path class="cls-9" d="M54.61,105a4.35,4.35,0,0,1-3.07.83,18.19,18.19,0,0,0-6.62.27,12.62,12.62,0,0,1,3.95-1.67A12.51,12.51,0,0,1,54.61,105Z"/><path class="cls-9" d="M74.86,102.78s-2.86-1.23-4.82,0A6.69,6.69,0,0,1,66.93,104s2.29.66,3.68-.08A17.51,17.51,0,0,1,74.86,102.78Z"/><path class="cls-9" d="M44.25,115.29s-2.87-1.23-4.83,0a6.69,6.69,0,0,1-3.11,1.22s2.29.66,3.68-.08A17.55,17.55,0,0,1,44.25,115.29Z"/><path class="cls-10" d="M179.79,40.88a4.33,4.33,0,0,1-3.06.83,18.23,18.23,0,0,0-6.63.27,10.19,10.19,0,0,1,9.69-1.1Z"/><path class="cls-9" d="M151.85,42.26a4.3,4.3,0,0,1-3.06.82,18.36,18.36,0,0,0-6.63.28,12.8,12.8,0,0,1,4-1.68A12.59,12.59,0,0,1,151.85,42.26Z"/><path class="cls-9" d="M129.84,61.73a4.33,4.33,0,0,1-3.06.83,18.23,18.23,0,0,0-6.63.27,12.88,12.88,0,0,1,3.95-1.67A12.51,12.51,0,0,1,129.84,61.73Z"/><path class="cls-9" d="M150.1,59.49s-2.86-1.23-4.83,0a6.65,6.65,0,0,1-3.11,1.23s2.29.65,3.69-.09A17.51,17.51,0,0,1,150.1,59.49Z"/><path class="cls-9" d="M111.89,76.27a4.93,4.93,0,0,0-2.7,0,21.06,21.06,0,0,0-2.58.92,9.08,9.08,0,0,0,2.64.16A8.82,8.82,0,0,0,111.89,76.27Z"/><path class="cls-9" d="M189.86,28.32a4.82,4.82,0,0,0-2.7,0,20.32,20.32,0,0,0-2.58.92,8.86,8.86,0,0,0,2.64.15A8.63,8.63,0,0,0,189.86,28.32Z"/><path class="cls-10" d="M158.56,116.4a4.3,4.3,0,0,1-3.06.82,18.11,18.11,0,0,0-6.63.28,12.8,12.8,0,0,1,3.95-1.68A12.59,12.59,0,0,1,158.56,116.4Z"/><path class="cls-9" d="M130.62,117.78a4.3,4.3,0,0,1-3.06.82,18.11,18.11,0,0,0-6.63.28,12.8,12.8,0,0,1,3.95-1.68A12.59,12.59,0,0,1,130.62,117.78Z"/><path class="cls-9" d="M128.87,135s-2.87-1.23-4.83,0a6.69,6.69,0,0,1-3.11,1.22s2.29.66,3.68-.08A17.07,17.07,0,0,1,128.87,135Z"/><path class="cls-9" d="M95,148.22s-2.86-1.23-4.83,0a6.68,6.68,0,0,1-3.1,1.22s2.29.66,3.68-.08A17,17,0,0,1,95,148.22Z"/><path class="cls-9" d="M90.66,151.79a4.82,4.82,0,0,0-2.7,0,20.32,20.32,0,0,0-2.58.92,9.08,9.08,0,0,0,2.64.16A8.82,8.82,0,0,0,90.66,151.79Z"/><path class="cls-9" d="M109,131.23a4.93,4.93,0,0,0-2.7,0,19.54,19.54,0,0,0-2.57.93,8.82,8.82,0,0,0,2.63.15A8.43,8.43,0,0,0,109,131.23Z"/><path class="cls-10" d="M233.79,73.11a4.28,4.28,0,0,1-3.06.82,18.32,18.32,0,0,0-6.62.28,12.69,12.69,0,0,1,3.94-1.68A12.56,12.56,0,0,1,233.79,73.11Z"/><path class="cls-10" d="M238.51,58.1a4.3,4.3,0,0,1-3.06.82,18.11,18.11,0,0,0-6.63.28,12.8,12.8,0,0,1,4-1.68A12.59,12.59,0,0,1,238.51,58.1Z"/><path class="cls-9" d="M183.84,94a4.28,4.28,0,0,1-3.06.82,18.32,18.32,0,0,0-6.62.28,10.09,10.09,0,0,1,9.68-1.1Z"/><path class="cls-9" d="M204.1,91.72s-2.86-1.23-4.83,0a6.68,6.68,0,0,1-3.1,1.22s2.29.66,3.68-.08A17.51,17.51,0,0,1,204.1,91.72Z"/><path class="cls-9" d="M170.27,104.93s-2.86-1.23-4.82,0a6.69,6.69,0,0,1-3.11,1.22s2.29.66,3.68-.08A17.51,17.51,0,0,1,170.27,104.93Z"/><path class="cls-9" d="M184.27,87.94a4.89,4.89,0,0,0-2.69,0,21.22,21.22,0,0,0-2.58.93,8.86,8.86,0,0,0,2.64.15A8.45,8.45,0,0,0,184.27,87.94Z"/><path class="cls-9" d="M243.86,60.54a4.93,4.93,0,0,0-2.7,0,22,22,0,0,0-2.58.93,8.86,8.86,0,0,0,2.64.15A8.43,8.43,0,0,0,243.86,60.54Z"/><polygon class="cls-4" points="261.19 36.71 261.19 43.76 267.23 47.25 267.23 40.2 261.19 36.71"/><polygon class="cls-2" points="270.61 38.24 267.23 40.2 267.23 47.25 270.61 45.3 270.61 38.24"/><polygon class="cls-6" points="265.37 42.18 258.5 38.22 266.43 33.64 273.29 37.6 265.37 42.18"/><polygon class="cls-11" points="258.5 39.54 265.37 43.51 265.37 42.18 258.5 38.22 258.5 39.54"/><polygon class="cls-12" points="273.29 38.93 265.37 43.51 265.37 42.18 273.29 37.6 273.29 38.93"/><polygon class="cls-4" points="232.49 20.09 232.49 27.14 238.53 30.63 238.53 23.58 232.49 20.09"/><polygon class="cls-2" points="241.91 21.63 238.53 23.58 238.53 30.63 241.91 28.68 241.91 21.63"/><polygon class="cls-6" points="236.67 25.56 229.81 21.6 237.73 17.02 244.6 20.99 236.67 25.56"/><polygon class="cls-11" points="229.81 22.93 236.67 26.89 236.67 25.56 229.81 21.6 229.81 22.93"/><polygon class="cls-12" points="244.6 22.31 236.67 26.89 236.67 25.56 244.6 20.99 244.6 22.31"/><polygon class="cls-4" points="203.48 3.07 203.48 10.12 209.52 13.61 209.52 6.55 203.48 3.07"/><polygon class="cls-2" points="212.9 4.61 209.52 6.55 209.52 13.61 212.9 11.66 212.9 4.61"/><polygon class="cls-6" points="207.66 8.54 200.79 4.58 208.72 0 215.58 3.96 207.66 8.54"/><polygon class="cls-11" points="200.79 5.9 207.66 9.87 207.66 8.54 200.79 4.58 200.79 5.9"/><polygon class="cls-12" points="215.58 5.29 207.66 9.87 207.66 8.54 215.58 3.96 215.58 5.29"/><path class="cls-4" d="M29.65,88a2.68,2.68,0,0,0-2.75-.2,3.65,3.65,0,0,0-1.45,3.31v7.47h1V91.41a2.78,2.78,0,0,1,1-2.51,1.94,1.94,0,0,1,2,.18,7.79,7.79,0,0,1,3.24,6.2v22.28l1,0v-22C33.62,92.66,31.84,89.27,29.65,88Z"/><path class="cls-4" d="M26.42,98.58c0,.14-.22.26-.49.26s-.48-.12-.48-.26.22-.26.48-.26S26.42,98.44,26.42,98.58Z"/><path class="cls-6" d="M33.62,117.58c0,.14-.22.26-.48.26s-.48-.12-.48-.26.21-.26.48-.26S33.62,117.44,33.62,117.58Z"/><path class="cls-4" d="M37.28,83.64a2.68,2.68,0,0,0-2.75-.2,3.62,3.62,0,0,0-1.45,3.31v7.47l1,0V87a2.77,2.77,0,0,1,1.05-2.51,1.94,1.94,0,0,1,1.95.18,7.77,7.77,0,0,1,3.24,6.2V113.2h1v-22C41.24,88.29,39.46,84.9,37.28,83.64Z"/><path class="cls-6" d="M41.24,113.2c0,.14-.21.25-.48.25s-.48-.11-.48-.25.22-.26.48-.26S41.24,113.05,41.24,113.2Z"/><path class="cls-4" d="M34,94.24c0,.14-.21.26-.48.26s-.48-.12-.48-.26.21-.26.48-.26S34,94.09,34,94.24Z"/><path class="cls-13" d="M40.92,95.28a.62.62,0,0,0-.33-.55.2.2,0,0,0-.17,0l-6.8,3.9v1.07l7.2-4.16A.28.28,0,0,0,40.92,95.28Z"/><path class="cls-13" d="M40.92,100.62a.62.62,0,0,0-.33-.55.2.2,0,0,0-.17,0L33.62,104V105l7.2-4.15A.28.28,0,0,0,40.92,100.62Z"/><path class="cls-14" d="M40.92,105.42a.62.62,0,0,0-.33-.55.2.2,0,0,0-.17,0l-6.8,3.91v1.06l7.2-4.15A.29.29,0,0,0,40.92,105.42Z"/><path class="cls-14" d="M40.92,110.74a.64.64,0,0,0-.33-.56.25.25,0,0,0-.17,0l-6.8,3.91v1.06l7.2-4.15A.3.3,0,0,0,40.92,110.74Z"/><path class="cls-6" d="M33.14,107.07c-.27,0-.48-.12-.48-.26v10.77h1V106.81C33.62,107,33.4,107.07,33.14,107.07Z"/><path class="cls-6" d="M40.76,102.66c-.26,0-.48-.12-.48-.26v10.8h1V102.4C41.24,102.54,41,102.66,40.76,102.66Z"/><path class="cls-4" d="M154,15.79a2.73,2.73,0,0,0-2.75-.2,3.65,3.65,0,0,0-1.45,3.32v7.46h1V19.2a2.78,2.78,0,0,1,1-2.51,1.93,1.93,0,0,1,2,.17A7.8,7.8,0,0,1,157,23.07V45.35l1,0v-22C157.93,20.45,156.15,17.06,154,15.79Z"/><path class="cls-4" d="M150.73,26.37c0,.14-.22.26-.49.26s-.48-.12-.48-.26.22-.26.48-.26S150.73,26.22,150.73,26.37Z"/><path class="cls-6" d="M157.93,45.37c0,.14-.22.26-.48.26s-.48-.12-.48-.26.21-.26.48-.26S157.93,45.23,157.93,45.37Z"/><path class="cls-4" d="M161.59,11.43a2.68,2.68,0,0,0-2.75-.2,3.62,3.62,0,0,0-1.45,3.31V22h1V14.83a2.78,2.78,0,0,1,1-2.51,1.94,1.94,0,0,1,2,.18,7.77,7.77,0,0,1,3.24,6.2V41h1V19C165.55,16.08,163.77,12.69,161.59,11.43Z"/><path class="cls-6" d="M165.55,41c0,.15-.21.26-.48.26s-.48-.11-.48-.26.22-.26.48-.26S165.55,40.84,165.55,41Z"/><path class="cls-4" d="M158.35,22c0,.15-.22.26-.48.26s-.48-.11-.48-.26.21-.26.48-.26S158.35,21.88,158.35,22Z"/><path class="cls-13" d="M165.23,23.07a.62.62,0,0,0-.33-.55.2.2,0,0,0-.17,0l-6.8,3.91v1.06l7.2-4.15A.28.28,0,0,0,165.23,23.07Z"/><path class="cls-13" d="M165.23,28.41a.61.61,0,0,0-.33-.55.2.2,0,0,0-.17,0l-6.8,3.91v1.06l7.2-4.15A.29.29,0,0,0,165.23,28.41Z"/><path class="cls-14" d="M165.23,33.21a.64.64,0,0,0-.33-.56.25.25,0,0,0-.17,0l-6.8,3.91v1.06l7.2-4.15A.3.3,0,0,0,165.23,33.21Z"/><path class="cls-14" d="M165.23,38.53a.63.63,0,0,0-.33-.56.25.25,0,0,0-.17,0l-6.8,3.91V43l7.2-4.16A.28.28,0,0,0,165.23,38.53Z"/><path class="cls-6" d="M157.45,34.86c-.27,0-.48-.12-.48-.26V45.37h1V34.6C157.93,34.74,157.71,34.86,157.45,34.86Z"/><path class="cls-6" d="M165.07,30.45c-.26,0-.48-.12-.48-.26V41h1V30.19C165.55,30.33,165.34,30.45,165.07,30.45Z"/></g></g></svg>