<svg xmlns="http://www.w3.org/2000/svg" xmlns:xlink="http://www.w3.org/1999/xlink" viewBox="0 0 268.62 214.52"><defs><style>.cls-1{fill:none;}.cls-2{isolation:isolate;}.cls-3{opacity:0.21;}.cls-19,.cls-22,.cls-3,.cls-6{mix-blend-mode:multiply;}.cls-4{fill:#0a3d66;}.cls-5{fill:#072b4d;}.cls-7{fill:#03203f;}.cls-8{fill:#cd9165;}.cls-9{fill:#fbfcfb;}.cls-10{fill:#fff;}.cls-11{fill:#91989f;}.cls-12{fill:#c5c5c5;}.cls-13{fill:#742d2a;}.cls-14{fill:#c2c3c2;}.cls-15{fill:#08335e;}.cls-16{fill:#ebebed;}.cls-17{fill:#f2f2f2;}.cls-18{fill:#031c36;}.cls-19{opacity:0.34;}.cls-20{fill:#4cbad7;}.cls-21{fill:#e8dddc;}.cls-22{opacity:0.32;}.cls-23{clip-path:url(#clip-path);}.cls-24{fill:#7c7776;}.cls-25{clip-path:url(#clip-path-2);}.cls-26{fill:#c8bebe;}.cls-27{fill:#cbcbcc;}.cls-28{fill:#79797a;}.cls-29{fill:#cacacc;}.cls-30{fill:#b6b6b7;}.cls-31{fill:#8a8a8b;}.cls-32{fill:#767677;}.cls-33{fill:#b5b5b7;}.cls-34{fill:#00448d;}</style><clipPath id="clip-path"><path class="cls-1" d="M118.08,69.41v-.27a.8.8,0,0,0,.48.66v.27A.8.8,0,0,1,118.08,69.41Z"/></clipPath><clipPath id="clip-path-2"><path class="cls-1" d="M131.34,74.94v.27a.81.81,0,0,1-.47.66,2.54,2.54,0,0,1-2.28,0V75.6a2.54,2.54,0,0,0,2.28,0A.79.79,0,0,0,131.34,74.94Z"/></clipPath></defs><g class="cls-2"><g id="Layer_2" data-name="Layer 2"><g id="graphics"><g class="cls-2"><g class="cls-3"><path d="M259.87,57.31s-30.85,24.16-49,36.78c-5.18,3.61-25.07,13.23-48.19,27.76C116.83,150.68,56.83,194.34,53.76,196L0,183.38l2.24,4.88,45.48,26.26C52.34,212.07,195.34,135,210.8,124.2S261.63,82,266.32,58.71Z"/></g><polygon class="cls-4" points="51.53 186.16 44.13 207.83 1.03 182.95 8.43 161.28 51.53 186.16"/><path class="cls-5" d="M268.62,23.83l-1,.1c0,8.6-40.81,47.74-59,60.36-5.19,3.61-25.07,13.22-48.2,27.75C114.6,140.87,54.6,184.53,51.53,186.16L43.6,207a.52.52,0,0,0,.74.64c14.95-8.2,149.4-82.88,164.24-93.2,15.51-10.79,46.37-39.2,55.36-53.1,0,0,.53-6,.92-9.11S268.62,23.83,268.62,23.83Z"/><g class="cls-6"><path class="cls-7" d="M206.42,110.56c-14,9.76-135.18,77.18-160.91,91.39l-1.91,5a.52.52,0,0,0,.74.64c14.95-8.2,149.4-82.88,164.24-93.2,15.51-10.79,46.37-39.2,55.36-53.1,0,0,.53-6,.92-9.11,0,0,0,0,0-.07C255.41,66.24,221.73,99.9,206.42,110.56Z"/></g><path class="cls-8" d="M266.92,22.54c6.84,4-38.78,48.19-58.26,61.75C202,88.9,182.1,100.1,161.13,111.57c-3.28,1.8-20.77,23.7-24.06,25.49-23.14,12.57-74.16,43-84.29,48.44a2.58,2.58,0,0,1-2.47,0L9.65,162a.77.77,0,0,1,0-1.36c10.35-5.08,77.35-39.26,101.22-57.2,6.63-5,10.77-18.65,17-24.92,13.15-13.24,27-19.28,32.6-22C183.85,45.16,259.93,18.59,266.92,22.54Z"/><path class="cls-9" d="M51.58,186.79a3.55,3.55,0,0,1-1.77-.47L9.15,162.84a1.77,1.77,0,0,1,.11-3.11c11.92-5.86,77.45-39.36,101.06-57.11,3.42-2.56,6.27-7.8,9-12.86,2.41-4.42,4.9-9,7.86-12,12.29-12.38,25.25-18.57,31.48-21.54.5-.24,1-.46,1.38-.67,10.72-5.2,32.72-13.71,54.76-21.18,11.78-4,40.19-13.26,49.73-13.26a6,6,0,0,1,2.85.52,2.43,2.43,0,0,1,1.19,2.11c.21,5.52-14.21,20.77-22.82,29.37-12.86,12.85-27.56,25.69-36.56,32-5.7,4-21.72,13.17-47.61,27.34-1.49.81-6.93,7-11.73,12.49-6.55,7.47-10.65,12.08-12.33,13-13.25,7.2-36,20.48-54.28,31.15-13.78,8-25.68,15-30,17.3A3.71,3.71,0,0,1,51.58,186.79ZM10.51,161.33l40.3,23.27a1.57,1.57,0,0,0,1.5,0c4.31-2.3,16.19-9.23,30-17.26,18.29-10.68,41.05-24,54.33-31.18,1.49-.81,7-7.05,11.78-12.55,6.52-7.43,10.6-12,12.27-12.93,25.83-14.13,41.79-23.3,47.44-27.23,8.91-6.2,23.5-19,36.29-31.73,16.54-16.52,22.33-25.24,22.23-27.88,0-.35-.13-.42-.2-.46a4.18,4.18,0,0,0-1.85-.26c-14.2,0-81.48,23.5-103.62,34.24l-1.39.67c-6.13,2.93-18.88,9-30.93,21.16-2.75,2.77-5.18,7.21-7.52,11.51-2.86,5.24-5.82,10.67-9.59,13.49C88,121.88,23.4,155,10.51,161.33Z"/><g class="cls-6"><path class="cls-8" d="M119.36,97.35c2.4-4.42,4.9-9,7.85-12C139.51,73,152.47,66.82,158.7,63.84l1.38-.66C170.79,58,192.79,49.47,214.84,42c11.74-4,40-13.21,49.64-13.27,1.52-2.37,2.17-4,2.14-4.87,0-.36-.14-.43-.21-.47a4.14,4.14,0,0,0-1.85-.26c-14.2,0-81.48,23.5-103.62,34.25l-1.39.67c-6.12,2.92-18.88,9-30.93,21.15-2.75,2.77-5.18,7.22-7.52,11.51-2.86,5.25-5.82,10.67-9.58,13.5C88,121.88,23.4,155,10.52,161.33l5,2.87c20.44-10.36,74-38.32,94.83-54C113.74,107.64,116.59,102.41,119.36,97.35Z"/></g></g><g class="cls-2"><path class="cls-10" d="M134.5,122.36,54.79,168.48a7.67,7.67,0,0,1-7,0L21.29,153.17c-1.93-1.12-1.94-2.92,0-4L101,103Z"/><path class="cls-11" d="M54.79,168.48a7.67,7.67,0,0,1-7,0L21.29,153.17a2.47,2.47,0,0,1-1.45-2l0,9.12a2.48,2.48,0,0,0,1.46,2L47.78,177.6a7.67,7.67,0,0,0,7,0l96.8-56.16,13.9-15.81Z"/></g><g class="cls-2"><path class="cls-12" d="M53,167a8.75,8.75,0,0,1-7.91,0L15,149.68a2.82,2.82,0,0,1-1.65-2.31l0,6.86A2.81,2.81,0,0,0,15,156.54L45,173.89a8.69,8.69,0,0,0,7.91,0l127.53-73.77,0-6.86Z"/><path class="cls-10" d="M179.29,92.53a.82.82,0,0,1,0,1.41L53,167a8.75,8.75,0,0,1-7.91,0L15,149.68c-2.19-1.27-2.2-3.32,0-4.59L141.29,72a2.44,2.44,0,0,1,2.44,0Z"/><path class="cls-13" d="M49,168.73a8.77,8.77,0,0,1-4.34-1L14.61,150.32a3.49,3.49,0,0,1-2-2.94,3.45,3.45,0,0,1,2-2.93L140.91,71.36a3.26,3.26,0,0,1,3.19,0l35.56,20.54a1.56,1.56,0,0,1,0,2.7L53.33,167.68A8.69,8.69,0,0,1,49,168.73Zm93.5-96.31a1.69,1.69,0,0,0-.85.23L15.33,145.74a2.08,2.08,0,0,0-1.25,1.64A2.13,2.13,0,0,0,15.36,149l30.06,17.36a8,8,0,0,0,7.17,0L178.92,93.3a.07.07,0,0,0,0-.06s0-.06,0-.06L143.35,72.65A1.66,1.66,0,0,0,142.51,72.42Z"/></g><g class="cls-2"><path class="cls-10" d="M206.67,46.1c12.81,7.4-17,29.28-26.19,34.63L62.28,148.66a7.67,7.67,0,0,1-7,0l-26.51-15.3c-1.94-1.12-1.95-2.93,0-4L147,61.38C156.17,56,193.86,38.7,206.67,46.1Z"/><path class="cls-14" d="M28.79,133.36a2.46,2.46,0,0,1-1.46-2l0,9.12a2.48,2.48,0,0,0,1.46,2l26.51,15.31,0-9.13Z"/><path class="cls-11" d="M180.48,80.73,62.28,148.66a7.67,7.67,0,0,1-7,0l0,9.13a7.73,7.73,0,0,0,7,0L176.81,92a.84.84,0,0,1,0-.94.75.75,0,0,1,.88-.21l2,1.1a1.55,1.55,0,0,1,.74,1.28l0,6.46c7.6-4.42,29.3-20.15,29.33-29.65l0-18.91C209.79,60.57,188.09,76.31,180.48,80.73Z"/><path class="cls-15" d="M63.05,154.26,179.23,87.72c7.61-4.42,29.3-20.15,29.33-29.65l0-9.12c0,.12,0,.25,0,.38V53.4c0,9.49-21.72,25.23-29.33,29.65L63.05,149.59Z"/><g class="cls-6"><path class="cls-15" d="M208,56.38V57.7c0,9.49-21.73,25.23-29.33,29.65L63.05,153.54v.72L179.23,87.72c7.61-4.42,29.3-20.15,29.33-29.65V54.71C208.4,55.25,208.17,55.8,208,56.38Z"/></g><polygon class="cls-11" points="120.6 116.31 120.6 121.75 122.59 121.25 122.59 116.31 120.6 116.31"/><polygon class="cls-11" points="175.61 86.22 175.61 91.66 177.6 90.06 177.6 84.62 175.61 86.22"/><polygon class="cls-11" points="105.11 126.04 105.11 131.48 115.28 126.21 115.28 120.23 105.11 126.04"/><polygon class="cls-11" points="97.47 130.04 97.47 135.48 99.46 134.99 99.46 129.73 97.47 130.04"/><g class="cls-6"><polygon class="cls-15" points="97.47 131.1 96.73 131.53 96.73 134.26 97.47 133.83 97.47 131.1"/></g><polygon class="cls-11" points="90.41 134.07 90.41 139.52 92.4 139.02 92.4 133.77 90.41 134.07"/><g class="cls-6"><polygon class="cls-15" points="90.41 135.13 89.67 135.56 89.67 138.28 90.41 137.86 90.41 135.13"/></g><polygon class="cls-11" points="83.38 138.11 83.38 143.55 85.36 143.06 85.36 137.81 83.38 138.11"/><g class="cls-6"><polygon class="cls-15" points="83.38 139.17 82.64 139.6 82.64 142.33 83.38 141.9 83.38 139.17"/></g><polygon class="cls-11" points="76.34 142.14 76.34 147.58 78.33 147.08 78.33 141.83 76.34 142.14"/><g class="cls-6"><polygon class="cls-15" points="76.34 143.19 75.6 143.62 75.6 146.35 76.34 145.92 76.34 143.19"/></g><polygon class="cls-11" points="69.3 146.16 69.3 151.6 71.29 151.1 71.29 145.85 69.3 146.16"/><g class="cls-6"><polygon class="cls-15" points="69.3 147.22 68.56 147.64 68.56 150.38 69.3 149.95 69.3 147.22"/></g><g class="cls-6"><polygon class="cls-15" points="105.11 126.8 104.37 127.23 104.37 129.96 105.11 129.53 105.11 126.8"/></g><g class="cls-6"><polygon class="cls-15" points="120.6 117.93 119.86 118.36 119.86 121.09 120.6 120.66 120.6 117.93"/></g><g class="cls-6"><polygon class="cls-15" points="175.61 86.41 174.87 86.83 174.87 89.57 175.61 89.14 175.61 86.41"/></g></g><g class="cls-2"><path class="cls-10" d="M212.75,38.77c13.66,7.89-18.1,31.22-27.9,36.92L62.21,145.9a8.2,8.2,0,0,1-7.44,0L26.51,129.58c-2.06-1.19-2.07-3.12,0-4.31L149.12,55.06C158.92,49.36,199.1,30.89,212.75,38.77Z"/><path class="cls-11" d="M184.85,75.69,62.21,145.9a8.2,8.2,0,0,1-7.44,0L26.51,129.58A2.62,2.62,0,0,1,25,127.41l0,5.48a2.64,2.64,0,0,0,1.55,2.17l28.27,16.32a8.2,8.2,0,0,0,7.44,0L184.82,81.17c8.1-4.71,31.23-21.49,31.26-31.61l0-5.48C216.08,54.2,193,71,184.85,75.69Z"/></g><path class="cls-14" d="M35.28,115a2.48,2.48,0,0,1-1.46-2l0,9.12a2.46,2.46,0,0,0,1.45,2l26.52,15.31,0-9.12Z"/><path class="cls-14" d="M156.7,79.89,68.77,130.35a7.73,7.73,0,0,1-7,0l0,9.12a7.67,7.67,0,0,0,7,0L156.67,89C164.28,84.6,186,68.86,186,59.36l0-9.12C186,59.73,164.3,75.47,156.7,79.89Z"/><path class="cls-15" d="M68.75,136.34l87.92-50.46C164.28,81.46,186,65.72,186,56.23l0-9.12c0,.12,0,.25,0,.38l0,4.07c0,9.49-21.72,25.23-29.33,29.65L68.75,131.66Z"/><g class="cls-6"><path class="cls-15" d="M185.39,54.54v1.32c0,9.49-21.73,25.23-29.33,29.65l-87.31,50.1v.73l87.92-50.46C164.28,81.46,186,65.72,186,56.23V52.87C185.84,53.41,185.61,54,185.39,54.54Z"/></g><path class="cls-10" d="M237.51,47.52A1.5,1.5,0,0,1,236,46V1.8a1.49,1.49,0,0,1,3,0V46A1.49,1.49,0,0,1,237.51,47.52Z"/><path class="cls-16" d="M240.29,2.72A2.73,2.73,0,1,1,237.56,0,2.72,2.72,0,0,1,240.29,2.72Z"/><g class="cls-3"><path d="M237.56,0a2.67,2.67,0,0,0-1,.2l.21,0A2.15,2.15,0,1,1,235,3.49,2.72,2.72,0,1,0,237.56,0Z"/></g><path class="cls-9" d="M53.56,186.15l-.93-1.76c5.37-2.86,22-12.48,39.54-22.66,16.12-9.35,32.79-19,44.73-25.77,1.47-.82,6.86-7,11.61-12.37,6.63-7.54,10.77-12.19,12.46-13.11,25.83-14.14,41.79-23.3,47.44-27.23l1.13,1.63c-5.7,4-21.73,13.17-47.61,27.34-1.51.82-7,7.12-11.92,12.68-6.45,7.34-10.49,11.87-12.13,12.8-11.94,6.75-28.6,16.41-44.71,25.75C75.58,173.64,59,183.27,53.56,186.15Z"/><path class="cls-17" d="M209.92,95.89a5.17,5.17,0,0,0-2.37,4.1c0,1.51,1.07,2.12,2.38,1.36a5.22,5.22,0,0,0,2.37-4.1C212.3,95.74,211.23,95.13,209.92,95.89Z"/><path class="cls-18" d="M208.87,102h0c-1,0-1.61-.77-1.61-2a5.48,5.48,0,0,1,2.51-4.35,2.46,2.46,0,0,1,1.21-.36c1,0,1.6.77,1.61,2a5.49,5.49,0,0,1-2.51,4.35A2.46,2.46,0,0,1,208.87,102ZM211,95.85a2,2,0,0,0-.92.28,4.92,4.92,0,0,0-2.22,3.86c0,.87.38,1.4,1,1.4a1.92,1.92,0,0,0,.92-.29A4.89,4.89,0,0,0,212,97.25C212,96.37,211.63,95.85,211,95.85Z"/><path class="cls-17" d="M200.39,101.52a5.2,5.2,0,0,0-2.37,4.1c0,1.51,1.07,2.12,2.38,1.36a5.19,5.19,0,0,0,2.37-4.1C202.77,101.38,201.7,100.77,200.39,101.52Z"/><path class="cls-18" d="M199.34,107.6h0c-1,0-1.6-.78-1.61-2a5.49,5.49,0,0,1,2.51-4.35,2.46,2.46,0,0,1,1.21-.36c1,0,1.6.77,1.61,2a5.48,5.48,0,0,1-2.51,4.35A2.48,2.48,0,0,1,199.34,107.6Zm2.11-6.12a1.92,1.92,0,0,0-.92.29,4.93,4.93,0,0,0-2.23,3.85c0,.88.39,1.4,1,1.4a2,2,0,0,0,.92-.28,4.89,4.89,0,0,0,2.22-3.86C202.48,102,202.1,101.48,201.45,101.48Z"/><path class="cls-17" d="M190.86,107.16a5.18,5.18,0,0,0-2.37,4.1c0,1.51,1.07,2.12,2.38,1.36a5.21,5.21,0,0,0,2.37-4.1C193.24,107,192.17,106.4,190.86,107.16Z"/><path class="cls-18" d="M189.81,113.23h0c-1,0-1.61-.77-1.61-2a5.49,5.49,0,0,1,2.51-4.35,2.46,2.46,0,0,1,1.21-.36c1,0,1.6.77,1.61,2a5.49,5.49,0,0,1-2.51,4.35A2.46,2.46,0,0,1,189.81,113.23Zm2.11-6.11a1.92,1.92,0,0,0-.92.29,4.93,4.93,0,0,0-2.23,3.85c0,.87.39,1.4,1,1.4a1.92,1.92,0,0,0,.92-.29,4.93,4.93,0,0,0,2.23-3.85C193,107.64,192.57,107.12,191.92,107.12Z"/><path class="cls-17" d="M181.33,112.79A5.23,5.23,0,0,0,179,116.9c0,1.5,1.07,2.11,2.38,1.35a5.19,5.19,0,0,0,2.37-4.1C183.71,112.65,182.64,112,181.33,112.79Z"/><path class="cls-18" d="M180.28,118.87h0c-1,0-1.61-.78-1.61-2a5.46,5.46,0,0,1,2.51-4.35,2.38,2.38,0,0,1,1.21-.37c1,0,1.6.77,1.61,2a5.46,5.46,0,0,1-2.51,4.35A2.38,2.38,0,0,1,180.28,118.87Zm2.11-6.12a1.92,1.92,0,0,0-.92.29,4.89,4.89,0,0,0-2.22,3.86c0,.87.38,1.39,1,1.39a1.89,1.89,0,0,0,.92-.28,4.91,4.91,0,0,0,2.22-3.86C183.42,113.28,183,112.75,182.39,112.75Z"/><path class="cls-17" d="M171.8,118.43a5.18,5.18,0,0,0-2.37,4.1c0,1.51,1.07,2.12,2.38,1.36a5.24,5.24,0,0,0,2.37-4.1C174.18,118.28,173.11,117.67,171.8,118.43Z"/><path class="cls-18" d="M170.75,124.5h0c-1,0-1.6-.77-1.61-2a5.49,5.49,0,0,1,2.51-4.35,2.46,2.46,0,0,1,1.21-.36c1,0,1.6.77,1.61,2a5.49,5.49,0,0,1-2.51,4.35A2.46,2.46,0,0,1,170.75,124.5Zm2.11-6.11a1.92,1.92,0,0,0-.92.29,4.93,4.93,0,0,0-2.23,3.85c0,.88.39,1.4,1,1.4a1.92,1.92,0,0,0,.92-.29,4.89,4.89,0,0,0,2.22-3.85C173.89,118.91,173.51,118.39,172.86,118.39Z"/><path class="cls-17" d="M162.27,124.06a5.2,5.2,0,0,0-2.37,4.11c0,1.5,1.07,2.11,2.38,1.35a5.19,5.19,0,0,0,2.37-4.1C164.65,123.92,163.58,123.31,162.27,124.06Z"/><path class="cls-18" d="M161.22,130.14h0c-1,0-1.6-.77-1.61-2a5.46,5.46,0,0,1,2.51-4.35,2.38,2.38,0,0,1,1.21-.37c1,0,1.6.77,1.61,2a5.46,5.46,0,0,1-2.51,4.35A2.38,2.38,0,0,1,161.22,130.14Zm2.11-6.11a1.86,1.86,0,0,0-.92.28,4.93,4.93,0,0,0-2.23,3.86c0,.87.39,1.39,1,1.39a1.89,1.89,0,0,0,.92-.28,4.93,4.93,0,0,0,2.23-3.86C164.36,124.55,164,124,163.33,124Z"/><polygon class="cls-14" points="74.89 128.3 74.89 133.74 76.89 133.24 76.89 127.99 74.89 128.3"/><polygon class="cls-14" points="98.05 114.46 98.05 119.9 100.04 119.41 100.04 114.46 98.05 114.46"/><polygon class="cls-14" points="153.05 84.37 153.05 89.81 155.04 89.31 155.04 82.77 153.05 84.37"/><polygon class="cls-14" points="82.55 124.2 82.55 129.64 92.73 124.36 92.73 118.39 82.55 124.2"/><g class="cls-2"><path class="cls-10" d="M187.63,40c12.81,7.4-17,29.29-26.18,34.63L66.28,129.17a7.65,7.65,0,0,1-7,0l-26.52-15.3c-1.93-1.12-1.94-2.93,0-4l95.16-54.55C137.13,49.94,174.82,32.61,187.63,40Z"/><path class="cls-8" d="M129.32,60.63c7.28-4.22,34.41-19.64,44.54-13.79s-15.33,22.07-22.6,26.3Z"/><g class="cls-6"><path class="cls-8" d="M174.27,48.83a4.87,4.87,0,0,1,1.93,1.85,4,4,0,0,0-2.34-3.84c-10.14-5.85-37.26,9.57-44.54,13.8l2,1.1C140.23,56.61,164.75,43.33,174.27,48.83Z"/></g><path class="cls-11" d="M161.45,74.63,66.28,129.17a7.65,7.65,0,0,1-7,0l-26.52-15.3a2.46,2.46,0,0,1-1.45-2l0,5.14a2.46,2.46,0,0,0,1.46,2l26.51,15.31a7.73,7.73,0,0,0,7,0l95.16-54.55c7.61-4.42,29.3-21.89,29.33-31.39l0-3.4C190.75,54.47,169.05,70.21,161.45,74.63Z"/></g><path class="cls-13" d="M64.77,124.46a2,2,0,0,1-2,0L40.83,111.71a.67.67,0,0,1,0-1.16l17.26-10a2,2,0,0,1,2,0L82,113.33a.67.67,0,0,1,0,1.16Z"/><g class="cls-19"><path class="cls-13" d="M60.1,103.24l20.64,12,1.29-.74a.67.67,0,0,0,0-1.16L60.1,100.58a2,2,0,0,0-2,0l-17.26,10a.67.67,0,0,0,0,1.16l1.29.75,16-9.23A2,2,0,0,1,60.1,103.24Z"/></g><path class="cls-20" d="M62.54,118.72a1.28,1.28,0,0,1-.66-.18l-10.47-6.09a.68.68,0,0,1-.35-.6.69.69,0,0,1,.35-.6l8.24-4.75a1.32,1.32,0,0,1,1.33,0l10.47,6.08a.68.68,0,0,1,.34.6.69.69,0,0,1-.34.6l-8.24,4.76A1.29,1.29,0,0,1,62.54,118.72Z"/><path class="cls-9" d="M60.31,106.69a1,1,0,0,1,.48.13l10.47,6.09a.32.32,0,0,1,0,.55L63,118.22a1,1,0,0,1-.48.12,1,1,0,0,1-.48-.12L51.6,112.13a.31.31,0,0,1,0-.55l8.24-4.76a.88.88,0,0,1,.47-.13Zm0-.74h0a1.69,1.69,0,0,0-.85.23l-8.24,4.75a1.07,1.07,0,0,0,0,1.85l10.47,6.08a1.69,1.69,0,0,0,.85.23,1.67,1.67,0,0,0,.85-.23l8.24-4.75a1.07,1.07,0,0,0,0-1.85l-10.47-6.08a1.73,1.73,0,0,0-.86-.23Z"/><g class="cls-6"><path class="cls-20" d="M60.79,108.18l9.77,5.68.7-.4a.32.32,0,0,0,0-.55l-10.47-6.09a1,1,0,0,0-.95,0l-8.24,4.76a.31.31,0,0,0,0,.55l.69.41,7.55-4.36A1,1,0,0,1,60.79,108.18Z"/></g><polygon class="cls-17" points="93.34 109.05 67.44 93.97 67.43 87.9 93.32 102.97 93.34 109.05"/><path class="cls-10" d="M93.32,103,67.43,87.9l36.45-21a21.4,21.4,0,0,1,21.38.08l15.23,8.85Z"/><polygon class="cls-15" points="92.09 107.12 68.87 93.59 68.86 89.92 92.08 103.45 92.09 107.12"/><g class="cls-6"><polygon class="cls-15" points="69.54 93.25 69.53 90.31 68.86 89.92 68.87 93.59 92.09 107.12 92.09 106.39 69.54 93.25"/></g><path class="cls-21" d="M135.83,78.49A6.58,6.58,0,0,1,144,79.86h0l-50.7,29.19,0-6.08Z"/><g class="cls-22"><path d="M129.27,69.25s13.54,9.4,14,9.86.75.74.75.74L93.34,109l.48.2,55.3-29.51Z"/></g><g class="cls-3"><path d="M129.65,73.07h0a2,2,0,0,0-.95.8L122,70a1.91,1.91,0,0,0,.19-.83,2,2,0,0,0-2-2,1.85,1.85,0,0,0-.72.14h0a2,2,0,0,0-1.24,1.82,2,2,0,0,0,.08.55h0a2.38,2.38,0,0,0,.22.49.86.86,0,0,0,.47,1L129,77a2.5,2.5,0,0,0,2.29,0,.81.81,0,0,0,.47-.66v-.06a1.93,1.93,0,0,0,.54-1.35A2,2,0,0,0,129.65,73.07Zm2,3.29,0,0h0Z"/></g><g class="cls-2"><g class="cls-2"><g class="cls-23"><g class="cls-2"><path class="cls-24" d="M118.56,69.8v.27a.8.8,0,0,1-.48-.66v-.27a.8.8,0,0,0,.48.66Z"/></g></g></g><polygon class="cls-24" points="128.59 75.6 128.59 75.87 118.56 70.07 118.56 69.8 128.59 75.6"/><g class="cls-2"><g class="cls-25"><g class="cls-2"><path class="cls-24" d="M131.34,74.94v.27a.81.81,0,0,1-.47.66,2.54,2.54,0,0,1-2.28,0V75.6a2.54,2.54,0,0,0,2.28,0,.79.79,0,0,0,.47-.66Z"/></g></g></g><path class="cls-26" d="M130.86,74.27a.7.7,0,0,1,0,1.33,2.54,2.54,0,0,1-2.28,0l-10-5.8a.7.7,0,0,1,0-1.32,2.5,2.5,0,0,1,2.29,0Z"/></g><path class="cls-16" d="M131.88,73.79a2,2,0,1,1-2-2A2,2,0,0,1,131.88,73.79Z"/><g class="cls-3"><path d="M129.92,71.83a1.92,1.92,0,0,0-.72.14h.14a1.55,1.55,0,1,1-1.3,2.39,2,2,0,1,0,1.88-2.52Z"/></g><path class="cls-16" d="M121.71,68.05a2,2,0,1,1-2-2A2,2,0,0,1,121.71,68.05Z"/><g class="cls-3"><path d="M119.75,66.08a2.15,2.15,0,0,0-.73.14h.14a1.55,1.55,0,1,1-1.3,2.38,2,2,0,1,0,1.89-2.52Z"/></g><g class="cls-6"><path class="cls-27" d="M92.17,90.52c2,1.15,2,3,0,4.16a7.9,7.9,0,0,1-7.18,0c-2-1.15-2-3,0-4.16A7.94,7.94,0,0,1,92.17,90.52Z"/></g><path class="cls-16" d="M92.11,89.66A5.08,5.08,0,1,1,87,84.59,5.07,5.07,0,0,1,92.11,89.66Z"/><g class="cls-3"><path d="M87,84.59a5.17,5.17,0,0,0-1.89.36h.38a4,4,0,1,1-3.36,6.16A5.07,5.07,0,1,0,87,84.59Z"/></g><g class="cls-3"><polygon points="112.4 79.45 118.63 88.17 116.73 89.27 113.13 85.83 109.87 85.62 111.75 84.53 108.77 81.66 95.6 77.08 97.5 75.97 112.4 79.45"/></g><g class="cls-2"><polygon class="cls-28" points="107.31 87.1 104.77 85.62 103.36 72.66 105.89 74.14 107.31 87.1"/><polygon class="cls-29" points="105.89 74.14 103.36 72.66 106.06 71.1 108.6 72.57 105.89 74.14"/><polygon class="cls-30" points="108.6 72.57 113.28 83.65 107.31 87.1 105.89 74.14 108.6 72.57"/></g><g class="cls-2"><polygon class="cls-31" points="104.93 73.21 104.91 75.17 91.75 70.58 91.76 68.63 104.93 73.21"/><polygon class="cls-32" points="112.89 80.83 112.88 82.78 104.91 75.17 104.93 73.21 112.89 80.83"/><polygon class="cls-33" points="114.8 79.72 114.78 81.67 112.88 82.78 112.89 80.83 114.8 79.72"/><polygon class="cls-27" points="108.56 71 114.8 79.72 112.89 80.83 104.93 73.21 91.76 68.63 93.67 67.52 108.56 71"/></g><g class="cls-2"><polygon class="cls-28" points="105.78 73.13 104.59 72.44 103.63 63.49 104.82 64.18 105.78 73.13"/><polygon class="cls-29" points="104.82 64.18 103.63 63.49 104.89 62.76 106.09 63.45 104.82 64.18"/><polygon class="cls-30" points="106.09 63.45 108.58 71.52 105.78 73.13 104.82 64.18 106.09 63.45"/></g><path class="cls-16" d="M100.06,65.6a4.55,4.55,0,1,1-4.55-4.55A4.55,4.55,0,0,1,100.06,65.6Z"/><g class="cls-3"><path d="M95.51,61.05a4.5,4.5,0,0,0-1.69.32h.34a3.59,3.59,0,1,1-3,5.52,4.55,4.55,0,1,0,4.36-5.83Z"/></g><path class="cls-16" d="M118.23,76.26a4.55,4.55,0,1,1-4.55-4.54A4.55,4.55,0,0,1,118.23,76.26Z"/><g class="cls-3"><path d="M113.68,71.72A4.5,4.5,0,0,0,112,72h.34a3.58,3.58,0,1,1-3,5.52,4.55,4.55,0,1,0,4.37-5.83Z"/></g><g class="cls-6"><polygon class="cls-15" points="74.89 129.35 74.16 129.78 74.16 132.51 74.89 132.09 74.89 129.35"/></g><g class="cls-6"><polygon class="cls-15" points="82.55 124.95 81.81 125.38 81.81 128.11 82.55 127.69 82.55 124.95"/></g><g class="cls-6"><polygon class="cls-15" points="98.05 116.09 97.31 116.51 97.31 119.25 98.05 118.82 98.05 116.09"/></g><g class="cls-6"><polygon class="cls-15" points="153.05 84.56 152.31 84.99 152.31 87.72 153.05 87.29 153.05 84.56"/></g><path class="cls-11" d="M196.09,44.6a1.5,1.5,0,0,1-.63-2.85C203.48,38,209,38,212.4,38.69a5.63,5.63,0,0,1,3,2.49A4.52,4.52,0,0,1,216,43a1.42,1.42,0,0,1-1.37-.29c-.12-.09-5.45-4.09-17.94,1.71A1.44,1.44,0,0,1,196.09,44.6Z"/><path class="cls-34" d="M47.62,196.41C64.33,187,81.3,177.6,95,170.05c15.79-8.74,28.25-15.63,32.23-18.1l.39.64c-4,2.47-16.46,9.37-32.25,18.11-13.77,7.61-30.9,17.09-47.73,26.58l-.42.23Z"/><path class="cls-17" d="M257.2,46.22a5.24,5.24,0,0,0-2.37,4.1c0,1.51,1.07,2.12,2.38,1.36a5.2,5.2,0,0,0,2.37-4.1C259.58,46.07,258.51,45.46,257.2,46.22Z"/><path class="cls-18" d="M256.15,52.29h0c-1,0-1.6-.77-1.61-2A5.46,5.46,0,0,1,257.06,46a2.42,2.42,0,0,1,1.2-.37c1,0,1.61.78,1.61,2a5.49,5.49,0,0,1-2.51,4.36A2.46,2.46,0,0,1,256.15,52.29Zm2.11-6.11a1.92,1.92,0,0,0-.92.29,4.88,4.88,0,0,0-2.22,3.85c0,.88.38,1.4,1,1.4a1.89,1.89,0,0,0,.92-.29,4.93,4.93,0,0,0,2.23-3.85C259.29,46.7,258.91,46.18,258.26,46.18Z"/><path class="cls-10" d="M45.67,201.55c22.8-12.59,146.38-81.29,160.61-91.2,15.2-10.57,49-44.4,58.38-58.37l.28-.4s-.07.62-.14,1.07c-9.74,14.25-43.14,47.61-58.24,58.11C192.29,120.69,68.34,189.6,45.84,202l-.46.27.13-.35Z"/></g></g></g></svg>