<svg xmlns="http://www.w3.org/2000/svg" viewBox="0 0 204.74 142.66"><defs><style>.cls-1{isolation:isolate;}.cls-2{opacity:0.21;}.cls-2,.cls-6{mix-blend-mode:multiply;}.cls-3{fill:#fff;}.cls-4{fill:#73808f;}.cls-5{fill:#cd9165;}.cls-7{fill:#c3bfbf;}.cls-8{fill:#08335e;}.cls-9{mix-blend-mode:color-burn;}.cls-10{fill:#4cbad7;}.cls-11{fill:#062749;}.cls-12{fill:#939598;}.cls-13{fill:#d1d3d4;}.cls-14{fill:#dbdbdb;}.cls-15{fill:#9e9e9e;}.cls-16{fill:#8c8c8d;}.cls-17{fill:#767677;}.cls-18{fill:#b5b5b7;}.cls-19{fill:#cbcbcc;}.cls-20{fill:#c4c4c4;}.cls-21{fill:#ebebed;}.cls-22{fill:#bcbec0;}.cls-23{fill:#dcdcdc;}</style></defs><g class="cls-1"><g id="Layer_2" data-name="Layer 2"><g id="graphics"><g class="cls-2"><path d="M131.64,59.23l-4.8-2.92L69,88.94c-41.68,22.45-50.19,52-51.12,53.72,2.89-.57,49.54-6.95,88.17-31.17l98.72-59.18-27.86-16.7Z"/></g><g class="cls-1"><path class="cls-3" d="M22.92,139.73c19.66-5,54.13-15.3,80.86-32.06l94.86-57.4V46.13L103.82,93C65.19,117.23,10.39,124.45,7.5,125Z"/><path class="cls-4" d="M19.11,136.09c19.66-5,53.51-15.14,80.23-31.9l99.3-57.54V40l-3-.1L145.44,70l-5.15-5.08L99.39,89.53C60.76,113.75,6,121,3.07,121.53l-3,2.26Z"/><path class="cls-5" d="M195.66,39.93,145.44,70l-5.15-5.08L99.39,89.53C60.76,113.75,6,121,3.07,121.53c.93-1.7,18.52-30.39,60.2-52.85l57.87-32.63,4.8,2.93,36.33-20.24Z"/><path class="cls-3" d="M195.6,38.09,145.68,68l-5.14-5.07-42,25.28c-29.92,18.76-69.7,27.51-92.11,31.19,5.54-8,23.35-30.79,57.65-49.26l57-32.16,4.79,2.92,40-21.78-3.5-2.24L126,37.1l-4.81-2.92L62.5,67.26a185.45,185.45,0,0,0-45.79,34.51c-10.53,11-15,18.91-15.06,19l-1.65,3,3.38-.67c.18,0,.72-.12,1.39-.23,22.19-3.5,64.09-12.31,95.45-32l39.83-24L145.19,72l53.44-32Z"/><g class="cls-6"><path class="cls-5" d="M65.62,71.51l57-32.17-1.56-1.41-57,32.16C29.77,88.57,12,111.34,6.41,119.35c.94-.15,1.92-.31,2.92-.49C16.1,109.57,33.74,88.68,65.62,71.51Z"/></g><polygon class="cls-5" points="80.89 43.23 84.56 46.85 84.64 46.8 80.97 43.19 80.89 43.23"/></g><polygon class="cls-7" points="179.54 27.42 185.47 35.3 101.62 83.38 109.59 67.81 179.54 27.42"/><polygon class="cls-8" points="172.65 34.98 175.83 39.06 108.28 77.85 110.99 70.45 172.65 34.98"/><polygon class="cls-8" points="178.8 31.48 181.99 35.55 178.09 37.67 174.81 33.82 178.8 31.48"/><path class="cls-3" d="M179.54,27.42,109.59,67.81c-9.22,5.35-24.21,5.35-33.48,0s-9.33-14-.11-19.39L146,8Z"/><path class="cls-5" d="M93.06,70.21a32.5,32.5,0,0,1-16-3.8c-4-2.3-6.17-5.26-6.17-8.34s2.15-6,6.07-8.26L146.14,9.9l30.18,17.52L109,66.41A32.15,32.15,0,0,1,93.06,70.21Z"/><path class="cls-3" d="M146.14,11.77l27,15.65L108.15,65a30.53,30.53,0,0,1-15.09,3.58A30.77,30.77,0,0,1,77.91,65c-3.41-2-5.36-4.49-5.37-6.93s1.92-4.91,5.27-6.85l68.33-39.45Zm0-3.74L76.19,48.42C67,53.77,67,62.45,76.3,67.81a34.3,34.3,0,0,0,16.76,4c6.06,0,12.11-1.33,16.72-4l69.76-40.39L146.14,8Z"/><path class="cls-7" d="M70.22,53.93,62,69.35a18.13,18.13,0,0,0-.86,4.22l0,0c0,.06,0,.12,0,.18a2,2,0,0,0,0,.36h0c.22,3.35,2.54,6.66,7,9.22,9.28,5.35,24.26,5.35,33.48,0l8-15.57c-9.22,5.35-24.21,5.35-33.48,0-3.33-1.93-5.47-4.28-6.41-6.75a9.44,9.44,0,0,1-.58-3.23A10.29,10.29,0,0,1,70.22,53.93Z"/><path class="cls-8" d="M74.07,71.66c-3.33-1.92-5.47-4.28-6.42-6.75a9.59,9.59,0,0,1-.57-3.23,10.16,10.16,0,0,1,1.1-3.9L63.81,66a29.35,29.35,0,0,0-.6,3.45l0,0c0,4.27,3.29,7.63,7,9.76,9.25,5.34,24.18,5.36,33.4,0L106,72.45C97.85,76.79,83.32,77,74.07,71.66Z"/><g class="cls-6"><path class="cls-8" d="M105.08,73l-1.8,5.6c-9.22,5.31-24.15,5.3-33.4,0a14.55,14.55,0,0,1-6.16-6.14c.92,2.52,3.07,4.92,6.46,6.87,9.25,5.34,24.18,5.36,33.4,0L106,72.45Z"/></g><g class="cls-6"><polygon class="cls-8" points="175.84 39.06 172.65 34.98 172.17 35.26 175.03 38.94 108.7 77.02 108.28 77.85 175.84 39.06"/></g><g class="cls-9"><polygon class="cls-8" points="181.99 35.55 178.8 31.48 178.31 31.76 181.19 35.42 177.76 37.28 178.09 37.67 181.99 35.55"/></g><g class="cls-1"><path class="cls-10" d="M50.06,104.42a.69.69,0,0,1-.28-.06L36.12,96.47,55.71,85.08A.67.67,0,0,1,56,85a.69.69,0,0,1,.28.06L69.92,93,50.33,104.36A.67.67,0,0,1,50.06,104.42Z"/><g class="cls-6"><path class="cls-10" d="M56,87.88a.55.55,0,0,1,.28.06l11.05,6.38,2.61-1.52L56.26,84.91a.69.69,0,0,0-.28-.06.67.67,0,0,0-.27.06L36.12,96.3l2.61,1.51,17-9.87A.54.54,0,0,1,56,87.88Z"/></g><path class="cls-3" d="M56,85.43h.08l13,7.53-19,11H50l-13-7.53,19-11Zm0-.81a1,1,0,0,0-.48.11L35.78,96.19a.3.3,0,0,0,0,.56l13.78,8a1,1,0,0,0,.49.11,1,1,0,0,0,.48-.11L70.26,93.25c.26-.15.26-.4,0-.56l-13.78-8a1,1,0,0,0-.49-.11Z"/></g><g class="cls-6"><polygon class="cls-8" points="124.93 62.43 125.93 67.13 126.4 66.86 125.41 62.15 124.93 62.43"/></g><g class="cls-6"><polygon class="cls-8" points="148.81 48.69 149.81 53.43 150.28 53.16 149.29 48.41 148.81 48.69"/></g><polygon class="cls-7" points="147.58 59.22 147.54 59.23 147.58 59.23 147.58 59.22"/><g class="cls-2"><path d="M175.08,26.62,121.31,58.2c-9.22,5.35-24.2,5.35-33.48,0s-9.33-14-.11-19.39L141.61,7.3Z"/></g><rect class="cls-7" x="74.56" y="77.13" width="12.83" height="3.24" transform="translate(-23.62 121.4) rotate(-66.39)"/><rect class="cls-7" x="60.39" y="68.53" width="12.96" height="3.24" transform="translate(-26.93 94.53) rotate(-60.94)"/><path class="cls-11" d="M135.82,75.32a1.75,1.75,0,0,1,.87-1.53L138,73a.58.58,0,0,1,.88.51v3.12a1.75,1.75,0,0,1-.88,1.52l-1.3.76a.6.6,0,0,1-.89-.51Z"/><path class="cls-3" d="M136.41,79.21a.78.78,0,0,1-.77-.77V75.32a2,2,0,0,1,1-1.69l1.31-.75a.72.72,0,0,1,.38-.1.76.76,0,0,1,.77.77v3.12a2,2,0,0,1-1,1.68l-1.3.75A.77.77,0,0,1,136.41,79.21Zm1.88-6.07a.46.46,0,0,0-.2,0l-1.31.76a1.59,1.59,0,0,0-.79,1.37v3.12a.42.42,0,0,0,.62.35l1.3-.75a1.58,1.58,0,0,0,.79-1.37V73.55A.4.4,0,0,0,138.29,73.14Z"/><path class="cls-11" d="M126.74,80.55a1.74,1.74,0,0,1,.88-1.53l1.3-.75a.59.59,0,0,1,.88.51V81.9a1.76,1.76,0,0,1-.88,1.53l-1.3.75a.59.59,0,0,1-.88-.51Z"/><path class="cls-3" d="M127.34,84.44a.79.79,0,0,1-.78-.77V80.55a1.92,1.92,0,0,1,1-1.68l1.3-.76a.75.75,0,0,1,.38-.1.78.78,0,0,1,.77.77V81.9a2,2,0,0,1-1,1.68l-1.3.75A.76.76,0,0,1,127.34,84.44Zm1.87-6.07a.36.36,0,0,0-.2.06l-1.3.75a1.56,1.56,0,0,0-.79,1.37v3.12a.42.42,0,0,0,.62.35l1.3-.75a1.58,1.58,0,0,0,.79-1.37V78.78A.41.41,0,0,0,129.21,78.37Z"/><path class="cls-11" d="M117.66,85.78a1.74,1.74,0,0,1,.88-1.53l1.3-.75a.59.59,0,0,1,.88.51v3.12a1.76,1.76,0,0,1-.88,1.53l-1.3.75a.6.6,0,0,1-.89-.51Z"/><path class="cls-3" d="M118.26,89.67a.77.77,0,0,1-.77-.77V85.78a1.94,1.94,0,0,1,1-1.68l1.3-.75a.76.76,0,0,1,.38-.11.77.77,0,0,1,.77.77v3.12a1.94,1.94,0,0,1-1,1.68l-1.3.75A.76.76,0,0,1,118.26,89.67Zm1.87-6.07a.36.36,0,0,0-.2.06l-1.3.75a1.58,1.58,0,0,0-.79,1.37V88.9a.41.41,0,0,0,.61.35l1.3-.75a1.58,1.58,0,0,0,.79-1.37V84A.41.41,0,0,0,120.13,83.6Z"/><path class="cls-11" d="M108.58,91a1.76,1.76,0,0,1,.88-1.53l1.3-.75a.59.59,0,0,1,.88.51v3.12a1.74,1.74,0,0,1-.88,1.53l-1.3.75a.59.59,0,0,1-.88-.51Z"/><path class="cls-3" d="M109.18,94.9a.77.77,0,0,1-.77-.77V91a2,2,0,0,1,1-1.68l1.3-.75a.76.76,0,0,1,.38-.11.79.79,0,0,1,.78.77v3.12a1.92,1.92,0,0,1-1,1.68l-1.3.76A.75.75,0,0,1,109.18,94.9Zm1.87-6.07a.36.36,0,0,0-.2.06l-1.3.75a1.58,1.58,0,0,0-.79,1.37v3.12a.42.42,0,0,0,.62.35l1.3-.75a1.56,1.56,0,0,0,.79-1.37V89.24A.43.43,0,0,0,111.05,88.83Z"/><rect class="cls-7" x="124.62" y="49.01" width="3.24" height="18.47" transform="translate(-9.3 27.3) rotate(-11.91)"/><polygon class="cls-12" points="120.81 49.54 122.46 57.53 124.76 59.1 123.11 51.11 120.81 49.54"/><polygon class="cls-12" points="144.66 35.82 146.32 43.81 148.62 45.38 146.96 37.39 144.66 35.82"/><polygon class="cls-12" points="163.65 24.41 168.43 30.93 170.73 32.5 165.95 25.98 163.65 24.41"/><polygon class="cls-12" points="169.69 20.95 174.47 27.48 176.91 28.94 171.99 22.51 169.69 20.95"/><polygon class="cls-7" points="166.17 26.54 171.9 34.04 174.33 33.21 168.18 25.94 166.17 26.54"/><polygon class="cls-7" points="173.73 19.49 171.12 21.42 182.92 36.74 185.47 35.3 173.73 19.49"/><path class="cls-7" d="M175.38,21.74,123.25,52.16c-11,6.44-26,6.44-35.29,1.08s-9.32-14-.11-19.39L140.14,3.33l33.59,16.06Z"/><path class="cls-3" d="M173.73,19.39,121.44,49.91c-9.21,5.36-24.2,5.36-33.48,0s-9.32-14-.11-19.39L140.14,0Z"/><path class="cls-5" d="M104.73,52.31a32.47,32.47,0,0,1-16-3.8c-4-2.3-6.17-5.26-6.18-8.33s2.16-6,6.08-8.26l19.61-11.31,30.24,17.46L120.63,48.51A32.15,32.15,0,0,1,104.73,52.31Z"/><path class="cls-3" d="M108.28,22.47l27,15.61-15.48,9a31,31,0,0,1-15.09,3.58,30.82,30.82,0,0,1-15.15-3.58c-3.41-2-5.37-4.5-5.37-6.93s1.92-4.91,5.26-6.86l18.81-10.85Zm0-3.73L87.85,30.52c-9.21,5.36-9.16,14,.11,19.39a34.27,34.27,0,0,0,16.77,4c6.06,0,12.11-1.34,16.71-4l20.31-11.85L108.28,18.74Z"/><g class="cls-6"><polygon class="cls-13" points="110.78 20.97 140.22 3.65 167.38 19.34 137.95 36.66 110.78 20.97"/></g><g class="cls-2"><polygon points="156.25 23.96 154.91 24.74 143.52 21.18 142.88 20.49 139.35 21.55 142.29 19.86 137.34 14.6 138.68 13.82 146.48 19.47 156.25 23.96"/></g><g class="cls-1"><polygon class="cls-14" points="141.36 13.69 139.25 12.46 141.11 11.39 143.22 12.62 141.36 13.69"/><polygon class="cls-15" points="139.35 21.55 137.24 20.32 139.25 12.46 141.36 13.69 139.35 21.55"/><polygon class="cls-16" points="141.36 13.69 143.22 12.62 142.35 19.82 139.35 21.55 141.36 13.69"/></g><g class="cls-1"><polygon class="cls-17" points="139.99 12.38 139.99 13.8 133.8 7.22 133.81 5.79 139.99 12.38"/><polygon class="cls-16" points="151.37 15.93 151.37 17.36 139.99 13.8 139.99 12.38 151.37 15.93"/><polygon class="cls-18" points="152.71 15.16 152.71 16.58 151.37 17.36 151.37 15.93 152.71 15.16"/><polygon class="cls-19" points="152.71 15.16 151.37 15.93 139.99 12.38 133.81 5.79 135.15 5.01 142.95 10.66 152.71 15.16"/></g><g class="cls-1"><polygon class="cls-14" points="143.18 4.79 142.04 4.13 143.04 3.55 144.19 4.21 143.18 4.79"/><polygon class="cls-15" points="141.21 12.3 140.07 11.64 142.04 4.13 143.18 4.79 141.21 12.3"/><polygon class="cls-20" points="143.18 4.79 144.19 4.21 142.83 11.37 141.21 12.3 143.18 4.79"/></g><path class="cls-21" d="M154.64,12.81a3.16,3.16,0,1,1-3.16-3.16A3.16,3.16,0,0,1,154.64,12.81Z"/><g class="cls-2"><path d="M151.48,9.65a3.1,3.1,0,0,0-1.18.23h.24a2.49,2.49,0,1,1,0,5,2.52,2.52,0,0,1-2.1-1.14,3.16,3.16,0,1,0,3-4.06Z"/></g><path class="cls-21" d="M139.45,3.78A3.17,3.17,0,1,1,136.28.62,3.16,3.16,0,0,1,139.45,3.78Z"/><g class="cls-2"><path d="M136.28.62a3.24,3.24,0,0,0-1.17.22h.24a2.49,2.49,0,1,1-2.1,3.84,3.16,3.16,0,1,0,3-4Z"/></g><g class="cls-6"><path class="cls-19" d="M113.45,36.23c2.87,1.65,2.89,4.35,0,6a11.48,11.48,0,0,1-10.37,0c-2.88-1.66-2.89-4.36,0-6A11.44,11.44,0,0,1,113.45,36.23Z"/></g><path class="cls-21" d="M113.35,35A7.34,7.34,0,1,1,106,27.65,7.34,7.34,0,0,1,113.35,35Z"/><g class="cls-2"><path d="M106,27.65a7.24,7.24,0,0,0-2.72.52,4.89,4.89,0,0,1,.54,0A5.79,5.79,0,1,1,99,37.05a7.33,7.33,0,1,0,7-9.4Z"/></g><g class="cls-6"><path class="cls-19" d="M120.92,19c2.29,1.33,2.3,3.47,0,4.79a9.13,9.13,0,0,1-8.27,0c-2.29-1.32-2.3-3.46,0-4.79A9.13,9.13,0,0,1,120.92,19Z"/></g><g class="cls-1"><path class="cls-22" d="M121.69,20v1.1a2.91,2.91,0,0,1-1.7,2.38,9.13,9.13,0,0,1-8.27,0A2.91,2.91,0,0,1,110,21.08V20a2.93,2.93,0,0,0,1.73,2.41,9.11,9.11,0,0,0,8.26,0,2.91,2.91,0,0,0,1.7-2.38Z"/></g><path class="cls-23" d="M120,17.6c2.3,1.32,2.31,3.46,0,4.79a9.11,9.11,0,0,1-8.26,0c-2.3-1.33-2.31-3.47,0-4.79A9.11,9.11,0,0,1,120,17.6Z"/><g class="cls-6"><path class="cls-19" d="M142.81,30.88c2.29,1.32,2.3,3.47,0,4.79a9.13,9.13,0,0,1-8.27,0c-2.29-1.32-2.3-3.47,0-4.79A9.13,9.13,0,0,1,142.81,30.88Z"/></g><g class="cls-1"><path class="cls-22" d="M143.58,31.93V33a2.9,2.9,0,0,1-1.7,2.37,9.13,9.13,0,0,1-8.27,0A2.94,2.94,0,0,1,131.88,33v-1.1a2.89,2.89,0,0,0,1.72,2.41,9.13,9.13,0,0,0,8.27,0,2.88,2.88,0,0,0,1.7-2.37Z"/></g><path class="cls-23" d="M141.85,29.51c2.29,1.33,2.31,3.47,0,4.79a9.13,9.13,0,0,1-8.27,0c-2.29-1.32-2.3-3.46,0-4.79A9.11,9.11,0,0,1,141.85,29.51Z"/><g class="cls-6"><polygon class="cls-8" points="84.87 75.24 81.78 82.24 81.24 82.17 84.31 75.15 84.87 75.24"/></g><g class="cls-6"><polygon class="cls-8" points="70.12 68.65 66.12 75.7 65.81 75.39 69.77 68.28 70.12 68.65"/></g><polygon class="cls-7" points="149.77 35.22 146.64 36.01 150.46 53.93 153.61 53 149.77 35.22"/></g></g></g></svg>