<svg xmlns="http://www.w3.org/2000/svg" viewBox="0 0 329.65 324.66"><defs><style>.cls-1{isolation:isolate;}.cls-10,.cls-2{opacity:0.21;}.cls-10,.cls-18,.cls-2,.cls-7{mix-blend-mode:multiply;}.cls-3{fill:#1c1c1c;}.cls-4{fill:#010004;}.cls-5{fill:#7d3435;}.cls-6{fill:#fff;}.cls-8{fill:#cd9165;}.cls-9{fill:#bcbec0;}.cls-11{fill:#c2c3c2;}.cls-12{fill:#ededed;}.cls-13{fill:#989998;}.cls-14{fill:#08335e;}.cls-15{fill:#a0a1a0;}.cls-16{fill:#adaead;}.cls-17{fill:#e7996a;}.cls-18{opacity:0.32;}</style></defs><g class="cls-1"><g id="Layer_2" data-name="Layer 2"><g id="graphics"><g class="cls-1"><path class="cls-2" d="M269,175c-18.63,20.36-48.65,35.38-71.29,47.82-.45.27-177.81,83.46-184.31,87.16L6.26,314.8c1.78,1.12,12.79,8.13,16.19,9.86,5.62-.29,30.84-2.92,39.14-7.56,42.5-23.77,139.13-77.27,144-80.26,17.21-9.45,47.4-32.88,67.8-55.17,3.48-3.79,1.86-11.39,1.86-11.39C271.26,172.29,272.11,173.45,269,175Z"/><g class="cls-1"><path class="cls-3" d="M18.17,313.56l0,5.64C15.38,317.62,2.19,309.94,0,308.68L0,303c2.19,1.27,15.38,9,18.13,10.53Z"/></g><path class="cls-4" d="M273.42,163c-18.63,20.35-55.52,42.57-78.16,55-.45.27-170.6,91.86-177.09,95.57l0,5.64c.05,0,26.69,1.13,41-6.88,42.5-23.76,139.13-77.26,144-80.26,17.21-9.45,49.8-35.48,70.2-57.76,2.2-2.08,6.3-17.54,6.3-17.54C277.72,158.83,275.62,160.91,273.42,163Z"/><path class="cls-5" d="M18.28,312.94c-1.62-.93-5.84-3.39-9.82-5.7L1,302.92a169.47,169.47,0,0,1,25.18-19c32.58-19.41,71.05-39.59,119-66.28,11.66-6.47,20.25-11.14,23.92-13.13l1.87-1c16.89-10.39,59.51-31.2,97.42-42.94,2-.72,4.23-1.3,6.38-1.86,1-.26,2-.53,3-.81l-4.39,4.87c-20.28,22.15-53.47,46.94-70.56,57.46-10.15,6.8-102.78,58.61-148.08,82.52-10.54,5.57-30.59,9.19-36.49,10.16Z"/><path class="cls-6" d="M276.09,159l-1.69,1.87L273,162.39c-20.23,22.11-53.36,46.85-70.46,57.39-10.13,6.78-102.72,58.56-148,82.47-10.38,5.49-30.12,9.07-36.17,10.08l-9.64-5.6L2,302.82a168.58,168.58,0,0,1,24.49-18.36c32.58-19.41,71-39.58,119-66.26,11.65-6.48,20.24-11.14,23.91-13.13l1.92-1c16.84-10.36,59.41-31.15,97.31-42.88,2-.7,4.17-1.28,6.31-1.84l1.09-.29Zm3.59-2.25c-3.56,1.15-7.8,2-11.39,3.27-38.4,11.89-81.27,33-97.52,43-1.23.68-11.05,6-25.79,14.15C97.4,243.62,58.8,263.86,25.91,283.45A172,172,0,0,0,0,303c2.19,1.27,15.38,9,18.13,10.53,0,0,24.75-3.83,36.94-10.26C98,280.66,192.53,227.92,203.22,220.76c17.34-10.69,50.28-35.29,70.68-57.58,2.27-2.51,5.6-6.18,5.78-6.42Z"/></g><g class="cls-7"><path class="cls-8" d="M179,202c18.89-10.61,56.3-28.48,91.06-39.24.87-.31,2.66-.82,3.6-1.1l.85-1c.37-.41,1.26-1.33,1.67-1.78-.1,0-1.22.43-1.33.45-2.13.56-4.34,1.14-6.29,1.83-39.12,12.12-81.41,33.33-97,42.71-.72.4-8.89,4.82-26.14,14.36-12.54,6.93-12,6.64-34.12,18.81C91.35,248,74.79,257,62.18,264c-17.64,9.81-28.27,16-35.76,20.48A185.59,185.59,0,0,0,2.16,302.6l2,1.14a189.32,189.32,0,0,1,23.79-17.65c22.19-13.22,75.56-42.55,142.15-79.34C178,202.34,176.61,203.35,179,202Z"/></g><path class="cls-6" d="M276.66,159.68a.92.92,0,0,1-1.16-.17.93.93,0,0,1,.06-1.31l52.54-47.79a.93.93,0,1,1,1.25,1.37l-52.54,47.79Z"/><path class="cls-6" d="M252.62,171.13a.35.35,0,0,1-.38-.12.34.34,0,0,1,.07-.49l59.6-45.19a.36.36,0,0,1,.49.07.34.34,0,0,1-.07.49l-59.6,45.19Z"/><g class="cls-1"><path class="cls-9" d="M258.88,171.6v.67a1.75,1.75,0,0,1-1,1.44,5.55,5.55,0,0,1-5,0,1.78,1.78,0,0,1-1.05-1.46v-.67a1.74,1.74,0,0,0,1,1.46,5.49,5.49,0,0,0,5,0,1.74,1.74,0,0,0,1-1.44Z"/></g><path class="cls-6" d="M257.84,170.13c1.39.81,1.4,2.11,0,2.91a5.49,5.49,0,0,1-5,0c-1.39-.8-1.4-2.1,0-2.9A5.52,5.52,0,0,1,257.84,170.13Z"/><g class="cls-10"><path d="M224.93,189.93c1.5.87,1.51,2.27,0,3.13a5.91,5.91,0,0,1-5.4,0c-1.5-.86-1.51-2.26,0-3.13A6,6,0,0,1,224.93,189.93Z"/></g><g class="cls-1"><path class="cls-9" d="M225.67,190.43v.72a1.9,1.9,0,0,1-1.11,1.56,6,6,0,0,1-5.41,0,1.9,1.9,0,0,1-1.12-1.58v-.72a1.92,1.92,0,0,0,1.12,1.58,6,6,0,0,0,5.41,0,1.89,1.89,0,0,0,1.11-1.56Z"/></g><path class="cls-6" d="M224.54,188.86c1.5.86,1.51,2.26,0,3.13a6,6,0,0,1-5.41,0c-1.49-.87-1.5-2.27,0-3.13A5.91,5.91,0,0,1,224.54,188.86Z"/><path class="cls-11" d="M202.93,209.62,164,218v.88a1.28,1.28,0,0,0,.64,1.12l9.86,5.64a3.73,3.73,0,0,0,3.78,0l24-14.12a1.28,1.28,0,0,0,.64-1.12Z"/><g class="cls-10"><path d="M202.93,209.62,164,218v1.2a2.72,2.72,0,0,0,1.35,2.28l9.6,5.62a3.27,3.27,0,0,0,3.27,0l26.68-15.38c.37-.22.79-1-.78-1.56Z"/></g><path class="cls-6" d="M178.31,224.91a3.76,3.76,0,0,1-3.78,0l-9.86-5.65a1.28,1.28,0,0,1,0-2.21l24-14.13a3.73,3.73,0,0,1,3.78,0l9.86,5.64a1.29,1.29,0,0,1,0,2.22Z"/><g class="cls-10"><path d="M35.48,299.26c1.5.86,1.51,2.26,0,3.13a6,6,0,0,1-5.4,0c-1.5-.87-1.51-2.27,0-3.13A5.91,5.91,0,0,1,35.48,299.26Z"/></g><g class="cls-1"><path class="cls-9" d="M36.22,299.76v.72A1.89,1.89,0,0,1,35.11,302a5.93,5.93,0,0,1-5.41,0,1.91,1.91,0,0,1-1.13-1.58v-.72a1.87,1.87,0,0,0,1.13,1.58,5.91,5.91,0,0,0,5.4,0,1.89,1.89,0,0,0,1.11-1.55Z"/></g><path class="cls-6" d="M35.09,298.18c1.5.87,1.51,2.27,0,3.13a5.91,5.91,0,0,1-5.4,0c-1.5-.86-1.51-2.26,0-3.13A6,6,0,0,1,35.09,298.18Z"/><g class="cls-10"><path d="M80.27,269.69c1.49.86,1.5,2.27,0,3.13a6,6,0,0,1-5.41,0c-1.5-.86-1.5-2.27,0-3.13A6,6,0,0,1,80.27,269.69Z"/></g><g class="cls-1"><path class="cls-9" d="M81,270.19v.72a1.89,1.89,0,0,1-1.11,1.55,5.91,5.91,0,0,1-5.4,0,1.87,1.87,0,0,1-1.13-1.57v-.72a1.92,1.92,0,0,0,1.13,1.58,6,6,0,0,0,5.4,0A1.9,1.9,0,0,0,81,270.19Z"/></g><path class="cls-6" d="M79.88,268.61c1.49.87,1.5,2.27,0,3.14a6,6,0,0,1-5.4,0c-1.5-.87-1.51-2.27,0-3.14A6,6,0,0,1,79.88,268.61Z"/><path class="cls-6" d="M66.82,214.54a1,1,0,0,1-.77-.11L.74,176a1,1,0,0,1,1-1.76l65.31,38.39a1,1,0,0,1,.37,1.4A1.09,1.09,0,0,1,66.82,214.54Z"/><path class="cls-6" d="M254.54,141.8a1,1,0,0,1-.77-.1L186,101.86a1,1,0,1,1,1-1.76l67.76,39.84a1,1,0,0,1,.36,1.39A1,1,0,0,1,254.54,141.8Z"/><path class="cls-6" d="M50,148.9a1,1,0,0,1-.77-.11L14.91,128.53a1,1,0,1,1,1-1.76L50.22,147a1,1,0,0,1,.37,1.39A1.06,1.06,0,0,1,50,148.9Z"/><path class="cls-6" d="M50,179.27a1,1,0,0,1-.77-.11L14.91,158.91a1,1,0,0,1-.37-1.4,1,1,0,0,1,1.4-.36L50.22,177.4a1,1,0,0,1,.37,1.4A1,1,0,0,1,50,179.27Z"/><path class="cls-6" d="M150.45,39a1,1,0,0,1-.77-.11L108,14.24a1,1,0,0,1,1-1.76l41.69,24.67a1,1,0,0,1,.36,1.39A1,1,0,0,1,150.45,39Z"/><path class="cls-6" d="M150.45,134.91a1,1,0,0,1-.77-.11L108,110.14a1,1,0,0,1,1-1.76l41.69,24.67a1,1,0,0,1,.36,1.39A1,1,0,0,1,150.45,134.91Z"/><path class="cls-6" d="M150.45,174a1,1,0,0,1-.77-.1L108,149.22a1,1,0,0,1,1-1.76l41.69,24.67a1,1,0,0,1,.36,1.39A1,1,0,0,1,150.45,174Z"/><path class="cls-6" d="M236.29,62.41a1,1,0,0,1-.77-.11L207.77,45.82a1,1,0,1,1,1-1.76l27.74,16.49a1,1,0,0,1,.37,1.39A1,1,0,0,1,236.29,62.41Z"/><path class="cls-6" d="M236.29,99.48a1,1,0,0,1-.77-.11L207.77,82.88a1,1,0,0,1,1-1.76l27.74,16.49a1,1,0,0,1,.37,1.4A1.06,1.06,0,0,1,236.29,99.48Z"/><path class="cls-6" d="M236.29,151.25a1,1,0,0,1-.77-.1l-27.75-16.49a1,1,0,0,1,1-1.76l27.74,16.49a1,1,0,0,1,.37,1.39A1,1,0,0,1,236.29,151.25Z"/><path class="cls-6" d="M172.29,111.3a1,1,0,0,1-.78-.1L77.83,55.57a1,1,0,0,1,1-1.76l93.68,55.63a1,1,0,0,1,.36,1.39A1,1,0,0,1,172.29,111.3Z"/><path class="cls-6" d="M322.14,145.47a1,1,0,0,1-.78-.1l-34.28-20.26a1,1,0,0,1-.36-1.4,1,1,0,0,1,1.4-.36l34.28,20.26a1,1,0,0,1,.36,1.39A1,1,0,0,1,322.14,145.47Z"/><path class="cls-6" d="M316.23,159.73a1,1,0,0,1-.78-.11L267.81,131.5a1,1,0,0,1,1-1.76l47.65,28.12a1,1,0,0,1,.36,1.4A1,1,0,0,1,316.23,159.73Z"/><path class="cls-6" d="M115.51,243.78a.28.28,0,0,1-.09-.07L31.2,137a.26.26,0,0,1,.4-.32l84.23,106.7a.24.24,0,0,1,0,.35A.23.23,0,0,1,115.51,243.78Z"/><path class="cls-6" d="M254.68,173.07a.27.27,0,0,1-.2-.09L127.54,24.38a.25.25,0,0,1,0-.36.26.26,0,0,1,.36,0L254.87,172.64a.25.25,0,0,1,0,.36A.33.33,0,0,1,254.68,173.07Z"/><path class="cls-6" d="M10.55,308.93h0a.27.27,0,0,1-.22-.29l21.09-172a.27.27,0,0,1,.29-.23.27.27,0,0,1,.22.29L10.8,308.7A.27.27,0,0,1,10.55,308.93Z"/><path class="cls-6" d="M254.91,170.52a.26.26,0,0,1-.23-.19L221.17,48.25a.25.25,0,1,1,.49-.14L255.17,170.2a.26.26,0,0,1-.18.31Z"/><path class="cls-6" d="M31.94,298.61h-.09a.26.26,0,0,1-.16-.33l97-272.51a.25.25,0,0,1,.32-.16.27.27,0,0,1,.16.33l-97,272.51A.23.23,0,0,1,31.94,298.61Z"/><g class="cls-10"><polygon points="32.78 298.26 52.32 303.35 48.79 304.8 32.2 300.39 32.78 298.26"/></g><path class="cls-6" d="M32.47,300.43a1.36,1.36,0,0,1-1.36-1.36V114a1.36,1.36,0,0,1,2.72,0V299.07A1.36,1.36,0,0,1,32.47,300.43Z"/><g class="cls-10"><polygon points="221.65 188.62 239.05 193.55 236.91 195.21 221.08 190.76 221.65 188.62"/></g><path class="cls-12" d="M136.12,225.31l16.32-1.39s10.71,3,15,9.13c-2.33.55-15.86,1.26-15.86,1.26Z"/><polygon class="cls-13" points="88.14 278.92 71.78 269.69 67.89 264.67 83.24 273.59 88.14 278.92"/><g class="cls-1"><path class="cls-6" d="M67.82,264.65l68.35-39.35a37.35,37.35,0,0,1,10.41,4.49,23.12,23.12,0,0,1,5,4.44L83.19,273.58Z"/><path class="cls-14" d="M164.65,233.25c-4.29-6.16-15.28-9.1-15.28-9.1l-8.82.78a37,37,0,0,1,10.4,4.49A24.22,24.22,0,0,1,156,234Z"/><polygon class="cls-11" points="151.54 234.23 167.44 233.05 88.14 278.92 83.19 273.58 151.54 234.23"/></g><g class="cls-10"><polygon points="127.75 235.41 142.69 239.33 140.03 240.85 127.18 237.55 127.75 235.41"/></g><polygon class="cls-14" points="164.65 233.26 98.2 271.18 98.22 266.97 155.96 233.9 160.18 233.54 164.65 233.26"/><rect class="cls-11" x="111.77" y="257.92" width="2.04" height="6.07"/><g class="cls-7"><polygon class="cls-14" points="113.83 262.26 113.83 261.83 163.98 233.34 156.02 233.93 155.75 233.62 164.37 232.97 164.62 233.27 113.83 262.26"/></g><g class="cls-7"><polygon class="cls-14" points="98.19 271.21 98.24 270.74 111.46 263.15 111.46 259.4 111.77 259.22 111.77 263.4 98.19 271.21"/></g><g class="cls-7"><path class="cls-14" d="M164.38,233.25l.24,0c-4.3-6.16-15.28-9.1-15.28-9.1l-8.82.78.67.18,8.08-.72S160,227.25,164.38,233.25Z"/></g><polygon class="cls-11" points="57.09 279.88 72.73 268.3 80.88 272.92 65.23 284.57 57.09 279.88"/><polygon class="cls-15" points="65.23 284.57 65.03 288.78 85.09 277.16 80.87 272.94 65.23 284.57"/><polygon class="cls-16" points="57.09 279.88 56.34 283.71 65.03 288.78 65.23 284.57 57.09 279.88"/><path class="cls-17" d="M81.7,265.12a1.57,1.57,0,0,1,0-2.72l38.63-22.18a11.54,11.54,0,0,1,3.18,1.38A7.05,7.05,0,0,1,125,243L86.4,265.13A4.72,4.72,0,0,1,81.7,265.12Z"/><g class="cls-7"><path class="cls-17" d="M81.78,263.21,120.41,241a11.19,11.19,0,0,1,3.17,1.38,7.12,7.12,0,0,1,1,.81L125,243a7.16,7.16,0,0,0-1.52-1.35,11.19,11.19,0,0,0-3.18-1.38L81.7,262.42a1.56,1.56,0,0,0-.68,1.89A1.54,1.54,0,0,1,81.78,263.21Z"/></g><path class="cls-6" d="M221.8,190.85c-.75,0-1.36-.32-1.36-1.07V35.11a1.36,1.36,0,1,1,2.72,0V189.78C223.16,190.53,222.55,190.85,221.8,190.85Z"/><path class="cls-6" d="M126.77,237.57V1.57a1.57,1.57,0,1,1,3.14,0V236a1.57,1.57,0,0,1-1.57,1.57Z"/><path class="cls-18" d="M56.33,283.78l.79,2.48L65,291.19l21.18-8.9,4.64-1.06L135,256.9l38.24-21.44s-7.08-6.69-13.63-8.68c5.92,3.08,7.84,6.29,7.84,6.29l-15.9,1.16L83.17,273.58l-2.3-.64L65.23,284.61l-8.13-4.69Z"/><path class="cls-6" d="M34.6,298.56l-.1-.05a.27.27,0,0,1,0-.36L220.29,52.5a.26.26,0,0,1,.36,0,.25.25,0,0,1,0,.35L34.86,298.46A.27.27,0,0,1,34.6,298.56Z"/><path class="cls-6" d="M257.85,173a.38.38,0,0,1-.39-.1.35.35,0,0,1,0-.49l56.51-49a.36.36,0,0,1,.49,0,.35.35,0,0,1,0,.49L258,173Z"/></g></g></g></svg>