<svg xmlns="http://www.w3.org/2000/svg" viewBox="0 0 1129.03 421.49"><defs><style>.cls-1{fill:#1c6484;}.cls-2{fill:#043f61;}.cls-3{fill:#64acbf;}.cls-4{fill:#2a6288;}</style></defs><g id="Layer_2" data-name="Layer 2"><g id="_1" data-name="1"><rect class="cls-1" x="1051.24" y="357.66" width="14.89" height="56.38"/><rect class="cls-1" x="1033.16" y="383.19" width="42.55" height="24.47"/><rect class="cls-1" x="1087.41" y="356.59" width="21.28" height="55.32"/><rect class="cls-1" x="1070.39" y="391.7" width="58.64" height="20.21"/><rect class="cls-1" x="1117.2" y="376.8" width="6.38" height="22.34"/><rect class="cls-1" x="1022.52" y="340.63" width="21.28" height="60.64"/><rect class="cls-1" x="829.96" y="330" width="70.21" height="52.13"/><rect class="cls-1" x="620.23" y="333.65" width="117.06" height="63.83"/><rect class="cls-1" x="691.67" y="321.49" width="10.64" height="37.23"/><rect class="cls-1" x="561.88" y="304.46" width="31.92" height="95.74"/><rect class="cls-1" x="541.66" y="330" width="12.77" height="52.13"/><rect class="cls-1" x="523.58" y="362.97" width="50" height="24.47"/><rect class="cls-1" x="452.3" y="274.68" width="56.38" height="110.64"/><rect class="cls-1" x="422.52" y="334.25" width="68.08" height="45.74"/><rect class="cls-1" x="568.26" y="281.06" width="9.58" height="37.23"/><rect class="cls-1" x="257.62" y="295.95" width="32.98" height="63.83"/><rect class="cls-1" x="137.41" y="355.53" width="92.55" height="58.51"/><rect class="cls-1" x="172.52" y="290.63" width="35.11" height="78.72"/><rect class="cls-1" x="79.96" y="349.15" width="46.81" height="65.96"/><rect class="cls-1" x="10.81" y="394.89" width="102.13" height="18.08"/><rect class="cls-1" x="31.03" y="360.85" width="18.09" height="41.49"/><rect class="cls-2" x="177.84" y="375.74" width="393.62" height="26.6"/><polygon class="cls-1" points="505.1 396.38 505.1 151.7 477.97 160.35 477.97 396.38 505.1 396.38"/><polygon class="cls-3" points="532.17 396.38 532.17 160.35 505.04 151.7 505.04 396.38 532.17 396.38"/><polygon class="cls-2" points="75.26 414.21 75.26 315.1 59.89 318.61 59.89 414.21 75.26 414.21"/><polygon class="cls-3" points="90.6 414.21 90.6 318.61 75.23 315.1 75.23 414.21 90.6 414.21"/><rect class="cls-1" x="333.41" y="266.69" width="27.55" height="102.14"/><rect class="cls-1" x="344.42" y="252.71" width="11.02" height="19.92"/><path class="cls-1" d="M406.73,77.55l-3.43.58q.31-23.89.64-47.79l2.15.36Q406.41,54.13,406.73,77.55Z"/><path class="cls-3" d="M405.78,30.32l-1.53.26q.15-10.62.29-21.25l.95.16Q405.64,19.9,405.78,30.32Z"/><rect class="cls-3" x="403.11" y="29.89" width="3.8" height="1.77"/><path class="cls-1" d="M419.16,79.86l-3.26.55q.3-22.69.61-45.4l2,.34Q418.85,57.61,419.16,79.86Z"/><path class="cls-3" d="M418.25,35l-1.44.25.27-20.19.9.15Z"/><rect class="cls-3" x="415.72" y="34.58" width="3.61" height="1.68"/><rect class="cls-3" x="388.92" y="109.46" width="8.58" height="47.17"/><polygon class="cls-2" points="408.57 79.98 405.73 75.47 391.13 78.14 391.13 170.63 409.67 165.1 408.57 79.98"/><polygon class="cls-3" points="426.76 185.08 405.73 180.49 405.73 75.47 426.76 80.06 426.76 185.08"/><polygon class="cls-1" points="425.14 90.76 407.36 86.88 407.36 82.09 425.14 85.97 425.14 90.76"/><path class="cls-1" d="M425.14,96l-17.78-3.88v2.53l17.78,3.88Zm0,3.55-17.78-3.88v2.52l17.78,3.88Zm0,6.07v-2.53l-17.78-3.88v2.53Zm-17.78-2.87v2.53l17.78,3.88v-2.53Zm0,6.07,17.78,3.88v-2.53l-17.78-3.88Zm0,3.54,17.78,3.89v-2.53l-17.78-3.89Zm0,3.55,17.78,3.88v-2.53l-17.78-3.88Zm0,3.54,17.78,3.88v-2.53l-17.78-3.88Zm0,3.54,17.78,3.88v-2.53l-17.78-3.88Zm0,3.54,17.78,3.89v-2.53L407.36,124Zm0,3.55L425.14,134v-2.53l-17.78-3.88Zm0,3.54,17.78,3.88V135l-17.78-3.88Zm0,3.54,17.78,3.88v-2.53l-17.78-3.88Zm0,3.54,17.78,3.89v-2.53l-17.78-3.88Zm0,3.55,17.78,3.88v-2.53l-17.78-3.88Zm0,3.54,17.78,3.88v-2.53l-17.78-3.88Zm0,3.54,17.78,3.88V152.7l-17.78-3.88Zm0,3.54,17.78,3.88v-2.52l-17.78-3.89Zm0,3.55,17.78,3.88v-2.53l-17.78-3.88Zm0,3.54,17.78,3.88v-2.53l-17.78-3.88Zm0,3.54,17.78,3.88v-2.53L407.36,163Zm0,3.54,17.78,3.88v-2.52l-17.78-3.89Zm0,3.55,17.78,3.88V174l-17.78-3.88Zm0,3.54L425.14,180V177.5l-17.78-3.88Z"/><rect class="cls-2" x="388.31" y="157.36" width="38.83" height="88.44"/><rect class="cls-2" x="375.27" y="154.04" width="6.07" height="93.23"/><polygon class="cls-2" points="403.78 152.57 396.73 146.3 379.51 148.89 379.51 245.43 399.84 245.43 403.78 152.57"/><rect class="cls-2" x="404.39" y="148.52" width="18.81" height="176.87"/><polygon class="cls-3" points="434.95 250.42 423.12 246.33 423.12 148.31 434.95 152.41 434.95 250.42"/><path class="cls-1" d="M424.31,157.52v1.84l9.46,3.28v-1.85Zm0,5.51,9.46,3.27v-1.84l-9.46-3.27Zm0,3.67,9.46,3.27v-1.84l-9.46-3.27Zm0,3.67,9.46,3.27V171.8l-9.46-3.28Zm9.46,5.1-9.46-3.28V174l9.46,3.27Zm0,3.67-9.46-3.28v1.84l9.46,3.28Zm-9.46,2.23,9.46,3.28v-1.84l-9.46-3.28Zm0,3.67,9.46,3.28v-1.84l-9.46-3.28Zm0,3.67,9.46,3.28v-1.85l-9.46-3.27Zm0,3.67,9.46,3.28v-1.85l-9.46-3.27Zm0,3.67,9.46,3.27v-1.84l-9.46-3.27Zm0,3.67,9.46,3.27v-1.84l-9.46-3.27Zm0,3.67,9.46,3.27v-1.84l-9.46-3.28Zm0,3.67,9.46,3.27v-1.84l-9.46-3.28Zm0,3.67,9.46,3.27v-1.84l-9.46-3.28Zm0,3.66,9.46,3.28v-1.84l-9.46-3.28Zm0,3.67,9.46,3.28V219.5l-9.46-3.28Zm0,3.67,9.46,3.28v-1.85l-9.46-3.27Zm0,3.67,9.46,3.28v-1.85l-9.46-3.27Zm0,3.67,9.46,3.27V230.5l-9.46-3.27Zm0,3.67,9.46,3.27v-1.84l-9.46-3.28Zm0,3.67,9.46,3.27v-1.84l-9.46-3.28Zm0,3.67,9.46,3.27v-1.84l-9.46-3.28Zm0,3.66,9.46,3.28v-1.84l-9.46-3.28Z"/><polygon class="cls-3" points="407.65 247.28 396.73 245.73 396.73 146.3 407.65 147.85 407.65 247.28"/><path class="cls-1" d="M397.82,155.38v1.87l8.74,1.23v-1.87Zm0,5.59,8.74,1.23v-1.87l-8.74-1.23Zm0,3.72,8.74,1.24v-1.87l-8.74-1.24Zm0,3.72,8.74,1.24v-1.87l-8.74-1.24Zm8.74,3.09-8.74-1.24v1.87l8.74,1.24Zm0,3.72L397.82,174v1.86l8.74,1.24Zm-8.74,4.36,8.74,1.23v-1.87l-8.74-1.23Zm0,3.72,8.74,1.24v-1.87l-8.74-1.24Zm0,3.72,8.74,1.24v-1.87l-8.74-1.24Zm0,3.72,8.74,1.24v-1.87l-8.74-1.24Zm0,3.72,8.74,1.24v-1.87l-8.74-1.23Zm0,3.73,8.74,1.23v-1.87l-8.74-1.23Zm0,3.72,8.74,1.23v-1.87L397.82,200Zm0,3.72,8.74,1.24V205l-8.74-1.24Zm0,3.72,8.74,1.24v-1.87l-8.74-1.24Zm0,3.72,8.74,1.24v-1.87l-8.74-1.24Zm0,3.73,8.74,1.23v-1.87l-8.74-1.23Zm0,3.72,8.74,1.23v-1.86l-8.74-1.24Zm0,3.72,8.74,1.24v-1.87l-8.74-1.24Zm0,3.72,8.74,1.24v-1.87l-8.74-1.24Zm0,3.72,8.74,1.24v-1.87l-8.74-1.24Zm0,3.73,8.74,1.23v-1.87l-8.74-1.23Zm0,3.72,8.74,1.23v-1.87l-8.74-1.23Zm0,3.72,8.74,1.23v-1.86L397.82,241Z"/><polygon class="cls-2" points="402.87 245.06 397.34 239.16 364.95 244.69 364.95 340.13 408.33 340.13 402.87 245.06"/><polygon class="cls-3" points="408.26 340.14 397.34 338.59 397.34 239.16 408.26 240.71 408.26 340.14"/><path class="cls-1" d="M398.43,248.23v1.87l8.73,1.24v-1.87Zm0,5.6,8.73,1.23v-1.87L398.43,252Zm0,3.72,8.73,1.23v-1.87l-8.73-1.23Zm0,3.72,8.73,1.23v-1.86l-8.73-1.24Zm8.73,3.09-8.73-1.24V265l8.73,1.24Zm0,3.72-8.73-1.24v1.87l8.73,1.24Zm-8.73,4.35,8.73,1.24V271.8l-8.73-1.23Zm0,3.73,8.73,1.23v-1.87l-8.73-1.23Zm0,3.72,8.73,1.23v-1.87L398.43,278Zm0,3.72,8.73,1.23V283l-8.73-1.24Zm0,3.72,8.73,1.24v-1.87l-8.73-1.24Zm0,3.72,8.73,1.24v-1.87l-8.73-1.24Zm0,3.72,8.73,1.24v-1.87l-8.73-1.23Zm0,3.73,8.73,1.23v-1.87l-8.73-1.23Zm0,3.72,8.73,1.23v-1.86l-8.73-1.24Zm0,3.72,8.73,1.24V305.3l-8.73-1.24Zm0,3.72,8.73,1.24V309l-8.73-1.24Zm0,3.73,8.73,1.23v-1.87l-8.73-1.24Zm0,3.72,8.73,1.23v-1.87l-8.73-1.23Zm0,3.72,8.73,1.23v-1.86L398.43,319Zm0,3.72,8.73,1.24v-1.87l-8.73-1.24Zm0,3.72,8.73,1.24v-1.87l-8.73-1.24Zm0,3.72,8.73,1.24v-1.87l-8.73-1.24Zm0,3.73,8.73,1.23v-1.87l-8.73-1.23Z"/><polygon class="cls-3" points="442.97 342.65 422.65 340.84 422.65 242.82 442.97 244.63 442.97 342.65"/><path class="cls-1" d="M424.68,251.8v1.84l16.25,1.45v-1.84Zm0,5.51,16.25,1.45v-1.85l-16.25-1.44Zm0,3.67,16.25,1.44v-1.84l-16.25-1.44Zm0,3.67,16.25,1.44v-1.84l-16.25-1.45Zm16.25,3.27-16.25-1.45v1.85l16.25,1.44Zm0,3.67-16.25-1.45V272l16.25,1.45Zm-16.25,4.06,16.25,1.45v-1.84l-16.25-1.45Zm0,3.67,16.25,1.45v-1.84l-16.25-1.45Zm0,3.67,16.25,1.45V282.6l-16.25-1.45Zm0,3.67,16.25,1.45v-1.84l-16.25-1.45Zm0,3.67,16.25,1.45v-1.84l-16.25-1.45Zm0,3.67,16.25,1.45V293.6l-16.25-1.44Zm0,3.67,16.25,1.44v-1.84l-16.25-1.44Zm0,3.67,16.25,1.44v-1.84l-16.25-1.45Zm0,3.67,16.25,1.44v-1.84l-16.25-1.45Zm0,3.66,16.25,1.45v-1.84l-16.25-1.45Zm0,3.67,16.25,1.45V312l-16.25-1.45Zm0,3.67,16.25,1.45v-1.84l-16.25-1.45Zm0,3.67,16.25,1.45v-1.84l-16.25-1.45Zm0,3.67,16.25,1.45V323l-16.25-1.44Zm0,3.67,16.25,1.45v-1.85l-16.25-1.44Zm0,3.67,16.25,1.45v-1.85l-16.25-1.45Zm0,3.67,16.25,1.44V334l-16.25-1.45Zm0,3.66,16.25,1.45v-1.84l-16.25-1.45Z"/><path class="cls-3" d="M412.27,379.19l33.8-4.88-.86-62.93-33.16-6s-4.11,7.85-7.35,14.15Z"/><polygon class="cls-2" points="389.53 308.84 389.62 376.06 412.44 379.36 412.05 305.42 389.53 308.84"/><rect class="cls-3" x="361.61" y="337.19" width="28.26" height="7.94"/><rect class="cls-1" x="352.63" y="343.71" width="37.98" height="11.39"/><rect class="cls-1" x="350.09" y="354.86" width="101.28" height="32.66"/><rect class="cls-3" x="404.02" width="1.88" height="10.33"/><polygon class="cls-3" points="294.11 143.74 287.25 131.77 280.39 143.74 294.11 143.74"/><rect class="cls-2" x="280.62" y="143.46" width="12.76" height="9.69"/><rect class="cls-3" x="285.6" y="144.33" width="3.45" height="6.33"/><rect class="cls-3" x="279.75" y="144.33" width="15.35" height="1.92"/><polygon class="cls-3" points="339.46 143.74 332.6 131.77 325.74 143.74 339.46 143.74"/><rect class="cls-2" x="325.97" y="143.46" width="12.76" height="9.69"/><rect class="cls-3" x="330.96" y="144.33" width="3.45" height="6.33"/><rect class="cls-3" x="325.11" y="144.33" width="15.35" height="1.92"/><rect class="cls-2" x="285.74" y="152.5" width="49.95" height="233.22"/><rect class="cls-1" x="322.55" y="153.31" width="9.11" height="232.01"/><rect class="cls-3" x="331.66" y="153.31" width="8.94" height="232.01"/><rect class="cls-1" x="278.89" y="153.31" width="9.11" height="232.01"/><rect class="cls-3" x="288.01" y="153.31" width="8.94" height="232.01"/><rect class="cls-3" x="278.09" y="151.29" width="63.64" height="3.62"/><rect class="cls-3" x="294.91" y="148.45" width="29.44" height="3.45"/><rect class="cls-1" x="276.41" y="382.71" width="67.6" height="5.82"/><rect class="cls-2" x="450.77" y="310.85" width="32.39" height="101.06"/><rect class="cls-1" x="467.2" y="310.85" width="15.96" height="101.06"/><rect class="cls-2" x="471.1" y="292.81" width="3.42" height="21.22"/><rect class="cls-2" x="197.79" y="228.97" width="29.67" height="157.19"/><rect class="cls-1" x="221.52" y="245.08" width="26.7" height="141.12"/><rect class="cls-3" x="201.6" y="222.62" width="22.89" height="7.2"/><rect class="cls-3" x="243.56" y="244.66" width="5.51" height="141.55"/><rect class="cls-2" x="173.58" y="395.95" width="152.13" height="21.28"/><rect class="cls-2" x="384.22" y="404.46" width="113.83" height="17.02"/><rect class="cls-2" x="352.3" y="404.46" width="7.45" height="8.51"/><rect class="cls-2" x="534.22" y="382.12" width="21.28" height="34.04"/><rect class="cls-3" x="838.47" y="211.32" width="47.81" height="200.59"/><rect class="cls-2" x="842.63" y="218.59" width="38.46" height="9.35"/><rect class="cls-2" x="103.18" y="289.2" width="52.2" height="124.41"/><rect class="cls-3" x="108.49" y="274.2" width="42.83" height="30.63"/><path class="cls-2" d="M111.31,302h3.12V278.57h-3.12Zm5.67,0h3.12V278.57H117Zm5.67,0h3.12V278.57h-3.12Zm5.66,0h3.13V278.57h-3.13Zm5.67,0h3.13V278.57H134Zm5.67,0h3.13V278.57h-3.13Zm5.67-23.45V302h3.13V278.57Z"/><rect class="cls-3" x="148.82" y="307.33" width="2.19" height="106.6"/><rect class="cls-3" x="109.14" y="307.33" width="2.19" height="106.6"/><polygon class="cls-1" points="957.55 215.23 957.55 206.41 933.35 209.38 933.35 217.02 957.55 215.23"/><polygon class="cls-3" points="957.55 215.23 957.55 206.41 975.54 209.38 975.54 217.02 957.55 215.23"/><polygon class="cls-2" points="958.87 369.98 924.07 374.58 924.07 215.29 958.87 210.69 958.87 369.98"/><polygon class="cls-1" points="958.38 218.28 924.91 222.71 924.91 220.47 958.38 216.04 958.38 218.28"/><polygon class="cls-1" points="957.26 220.15 927.03 269.14 926.03 268.31 956.26 219.32 957.26 220.15"/><polygon class="cls-1" points="926.03 224.28 956.26 265.28 957.26 264.19 927.03 223.18 926.03 224.28"/><polygon class="cls-1" points="957.26 269.29 927.03 318.29 926.03 317.46 956.26 268.46 957.26 269.29"/><polygon class="cls-1" points="926.03 273.42 956.26 314.43 957.26 313.33 927.03 272.33 926.03 273.42"/><polygon class="cls-1" points="958.71 367.63 925.24 372.06 925.24 369.82 958.71 365.4 958.71 367.63"/><polygon class="cls-1" points="957.26 320.68 927.03 369.68 926.03 368.85 956.26 319.85 957.26 320.68"/><polygon class="cls-1" points="926.03 324.81 956.26 365.81 957.26 364.72 927.03 323.71 926.03 324.81"/><polygon class="cls-3" points="958.87 369.98 985.13 374.58 985.13 215.29 958.87 210.69 958.87 369.98"/><polygon class="cls-1" points="959.24 218.28 984.49 222.71 984.49 220.47 959.24 216.04 959.24 218.28"/><polygon class="cls-1" points="960.09 220.15 982.89 269.14 983.65 268.31 960.84 219.32 960.09 220.15"/><polygon class="cls-1" points="983.65 224.28 960.85 265.28 960.09 264.19 982.89 223.18 983.65 224.28"/><polygon class="cls-1" points="960.09 269.29 982.89 318.29 983.65 317.46 960.84 268.46 960.09 269.29"/><polygon class="cls-1" points="983.65 273.42 960.85 314.43 960.09 313.33 982.89 272.33 983.65 273.42"/><polygon class="cls-1" points="958.99 369.87 984.24 374.29 984.24 372.06 958.99 367.63 958.99 369.87"/><polygon class="cls-1" points="960.09 322.91 982.89 371.91 983.65 371.08 960.84 322.08 960.09 322.91"/><polygon class="cls-1" points="983.65 327.04 960.85 368.05 960.09 366.95 982.89 325.94 983.65 327.04"/><polygon class="cls-2" points="659.95 337.65 659.95 405.45 637.76 399.4 637.76 304.09 659.95 337.65"/><polygon class="cls-3" points="661.01 337.65 661.01 405.45 683.2 399.4 683.2 304.09 661.01 337.65"/><polygon class="cls-3" points="683.6 304.85 660.8 342.29 638 304.85 660.8 267.41 683.6 304.85"/><polygon class="cls-2" points="679.96 304.85 660.8 336.46 641.64 304.85 660.8 273.24 679.96 304.85"/><rect class="cls-1" x="651.94" y="295.56" width="5.29" height="2.52"/><rect class="cls-1" x="649.92" y="307.15" width="21.68" height="2.27"/><rect class="cls-3" x="663.79" y="298.58" width="4.29" height="2.02"/><rect class="cls-3" x="659.25" y="340.67" width="2.77" height="66.04"/><rect class="cls-1" x="785.44" y="221.27" width="37.66" height="4.63"/><rect class="cls-3" x="805.08" y="223.82" width="20.83" height="169.78"/><rect class="cls-2" x="782.09" y="223.82" width="22.98" height="169.78"/><rect class="cls-4" x="806.21" y="227.06" width="15.54" height="3.01"/><rect class="cls-4" x="806.21" y="232.97" width="15.54" height="3.01"/><rect class="cls-4" x="806.21" y="238.88" width="15.54" height="3.01"/><rect class="cls-4" x="806.21" y="244.78" width="15.54" height="3.01"/><rect class="cls-4" x="806.21" y="250.69" width="15.54" height="3.01"/><rect class="cls-4" x="806.21" y="256.59" width="15.54" height="3.01"/><rect class="cls-4" x="806.21" y="262.5" width="15.54" height="3.01"/><rect class="cls-4" x="806.21" y="268.41" width="15.54" height="3.01"/><rect class="cls-4" x="806.21" y="274.31" width="15.54" height="3.01"/><rect class="cls-4" x="806.21" y="280.22" width="15.54" height="3.01"/><rect class="cls-4" x="806.21" y="286.13" width="15.54" height="3.01"/><rect class="cls-4" x="806.21" y="292.03" width="15.54" height="3.01"/><rect class="cls-4" x="806.21" y="297.94" width="15.54" height="3.01"/><rect class="cls-4" x="806.21" y="303.85" width="15.54" height="3.01"/><rect class="cls-4" x="806.21" y="309.75" width="15.54" height="3.01"/><rect class="cls-4" x="806.21" y="315.66" width="15.54" height="3.01"/><rect class="cls-4" x="806.21" y="321.57" width="15.54" height="3.01"/><rect class="cls-4" x="806.21" y="327.47" width="15.54" height="3.01"/><rect class="cls-4" x="806.21" y="333.38" width="15.54" height="3.01"/><rect class="cls-4" x="806.21" y="339.28" width="15.54" height="3.01"/><rect class="cls-4" x="806.21" y="345.19" width="15.54" height="3.01"/><rect class="cls-4" x="806.21" y="351.1" width="15.54" height="3.01"/><rect class="cls-4" x="806.21" y="357" width="15.54" height="3.01"/><rect class="cls-4" x="806.21" y="362.91" width="15.54" height="3.01"/><rect class="cls-4" x="806.21" y="368.82" width="15.54" height="3.01"/><rect class="cls-4" x="806.21" y="374.72" width="15.54" height="3.01"/><rect class="cls-4" x="806.21" y="380.63" width="15.54" height="3.01"/><path class="cls-4" d="M783,230.07h1.72v-3H783Zm0,5.91h1.72v-3H783Zm0,5.91h1.72v-3H783Zm0,5.9h1.72v-3H783Zm0,5.91h1.72v-3H783Zm0,5.9h1.72v-3H783Zm0,5.91h1.72v-3H783Zm0,5.9h1.72v-3H783Zm0,5.91h1.72v-3H783Zm0,5.91h1.72v-3H783Zm0,5.91h1.72v-3H783Zm0,5.9h1.72v-3H783Zm0,5.91h1.72v-3H783Zm0,5.91h1.72v-3H783Zm0,5.9h1.72v-3H783Zm0,5.91h1.72v-3H783Zm0,5.91h1.72v-3H783Zm0,5.9h1.72v-3H783Zm0,5.91h1.72v-3H783Zm0,5.9h1.72v-3H783Zm0,5.91h1.72v-3H783Zm0,5.91h1.72v-3H783Zm0,5.9h1.72v-3H783Zm0,5.91h1.72v-3H783Zm0,5.91h1.72v-3H783Zm0,5.9h1.72v-3H783Zm0,5.91h1.72v-3H783Zm3.12-153.57h1.72v-3h-1.72Zm0,5.91h1.72v-3h-1.72Zm0,5.91h1.72v-3h-1.72Zm0,5.9h1.72v-3h-1.72Zm0,5.91h1.72v-3h-1.72Zm0,5.9h1.72v-3h-1.72Zm0,5.91h1.72v-3h-1.72Zm0,5.9h1.72v-3h-1.72Zm0,5.91h1.72v-3h-1.72Zm0,5.91h1.72v-3h-1.72Zm0,5.91h1.72v-3h-1.72Zm0,5.9h1.72v-3h-1.72Zm0,5.91h1.72v-3h-1.72Zm0,5.91h1.72v-3h-1.72Zm0,5.9h1.72v-3h-1.72Zm0,5.91h1.72v-3h-1.72Zm0,5.91h1.72v-3h-1.72Zm0,5.9h1.72v-3h-1.72Zm0,5.91h1.72v-3h-1.72Zm0,5.9h1.72v-3h-1.72Zm0,5.91h1.72v-3h-1.72Zm0,5.91h1.72v-3h-1.72Zm0,5.9h1.72v-3h-1.72Zm0,5.91h1.72v-3h-1.72Zm0,5.91h1.72v-3h-1.72Zm0,5.9h1.72v-3h-1.72Zm0,5.91h1.72v-3h-1.72Zm3.12-153.57h1.72v-3h-1.72Zm0,5.91h1.72v-3h-1.72Zm0,5.91h1.72v-3h-1.72Zm0,5.9h1.72v-3h-1.72Zm0,5.91h1.72v-3h-1.72Zm0,5.9h1.72v-3h-1.72Zm0,5.91h1.72v-3h-1.72Zm0,5.9h1.72v-3h-1.72Zm0,5.91h1.72v-3h-1.72Zm0,5.91h1.72v-3h-1.72Zm0,5.91h1.72v-3h-1.72Zm0,5.9h1.72v-3h-1.72Zm0,5.91h1.72v-3h-1.72Zm0,5.91h1.72v-3h-1.72Zm0,5.9h1.72v-3h-1.72Zm0,5.91h1.72v-3h-1.72Zm0,5.91h1.72v-3h-1.72Zm0,5.9h1.72v-3h-1.72Zm0,5.91h1.72v-3h-1.72Zm0,5.9h1.72v-3h-1.72Zm0,5.91h1.72v-3h-1.72Zm0,5.91h1.72v-3h-1.72Zm0,5.9h1.72v-3h-1.72Zm0,5.91h1.72v-3h-1.72Zm0,5.91h1.72v-3h-1.72Zm0,5.9h1.72v-3h-1.72Zm0,5.91h1.72v-3h-1.72Zm3.11-153.57h1.73v-3h-1.73Zm0,5.91h1.73v-3h-1.73Zm0,5.91h1.73v-3h-1.73Zm0,5.9h1.73v-3h-1.73Zm0,5.91h1.73v-3h-1.73Zm0,5.9h1.73v-3h-1.73Zm0,5.91h1.73v-3h-1.73Zm0,5.9h1.73v-3h-1.73Zm0,5.91h1.73v-3h-1.73Zm0,5.91h1.73v-3h-1.73Zm0,5.91h1.73v-3h-1.73Zm0,5.9h1.73v-3h-1.73Zm0,5.91h1.73v-3h-1.73Zm0,5.91h1.73v-3h-1.73Zm0,5.9h1.73v-3h-1.73Zm0,5.91h1.73v-3h-1.73Zm0,5.91h1.73v-3h-1.73Zm0,5.9h1.73v-3h-1.73Zm0,5.91h1.73v-3h-1.73Zm0,5.9h1.73v-3h-1.73Zm0,5.91h1.73v-3h-1.73Zm0,5.91h1.73v-3h-1.73Zm0,5.9h1.73v-3h-1.73Zm0,5.91h1.73v-3h-1.73Zm0,5.91h1.73v-3h-1.73Zm0,5.9h1.73v-3h-1.73Zm0,5.91h1.73v-3h-1.73Zm3.12-153.57h1.73v-3h-1.73Zm0,5.91h1.73v-3h-1.73Zm0,5.91h1.73v-3h-1.73Zm0,5.9h1.73v-3h-1.73Zm0,5.91h1.73v-3h-1.73Zm0,5.9h1.73v-3h-1.73Zm0,5.91h1.73v-3h-1.73Zm0,5.9h1.73v-3h-1.73Zm0,5.91h1.73v-3h-1.73Zm0,5.91h1.73v-3h-1.73Zm0,5.91h1.73v-3h-1.73Zm0,5.9h1.73v-3h-1.73Zm0,5.91h1.73v-3h-1.73Zm0,5.91h1.73v-3h-1.73Zm0,5.9h1.73v-3h-1.73Zm0,5.91h1.73v-3h-1.73Zm0,5.91h1.73v-3h-1.73Zm0,5.9h1.73v-3h-1.73Zm0,5.91h1.73v-3h-1.73Zm0,5.9h1.73v-3h-1.73Zm0,5.91h1.73v-3h-1.73Zm0,5.91h1.73v-3h-1.73Zm0,5.9h1.73v-3h-1.73Zm0,5.91h1.73v-3h-1.73Zm0,5.91h1.73v-3h-1.73Zm0,5.9h1.73v-3h-1.73Zm0,5.91h1.73v-3h-1.73Zm3.12-153.57h1.73v-3h-1.73Zm0,5.91h1.73v-3h-1.73Zm0,5.91h1.73v-3h-1.73Zm0,5.9h1.73v-3h-1.73Zm0,5.91h1.73v-3h-1.73Zm0,5.9h1.73v-3h-1.73Zm0,5.91h1.73v-3h-1.73Zm0,5.9h1.73v-3h-1.73Zm0,5.91h1.73v-3h-1.73Zm0,5.91h1.73v-3h-1.73Zm0,5.91h1.73v-3h-1.73Zm0,5.9h1.73v-3h-1.73Zm0,5.91h1.73v-3h-1.73Zm0,5.91h1.73v-3h-1.73Zm0,5.9h1.73v-3h-1.73Zm0,5.91h1.73v-3h-1.73Zm0,5.91h1.73v-3h-1.73Zm0,5.9h1.73v-3h-1.73Zm0,5.91h1.73v-3h-1.73Zm0,5.9h1.73v-3h-1.73Zm0,5.91h1.73v-3h-1.73Zm0,5.91h1.73v-3h-1.73Zm0,5.9h1.73v-3h-1.73Zm0,5.91h1.73v-3h-1.73Zm0,5.91h1.73v-3h-1.73Zm0,5.9h1.73v-3h-1.73Zm0,5.91h1.73v-3h-1.73Zm3.12-156.58v3h1.73v-3Zm0,8.92h1.73v-3h-1.73Zm0,5.91h1.73v-3h-1.73Zm0,5.9h1.73v-3h-1.73Zm0,5.91h1.73v-3h-1.73Zm0,5.9h1.73v-3h-1.73Zm0,5.91h1.73v-3h-1.73Zm0,5.9h1.73v-3h-1.73Zm0,5.91h1.73v-3h-1.73Zm0,5.91h1.73v-3h-1.73Zm0,5.91h1.73v-3h-1.73Zm0,5.9h1.73v-3h-1.73Zm0,5.91h1.73v-3h-1.73Zm0,5.91h1.73v-3h-1.73Zm0,5.9h1.73v-3h-1.73Zm0,5.91h1.73v-3h-1.73Zm0,5.91h1.73v-3h-1.73Zm0,5.9h1.73v-3h-1.73Zm0,5.91h1.73v-3h-1.73Zm0,5.9h1.73v-3h-1.73Zm0,5.91h1.73v-3h-1.73Zm0,5.91h1.73v-3h-1.73Zm0,5.9h1.73v-3h-1.73Zm0,5.91h1.73v-3h-1.73Zm0,5.91h1.73v-3h-1.73Zm0,5.9h1.73v-3h-1.73Zm0,5.91h1.73v-3h-1.73Z"/><rect class="cls-3" x="724.64" y="264" width="49.57" height="139.22"/><rect class="cls-3" x="722.87" y="249.58" width="42.93" height="11.1"/><polygon class="cls-2" points="727.36 403.22 727.36 271.77 728.57 271.77 728.57 403.22 730.85 403.22 730.85 271.77 732.95 271.77 732.95 403.22 735.23 403.22 735.23 271.77 737.33 271.77 737.33 403.22 739.61 403.22 739.61 271.77 741.72 271.77 741.72 403.22 743.99 403.22 743.99 271.77 746.1 271.77 746.1 403.22 748.37 403.22 748.37 271.77 750.48 271.77 750.48 403.22 752.76 403.22 752.76 271.77 754.87 271.77 754.87 403.22 757.14 403.22 757.14 271.77 759.25 271.77 759.25 403.22 761.52 403.22 761.52 271.77 763.63 271.77 763.63 403.22 765.9 403.22 765.9 271.77 768.01 271.77 768.01 403.22 770.28 403.22 770.28 271.77 770.94 271.77 770.94 256.41 716.56 256.41 716.56 403.22 727.36 403.22"/><polygon class="cls-2" points="616.02 225.92 611.49 225.92 611.49 177.29 591.09 177.29 591.09 225.92 583.15 225.92 583.15 400.98 625.09 400.98 625.09 284.27 616.02 284.27 616.02 225.92"/><rect class="cls-3" x="606.61" y="176.6" width="5.07" height="50.17"/><rect class="cls-3" x="615.55" y="226.22" width="9.91" height="58.35"/><rect class="cls-3" x="621.35" y="283.48" width="9.67" height="119.97"/><rect class="cls-2" x="776.57" y="352.2" width="13.15" height="57.93"/><path class="cls-3" d="M832.61,408.84l-47.46,8.75V354.75l47.46,7.64Z"/><path class="cls-3" d="M832.61,362.39l-44.13-7.1v-4.23l44.13,8.15Z"/><path class="cls-1" d="M792.64,412.69l-2.91.48V358.29l2.91.42Z"/><rect class="cls-3" x="883.55" y="352.2" width="13.15" height="57.93"/><path class="cls-2" d="M840.66,408.84l47.47,8.75V354.75l-47.47,7.64Z"/><path class="cls-2" d="M840.66,362.39l44.14-7.1v-4.23l-44.14,8.15Z"/><path class="cls-1" d="M880.64,412.69l2.91.48V358.29l-2.91.42Z"/><path class="cls-3" d="M843.43,355a2.42,2.42,0,0,1-2.08,2.65H831.12a2.41,2.41,0,0,1-2.06-2.65h0a2.4,2.4,0,0,1,2.06-2.64h10.23a2.41,2.41,0,0,1,2.08,2.64Z"/><rect class="cls-2" x="829.18" y="355.04" width="14.13" height="57.71"/><rect class="cls-1" x="833.59" y="357.06" width="6.09" height="53.27"/><rect class="cls-1" x="775.15" y="408.85" width="125.28" height="8.61"/><path class="cls-3" d="M827.36,401.63q-16.15-1.23-32.3-2.66v1.2q16.14,1.38,32.3,2.59Z"/><path class="cls-3" d="M827.36,395.92q-16.17-1.43-32.3-3v1.2q16.14,1.56,32.3,2.94Z"/><path class="cls-3" d="M827.36,398.78q-16.15-1.33-32.3-2.84v1.2q16.14,1.47,32.3,2.76Z"/><path class="cls-3" d="M827.36,390.2q-16.17-1.6-32.3-3.37V388q16.14,1.74,32.3,3.29Z"/><path class="cls-3" d="M827.36,393.06q-16.17-1.51-32.3-3.19v1.19q16.14,1.65,32.3,3.12Z"/><path class="cls-3" d="M827.36,404.49q-16.15-1.14-32.3-2.48v1.2q16.14,1.29,32.3,2.41Z"/><path class="cls-3" d="M827.36,407.35q-16.15-1.07-32.3-2.3v1.19q16.14,1.22,32.3,2.24Z"/><path class="cls-3" d="M827.36,367.32q-16.17-2.29-32.3-4.78v1.2q16.13,2.44,32.3,4.71Z"/><path class="cls-3" d="M827.36,373q-16.17-2.12-32.3-4.42v1.19q16.14,2.26,32.3,4.36Z"/><path class="cls-3" d="M827.36,370.18q-16.17-2.21-32.3-4.6v1.2q16.14,2.36,32.3,4.53Z"/><path class="cls-3" d="M827.36,361.61q-16.17-2.49-32.3-5.14v1.2q16.13,2.61,32.3,5.06Z"/><path class="cls-3" d="M827.36,387.34q-16.17-1.69-32.3-3.55V385q16.14,1.83,32.3,3.48Z"/><path class="cls-3" d="M827.36,364.46q-16.17-2.38-32.3-4.95v1.19q16.13,2.54,32.3,4.89Z"/><path class="cls-3" d="M827.36,375.9q-16.17-2-32.3-4.25v1.2Q811.2,375,827.36,377Z"/><path class="cls-3" d="M827.36,384.48q-16.17-1.77-32.3-3.72V382q16.14,1.91,32.3,3.65Z"/><path class="cls-3" d="M827.36,381.62q-16.17-1.86-32.3-3.9v1.2q16.14,2,32.3,3.83Z"/><path class="cls-3" d="M827.36,378.76q-16.17-2-32.3-4.07v1.19q16.14,2.1,32.3,4Z"/><path class="cls-3" d="M845.43,401.63q16.17-1.23,32.3-2.66v1.2q-16.14,1.38-32.3,2.59Z"/><path class="cls-3" d="M845.43,395.92q16.17-1.43,32.3-3v1.2q-16.14,1.56-32.3,2.94Z"/><path class="cls-3" d="M845.43,398.78q16.17-1.33,32.3-2.84v1.2q-16.14,1.47-32.3,2.76Z"/><path class="cls-3" d="M845.43,390.2q16.17-1.6,32.3-3.37V388q-16.12,1.74-32.3,3.29Z"/><path class="cls-3" d="M845.43,393.06q16.17-1.51,32.3-3.19v1.19q-16.14,1.65-32.3,3.12Z"/><path class="cls-3" d="M845.43,404.49q16.17-1.14,32.3-2.48v1.2q-16.14,1.29-32.3,2.41Z"/><path class="cls-3" d="M845.43,407.35q16.16-1.07,32.3-2.3v1.19q-16.14,1.22-32.3,2.24Z"/><path class="cls-3" d="M845.43,367.32q16.17-2.29,32.3-4.78v1.2q-16.12,2.44-32.3,4.71Z"/><path class="cls-3" d="M845.43,373q16.17-2.12,32.3-4.42v1.19q-16.12,2.26-32.3,4.36Z"/><path class="cls-3" d="M845.43,370.18q16.17-2.21,32.3-4.6v1.2q-16.12,2.36-32.3,4.53Z"/><path class="cls-3" d="M845.43,361.61q16.17-2.49,32.3-5.14v1.2q-16.12,2.61-32.3,5.06Z"/><path class="cls-3" d="M845.43,387.34q16.17-1.69,32.3-3.55V385q-16.12,1.83-32.3,3.48Z"/><path class="cls-3" d="M845.43,364.46q16.17-2.38,32.3-4.95v1.19q-16.12,2.54-32.3,4.89Z"/><path class="cls-3" d="M845.43,375.9q16.17-2,32.3-4.25v1.2Q861.61,375,845.43,377Z"/><path class="cls-3" d="M845.43,384.48q16.17-1.77,32.3-3.72V382q-16.12,1.91-32.3,3.65Z"/><path class="cls-3" d="M845.43,381.62q16.17-1.86,32.3-3.9v1.2q-16.12,2-32.3,3.83Z"/><path class="cls-3" d="M845.43,378.76q16.17-2,32.3-4.07v1.19q-16.12,2.1-32.3,4Z"/><rect class="cls-3" x="778.38" y="350.57" width="8.98" height="1.62"/><polygon class="cls-2" points="985.58 346.41 977.41 339.92 969.68 344.79 969.68 400.34 1005.34 400.34 985.58 346.41"/><rect class="cls-3" x="977.41" y="339.92" width="31.36" height="60.1"/><rect class="cls-2" x="980.85" y="353.24" width="22.77" height="47.1"/><rect class="cls-3" x="911.03" y="319.73" width="52.09" height="53.08"/><polygon class="cls-2" points="986.31 373.42 970.89 373.42 970.89 378.9 962.94 378.9 962.94 367.27 957.11 367.27 957.11 366.17 915.8 366.17 915.8 362.93 957.11 362.93 957.11 358.87 915.8 358.87 915.8 355.61 957.11 355.61 957.11 351.56 915.8 351.56 915.8 348.31 957.11 348.31 957.11 344.25 915.8 344.25 915.8 341 957.11 341 957.11 336.94 915.8 336.94 915.8 333.69 957.11 333.69 957.11 329.63 915.8 329.63 915.8 326.68 957.11 326.68 957.11 311.34 928.47 311.34 928.47 305.93 909.22 305.93 909.22 311.34 902.37 311.34 902.37 367.27 892.24 367.27 892.24 415.08 962.94 415.08 962.94 400.85 994.79 400.85 994.79 378.9 986.31 378.9 986.31 373.42"/><rect class="cls-3" x="928.45" y="305.65" width="13.15" height="6"/><rect class="cls-3" x="962.79" y="366.81" width="6.58" height="48.24"/><rect class="cls-3" x="984.82" y="373.27" width="2.96" height="5.77"/><rect class="cls-3" x="992.21" y="377.88" width="4.93" height="22.85"/><rect class="cls-3" x="938.64" y="378.12" width="5.09" height="36.93"/><polygon class="cls-2" points="1024.08 328.14 1021 328.14 1021 307.56 1007.12 307.56 1007.12 328.14 1001.73 328.14 1001.73 402.23 1030.25 402.23 1030.25 352.84 1024.08 352.84 1024.08 328.14"/><rect class="cls-3" x="1017.68" y="307.26" width="3.45" height="21.23"/><rect class="cls-3" x="1023.76" y="328.27" width="6.74" height="24.69"/><rect class="cls-3" x="1027.71" y="352.5" width="6.57" height="50.77"/><rect class="cls-3" x="974.62" y="397.04" width="12.16" height="19.39"/><rect class="cls-1" x="952.77" y="402.81" width="20.87" height="14.08"/><rect class="cls-1" x="882.69" y="406.73" width="49.21" height="10.38"/><polygon class="cls-2" points="1068.66 417.41 1066.14 401.34 1026.41 401.34 1026.41 417.41 1068.66 417.41"/><polygon class="cls-3" points="1080.27 417.41 1080.27 402.35 1069.16 401.34 1066.11 401.34 1066.11 417.41 1080.27 417.41"/><rect class="cls-3" x="1060.59" y="401.34" width="2.76" height="16.07"/><rect class="cls-3" x="1054.41" y="401.34" width="2.76" height="16.07"/><rect class="cls-3" x="34.72" y="403.88" width="226.38" height="14.58"/><rect class="cls-3" y="410.77" width="34.32" height="8.1"/><rect class="cls-3" x="155.81" y="354.07" width="13.77" height="49.41"/><rect class="cls-3" x="88.58" y="369.87" width="8.5" height="38.88"/><rect class="cls-3" x="47.68" y="360.55" width="7.29" height="35.64"/><rect class="cls-3" x="25.41" y="394.98" width="4.86" height="11.34"/><rect class="cls-3" x="41.2" y="403.88" width="13.36" height="5.26"/><rect class="cls-3" x="84.13" y="403.48" width="26.73" height="14.98"/><rect class="cls-3" x="185.78" y="298.59" width="3.64" height="76.95"/><rect class="cls-3" x="482.62" y="311.55" width="6.88" height="93.55"/><rect class="cls-3" x="497.61" y="403.89" width="21.06" height="16.2"/><rect class="cls-3" x="555.11" y="383.23" width="6.48" height="33.61"/><rect class="cls-3" x="549.44" y="330.58" width="5.26" height="32.8"/><rect class="cls-3" x="575.36" y="324.92" width="10.93" height="60.75"/><rect class="cls-3" x="567.67" y="348.81" width="2.43" height="11.34"/><rect class="cls-3" x="583.46" y="397" width="50.62" height="10.93"/><rect class="cls-3" x="576.98" y="403.08" width="18.63" height="14.58"/><rect class="cls-3" x="699.69" y="341.11" width="3.64" height="21.06"/><rect class="cls-3" x="709" y="338.68" width="8.5" height="58.72"/><rect class="cls-3" x="681.87" y="395.79" width="24.7" height="19.44"/><rect class="cls-3" x="826.04" y="328.97" width="4.05" height="23.89"/><rect class="cls-3" x="1061.33" y="357.72" width="5.67" height="42.52"/><rect class="cls-3" x="1101.02" y="357.31" width="2.43" height="38.47"/><rect class="cls-3" x="1080.77" y="406.32" width="29.97" height="9.72"/><rect class="cls-3" x="1118.43" y="403.48" width="10.6" height="11.34"/><rect class="cls-3" x="873.43" y="406.72" width="19.03" height="11.34"/><rect class="cls-3" x="894.89" y="414.82" width="76.13" height="2.83"/><rect class="cls-3" x="994.51" y="414.01" width="94.76" height="3.64"/><rect class="cls-1" x="720.75" y="407.93" width="22.27" height="11.34"/></g></g></svg>