<svg xmlns="http://www.w3.org/2000/svg" xmlns:xlink="http://www.w3.org/1999/xlink" viewBox="0 0 648.68 753.28"><defs><style>.cls-1{isolation:isolate;}.cls-2,.cls-3{fill:#a8c4e5;}.cls-2{opacity:0.4;}.cls-2,.cls-6{mix-blend-mode:multiply;}.cls-4{fill:#f5f9ff;}.cls-5{fill:#659adb;}.cls-6{fill:#45446c;opacity:0.29;}.cls-7{fill:url(#linear-gradient);}.cls-8{fill:#b5cfea;}.cls-9{fill:#2f29c2;}.cls-10{fill:#d9eaff;}.cls-11{fill:#fff;}.cls-12{fill:#4c73db;}.cls-13{fill:#e655be;}.cls-14{fill:#bfdfff;}.cls-15{fill:#29479c;}.cls-16{fill:#ffce43;}.cls-17{fill:url(#linear-gradient-2);}.cls-18{fill:#9dbce0;}</style><linearGradient id="linear-gradient" x1="1646.86" y1="556.39" x2="1646.86" y2="75.23" gradientTransform="translate(-1235.35)" gradientUnits="userSpaceOnUse"><stop offset="0" stop-color="#a8c4e5"/><stop offset="0.04" stop-color="#b2cbe8"/><stop offset="0.18" stop-color="#cedef0"/><stop offset="0.33" stop-color="#e4ecf7"/><stop offset="0.5" stop-color="#f3f7fb"/><stop offset="0.69" stop-color="#fcfdfe"/><stop offset="0.96" stop-color="#fff"/></linearGradient><linearGradient id="linear-gradient-2" x1="0.63" y1="530.93" x2="482.69" y2="530.93" gradientUnits="userSpaceOnUse"><stop offset="0.04" stop-color="#fff"/><stop offset="0.27" stop-color="#fbfcfe"/><stop offset="0.51" stop-color="#eff4fa"/><stop offset="0.74" stop-color="#dbe7f4"/><stop offset="0.97" stop-color="#bfd4ec"/><stop offset="1" stop-color="#bbd1eb"/></linearGradient></defs><g class="cls-1"><g id="Layer_2" data-name="Layer 2"><g id="image"><path class="cls-2" d="M555.26,572.93,214.59,376.24l127.63-70.71,275.68,172c23.05,14.38,22.19,48.21-1.54,61.4Z"/><path class="cls-3" d="M460.46,440.69s-1.79,1-1.93,1.16-.69.77-1,1-.92.78-1.05.88c-.38.28-80,49.25-80,49.25l0,13.1,78.77-48.43a14.39,14.39,0,0,0,1.22-.82l.36-.3c.24-.19.48-.38.69-.58h0a10,10,0,0,0,.79-.81c.06-.07.12-.15.19-.22l.21-.25a1.67,1.67,0,0,0,.16-.24,5.61,5.61,0,0,0,.45-.67l.16-.23a1.63,1.63,0,0,1,.09-.19c.1-.2.2-.4.28-.61s.1-.19.14-.29,0-.1,0-.15a5.72,5.72,0,0,0,.17-.59c0-.11.07-.22.1-.33a.49.49,0,0,1,0-.12,4.64,4.64,0,0,0,.07-.64c0-.11,0-.23,0-.34v-.17Z"/><path class="cls-3" d="M376.18,493.19c-.53.31-1.08.59-1.66.86l-.53.24c-.64.27-1.29.53-2,.75l-.11,0c-.57.18-1.15.35-1.74.49a2,2,0,0,1-.26.06c-.5.12-1,.24-1.53.33l-.2,0c-.67.12-1.35.21-2,.28l-.76.07c-.4,0-.79.06-1.19.08l-.85,0h-1l-.9,0-.95-.05-.91-.07-.95-.11c-.29,0-.59-.07-.88-.12l-1-.17-.83-.16-1.19-.29-.66-.18c-.71-.2-1.4-.44-2.06-.69-.33-.13-.66-.27-1-.42l-.49-.21c-.49-.23-1-.48-1.42-.74L288.06,458c-3.78-2.18-5.65-1.05-5.65-3.9l0,9.12c0,2.85,1.87,5.7,5.64,7.88l61.05,35.25c.46.26.93.51,1.42.74l.5.22c.28.12.55.25.84.36l.13.05c.67.26,1.35.49,2.06.69l.14.05.52.13,1.19.29.27.07.56.09,1,.18.33.05.56.07.94.1.36,0,.55,0,1,.05.38,0h2l.43,0c.4,0,.8,0,1.19-.07l.48,0,.28,0c.69-.07,1.36-.16,2-.28l.16,0h0c.52-.09,1-.21,1.54-.33l.26-.05c.59-.15,1.16-.32,1.73-.5h0l.09,0a20.89,20.89,0,0,0,2-.75l.53-.24a17.3,17.3,0,0,0,1.66-.86l.2-.1.13-.08,0-13.1Z"/><path class="cls-4" d="M454.83,433.36c7.33,4.24,7.53,11.08.45,15.43l-78.77,48.43c-7.38,4.53-19.77,4.63-27.4.22l-61.05-35.25c-7.64-4.41-7.51-11.59.29-15.87l83.34-45.79c7.5-4.11,19.31-4,26.64.21Z"/><polygon class="cls-5" points="320.77 428.45 406.8 478.59 427.09 466.43 342.24 417.06 320.77 428.45"/><polygon class="cls-6" points="406.8 478.59 406.8 487.46 432.44 471.7 432.44 463.55 406.8 478.59"/><path class="cls-5" d="M637.49,299.06v0c0-.14,0-.28,0-.41s0-.28,0-.42v-.11c0-.1,0-.2,0-.3s0-.27,0-.4l0-.2v-.08s0-.09,0-.13-.05-.27-.07-.41,0-.26-.08-.39h0l-.09-.42c0-.13-.07-.27-.11-.4l0-.11,0-.08a1.87,1.87,0,0,0-.07-.22l-.12-.39c0-.09-.07-.19-.1-.29l0,0v-.05l-.14-.36c-.05-.12-.09-.24-.14-.35l-.07-.15,0-.07-.06-.13c-.06-.12-.11-.25-.17-.37a3.78,3.78,0,0,0-.17-.35l0,0,0-.05c-.06-.13-.12-.25-.19-.38a3.79,3.79,0,0,0-.2-.34c0-.08-.08-.16-.13-.24l-.06-.1c-.11-.19-.23-.37-.35-.55a1.74,1.74,0,0,0-.11-.18l0,0c-.15-.23-.31-.45-.47-.67l-.07-.1-.06-.08-.18-.23-.29-.36-.12-.14-.06-.07-.11-.13-.3-.33-.23-.24,0,0,0,0-.33-.33-.35-.33h0l-.35-.3-.37-.3,0,0,0,0-.28-.21-.37-.27-.11-.07,0,0h0l-.22-.14-.38-.24-2.05-1.18-11.24,6.09,2.81,1.64.37.24.38.27.37.28.15.13.57.48h0c.19.17.37.35.55.53a.23.23,0,0,1,.07.07c.18.17.35.35.51.53l.08.09c.16.18.32.36.47.55l.08.1.44.58c.08.1.15.21.22.31l.26.37c.1.15.19.3.28.45s.13.2.18.3a2.2,2.2,0,0,1,.15.26l.26.46.07.13c.11.22.22.44.32.66l0,.05c.11.23.21.47.3.7l0,.08c.1.23.18.46.27.69l0,.09c.08.23.15.46.22.69l0,.11c.06.23.13.46.18.69l0,.1q.09.35.15.69a.43.43,0,0,0,0,.11c0,.23.07.46.1.69a.34.34,0,0,0,0,.1c0,.23.05.46.06.7s0,.23,0,.35v.41c0,.14,0,.29,0,.43s0,.29,0,.43,0,.31,0,.46l-.06.36-.1.64-38.85,240.1c-.18,1.15-4.61,8.45-3.61,7.87l10.63-9a12.38,12.38,0,0,0,4.21-7.46l38.12-235.6c.19-1.14.46-2.85.46-2.85s0-.24,0-.36,0-.2,0-.3V300s0-.07,0-.1l0-.43c0-.11,0-.23,0-.34Z"/><path class="cls-7" d="M619.34,292c5.06,2.93,8.46,9.64,7.59,15l-39.41,243.6c-.87,5.38-5.68,7.35-10.74,4.43l-373.1-215.4c-5.06-2.93-8.46-9.65-7.59-15L235.5,81c.87-5.37,5.67-7.35,10.74-4.43Z"/><path class="cls-8" d="M632.27,256.11,262.48,42.62h0l0,0-.55-.32h0l-1-.56-.38-.2-.39-.18-.39-.16a2.74,2.74,0,0,0-.4-.15l-.4-.13a3.45,3.45,0,0,0-.43-.12h-.07l-.36-.08-.19,0-.16,0-.11,0-.45,0H256l-.08,0-.38.05-.2,0h0a6.05,6.05,0,0,0-.73.2l0,0-.07,0a5.53,5.53,0,0,0-.89.41l-10.86,6.31a5.69,5.69,0,0,1,.87-.4l.35-.12.44-.11.52-.1.21,0c.24,0,.5,0,.76,0H246a5.49,5.49,0,0,1,.8.06h.05a6.72,6.72,0,0,1,.87.18h.07c.28.08.57.17.86.28l.09,0c.3.12.61.25.92.41l.38.19.3.17,2,1.18h0L622.77,263.21a1.39,1.39,0,0,0,1.37,0l8.13-4.73A1.37,1.37,0,0,0,632.27,256.11ZM258.82,43.28Z"/><path class="cls-5" d="M642,270.67v-.45c0-.14,0-.28,0-.42a.11.11,0,0,0,0-.05v-.06c0-.1,0-.19,0-.29s0-.27,0-.41l0-.19v-.09a.69.69,0,0,0,0-.13c0-.13,0-.27-.07-.41s0-.26-.08-.38h0v0c0-.14-.06-.27-.1-.41s-.07-.27-.1-.41a.49.49,0,0,0,0-.11l0-.08-.06-.21c0-.13-.08-.26-.13-.39s-.06-.2-.1-.3v0l0,0c0-.12-.09-.25-.14-.37s-.09-.23-.14-.35l-.06-.15,0-.06-.06-.14-.16-.36-.18-.36v0l0-.06-.2-.38-.19-.34-.13-.23-.06-.11c-.11-.19-.23-.37-.35-.55l-.11-.18,0,0-.47-.67-.07-.09-.07-.09-.17-.22-.3-.37-.11-.13-.06-.07-.11-.13c-.1-.11-.2-.23-.3-.33l-.23-.25,0,0,0,0-.33-.33-.35-.32h0l-.34-.29-.37-.31,0,0-.05,0-.27-.21-.37-.26-.11-.07,0,0h0l-.22-.15-.38-.23-9-5.22-11.09,6.7s9.52,5,9.64,5.06l.38.25.37.26.37.28.15.13.58.49h0l.56.53.07.07q.26.25.51.54l.07.08c.16.18.32.37.47.56l.09.1c.15.19.3.38.44.58l.22.3c.08.13.17.25.26.38l.28.45.18.29.15.26c.09.16.18.31.26.47l.06.12q.18.33.33.66l0,.06c.11.23.21.46.31.7l0,.07c.09.23.18.46.26.7l0,.08c.08.23.16.46.22.69l0,.11c.07.23.13.46.19.69l0,.1c0,.24.1.47.14.7,0,0,0,.07,0,.1,0,.23.08.46.1.7a.28.28,0,0,1,0,.09c0,.23,0,.47.06.7s0,.23,0,.35,0,.28,0,.41,0,.29,0,.43l0,.43c0,.16,0,.31,0,.46s0,.24-.05.36,0,.23-.1.64L592.1,519.37c-.19,1.14-4.61,8.44-3.61,7.86l10.62-9a12.43,12.43,0,0,0,4.22-7.46l38.12-235.6c.18-1.15.46-2.86.46-2.86s0-.24.05-.36l0-.3v0s0,0,0,0a.38.38,0,0,1,0-.1c0-.14,0-.28,0-.43s0-.22,0-.34Z"/><path class="cls-9" d="M623.46,263.61c5.06,2.92,8.46,9.64,7.59,15L591.63,522.23c-.86,5.37-5.67,7.35-10.73,4.42L207.8,311.25c-5.06-2.92-8.46-9.64-7.59-15L239.62,52.63c.87-5.37,5.67-7.36,10.74-4.43Z"/><path class="cls-8" d="M638.9,215.58,269.11,2.08h0l0,0-.55-.31h0l-1-.55-.38-.2a3.39,3.39,0,0,0-.39-.18L266.4.64,266,.49l-.4-.13-.43-.12h-.07l-.37-.09-.19,0-.15,0-.12,0-.45,0h0a4.78,4.78,0,0,0-.53,0H263l-.28,0h-.08l-.38,0-.21,0h0c-.25.06-.49.12-.73.2l-.05,0-.08,0a6.43,6.43,0,0,0-.88.41L249.37,7.1a5.28,5.28,0,0,1,.87-.4l.35-.11a3,3,0,0,1,.43-.12,4.51,4.51,0,0,1,.53-.09,1.38,1.38,0,0,1,.2,0,6.34,6.34,0,0,1,.76,0h.15l.79.06h.06a8.77,8.77,0,0,1,.86.18l.07,0a7.25,7.25,0,0,1,.87.27l.08,0a9.41,9.41,0,0,1,.93.41l.38.2a2.69,2.69,0,0,1,.29.16L259,8.84h0L629.41,222.67a1.35,1.35,0,0,0,1.37,0l8.13-4.72A1.37,1.37,0,0,0,638.9,215.58ZM265.46,2.74Z"/><path class="cls-5" d="M648.68,230.13v-.45c0-.14,0-.27,0-.41v-.12l0-.29c0-.13,0-.27,0-.41l0-.19v-.08c0-.05,0-.09,0-.14s0-.27-.07-.4-.05-.26-.08-.39v0h0c0-.13-.07-.27-.1-.41s-.07-.27-.11-.41l0-.1,0-.08A1.42,1.42,0,0,0,648,226l-.12-.39c0-.1-.07-.2-.1-.29l0,0v-.05c0-.12-.09-.24-.14-.37s-.09-.23-.14-.35l-.06-.15,0-.06-.06-.14c-.05-.12-.11-.24-.17-.36s-.11-.24-.17-.36l0,0,0-.06-.2-.37c-.06-.12-.13-.23-.2-.35l-.13-.23-.06-.11c-.11-.18-.23-.36-.34-.55l-.12-.18v0c-.16-.23-.31-.46-.48-.68l-.07-.09-.06-.08-.17-.23-.3-.37-.12-.13-.06-.07-.11-.13-.29-.33-.24-.24,0-.05,0,0-.33-.32-.35-.33h0l-.34-.3-.37-.3,0,0,0,0-.27-.2-.38-.27-.1-.07,0,0h0l-.22-.15-.38-.23-9-5.22-11.09,6.7s9.52,5,9.64,5.06l.37.25c.13.09.26.17.38.27l.37.28.15.12.58.49h0c.19.17.37.35.55.53l.07.07q.27.27.51.54l.08.08c.16.19.32.37.47.56l.08.1.45.58.21.31c.09.12.18.24.26.37s.19.3.28.45l.19.29.15.26c.08.16.17.31.26.47l.06.13.33.65,0,.06c.11.23.21.46.31.7l0,.07c.09.23.18.47.26.7l0,.09c.08.23.15.46.22.69l0,.1q.11.34.18.69l0,.11c0,.23.1.46.14.69,0,0,0,.07,0,.1,0,.24.07.47.1.7,0,0,0,.06,0,.09,0,.24,0,.47.06.7s0,.24,0,.35v.42c0,.14,0,.28,0,.43s0,.28,0,.43,0,.3,0,.46,0,.23,0,.35l-.11.64L598.73,478.83c-.18,1.14-4.61,8.45-3.61,7.87l10.63-9a12.33,12.33,0,0,0,4.21-7.46l38.12-235.6c.19-1.14.46-2.86.46-2.86l.06-.35,0-.31h0v0a.38.38,0,0,0,0-.1c0-.15,0-.29,0-.43s0-.23,0-.35Z"/><path class="cls-9" d="M630.09,223.07c5.07,2.92,8.47,9.64,7.6,15L598.27,481.69c-.86,5.37-5.67,7.35-10.74,4.43L214.44,270.71c-5.06-2.92-8.46-9.64-7.59-15L246.26,12.09c.87-5.37,5.67-7.35,10.73-4.43Z"/><path class="cls-10" d="M610.13,279.28c4.81,2.72,8.06,8.58,7.28,13.08L581.76,496.73c-.79,4.51-5.32,6-10.12,3.24L217.76,299.49c-4.8-2.72-8.06-8.57-7.27-13.08L246.13,82c.79-4.51,5.32-6,10.12-3.23Z"/><path class="cls-11" d="M440.6,172c0,2.34-1.66,3.29-3.7,2.11a8.14,8.14,0,0,1-3.7-6.39c0-2.34,1.66-3.29,3.7-2.11A8.17,8.17,0,0,1,440.6,172Z"/><path class="cls-10" d="M617.23,238.2c4.8,2.72,8.06,8.57,7.27,13.08L588.85,455.65c-.78,4.51-5.31,6-10.11,3.23L224.86,258.41c-4.8-2.72-8.06-8.57-7.27-13.08L253.23,41c.79-4.51,5.31-6,10.12-3.24Z"/><path class="cls-11" d="M447.7,130.94c0,2.35-1.66,3.29-3.7,2.11a8.12,8.12,0,0,1-3.7-6.38c0-2.35,1.65-3.29,3.7-2.11A8.17,8.17,0,0,1,447.7,130.94Z"/><polygon class="cls-11" points="463.71 402.41 427.96 381.77 438.2 321.05 473.95 341.69 463.71 402.41"/><polygon class="cls-12" points="507.52 427.7 471.77 407.06 478.47 367.36 514.21 388 507.52 427.7"/><polygon class="cls-13" points="552.67 453.77 516.92 433.13 530.35 353.53 566.1 374.16 552.67 453.77"/><path class="cls-14" d="M492.84,261.45,468,247.25c-2.22-1.27-3.8-4.92-3.5-8.1h0c.3-3.19,2.36-4.76,4.58-3.49l24.82,14.19c2.22,1.27,3.8,4.92,3.5,8.11h0C497.12,261.15,495.06,262.72,492.84,261.45Z"/><path class="cls-14" d="M486.76,290.72l-24.82-14.2c-2.22-1.27-3.8-4.91-3.5-8.1h0c.29-3.19,2.35-4.76,4.58-3.49l24.82,14.2c2.22,1.27,3.8,4.91,3.5,8.1h0C491,290.42,489,292,486.76,290.72Z"/><path class="cls-14" d="M514.84,274.07,490,259.87c-2.22-1.27-3.8-4.92-3.5-8.11h0c.29-3.18,2.35-4.75,4.58-3.48l24.82,14.19c2.22,1.27,3.8,4.92,3.5,8.11h0C519.12,273.77,517.06,275.34,514.84,274.07Z"/><path class="cls-14" d="M528.24,315.4l-24.82-14.2c-2.22-1.27-3.8-4.91-3.5-8.1h0c.3-3.19,2.36-4.76,4.58-3.49l24.82,14.2c2.22,1.27,3.8,4.91,3.5,8.1h0C532.52,315.1,530.47,316.67,528.24,315.4Z"/><path class="cls-14" d="M521.74,341.68l-24.83-14.19c-2.22-1.27-3.79-4.92-3.5-8.11h0c.3-3.19,2.36-4.76,4.58-3.49l24.83,14.2c2.22,1.27,3.79,4.92,3.49,8.1h0C526,341.38,524,343,521.74,341.68Z"/><path class="cls-14" d="M575.8,310.81,551,296.61c-2.22-1.27-3.8-4.92-3.5-8.1h0c.3-3.19,2.36-4.76,4.58-3.49l24.83,14.19c2.22,1.27,3.79,4.92,3.49,8.11h0C580.08,310.51,578,312.08,575.8,310.81Z"/><path class="cls-14" d="M550.86,296.28,526,282.08c-2.22-1.27-3.8-4.92-3.5-8.1h0c.3-3.19,2.36-4.76,4.58-3.49l24.83,14.2c2.22,1.27,3.79,4.91,3.49,8.1h0C555.14,296,553.08,297.55,550.86,296.28Z"/><path class="cls-14" d="M532.57,285.12l-24.82-14.2c-2.23-1.27-3.8-4.92-3.5-8.1h0c.29-3.19,2.35-4.76,4.57-3.49l24.83,14.19c2.22,1.27,3.8,4.92,3.5,8.11h0C536.85,284.82,534.79,286.39,532.57,285.12Z"/><path class="cls-14" d="M569.72,340.08l-24.82-14.2c-2.22-1.27-3.8-4.91-3.5-8.1h0c.3-3.19,2.36-4.76,4.58-3.49l24.82,14.2c2.22,1.27,3.8,4.92,3.5,8.1h0C574,339.78,572,341.35,569.72,340.08Z"/><path class="cls-15" d="M568.75,252.38,480,201.11a4.71,4.71,0,0,0-7.14,2.64,7.78,7.78,0,0,0,3.42,8.74L565,263.75a4.71,4.71,0,0,0,7.14-2.63A7.78,7.78,0,0,0,568.75,252.38Z"/><path class="cls-15" d="M587.09,263l-88.8-51.27a4.71,4.71,0,0,0-7.14,2.64,7.81,7.81,0,0,0,3.42,8.74l88.8,51.26a4.71,4.71,0,0,0,7.14-2.64A7.79,7.79,0,0,0,587.09,263Z"/><path class="cls-11" d="M269,64,232.2,271.89l178.1,103.5,36.76-207.94Z"/><path class="cls-13" d="M367.35,226.4,347.52,215a4.41,4.41,0,0,0-.53-.35l-27.56-15.84a4.14,4.14,0,0,0-.61-.28l-17.32-9.95c-2.47-1.42-4.77.33-5.12,3.89s1.39,7.62,3.85,9l27.56,15.84a6.5,6.5,0,0,0,.61.28l9.6,5.51c.18.13.35.25.53.36l27.56,15.83c2.47,1.42,4.77-.33,5.12-3.89S369.82,227.82,367.35,226.4Z"/><path class="cls-14" d="M377.63,289.3,357.8,277.9c-.18-.13-.35-.25-.53-.36l-27.56-15.83a3.64,3.64,0,0,0-.61-.28l-17.33-10c-2.46-1.42-4.77.33-5.11,3.89s1.38,7.63,3.85,9l27.56,15.84a4.67,4.67,0,0,0,.61.28l9.6,5.52a4.41,4.41,0,0,0,.53.35l27.56,15.84c2.46,1.42,4.77-.33,5.11-3.89S380.1,290.71,377.63,289.3Z"/><path class="cls-16" d="M340.84,252.21l-27.57-15.84c-2.46-1.42-4.19-5.49-3.85-9h0c.35-3.56,2.65-5.31,5.12-3.89l27.56,15.83c2.46,1.42,4.2,5.49,3.85,9h0C345.6,251.87,343.3,253.62,340.84,252.21Z"/><path class="cls-14" d="M384.28,276.36l-27.56-15.84c-2.47-1.42-4.2-5.48-3.86-9h0c.35-3.56,2.65-5.31,5.12-3.89l27.56,15.83c2.46,1.42,4.2,5.49,3.85,9.05h0C389,276,386.74,277.77,384.28,276.36Z"/><polygon class="cls-9" points="268.96 63.95 447.06 167.45 440.3 202.53 262.48 100.58 268.96 63.95"/><path class="cls-13" d="M292.67,188.49a5.94,5.94,0,0,0-2.88-6.17l-10.89-6.25c-2.46-1.41-4.76.34-5.11,3.89s1.39,7.63,3.85,9l6.25,3.59a5.92,5.92,0,0,0,8.78-4.1Z"/><ellipse class="cls-11" cx="283.67" cy="92.34" rx="6.28" ry="10.87" transform="translate(-7.82 155.79) rotate(-30.31)"/><ellipse class="cls-16" cx="305.39" cy="105.85" rx="6.28" ry="10.87" transform="translate(-11.67 168.6) rotate(-30.31)"/><ellipse class="cls-13" cx="327.66" cy="120.45" rx="6.28" ry="10.87" transform="translate(-16 181.83) rotate(-30.31)"/><path class="cls-9" d="M272.9,149.7c.58-2.83,1.28-4.11,1.78-6.63.28-1.39-.27-3.29-2.88-4.68l.7-3.44c2.64,1.23,3.78.17,4.06-1.22.51-2.52.41-4.2,1-7,.87-4.32,2.75-4.87,6.31-3.1l2.54,1.26-.62,3.12-.77-.38c-1.66-.83-2.26-.47-2.71,1.73s-.65,4.15-1.15,6.59c-.61,3-1.81,3.71-3.93,3.18l0,.16c1.93,1.49,2.66,3.13,2.05,6.16-.49,2.44-1,4.28-1.47,6.43s-.08,3,1.58,3.87l.76.38-.62,3.11L276.93,158C273.38,156.18,272,154,272.9,149.7Z"/><path class="cls-9" d="M258.5,245.27c-.5,2.79-1.19,4-1.63,6.47-.24,1.37.4,3.38,3.18,5.15l-.6,3.38c-2.81-1.61-4-.71-4.22.67-.44,2.48-.27,4.19-.76,7-.76,4.24-2.72,4.54-6.49,2.25l-2.71-1.64.55-3.07.81.49c1.76,1.07,2.38.79,2.77-1.37s.54-4.11,1-6.51c.53-3,1.76-3.51,4-2.68l0-.16a6.15,6.15,0,0,1-2.36-6.52c.43-2.4.94-4.19,1.32-6.31s0-3.07-1.79-4.13l-.82-.5.55-3.07,2.7,1.64C257.77,238.65,259.25,241,258.5,245.27Z"/><path class="cls-12" d="M454.76,284l-60.24-33.91c-5.16-2.91-8.48-10.7-7.42-17.42l10.13-64c1.06-6.71,6.1-9.8,11.27-6.89l60.24,33.91c5.16,2.91,8.48,10.71,7.42,17.42l-10.13,64C465,283.79,459.93,286.88,454.76,284Z"/><polygon class="cls-11" points="411.7 234.81 398.56 207.94 419.03 198.27 421.78 204.02 408.29 210.39 418.61 231.49 411.7 234.81"/><polygon class="cls-11" points="443.53 251.22 440.79 245.48 454.08 239.2 443.62 217.82 450.53 214.5 463.81 241.65 443.53 251.22"/><polygon class="cls-11" points="425.43 247.91 418.57 246.18 438.37 203.21 445.22 204.93 425.43 247.91"/><path class="cls-5" d="M482.06,615l.44-10.51-25.4-7.67-338-195.16a6.62,6.62,0,0,0-6.65,0L10.5,461.83l-9.87-3L0,471.54H0A6.52,6.52,0,0,0,3.3,477.5l358.47,207a6.58,6.58,0,0,0,6.59,0l110.41-63.75a6.49,6.49,0,0,0,3.26-5.42h0v-.22S482.06,615,482.06,615Z"/><path class="cls-17" d="M362.4,672.34,3.93,465.37A6.59,6.59,0,0,1,3.87,454l109.2-64.45a6.6,6.6,0,0,1,6.64,0L479.4,597.18a6.59,6.59,0,0,1,0,11.41L369,672.34A6.58,6.58,0,0,1,362.4,672.34Z"/><path class="cls-18" d="M130.84,421.75a3,3,0,0,1-2.63-.3l-24.19-14c-.87-.5-1.11-1.18-.53-1.52l16-9.25a3,3,0,0,1,2.63.3l24.19,14c.87.5,1.11,1.18.53,1.52Z"/><path class="cls-18" d="M158.89,463.42a3,3,0,0,1-2.64-.3l-24.18-14c-.87-.5-1.1-1.18-.52-1.52l16-9.25a3,3,0,0,1,2.61.3l24.19,14c.88.51,1.11,1.18.54,1.51Z"/><path class="cls-18" d="M144.71,480.72a3,3,0,0,1-2.62-.31l-24.19-14c-.86-.49-1.12-1.17-.54-1.51l16-9.26A3.09,3.09,0,0,1,136,456l24.19,14c.87.5,1.11,1.18.54,1.51Z"/><path class="cls-18" d="M106.34,484.06a3,3,0,0,1-2.62-.3l-24.19-14c-.86-.5-1.1-1.18-.53-1.51L95,459a3,3,0,0,1,2.62.3l24.19,14c.87.5,1.1,1.18.52,1.51Z"/><path class="cls-18" d="M81.48,498.41c-.57.34-2,.07-3.12-.59L46.68,479.53c-1.14-.65-1.6-1.46-1-1.8l18.82-10.86c.56-.33,2-.07,3.11.59l31.69,18.28c1.15.66,1.59,1.48,1,1.8Z"/><path class="cls-18" d="M289.63,618.71a3,3,0,0,1-2.45-.41L263,604.35c-.88-.51-1.2-1.15-.72-1.42l6.95-4a3,3,0,0,1,2.47.42l24.17,13.94c.87.5,1.18,1.14.71,1.42Z"/><path class="cls-18" d="M321.94,637.84a3,3,0,0,1-2.45-.41l-24.16-13.95c-.89-.51-1.21-1.15-.73-1.42l7-4a3,3,0,0,1,2.47.42l24.16,13.94c.87.5,1.19,1.14.71,1.42Z"/><path class="cls-18" d="M356.2,657.16a3,3,0,0,1-2.42-.43l-24.18-14c-.87-.5-1.21-1.14-.75-1.41l6.7-3.87a3.07,3.07,0,0,1,2.43.44l24.17,13.95c.88.5,1.21,1.13.75,1.4Z"/><path class="cls-18" d="M335.13,630.46a3,3,0,0,1-2.42-.43l-24.18-13.95c-.86-.5-1.21-1.13-.75-1.4l6.7-3.87a3,3,0,0,1,2.43.43l24.18,14c.87.5,1.2,1.13.74,1.4Z"/><path class="cls-18" d="M247.83,594.4a3.07,3.07,0,0,1-2.64-.32L87.83,503.27c-.86-.5-1.12-1.19-.54-1.52l18.81-10.87a3.07,3.07,0,0,1,2.63.31L266.1,582c.88.51,1.11,1.2.55,1.53Z"/><path class="cls-18" d="M231.71,580.63a9.29,9.29,0,0,1-1.33-.7L105.13,507.65a7.19,7.19,0,0,1-1.19-.76l1.17-.68a10.13,10.13,0,0,1,1.32.69l125.25,72.28a6.9,6.9,0,0,1,1.2.77Z"/><path class="cls-18" d="M139.49,503.17a3,3,0,0,1-2.63-.31l-24.18-13.95c-.86-.49-1.11-1.19-.54-1.52l16-9.26a3.13,3.13,0,0,1,2.64.31l24.18,14c.88.5,1.11,1.19.53,1.52Z"/><path class="cls-18" d="M172.78,522.39a3.06,3.06,0,0,1-2.61-.3l-24.18-14c-.87-.5-1.12-1.19-.54-1.52l16-9.25a3.05,3.05,0,0,1,2.64.3l24.18,14c.85.49,1.09,1.18.52,1.51Z"/><path class="cls-18" d="M206.08,541.6a3,3,0,0,1-2.62-.3l-24.18-14c-.86-.49-1.1-1.18-.53-1.51l16-9.25a3,3,0,0,1,2.62.3l24.19,14c.86.5,1.09,1.19.52,1.52Z"/><path class="cls-18" d="M239.38,560.82a3,3,0,0,1-2.62-.3l-24.18-14c-.88-.5-1.11-1.19-.54-1.52l16-9.25a3.06,3.06,0,0,1,2.64.3l24.18,14c.87.5,1.1,1.18.53,1.51Z"/><path class="cls-18" d="M272.69,580a3.1,3.1,0,0,1-2.64-.31l-24.18-14c-.86-.49-1.1-1.18-.53-1.51l16-9.26a3.05,3.05,0,0,1,2.62.31l24.18,14c.87.5,1.12,1.19.54,1.52Z"/><path class="cls-18" d="M306,599.24a3.07,3.07,0,0,1-2.63-.3l-24.18-14c-.87-.5-1.11-1.19-.53-1.52l16-9.25a3.09,3.09,0,0,1,2.64.3l24.17,14c.87.5,1.11,1.18.53,1.52Z"/><path class="cls-18" d="M381,642.53a3.08,3.08,0,0,1-2.63-.31l-65.88-38c-.87-.51-1.11-1.19-.53-1.52l16-9.26a3.08,3.08,0,0,1,2.63.31l65.89,38c.87.5,1.1,1.19.52,1.52Z"/><path class="cls-18" d="M177.85,499.83a3,3,0,0,1-2.62-.3l-24.18-14c-.87-.5-1.11-1.18-.53-1.51l16-9.26a3,3,0,0,1,2.62.3l24.19,14c.87.51,1.09,1.18.52,1.51Z"/><path class="cls-18" d="M211.15,519.05a3.05,3.05,0,0,1-2.62-.31l-24.19-14c-.86-.5-1.1-1.17-.52-1.51l16-9.26a3.07,3.07,0,0,1,2.61.31l24.2,14c.86.5,1.1,1.18.53,1.51Z"/><path class="cls-18" d="M244.45,538.26a3,3,0,0,1-2.62-.3l-24.18-14c-.86-.49-1.13-1.18-.55-1.52l16-9.26a3.12,3.12,0,0,1,2.63.32l24.18,14c.86.5,1.11,1.19.54,1.52Z"/><path class="cls-18" d="M277.74,557.48a3.05,3.05,0,0,1-2.62-.31L251,543.22c-.87-.5-1.12-1.18-.54-1.52l16-9.26a3.06,3.06,0,0,1,2.62.32l24.18,14c.86.5,1.1,1.18.53,1.51Z"/><path class="cls-18" d="M311.06,576.69a3.05,3.05,0,0,1-2.62-.31l-24.19-14c-.88-.5-1.11-1.18-.53-1.51l16-9.26a3,3,0,0,1,2.62.31l24.19,14c.86.49,1.1,1.18.54,1.51Z"/><path class="cls-18" d="M344.35,595.9a3.05,3.05,0,0,1-2.62-.31l-24.17-14c-.88-.51-1.13-1.18-.55-1.52l16-9.26a3.05,3.05,0,0,1,2.63.32l24.17,14c.87.5,1.1,1.18.53,1.51Z"/><path class="cls-18" d="M377.64,615.11a3,3,0,0,1-2.61-.3l-24.19-14c-.87-.5-1.11-1.17-.53-1.51l16-9.26a3.06,3.06,0,0,1,2.61.3l24.19,14c.86.5,1.1,1.19.53,1.51Z"/><path class="cls-18" d="M192,482.53a3.05,3.05,0,0,1-2.64-.3l-24.18-14c-.86-.49-1.1-1.17-.51-1.51l16-9.26a3,3,0,0,1,2.61.31l24.18,13.95c.88.5,1.11,1.19.54,1.51Z"/><path class="cls-18" d="M225.33,501.74a3.06,3.06,0,0,1-2.63-.29l-24.18-14c-.87-.5-1.11-1.18-.53-1.52l16-9.26a3.06,3.06,0,0,1,2.62.31l24.18,14c.86.49,1.1,1.18.53,1.51Z"/><path class="cls-18" d="M258.63,521a3.06,3.06,0,0,1-2.64-.3l-24.18-14c-.86-.49-1.1-1.17-.51-1.51l16-9.26a3,3,0,0,1,2.61.31l24.18,13.95c.88.5,1.12,1.19.55,1.51Z"/><path class="cls-18" d="M291.92,540.17a3,3,0,0,1-2.62-.29l-24.19-14c-.87-.5-1.11-1.18-.52-1.52l16-9.26a3.06,3.06,0,0,1,2.62.31l24.19,14c.87.5,1.1,1.18.53,1.51Z"/><path class="cls-18" d="M325.23,559.38a3,3,0,0,1-2.62-.29l-24.19-14c-.87-.51-1.1-1.18-.52-1.52l16-9.26a3.06,3.06,0,0,1,2.62.31l24.18,14c.86.49,1.09,1.17.53,1.5Z"/><path class="cls-18" d="M358.54,578.6a3,3,0,0,1-2.65-.31l-24.18-13.95c-.85-.5-1.1-1.18-.52-1.52l16-9.26a3.1,3.1,0,0,1,2.61.31l24.19,14c.87.51,1.11,1.19.54,1.52Z"/><path class="cls-18" d="M391.83,597.81a3,3,0,0,1-2.63-.3l-24.19-14c-.87-.51-1.1-1.18-.52-1.52l16-9.26a3.06,3.06,0,0,1,2.62.31l24.18,14c.86.49,1.1,1.18.53,1.5Z"/><path class="cls-18" d="M125.6,444.21a3.06,3.06,0,0,1-2.64-.31L82,420.24c-.88-.5-1.12-1.19-.53-1.52l16-9.26a3.08,3.08,0,0,1,2.63.31l41,23.66c.87.51,1.11,1.19.54,1.52Z"/><path class="cls-18" d="M447.19,604.28a3,3,0,0,1-2.63-.3l-41-23.67c-.86-.49-1.11-1.18-.53-1.51l16-9.26a3,3,0,0,1,2.62.31l41,23.66c.87.5,1.11,1.18.53,1.52Z"/><path class="cls-18" d="M111.4,461.5a3,3,0,0,1-2.62-.31L59.9,433c-.88-.5-1.12-1.18-.54-1.51l16-9.26a3.06,3.06,0,0,1,2.62.31l48.88,28.21c.88.51,1.11,1.18.54,1.51Z"/><path class="cls-18" d="M73.05,464.85a3.08,3.08,0,0,1-2.63-.31L37.83,445.73c-.87-.5-1.11-1.19-.54-1.52l16-9.25a3,3,0,0,1,2.63.3l32.59,18.81c.87.5,1.11,1.19.53,1.52Z"/><path class="cls-18" d="M164.13,441a3,3,0,0,1-2.64-.31l-24.16-13.94c-.87-.5-1.11-1.19-.54-1.52l16-9.26a3.1,3.1,0,0,1,2.64.31l24.16,13.95c.88.51,1.12,1.18.54,1.52Z"/><path class="cls-18" d="M197.28,460.08a3.07,3.07,0,0,1-2.63-.31l-24.19-13.95c-.86-.5-1.1-1.19-.53-1.52L186,435a3.07,3.07,0,0,1,2.63.31l24.19,13.95c.87.51,1.11,1.19.53,1.52Z"/><path class="cls-18" d="M230.56,479.29a3.05,3.05,0,0,1-2.62-.3l-24.18-14c-.86-.5-1.1-1.18-.52-1.51l16-9.26a3,3,0,0,1,2.62.3l24.18,14c.88.5,1.11,1.18.52,1.51Z"/><path class="cls-18" d="M263.87,498.51a3.08,3.08,0,0,1-2.63-.31l-24.17-13.94c-.87-.51-1.11-1.19-.53-1.52l16-9.26a3,3,0,0,1,2.63.31l24.17,13.95c.87.5,1.12,1.18.53,1.51Z"/><path class="cls-18" d="M297.16,517.72a3,3,0,0,1-2.62-.3l-24.18-13.95c-.87-.51-1.11-1.19-.53-1.52l16-9.26a3,3,0,0,1,2.63.31L312.66,507c.88.51,1.1,1.18.52,1.51Z"/><path class="cls-18" d="M330.48,536.93a3.1,3.1,0,0,1-2.63-.3l-24.19-14c-.86-.5-1.1-1.18-.52-1.52l16-9.25a3,3,0,0,1,2.62.3l24.19,14c.86.5,1.11,1.18.53,1.51Z"/><path class="cls-18" d="M363.78,556.15a3.07,3.07,0,0,1-2.63-.31l-24.18-14c-.88-.5-1.12-1.18-.54-1.52l16-9.25a3,3,0,0,1,2.63.31l24.19,14c.87.5,1.11,1.19.53,1.52Z"/><path class="cls-18" d="M397.06,575.35a3,3,0,0,1-2.61-.29l-24.2-14c-.86-.49-1.1-1.17-.52-1.51l16-9.25a3,3,0,0,1,2.62.3l24.2,14c.86.5,1.09,1.17.51,1.51Z"/><path class="cls-18" d="M416.43,592.3a3.77,3.77,0,0,0-1.42-.46,1.94,1.94,0,0,0-1.19.16l-16,9.26a.55.55,0,0,0-.3.69,1.81,1.81,0,0,0,.81.82l6.31,3.64-21,12.14a.55.55,0,0,0-.28.7,1.76,1.76,0,0,0,.81.82l16.29,9.4a3.71,3.71,0,0,0,1.43.47,1.9,1.9,0,0,0,1.2-.16l38.1-22a.52.52,0,0,0,.27-.69,1.7,1.7,0,0,0-.82-.82Z"/><path class="cls-2" d="M556.24,713.64l-47.07,31.84c-17.35,11.73-43.5,10-58.1-3.77h0c-14.6-13.8-12.35-34.7,5-46.44l47.07-31.84c17.35-11.73,43.5-10,58.1,3.77h0C575.85,681,573.6,701.9,556.24,713.64Z"/><path class="cls-9" d="M544.58,702.77l-47.07,31.84c-17.36,11.73-43.5,10-58.1-3.77h0c-14.61-13.8-12.36-34.7,5-46.44l47.07-31.84c17.35-11.73,43.49-10,58.1,3.77h0C564.18,670.13,561.93,691,544.58,702.77Z"/><path class="cls-3" d="M533.92,653a35.26,35.26,0,0,0-15.08,7.85,4.57,4.57,0,0,0,0,6.47,4.69,4.69,0,0,0,6.47,0c.45-.39.9-.76,1.37-1.12l-.93.71a31.39,31.39,0,0,1,6.86-4l-1.09.46a30.19,30.19,0,0,1,4.83-1.55,4.62,4.62,0,0,0,3.2-5.63,4.67,4.67,0,0,0-5.63-3.19Z"/></g></g></g></svg>