<svg xmlns="http://www.w3.org/2000/svg" viewBox="0 0 1600 1000"><defs><style>.cls-1{isolation:isolate;}.cls-13,.cls-2,.cls-21,.cls-25,.cls-26,.cls-27,.cls-3,.cls-34,.cls-35,.cls-42,.cls-8{fill:none;}.cls-3{stroke:#cce8ff;}.cls-13,.cls-21,.cls-25,.cls-26,.cls-27,.cls-3,.cls-34,.cls-35,.cls-42,.cls-8{stroke-linecap:round;stroke-linejoin:round;}.cls-25,.cls-3{stroke-width:2px;}.cls-4{fill:#def0ff;}.cls-5{fill:#093373;}.cls-6{fill:#bbdefb;}.cls-18,.cls-7{fill:#fff;}.cls-25,.cls-27,.cls-42,.cls-8{stroke:#093373;}.cls-9{fill:#082b61;}.cls-10,.cls-15{fill:#005cb2;}.cls-11{fill:#cce8ff;}.cls-12{fill:#0984f0;}.cls-13,.cls-26{stroke:#fff;}.cls-13{stroke-width:5.42px;}.cls-14{fill:#a8c4e5;}.cls-14,.cls-15,.cls-19,.cls-20{mix-blend-mode:multiply;}.cls-15{opacity:0.16;}.cls-16{fill:#e3971b;}.cls-17{fill:#fbc02d;}.cls-18{stroke:#35519c;stroke-miterlimit:10;stroke-width:1.04px;}.cls-19{fill:#78b5eb;}.cls-19,.cls-20{opacity:0.43;}.cls-20{fill:#88bdeb;}.cls-21{stroke:#bd7a0c;}.cls-22{fill:#f2e9d3;}.cls-23{fill:#f9a825;}.cls-24{fill:#95bcdb;}.cls-26{stroke-width:2.17px;}.cls-27{stroke-width:4px;}.cls-28{fill:#64b5f6;}.cls-29{fill:#42a5f5;}.cls-30{fill:#0053a1;}.cls-31{fill:#e1eaf4;}.cls-32{fill:#ebf6ff;}.cls-33{fill:#eda22d;}.cls-34{stroke:#e1eaf4;}.cls-35{stroke:#2e87cf;}.cls-36{fill:#244e8f;}.cls-37{fill:#1378d6;}.cls-38{fill:#0065c4;}.cls-39{fill:#004280;}.cls-40{fill:#86bceb;}.cls-41{fill:#77b0e0;}.cls-42{stroke-width:3px;}.cls-43{fill:#a3cdf0;}</style></defs><g class="cls-1"><g id="Layer_2" data-name="Layer 2"><g id="background"><rect class="cls-2" width="1600" height="1000"/></g><g id="image"><line class="cls-3" x1="1254.92" y1="259.29" x2="1180.3" y2="221.42"/><polygon class="cls-3" points="1030.37 231.37 955.75 193.5 956.44 107.82 1031.06 145.69 1030.37 231.37"/><polygon class="cls-3" points="1104.99 269.24 1030.37 231.37 1031.06 145.69 1105.68 183.55 1104.99 269.24"/><polygon class="cls-3" points="1254.22 344.97 1179.61 307.1 1180.3 221.42 1254.91 259.29 1254.22 344.97"/><line class="cls-3" x1="955.75" y1="193.5" x2="955.06" y2="279.18"/><polygon class="cls-3" points="1104.3 354.92 1029.68 317.05 1030.37 231.37 1104.99 269.24 1104.3 354.92"/><polygon class="cls-3" points="1178.91 392.79 1104.3 354.92 1104.99 269.24 1179.61 307.1 1178.91 392.79"/><polygon class="cls-3" points="1253.53 430.65 1178.91 392.79 1179.61 307.1 1254.22 344.97 1253.53 430.65"/><line class="cls-3" x1="955.06" y1="279.18" x2="954.37" y2="364.86"/><polygon class="cls-3" points="1028.98 402.73 954.37 364.87 955.06 279.18 1029.68 317.05 1028.98 402.73"/><polygon class="cls-3" points="1103.6 440.6 1028.98 402.73 1029.68 317.05 1104.3 354.92 1103.6 440.6"/><polygon class="cls-3" points="1178.22 478.47 1103.6 440.6 1104.3 354.92 1178.91 392.79 1178.22 478.47"/><polygon class="cls-3" points="1252.84 516.34 1178.22 478.47 1178.91 392.79 1253.53 430.65 1252.84 516.34"/><path class="cls-4" d="M657.48,940.07,310.1,758.91c-12.49-6.51-10.77-18.56,3.84-26.91L792.66,458.48c14.61-8.35,36.57-9.84,49.06-3.33L1189.1,636.32c12.48,6.51,10.76,18.56-3.85,26.9L706.54,936.75C691.93,945.1,670,946.59,657.48,940.07Z"/><path class="cls-5" d="M1202.86,591.26a20.38,20.38,0,0,0-4.78-3.4L839.8,401c-12.87-6.71-35.53-5.18-50.6,3.43L295.48,686.54a40,40,0,0,0-4.55,3l-8,3.67.16,11.08c.62,3.82,3.39,7.33,8.43,10L649.79,901.14c12.87,6.71,35.53,5.18,50.59-3.43l493.73-282.1c7.82-4.47,12-10,12.49-15.16l.08-8.84Z"/><path class="cls-6" d="M649.79,892.28,291.51,705.43c-12.87-6.71-11.1-19.14,4-27.75L789.2,395.58c15.07-8.61,37.73-10.14,50.6-3.43L1198.08,579c12.87,6.72,11.1,19.14-4,27.75L700.38,888.85C685.32,897.46,662.66,899,649.79,892.28Z"/><polygon class="cls-7" points="671.92 862.35 327.48 682.72 822.45 406.95 1166.9 586.59 671.92 862.35"/><polygon class="cls-8" points="671.92 862.35 327.48 682.72 822.45 406.95 1166.9 586.59 671.92 862.35"/><path class="cls-9" d="M1081.73,518.62,1070,512.48h0c13.89-7.74,13.89-19.88,0-27.12l-63.78-33.27c-13.89-7.24-36.4-6.84-50.29.9L948,448.86c-14.45-7.54-37.88-7.12-52.33.93h0c-14.46,8-14.46,20.69,0,28.23l133.76,69.75c14.45,7.54,37.88,7.12,52.33-.93h0C1096.18,538.79,1096.18,526.15,1081.73,518.62Z"/><path class="cls-10" d="M1081.73,508,1070,501.82h0c13.89-7.73,13.89-19.88,0-27.12l-63.78-33.26c-13.89-7.24-36.4-6.84-50.29.89L948,438.21c-14.45-7.54-37.88-7.12-52.33.93h0c-14.46,8.05-14.46,20.69,0,28.22l133.76,69.76c14.45,7.54,37.88,7.12,52.33-.93h0C1096.18,528.14,1096.18,515.5,1081.73,508Z"/><path class="cls-7" d="M1045.18,506.11l-97.66-52.44a4.89,4.89,0,0,1-.17-8.6h0a5.75,5.75,0,0,1,5.7-.2l97.66,52.45a4.88,4.88,0,0,1,.16,8.6h0A5.73,5.73,0,0,1,1045.18,506.11Z"/><path class="cls-11" d="M968.53,597.21a4.82,4.82,0,0,1-2.26-.56l-94.13-49.79a4.85,4.85,0,0,1,4.53-8.57l94.13,49.79a4.85,4.85,0,0,1-2.27,9.13Z"/><path class="cls-11" d="M999,648.87a4.85,4.85,0,0,1-2.24-.55l-159.14-83a4.85,4.85,0,0,1,4.48-8.6l159.14,83a4.84,4.84,0,0,1-2.24,9.14Z"/><polygon class="cls-12" points="786.89 536.78 725.42 504.52 786.69 470.3 848.17 502.56 786.89 536.78"/><polyline class="cls-13" points="773.36 491.83 768.95 509.44 812.45 504.91"/><polyline class="cls-13" points="636.58 566.86 632.17 584.47 675.67 579.94"/><polygon class="cls-11" points="513.33 686.83 451.85 654.58 513.13 620.36 574.61 652.61 513.33 686.83"/><polyline class="cls-13" points="499.8 641.89 495.39 659.49 538.88 654.96"/><path class="cls-14" d="M1021.93,637.32c-3.5-8.68-20.17-14.24-29.35-11.39l-.32.11h0S782.1,691.2,781.6,691.4l-33.49,31.87,44,1.15c.75-.53,209.44-65.93,209.44-65.93S1027.22,650.47,1021.93,637.32Z"/><ellipse class="cls-15" cx="1070.97" cy="769.55" rx="56.42" ry="31.92"/><path class="cls-16" d="M1108.49,758.12c.46,2.09-.42,17.71-1.36,20-1.79,7.14-8,13.93-18.53,18.92-23.06,11-58,9.19-78-4-9.31-6.13-14.37-12.36-14.49-20.14-.3-4.21-.43-16-.43-16,.74-2.57,3.71.11,5.6-2.29,3.11-4.72,8.33-9.06,15.65-12.54,23.06-11,58-9.19,78,4C1103.34,751.6,1107.9,751.43,1108.49,758.12Z"/><ellipse class="cls-7" cx="1052.15" cy="758.12" rx="56.42" ry="31.92"/><ellipse class="cls-17" cx="1052.15" cy="756.38" rx="56.42" ry="31.92"/><ellipse class="cls-18" cx="1052.11" cy="755.54" rx="39.44" ry="22.31"/><path class="cls-19" d="M1027,741.09c16.79-7.86,41.65-6.54,55.54,2.95,5.54,3.79,8.49,8.3,9,12.85.59-5.45-2.33-11-9-15.58-13.89-9.49-38.75-10.81-55.54-2.95-10.09,4.73-15,11.7-14.21,18.57C1013.38,751,1018.2,745.19,1027,741.09Z"/><path class="cls-20" d="M1034.67,762.87c-2.35-2-4.27-4.72-4.3-7.2l7.78-.46a8.14,8.14,0,0,0,3.68,5.76c2.55,1.7,4.82,1.9,7.08.78,5.06-2.5-7.08-10.48,1.76-14.85a18.76,18.76,0,0,1,16,.12l5.06-2.51,4.43,3-5,2.46a7.08,7.08,0,0,1,2.77,6.52l-7.5-.21a5,5,0,0,0-2.52-4.53c-2.19-1.45-4.31-1.78-6.52-.69-4.67,2.31,7.77,10.14-1.61,14.78a19.38,19.38,0,0,1-16.55-.07l-5.11,2.53-4.43-3Z"/><line class="cls-21" x1="1052.97" y1="790.62" x2="1053.11" y2="804.18"/><line class="cls-21" x1="1067.48" y1="789.61" x2="1067.54" y2="802.81"/><line class="cls-21" x1="1081.28" y1="786.27" x2="1081.33" y2="799.47"/><line class="cls-21" x1="1093.65" y1="780.64" x2="1093.7" y2="792.81"/><line class="cls-21" x1="1103.78" y1="772.09" x2="1103.5" y2="784.46"/><line class="cls-21" x1="1037.78" y1="789.61" x2="1037.72" y2="802.81"/><line class="cls-21" x1="1023.98" y1="786.27" x2="1023.93" y2="799.47"/><line class="cls-21" x1="1011.61" y1="780.64" x2="1011.56" y2="792.81"/><line class="cls-21" x1="1001.48" y1="772.09" x2="1001.76" y2="784.46"/><path class="cls-16" d="M1108.49,734.67c.46,2.08-.42,17.71-1.36,20-1.79,7.14-8,13.93-18.53,18.92-23.06,11-58,9.19-78-4-9.31-6.13-14.37-12.36-14.49-20.14-.3-4.21-.43-16-.43-16,.74-2.57,3.71.11,5.6-2.29,3.11-4.72,8.33-9.06,15.65-12.54,23.06-11,58-9.19,78,4C1103.34,728.15,1107.9,728,1108.49,734.67Z"/><ellipse class="cls-7" cx="1052.15" cy="734.67" rx="56.42" ry="31.92"/><ellipse class="cls-17" cx="1052.15" cy="732.93" rx="56.42" ry="31.92"/><ellipse class="cls-18" cx="1052.11" cy="732.09" rx="39.44" ry="22.31"/><path class="cls-19" d="M1027,717.64c16.79-7.86,41.65-6.54,55.54,3,5.54,3.78,8.49,8.3,9,12.85.59-5.45-2.33-11-9-15.58-13.89-9.49-38.75-10.81-55.54-3-10.09,4.73-15,11.7-14.21,18.57C1013.38,727.53,1018.2,721.74,1027,717.64Z"/><path class="cls-20" d="M1034.67,739.42c-2.35-2-4.27-4.72-4.3-7.2l7.78-.46a8.14,8.14,0,0,0,3.68,5.76c2.55,1.7,4.82,1.9,7.08.78,5.06-2.5-7.08-10.48,1.76-14.85a18.76,18.76,0,0,1,16,.12l5.06-2.51,4.43,3-5,2.46A7.08,7.08,0,0,1,1074,733l-7.5-.21a5,5,0,0,0-2.52-4.53c-2.19-1.45-4.31-1.78-6.52-.69-4.67,2.31,7.77,10.14-1.61,14.78a19.38,19.38,0,0,1-16.55-.07l-5.11,2.53-4.43-2.95Z"/><line class="cls-21" x1="1052.97" y1="767.17" x2="1053.11" y2="780.73"/><line class="cls-21" x1="1067.48" y1="766.16" x2="1067.54" y2="779.36"/><line class="cls-21" x1="1081.28" y1="762.82" x2="1081.33" y2="776.02"/><line class="cls-21" x1="1093.65" y1="757.19" x2="1093.7" y2="769.36"/><line class="cls-21" x1="1103.78" y1="748.64" x2="1103.5" y2="761.01"/><line class="cls-21" x1="1037.78" y1="766.16" x2="1037.72" y2="779.36"/><line class="cls-21" x1="1023.98" y1="762.82" x2="1023.93" y2="776.02"/><line class="cls-21" x1="1011.61" y1="757.19" x2="1011.56" y2="769.36"/><line class="cls-21" x1="1001.48" y1="748.64" x2="1001.76" y2="761.01"/><path class="cls-16" d="M1108.49,711.22c.46,2.08-.42,17.71-1.36,19.95-1.79,7.14-8,13.92-18.53,18.92-23.06,11-58,9.19-78-4-9.31-6.13-14.37-12.36-14.49-20.14-.3-4.21-.43-16-.43-16,.74-2.57,3.71.11,5.6-2.29,3.11-4.72,8.33-9.07,15.65-12.54,23.06-11,58-9.19,78,4C1103.34,704.7,1107.9,704.53,1108.49,711.22Z"/><ellipse class="cls-7" cx="1052.15" cy="711.22" rx="56.42" ry="31.92"/><ellipse class="cls-17" cx="1052.15" cy="709.48" rx="56.42" ry="31.92"/><ellipse class="cls-7" cx="1052.11" cy="708.64" rx="39.44" ry="22.31"/><path class="cls-22" d="M1027,694.19c16.79-7.86,41.65-6.54,55.54,2.95,5.54,3.78,8.49,8.3,9,12.85.59-5.45-2.33-11-9-15.58-13.89-9.49-38.75-10.81-55.54-2.95-10.09,4.73-15,11.7-14.21,18.57C1013.38,704.08,1018.2,698.29,1027,694.19Z"/><path class="cls-23" d="M1034.67,716c-2.35-2-4.27-4.72-4.3-7.2l7.78-.46a8.14,8.14,0,0,0,3.68,5.76c2.55,1.7,4.82,1.9,7.08.78,5.06-2.5-7.08-10.48,1.76-14.85a18.76,18.76,0,0,1,16,.12l5.06-2.51,4.43,2.95-5,2.46a7.08,7.08,0,0,1,2.77,6.52l-7.5-.21a5,5,0,0,0-2.52-4.53c-2.19-1.45-4.31-1.78-6.52-.69-4.67,2.31,7.77,10.14-1.61,14.78a19.38,19.38,0,0,1-16.55-.07l-5.11,2.53-4.43-3Z"/><ellipse class="cls-21" cx="1052.11" cy="708.64" rx="39.44" ry="22.31"/><line class="cls-21" x1="1052.97" y1="743.72" x2="1053.11" y2="757.28"/><line class="cls-21" x1="1067.48" y1="742.71" x2="1067.54" y2="755.91"/><line class="cls-21" x1="1081.28" y1="739.37" x2="1081.33" y2="752.57"/><line class="cls-21" x1="1093.65" y1="733.74" x2="1093.7" y2="745.91"/><line class="cls-21" x1="1103.78" y1="725.19" x2="1103.5" y2="737.56"/><line class="cls-21" x1="1037.78" y1="742.71" x2="1037.72" y2="755.91"/><line class="cls-21" x1="1023.98" y1="739.37" x2="1023.93" y2="752.57"/><line class="cls-21" x1="1011.61" y1="733.74" x2="1011.56" y2="745.91"/><line class="cls-21" x1="1001.48" y1="725.19" x2="1001.76" y2="737.56"/><ellipse class="cls-15" cx="973.04" cy="825.09" rx="56.42" ry="31.92"/><path class="cls-23" d="M1010.56,813.66c.46,2.09-.42,17.71-1.36,20-1.79,7.14-8,13.93-18.52,18.92-23.07,11-58,9.2-78-4-9.32-6.13-14.38-12.36-14.5-20.14-.3-4.21-.42-16-.42-16,.73-2.57,3.7.11,5.59-2.29,3.11-4.72,8.34-9.06,15.65-12.54,23.06-11,58-9.19,78,4C1005.42,807.14,1010,807,1010.56,813.66Z"/><ellipse class="cls-7" cx="954.22" cy="813.66" rx="56.42" ry="31.92"/><ellipse class="cls-17" cx="954.22" cy="811.92" rx="56.42" ry="31.92"/><ellipse class="cls-7" cx="954.18" cy="811.08" rx="39.44" ry="22.31"/><path class="cls-22" d="M929,796.63c16.78-7.86,41.64-6.54,55.53,3,5.54,3.79,8.49,8.3,9,12.85.59-5.45-2.34-11-9-15.58-13.89-9.49-38.75-10.81-55.53-3-10.09,4.73-15,11.7-14.22,18.57C915.45,806.52,920.27,800.73,929,796.63Z"/><path class="cls-23" d="M936.74,818.41c-2.35-2-4.26-4.72-4.3-7.19l7.79-.47a8.12,8.12,0,0,0,3.67,5.76c2.56,1.7,4.82,1.9,7.08.78,5.06-2.5-7.08-10.48,1.76-14.85a18.82,18.82,0,0,1,16,.12l5.06-2.5,4.42,2.94-5,2.46a7.08,7.08,0,0,1,2.77,6.52l-7.5-.21a4.91,4.91,0,0,0-2.52-4.52c-2.19-1.46-4.31-1.79-6.52-.7-4.67,2.31,7.77,10.14-1.61,14.78a19.38,19.38,0,0,1-16.55-.07l-5.11,2.53-4.42-2.95Z"/><ellipse class="cls-21" cx="954.18" cy="811.08" rx="39.44" ry="22.31"/><line class="cls-21" x1="955.04" y1="846.16" x2="955.18" y2="859.73"/><line class="cls-21" x1="969.56" y1="845.15" x2="969.61" y2="858.35"/><line class="cls-21" x1="983.35" y1="841.81" x2="983.4" y2="855.01"/><line class="cls-21" x1="995.72" y1="836.18" x2="995.77" y2="848.35"/><line class="cls-21" x1="1005.85" y1="827.63" x2="1005.57" y2="840"/><line class="cls-21" x1="939.85" y1="845.15" x2="939.8" y2="858.35"/><line class="cls-21" x1="926.05" y1="841.81" x2="926" y2="855.01"/><line class="cls-21" x1="913.68" y1="836.18" x2="913.63" y2="848.35"/><line class="cls-21" x1="903.55" y1="827.63" x2="903.84" y2="840"/><path class="cls-11" d="M911.15,334.76S929,307.93,961.69,324c25,12.25,11.85,12.51,41.87,20,17.7,4.41,45.29-32.68,88.94-14.77,79,32.43,106.81-50.44,141.09-9.5l-.48,206.08-322-160Z"/><path class="cls-24" d="M989.71,190.87l-10.58-6a5.41,5.41,0,0,1-2.12-4.37h0c0-1.74,1-2.63,2.14-2l10.57,6a5.39,5.39,0,0,1,2.12,4.37h0C991.84,190.64,990.88,191.53,989.71,190.87Z"/><path class="cls-24" d="M910.14,152.7l-10.58-6a5.41,5.41,0,0,1-2.12-4.37h0c0-1.74,1-2.63,2.14-2l10.57,6a5.39,5.39,0,0,1,2.12,4.37h0C912.27,152.47,911.31,153.36,910.14,152.7Z"/><path class="cls-25" d="M1035.31,421l-88.73-45.42c-3.87-2-7-7.52-7-12.31v-55c0-4.79,3.17-7.08,7-5.1l88.73,45.42c3.87,2,7,7.52,7,12.31v55C1042.35,420.65,1039.18,423,1035.31,421Z"/><polygon class="cls-12" points="957.51 372.69 944.66 366.11 944.66 347.5 957.51 354.08 957.51 372.69"/><polygon class="cls-12" points="976.03 382.17 963.18 375.59 963.18 345.91 976.03 352.49 976.03 382.17"/><polygon class="cls-12" points="994.55 391.65 981.71 385.07 981.71 346.25 994.55 352.82 994.55 391.65"/><polygon class="cls-12" points="1013.07 401.13 1000.23 394.56 1000.23 351.95 1013.07 358.53 1013.07 401.13"/><polygon class="cls-12" points="1031.6 410.61 1018.75 404.04 1018.75 351.4 1031.6 357.98 1031.6 410.61"/><path class="cls-16" d="M995,311.18,952.3,288.35c-7.84-4.19-14.25-14.52-14.25-23v-46c0-8.44,6.41-11.92,14.25-7.74L995,234.48c7.84,4.19,14.25,14.52,14.25,23v46C1009.27,311.89,1002.86,315.36,995,311.18Z"/><polyline class="cls-26" points="958.77 253.49 967.54 277.96 987.7 248.19"/><path class="cls-27" d="M1041.34,329.78c13.2-6.49,30.17-9.22,51.16-.61,67.28,27.61,90.16-29.35,124-20.52"/><polygon class="cls-28" points="576.81 565.69 575.62 421.65 633.24 386.23 657.86 388.46 751.94 474.88 753.45 658.07 719.61 640.36 719.61 640.43 576.81 565.69"/><polygon class="cls-29" points="751.94 475.06 775.61 460.77 775.61 460.29 777.62 459.56 874.29 429.37 879.2 424.47 934.11 431.02 932.9 549.91 795.14 633.07 795.13 632.9 753.45 658.07 751.94 475.06"/><polygon class="cls-5" points="753.49 662.8 753.32 643.26 576.68 550.92 576.75 570.38 753.49 662.8"/><polygon class="cls-9" points="753.49 662.8 753.32 643.26 933.06 534.88 932.9 554.57 753.49 662.8"/><polygon class="cls-15" points="672.24 661.06 753.49 662.8 709.36 638.65 672.24 661.06"/><polygon class="cls-5" points="672.24 661.06 672.09 642.65 709.21 620.24 709.36 638.65 672.24 661.06"/><line class="cls-8" x1="778.28" y1="311.02" x2="779.68" y2="403.95"/><path class="cls-30" d="M998.74,653.11,791.27,718.42l-5.07-19L986,636.93C1016,627.71,1016.37,645.63,998.74,653.11Z"/><path class="cls-10" d="M786.2,699.41c-.44-8.51-7.1-3.55-4.23-14.24l187.36-58.28c13.2-.43,17.28,3.61,17.43,9.78Z"/><path class="cls-31" d="M780.72,685.39,749.6,716.66l41.67,1.76C801.73,711.13,790.26,681.68,780.72,685.39Z"/><path class="cls-7" d="M780.72,685.39,749.6,716.66l44-18.48C790.92,690.19,785.57,683.51,780.72,685.39Z"/><path class="cls-7" d="M991.7,619.93l-.32.11h0l-32.32,10.06c9-1.07,19,23.81,10.3,32.15l32.9-10.23h0l.32-.09a16.62,16.62,0,0,0,11.18-21.16C1010.75,621.92,1000.87,617.08,991.7,619.93Z"/><path class="cls-32" d="M1002.25,652h0l.32-.09c8.94-2.78,13.1-13.58,10.58-22.21L970.5,641.8s5.59,14.55-1.15,20.44Z"/><path class="cls-17" d="M991.91,619.94l-.32.11h0l-19.74,6c9.72-.18,18.94,22,10.94,32.16l19.68-6.18h0l.33-.09A16.62,16.62,0,0,0,1014,630.76C1011,621.93,1001.09,617.08,991.91,619.94Z"/><path class="cls-33" d="M1002.46,652h0l.33-.09A16.62,16.62,0,0,0,1014,630.76c-.17-.5-.37-1-.58-1.45L983.92,638c3.62,13.74.8,17.29-1.14,20.22Z"/><line class="cls-34" x1="763.3" y1="702.89" x2="780.72" y2="685.39"/><path class="cls-5" d="M747.23,717.27l16.07-14.38q10.26,3.71,8.78,14.72Z"/><line class="cls-35" x1="752.65" y1="553.18" x2="933.87" y2="447.2"/><line class="cls-35" x1="752.65" y1="572.92" x2="933.87" y2="466.94"/><line class="cls-35" x1="752.65" y1="592.67" x2="933.87" y2="486.69"/><line class="cls-35" x1="752.65" y1="612.41" x2="933.87" y2="506.43"/><line class="cls-35" x1="752.65" y1="632.16" x2="933.87" y2="526.18"/><line class="cls-35" x1="752.65" y1="553.18" x2="576.68" y2="456.31"/><line class="cls-35" x1="752.65" y1="532.58" x2="576.02" y2="435.34"/><line class="cls-35" x1="722.4" y1="495.32" x2="586.87" y2="420.71"/><line class="cls-35" x1="698.21" y1="461.4" x2="605.83" y2="410.55"/><line class="cls-35" x1="752.65" y1="572.92" x2="576.68" y2="476.05"/><line class="cls-35" x1="752.65" y1="592.67" x2="576.68" y2="495.8"/><line class="cls-35" x1="752.65" y1="612.41" x2="576.68" y2="515.54"/><line class="cls-35" x1="752.65" y1="632.16" x2="576.68" y2="535.29"/><polygon class="cls-5" points="798.96 580.63 830.01 561.88 829.61 512.72 798.55 531.47 798.96 580.63"/><polygon class="cls-7" points="798.96 580.63 798.55 531.47 824.18 516 824.59 565.16 798.96 580.63"/><polygon class="cls-5" points="798.9 573.69 798.59 536.58 817.94 524.9 818.25 562.01 798.9 573.69"/><polygon class="cls-5" points="867.28 540.68 898.33 521.93 897.93 472.77 866.87 491.52 867.28 540.68"/><polygon class="cls-7" points="867.28 540.68 866.87 491.52 892.5 476.05 892.91 525.21 867.28 540.68"/><polygon class="cls-5" points="867.22 533.74 866.92 496.63 886.27 484.95 886.57 522.06 867.22 533.74"/><polygon class="cls-5" points="726.98 584.97 695.63 568.57 695.23 519.4 726.57 535.81 726.98 584.97"/><polygon class="cls-7" points="726.98 584.97 726.57 535.81 700.7 522.27 701.11 571.43 726.98 584.97"/><polygon class="cls-5" points="726.92 578.03 726.61 540.92 707.08 530.7 707.39 567.81 726.92 578.03"/><polygon class="cls-5" points="635.12 488.82 635.92 585.76 672.34 604.83 672.34 604.75 681.03 609.29 680.23 512.35 635.12 488.82"/><polygon class="cls-7" points="648.38 592.28 672.34 604.83 672.34 604.75 681.03 609.29 680.23 512.35 647.58 495.32 648.38 592.28"/><polygon class="cls-5" points="677.23 542.57 655.64 531.27 655.45 508.05 677.04 519.35 677.23 542.57"/><path class="cls-5" d="M651.68,552.57h0a2.94,2.94,0,0,1-1.57-2.29l-.05-6.67c0-.84.68-1.17,1.54-.74h0a2.94,2.94,0,0,1,1.57,2.29l.06,6.67C653.23,552.66,652.54,553,651.68,552.57Z"/><polygon class="cls-36" points="583.3 596.18 583.45 614.59 672.24 661.06 709.36 638.65 709.21 620.24 583.3 596.18"/><polygon class="cls-37" points="709.21 620.24 620.42 573.77 583.3 596.18 672.09 642.65 709.21 620.24"/><polygon class="cls-10" points="827.75 287.37 934.05 427.12 754.33 533.46 649.83 388.7 827.75 287.37"/><polygon class="cls-38" points="649.83 388.7 548.31 434.25 593.55 403.54 760.82 312.57 827.75 287.37 649.83 388.7"/><path class="cls-5" d="M934.05,427.12,754.32,533.45,649.83,388.7l-1.59,6.62L752,536.61a4.22,4.22,0,0,0,5.53,1.14l173-101.62a7.18,7.18,0,0,0,3.54-6.25Z"/><ellipse class="cls-39" cx="779.21" cy="400.11" rx="16.81" ry="20.62" transform="translate(88.68 939.01) rotate(-65.15)"/><path class="cls-6" d="M766.86,239.56c-18.31,10.56-33.17,36.25-33.19,57.39s14.83,29.72,33.14,19.16S800,279.86,800,258.72,785.18,229,766.86,239.56Zm5,28c-.94-3.16-.15-7.79,2.39-12.19s6.36-7.55,9.63-8.21C785.68,254.08,776.8,267,771.82,267.56Z"/><polygon class="cls-6" points="778.28 405.05 779.21 270.7 754.47 284.97 754.41 380.04 764.11 395.98 778.28 405.05"/><polygon class="cls-40" points="790.65 399.27 790.73 275.43 765.99 289.69 765.93 384.75 778.28 405.05 790.65 399.27"/><path class="cls-40" d="M778.39,244.28c-18.32,10.56-33.18,36.25-33.19,57.39s14.82,29.72,33.14,19.16,33.17-36.25,33.18-57.39S796.7,233.72,778.39,244.28Zm9.16,18.8c-3.7,6.39-9.68,9.85-13.36,7.72s-3.67-9,0-15.43,9.68-9.84,13.36-7.71S791.24,256.69,787.55,263.08Z"/><path class="cls-41" d="M790.14,251.71c.6,3.11-.26,7.34-2.59,11.37-3.7,6.39-9.68,9.85-13.36,7.72-2.4-1.39-3.22-4.83-2.48-8.82-8.62,9-14.72,22.28-14.72,33.68,0,15,10.53,21.12,23.54,13.61s23.57-25.76,23.58-40.78C804.12,257.41,798.37,251.19,790.14,251.71Z"/><path class="cls-8" d="M765,270.7c-4.89,7.8-8,16.85-8,25,0,15,10.53,21.12,23.54,13.61s23.57-25.76,23.58-40.78a20.91,20.91,0,0,0-2.72-11.13"/><path class="cls-42" d="M754.41,248c-6.67-8.94-11-20.19-11-30.64,0-17.84,12.54-26.61,28-19.58s28,27.21,28,45.05c0,17.27-11.73,26-26.49,20.22"/><line class="cls-8" x1="784.07" y1="308.04" x2="785.47" y2="400.97"/><line class="cls-8" x1="649.83" y1="388.7" x2="751.94" y2="330.54"/><path class="cls-15" d="M1019.55,557.79l-48.92-25.08L753.48,662.8l85.5,1.75L934.59,608a67.41,67.41,0,0,0,12,1.05c20.72,0,37.52-9,37.52-20.14a12.83,12.83,0,0,0-3.28-8.24Z"/><path class="cls-5" d="M946.56,591.28h0a3.66,3.66,0,0,1-3.65-3.65V536.07a3.66,3.66,0,0,1,3.65-3.65h0a3.66,3.66,0,0,1,3.65,3.65v51.56A3.66,3.66,0,0,1,946.56,591.28Z"/><path class="cls-6" d="M979.68,486.07a45.74,45.74,0,0,0,.39-6,42.86,42.86,0,0,0-7.52-24.59,36,36,0,0,0,1-8.46c0-17.33-12.08-31.38-27-31.38s-27,14.05-27,31.38a36.5,36.5,0,0,0,1,8.46A42.86,42.86,0,0,0,913,480.06a45.73,45.73,0,0,0,.4,6c-8.24,7-13.33,16.67-13.33,27.3,0,21.52,20.8,39,46.45,39s46.45-17.44,46.45-39C993,502.74,987.92,493.1,979.68,486.07Z"/><path class="cls-43" d="M979.68,486.07a45.74,45.74,0,0,0,.39-6,42.86,42.86,0,0,0-7.52-24.59,36,36,0,0,0,1-8.46c0-13.07-6.87-24.27-16.65-29-10.34,64.5,19.62,93.82-25.43,132.19a54.58,54.58,0,0,0,15.09,2.11c25.65,0,46.45-17.44,46.45-39C993,502.74,987.92,493.1,979.68,486.07Z"/></g></g></g></svg>