<svg xmlns="http://www.w3.org/2000/svg" viewBox="0 0 60.81 46.19"><defs><style>.cls-1{fill:#2ebfff;}.cls-2{fill:#19a8f7;}.cls-3{fill:#ffc5b3;}.cls-4{fill:#ffa08d;}.cls-5{fill:#0f0f0f;}.cls-6{fill:#fff;}</style></defs><g id="Layer_2" data-name="Layer 2"><g id="Layer_1-2" data-name="Layer 1"><path class="cls-1" d="M57,27.39C56.62,25.79,54.25,25,50,25c-1.47,0-6.49.44-4.17-2.51,1.08-1.36,7.76-4.67,5.3-7.17-1.19-1.21-3.94-.71-5.42-.45-1.71.29-6.25,1.91-6.71,1.89-3.79-.16-1.47-1.51-1.29-2.53.63-3.57-6.1-1.46-7.42-1a30.75,30.75,0,0,0-12.87,8c-1.63,1.69-3.78,4-4.44,6.29-.61,2.12.78,3.77,2.15,5.26a23.27,23.27,0,0,0,4,3.39c1.77,3.68,6.58,4.92,10.43,4.59,6.42-.54,13.05-3.32,19-5.76C50.88,34,58,31.27,57,27.39Z"/><path class="cls-2" d="M45.81,27.18c-1.22-1-2.69-.22-3.8-.79-3-1.53,1.93-4.73,2.75-5.81C46,19,45.39,18,43.44,18.29s-4.6,2.16-6.52,1.62c-1-.29-.83-.95-1.66-1.38-1.24-.63-2.87,1.33-3.9,1.31-2.16,0,2-4.71-.44-4.21A19.61,19.61,0,0,0,20.6,21.09c-1.44,1.48-3.67,3.84-2.52,5.87a.48.48,0,0,0,0,.18c-.29,3.1,2,6.92,4.74,8.45,3.11,1.78,7.4,1.86,10.83,1.29a20.81,20.81,0,0,0,9.77-4.4C44.64,31.42,47.83,28.86,45.81,27.18Z"/><path class="cls-3" d="M5.09,33.62s-3.29-.94-3.65-6.84A46.76,46.76,0,0,0,.11,19.39c-.56-2.82,1.17-8.16,1.39-11,.2-2.43-1-4.14-.05-6.71s3-2.11,3.29,1.65C5,5.7,4,7.65,4.46,9.19A44.14,44.14,0,0,1,5.3,19c-.06,2.68,2.81,7.49,2.81,7.49Z"/><path class="cls-3" d="M24.56,40.29s1.55-3.17,3.81-3.44a6.7,6.7,0,0,0,3.12-1.25c.62-1.84.34-4.19-2.4-6.2-6.56-4.81-11.2-4.5-15.6-4-1.92.21-3.94-1.24-6.53-.85-2.4.37-3.09,1.88-3,4.89.07,3.49,1,4.45,4,6.92,0,0,5,1,6.72,2.07s3.77,4.16,6.27,4.81c3.9,1,4.29-.6,6.44-2.89C25.77,40.36,24.56,40.29,24.56,40.29Z"/><path class="cls-4" d="M29.55,38.35a5.69,5.69,0,0,0,1.94-2.75,6.7,6.7,0,0,1-3.12,1.25c-2.26.27-3.81,3.44-3.81,3.44s1.21.07,2.76,0A14.17,14.17,0,0,1,29.55,38.35Z"/><path class="cls-4" d="M11.17,36.07l5.58,4.2s3.37-4,1.82-7.93a4.58,4.58,0,0,0-3.7-2.76Z"/><path class="cls-3" d="M7,32.34c0,.33,0,.64,0,.89-.2,3.72,2.19,7.51,4,7a9.21,9.21,0,0,0,5.22-4.12c.21-.44.41-.9.59-1.36-.57-.06-1.11-.15-1.51-.19C13,34.38,9,34.1,7,32.34Z"/><path class="cls-5" d="M16.22,28.49c-1.49-1.66-6.61-2.92-8.78,1.13A7.1,7.1,0,0,0,7,32.34c1.54,1.88,6.22,3,9.79,2.43C17.57,32.58,17.82,30.27,16.22,28.49Z"/><path class="cls-3" d="M18.74,42s2.1,2.53,7.63,2,7.31.67,12.22,1.76,8.63-.6,13.5-1.91,8.77-2.62,8.72-4.22-2.75-2.46-5.16-1.78-4.49,2.31-5,2.36c-1.31.14-7.92-1.25-11.9-.78a24.29,24.29,0,0,1-9.23-1.16C27.7,37.5,22.33,36,22.33,36Z"/><path class="cls-1" d="M14.21,21.15s.1-4.41,2.54-5.63,1.22.66,0,2.16S14.21,21.15,14.21,21.15Z"/><path class="cls-1" d="M12.78,18.62s-1.6-3.1-.6-5,3-1.22,2,1A40.94,40.94,0,0,0,12.78,18.62Z"/><path class="cls-6" d="M15.9,33.24c-.7,0-1.88,0-2.72-.06a11.49,11.49,0,0,1-2.61-.52c-.06.21-.05.36-.1.57a12.42,12.42,0,0,0,2.64.6,22.22,22.22,0,0,0,2.6.07C15.78,33.7,15.83,33.44,15.9,33.24Z"/></g></g></svg>