<svg xmlns="http://www.w3.org/2000/svg" xmlns:xlink="http://www.w3.org/1999/xlink" viewBox="0 0 871.77 829.83"><defs><style>.cls-1{isolation:isolate;}.cls-2,.cls-22,.cls-27{fill:#a8c4e5;}.cls-2{opacity:0.4;}.cls-13,.cls-2,.cls-27{mix-blend-mode:multiply;}.cls-3{fill:#e5f2ff;}.cls-4{fill:url(#linear-gradient);}.cls-5{fill:#29479c;}.cls-6{fill:url(#linear-gradient-2);}.cls-7{fill:url(#linear-gradient-3);}.cls-8{fill:url(#linear-gradient-4);}.cls-9{fill:#7fb0f0;}.cls-10{fill:#3965b8;}.cls-11{fill:#1172a3;}.cls-12{fill:url(#linear-gradient-5);}.cls-13{opacity:0.71;}.cls-14{fill:#d4e4f7;}.cls-15,.cls-42{fill:#fff;}.cls-16{fill:#ffc2b0;}.cls-17{fill:#514677;}.cls-18{fill:#423a66;}.cls-19{fill:#1f3b82;}.cls-20{fill:#dbefff;}.cls-21{fill:#ea8a6c;}.cls-23{fill:#e1eaf4;}.cls-24{fill:url(#linear-gradient-6);}.cls-25{fill:url(#linear-gradient-7);}.cls-26{fill:#365fad;}.cls-27{opacity:0.68;}.cls-28{fill:url(#linear-gradient-8);}.cls-29{fill:#ffe46e;}.cls-30{fill:url(#linear-gradient-9);}.cls-31{fill:url(#linear-gradient-10);}.cls-32{fill:url(#linear-gradient-11);}.cls-33,.cls-49{fill:none;}.cls-33{stroke:#dea749;stroke-miterlimit:10;stroke-width:1.15px;}.cls-34{fill:#c99334;}.cls-35{fill:url(#linear-gradient-12);}.cls-36{fill:url(#linear-gradient-13);}.cls-37{fill:url(#linear-gradient-14);}.cls-38{fill:url(#linear-gradient-15);}.cls-39{fill:#363656;}.cls-40{fill:url(#linear-gradient-16);}.cls-41{fill:#abcfff;}.cls-42{opacity:0.46;}.cls-43{fill:#513554;}.cls-44{fill:#fcfeff;}.cls-45{fill:#5986ff;}.cls-46{fill:#dcefff;}.cls-47{fill:#88bdeb;}.cls-48{fill:#d2ebff;opacity:0.69;}.cls-49{stroke:#29479c;stroke-linecap:round;stroke-linejoin:round;stroke-width:2.43px;}.cls-50{fill:#89baf5;}.cls-51{fill:#619de6;}.cls-52{fill:#4f80e3;}.cls-53{fill:#bad5eb;}.cls-54{fill:#ffeda1;}.cls-55{fill:#dea749;}.cls-56{fill:#68aeed;}</style><linearGradient id="linear-gradient" x1="338.67" y1="288.86" x2="779.61" y2="288.86" gradientUnits="userSpaceOnUse"><stop offset="0" stop-color="#e5f2ff"/><stop offset="0.36" stop-color="#e2f0fe"/><stop offset="0.6" stop-color="#d9e8fa"/><stop offset="0.82" stop-color="#cadaf5"/><stop offset="1" stop-color="#b6c9ed"/></linearGradient><linearGradient id="linear-gradient-2" x1="341.49" y1="280.01" x2="758.79" y2="280.01" gradientUnits="userSpaceOnUse"><stop offset="0" stop-color="#7ab6eb"/><stop offset="0.17" stop-color="#65abe8"/><stop offset="0.37" stop-color="#54a1e6"/><stop offset="0.59" stop-color="#4a9ce4"/><stop offset="0.85" stop-color="#479ae4"/></linearGradient><linearGradient id="linear-gradient-3" x1="341.49" y1="376" x2="753.51" y2="376" gradientUnits="userSpaceOnUse"><stop offset="0.11" stop-color="#4f80e3"/><stop offset="1" stop-color="#436dc2"/></linearGradient><linearGradient id="linear-gradient-4" x1="114.57" y1="515.79" x2="753.65" y2="515.79" xlink:href="#linear-gradient"/><linearGradient id="linear-gradient-5" y1="563.75" x2="274.5" y2="563.75" gradientUnits="userSpaceOnUse"><stop offset="0.16" stop-color="#abcfff"/><stop offset="0.91" stop-color="#7ab6eb"/></linearGradient><linearGradient id="linear-gradient-6" x1="89.03" y1="232.36" x2="234.35" y2="232.36" gradientUnits="userSpaceOnUse"><stop offset="0" stop-color="#7ab6eb"/><stop offset="0.17" stop-color="#72b0e8"/><stop offset="0.44" stop-color="#5ca1df"/><stop offset="0.69" stop-color="#418ed4"/></linearGradient><linearGradient id="linear-gradient-7" x1="122.67" y1="242.31" x2="249.98" y2="242.31" gradientUnits="userSpaceOnUse"><stop offset="0.11" stop-color="#4f80e3"/><stop offset="0.75" stop-color="#3a5fa8"/></linearGradient><linearGradient id="linear-gradient-8" x1="247.49" y1="384.41" x2="357.83" y2="384.41" gradientUnits="userSpaceOnUse"><stop offset="0" stop-color="#deb949"/><stop offset="0" stop-color="#deb849"/><stop offset="0.03" stop-color="#dea749"/><stop offset="0.06" stop-color="#de9c49"/><stop offset="0.11" stop-color="#de9549"/><stop offset="0.24" stop-color="#de9349"/><stop offset="0.84" stop-color="#bd732b"/></linearGradient><linearGradient id="linear-gradient-9" x1="247.49" y1="369.79" x2="357.83" y2="369.79" xlink:href="#linear-gradient-8"/><linearGradient id="linear-gradient-10" x1="247.49" y1="352.4" x2="357.83" y2="352.4" xlink:href="#linear-gradient-8"/><linearGradient id="linear-gradient-11" x1="264.45" y1="345.49" x2="340.84" y2="345.49" gradientUnits="userSpaceOnUse"><stop offset="0.17" stop-color="#deb949"/><stop offset="0.88" stop-color="#de9349"/></linearGradient><linearGradient id="linear-gradient-12" x1="278.6" y1="345.43" x2="326.1" y2="345.43" xlink:href="#linear-gradient-8"/><linearGradient id="linear-gradient-13" x1="160.81" y1="445.59" x2="271.16" y2="445.59" xlink:href="#linear-gradient-8"/><linearGradient id="linear-gradient-14" x1="177.78" y1="438.68" x2="254.17" y2="438.68" xlink:href="#linear-gradient-11"/><linearGradient id="linear-gradient-15" x1="191.92" y1="438.62" x2="239.43" y2="438.62" xlink:href="#linear-gradient-8"/><linearGradient id="linear-gradient-16" x1="191.51" y1="711.05" x2="460.44" y2="711.05" gradientUnits="userSpaceOnUse"><stop offset="0" stop-color="#4f80e3"/><stop offset="0.21" stop-color="#4c7cde"/><stop offset="0.46" stop-color="#4470cf"/><stop offset="0.73" stop-color="#375cb6"/><stop offset="0.96" stop-color="#29479c"/></linearGradient></defs><g class="cls-1"><g id="Layer_2" data-name="Layer 2"><g id="image"><path class="cls-2" d="M304,648.24l-68.89-39.77a3.28,3.28,0,0,0-3,.12l-6.86,4-.14.07-69.28,40c-.87.5-1,1.27-.21,1.71L224.6,694.1a3.27,3.27,0,0,0,3-.13l6.85-4,.15-.07,69.27-40C304.71,649.45,304.8,648.68,304,648.24Z"/><path class="cls-2" d="M736.32,601.27,467.21,448.83c-3.12-1.77-2.9-5,.47-7.11l121-76.93c3.37-2.15,8.68-2.46,11.8-.69l269.1,152.44c3.12,1.76,2.91,5-.47,7.11l-121,76.93C744.74,602.72,739.43,603,736.32,601.27Z"/><path class="cls-3" d="M759.24,307.85c5.6,3.23,10,10.3,9.88,15.79l-6.67,249c-.14,5.49-4.8,7.31-10.41,4.07L339,338.19c-5.6-3.24-10-10.31-9.88-15.8l6.66-249c.15-5.49,4.81-7.31,10.41-4.07Z"/><path class="cls-4" d="M779.6,255.17v0a.06.06,0,0,1,0,0V255l0-.44c0-.12,0-.24,0-.36v-.09c0-.14,0-.28-.07-.42s0-.29-.07-.43l0-.06v-.06l-.06-.3c0-.14-.07-.28-.11-.42a1.17,1.17,0,0,0,0-.2l0-.09a.74.74,0,0,1,0-.14c0-.14-.09-.28-.13-.42s-.09-.27-.14-.4v0h0l-.16-.43c0-.14-.11-.28-.17-.42s0-.08,0-.12l0-.08-.09-.22c-.06-.14-.12-.28-.19-.41s-.09-.2-.14-.31l0,0,0-.05c-.07-.12-.13-.25-.2-.38s-.12-.25-.19-.37l-.09-.15,0-.07a1.09,1.09,0,0,1-.08-.15l-.22-.38-.23-.37,0,0,0-.06-.25-.39-.25-.37-.17-.24-.07-.11c-.14-.2-.29-.39-.44-.59l-.14-.19,0,0c-.19-.25-.38-.48-.58-.72l-.08-.1-.08-.09-.21-.24-.35-.39-.14-.14-.07-.08a1.59,1.59,0,0,1-.13-.13l-.36-.36-.27-.26-.05-.05,0,0-.39-.35-.4-.35h0l-.39-.32-.42-.33-.06,0s0,0-.05-.05l-.31-.22-.42-.29-.12-.08,0,0h0l-.25-.16-.42-.26-10-5.78,0,0L358.25,2.4h0L357.61,2h0l-1.08-.62-.42-.22-.43-.2L355.26.8l-.43-.17a3.66,3.66,0,0,0-.43-.15c-.15-.06-.31-.1-.46-.15h-.07l-.39-.11-.2,0-.16,0-.12,0-.47-.07h0l-.55,0h-.67l-.38,0-.2,0h-.05a5.4,5.4,0,0,0-.72.17l-.05,0a.15.15,0,0,0-.07,0,4.41,4.41,0,0,0-.86.38l-10.27,6a5.36,5.36,0,0,1,.84-.38l.34-.1.43-.1a4.51,4.51,0,0,1,.53-.07l.2,0a5.08,5.08,0,0,1,.78,0h.15a8,8,0,0,1,.82.1h.07c.29.06.6.13.91.22l.07,0c.3.09.61.19.93.32l.09,0c.33.13.67.28,1,.45l.41.22.33.19,2.26,1.3,400.9,231.58-.37.23s10.47,5.56,10.6,5.64l.42.27.42.3.42.3.18.14c.22.17.44.34.66.53h0c.22.18.43.38.64.57l.08.07c.21.19.41.38.6.58l.09.09c.19.2.38.39.56.59l.1.11.54.62c.09.1.17.21.26.32l.32.4.35.48.23.3c.06.1.13.19.19.28l.33.49a1,1,0,0,1,.08.14c.15.23.29.45.43.69l0,.05c.15.25.28.49.41.74l0,.08c.13.24.25.48.37.72l0,.1c.12.24.22.48.33.72l0,.11c.1.24.2.48.28.72a1.17,1.17,0,0,1,.05.11l.24.72,0,.1c.07.24.14.48.2.72l0,.1c.06.24.11.48.16.72l.06.36.06.43c0,.15,0,.3,0,.44a3.37,3.37,0,0,1,0,.44c0,.16,0,.32,0,.48v.36s0,.24,0,.65l-1.05,39.34-2.2-1.26-10.7,5.76,3.12,1.81.42.27.42.29.42.31.17.14c.22.17.44.34.66.53h0c.22.18.44.37.65.57l.08.07.6.58.08.09c.2.19.38.39.57.59l.1.11.53.61.26.33.32.4.36.47c.07.11.15.21.22.31s.13.19.19.28.23.33.33.49l.09.14c.14.22.29.45.42.69l0,.05c.14.25.28.49.41.74l0,.08q.2.36.36.72l0,.1c.11.24.22.48.32.72a1.17,1.17,0,0,1,0,.11c.1.24.19.47.28.71l0,.11q.13.36.24.72l0,.11q.12.36.21.72a.36.36,0,0,0,0,.1c.06.24.11.48.16.72l.06.36c0,.09,0,.18,0,.26l-5,186.21c0,1.17-3.56,8.49-2.62,7.94l2.64-2.4-1.51,56.25c0,1.17-3.56,8.49-2.61,7.93l9.66-8.79a10.37,10.37,0,0,0,3.29-7.49l6.45-240.85c0-1.17.07-2.92.07-2.92s0-.24,0-.36,0-.21,0-.31v-.06a.41.41,0,0,1,0-.11l0-.44c0-.11,0-.23,0-.35v-.09a.88.88,0,0,1,0-.16l1.52-57,.08-2.92v-.36C779.61,255.38,779.61,255.27,779.6,255.17ZM354.59,2.92Z"/><path class="cls-5" d="M759.53,278.81c5.6,3.23,9.47.05,9.32,5.54l-5.62,259.38c-.14,5.49-5.29,7.22-10.9,4l-413-238.56c-5.6-3.24-10-10.31-9.88-15.8l6.66-249c.15-5.49,4.81-7.31,10.41-4.07Z"/><path class="cls-5" d="M759.53,246.05c5.6,3.24,10,10.31,9.88,15.8L763.23,511c-.14,5.49-5.29,7.23-10.9,4l-413-238.57c-5.6-3.23-9.67,9-9.52,3.5l6.3-268.33c.15-5.49,4.81-7.32,10.41-4.08Z"/><path class="cls-6" d="M758.79,276.33c.18-4.6-4-10.78-9.28-13.79L358.3,40.21c-5.31-3-9.75-1.73-9.93,2.87l-1.19,30.16a5.91,5.91,0,0,0-.3,1.65L341.5,284.1c-.19,4.6,5.82,13,11.13,16.07L739.12,519.82c5.31,3,9.76,1.73,9.94-2.87l1.19-30.16a5.57,5.57,0,0,0,.29-1.65Z"/><path class="cls-7" d="M753.51,410,440.17,230.55,341.5,284.1c-.19,4.6,5.82,13,11.13,16.07L739.12,519.82c5.31,3,9.76,1.73,9.94-2.87l1.19-30.16a5.57,5.57,0,0,0,.29-1.65Z"/><path class="cls-5" d="M753.89,593.66l-.12-16.36L737.9,587.46l-3.41-7.85L336.58,349.87c-4.79-2.76-14.31-2.41-19.85.78L144.34,449.56v-2.75l-26.18,12.72-3.68-4.65.5,15.24a5.57,5.57,0,0,0,3,4.66L532.1,714.48c4.8,2.77,13.25,2.74,18.78-.46l198.43-114.4c3-1.74,4.56-3.91,4.57-6Z"/><path class="cls-8" d="M531.88,698.41,117.8,459.34c-4.79-2.77-4.18-7.64,1.35-10.84L317.57,333.94c5.53-3.19,14-3.54,18.78-.78L750.42,572.23c4.79,2.77,4.19,7.65-1.35,10.84L550.66,697.63C545.12,700.82,536.67,701.17,531.88,698.41Z"/><path class="cls-9" d="M342.38,377.46a3.19,3.19,0,0,1-2.73-.32l-25.14-14.51c-.91-.52-1.16-1.23-.56-1.58l16.66-9.62a3.16,3.16,0,0,1,2.73.32l25.14,14.51c.91.52,1.16,1.23.55,1.58Z"/><path class="cls-9" d="M371.54,420.77a3.15,3.15,0,0,1-2.74-.31L343.66,406c-.9-.52-1.14-1.23-.54-1.58l16.66-9.62a3.18,3.18,0,0,1,2.72.32l25.14,14.5c.92.53,1.15,1.24.56,1.58Z"/><path class="cls-9" d="M356.8,438.76a3.16,3.16,0,0,1-2.73-.32l-25.14-14.51c-.89-.52-1.16-1.23-.56-1.58L345,412.73a3.19,3.19,0,0,1,2.73.32l25.14,14.51c.9.52,1.15,1.23.56,1.57Z"/><path class="cls-9" d="M316.91,442.23a3.18,3.18,0,0,1-2.72-.32L289.05,427.4c-.9-.51-1.15-1.23-.55-1.57l16.66-9.62a3.16,3.16,0,0,1,2.73.31L333,431c.9.52,1.14,1.23.54,1.57Z"/><path class="cls-9" d="M247.73,432.14a3.19,3.19,0,0,1-2.73-.32l-25.14-14.51c-.91-.52-1.16-1.23-.56-1.58l19.56-11.3a3.2,3.2,0,0,1,2.73.32l25.14,14.51c.91.52,1.15,1.24.56,1.58Z"/><path class="cls-9" d="M291.08,457.15c-.61.34-2.06.07-3.25-.62l-32.94-19c-1.18-.68-1.66-1.52-1.06-1.87l19.56-11.3c.59-.33,2.06-.06,3.24.62l32.93,19c1.2.69,1.66,1.54,1.07,1.88Z"/><path class="cls-9" d="M507.45,582.19a3.11,3.11,0,0,1-2.55-.42l-25.12-14.5c-.92-.53-1.26-1.19-.76-1.48l7.23-4.18a3.18,3.18,0,0,1,2.57.44l25.12,14.49c.91.53,1.23,1.19.74,1.48Z"/><path class="cls-9" d="M541,602.08a3.08,3.08,0,0,1-2.55-.43l-25.12-14.49c-.92-.53-1.26-1.2-.76-1.48l7.23-4.18a3.17,3.17,0,0,1,2.57.43l25.12,14.5c.91.52,1.23,1.19.74,1.47Z"/><path class="cls-9" d="M576.65,622.16a3.1,3.1,0,0,1-2.52-.44L549,607.22c-.9-.52-1.27-1.18-.78-1.46l7-4a3.18,3.18,0,0,1,2.53.45l25.13,14.51c.9.52,1.25,1.17.77,1.45Z"/><path class="cls-9" d="M554.75,594.41a3.1,3.1,0,0,1-2.52-.44l-25.13-14.5c-.9-.53-1.27-1.19-.78-1.46l7-4a3.18,3.18,0,0,1,2.53.45l25.13,14.5c.9.53,1.25,1.18.77,1.46Z"/><path class="cls-9" d="M464,556.92a3.21,3.21,0,0,1-2.75-.32L297.67,462.19c-.89-.51-1.16-1.23-.56-1.58l19.56-11.29a3.2,3.2,0,0,1,2.73.32L483,544c.91.53,1.15,1.25.57,1.59Z"/><path class="cls-9" d="M286.59,450.91a.39.39,0,0,1-.26-.07l-19.22-11.09c-.11-.06-.16-.13-.13-.15l1.22-.71s.15,0,.26.08l19.22,11.09c.1.06.16.13.12.15Z"/><path class="cls-9" d="M237.32,420.36a.2.2,0,0,1-.15,0L229,415.64s0-.07,0-.09l1.22-.7a.16.16,0,0,1,.15,0l8.16,4.71s0,.06,0,.08Z"/><path class="cls-9" d="M351.37,462.1a3.2,3.2,0,0,1-2.73-.32L323.5,447.27c-.89-.52-1.15-1.24-.56-1.58l16.66-9.62a3.18,3.18,0,0,1,2.74.32l25.14,14.5c.91.53,1.15,1.24.55,1.58Z"/><path class="cls-9" d="M386,482.07a3.2,3.2,0,0,1-2.72-.31l-25.13-14.51c-.91-.52-1.16-1.24-.56-1.58l16.65-9.62a3.18,3.18,0,0,1,2.74.32l25.14,14.5c.89.52,1.14,1.23.54,1.58Z"/><path class="cls-9" d="M420.6,502.05a3.17,3.17,0,0,1-2.72-.32l-25.14-14.51c-.9-.52-1.15-1.23-.55-1.57L408.85,476a3.13,3.13,0,0,1,2.72.31l25.14,14.51c.9.52,1.14,1.23.55,1.57Z"/><path class="cls-9" d="M455.21,522a3.13,3.13,0,0,1-2.72-.31L427.35,507.2c-.91-.53-1.15-1.24-.56-1.58L443.45,496a3.15,3.15,0,0,1,2.74.32l25.14,14.5c.9.53,1.14,1.23.54,1.58Z"/><path class="cls-9" d="M489.83,542a3.19,3.19,0,0,1-2.74-.33L462,527.17c-.9-.52-1.14-1.23-.55-1.57L478.07,516a3.15,3.15,0,0,1,2.73.31l25.13,14.5c.91.53,1.16,1.24.56,1.59Z"/><path class="cls-9" d="M524.45,562a3.16,3.16,0,0,1-2.73-.32l-25.13-14.5c-.91-.52-1.16-1.24-.56-1.58l16.66-9.62a3.15,3.15,0,0,1,2.74.32l25.13,14.5c.9.52,1.15,1.23.55,1.58Z"/><path class="cls-9" d="M602.42,607a3.13,3.13,0,0,1-2.73-.32L531.2,567.11c-.91-.52-1.15-1.23-.56-1.58l16.66-9.62a3.22,3.22,0,0,1,2.74.32l68.48,39.52c.91.52,1.15,1.24.55,1.58Z"/><path class="cls-9" d="M391.25,458.62a3.11,3.11,0,0,1-2.72-.32l-25.14-14.51c-.91-.52-1.16-1.22-.55-1.57l16.66-9.62a3.18,3.18,0,0,1,2.72.32l25.14,14.51c.91.52,1.14,1.22.55,1.56Z"/><path class="cls-9" d="M425.87,478.6a3.13,3.13,0,0,1-2.72-.32L398,463.77c-.9-.52-1.15-1.22-.55-1.57l16.66-9.63a3.15,3.15,0,0,1,2.71.32L442,467.4c.9.52,1.15,1.23.56,1.57Z"/><path class="cls-9" d="M460.48,498.57a3.14,3.14,0,0,1-2.72-.32l-25.14-14.5c-.89-.52-1.17-1.23-.56-1.58l16.66-9.63a3.24,3.24,0,0,1,2.73.33l25.13,14.51c.9.51,1.15,1.23.56,1.57Z"/><path class="cls-9" d="M495.09,518.55a3.17,3.17,0,0,1-2.72-.32l-25.13-14.51c-.91-.52-1.17-1.22-.56-1.57l16.66-9.63a3.15,3.15,0,0,1,2.72.33l25.14,14.5c.9.52,1.14,1.23.55,1.57Z"/><path class="cls-9" d="M529.72,538.51a3.14,3.14,0,0,1-2.72-.32l-25.15-14.51c-.91-.52-1.15-1.22-.55-1.57L518,512.49a3.14,3.14,0,0,1,2.72.32l25.15,14.51c.89.52,1.14,1.23.55,1.57Z"/><path class="cls-9" d="M564.32,558.48a3.13,3.13,0,0,1-2.72-.31l-25.12-14.51c-.92-.52-1.17-1.23-.57-1.57l16.66-9.63a3.17,3.17,0,0,1,2.73.33l25.13,14.5c.9.52,1.15,1.23.56,1.57Z"/><path class="cls-9" d="M598.94,578.46a3.14,3.14,0,0,1-2.72-.32l-25.15-14.51c-.9-.52-1.15-1.22-.54-1.57l16.66-9.62a3.15,3.15,0,0,1,2.71.31l25.15,14.51c.89.52,1.14,1.23.55,1.57Z"/><path class="cls-9" d="M406,440.64a3.15,3.15,0,0,1-2.74-.32l-25.14-14.5c-.89-.52-1.14-1.23-.53-1.58l16.66-9.62a3.15,3.15,0,0,1,2.71.32l25.14,14.5c.9.53,1.15,1.23.56,1.58Z"/><path class="cls-9" d="M440.6,460.61a3.15,3.15,0,0,1-2.73-.31l-25.13-14.51c-.91-.52-1.16-1.23-.55-1.58l16.66-9.62a3.18,3.18,0,0,1,2.72.32l25.14,14.51c.9.51,1.14,1.22.55,1.57Z"/><path class="cls-9" d="M475.22,480.59a3.15,3.15,0,0,1-2.74-.32l-25.14-14.5c-.89-.52-1.14-1.23-.53-1.58l16.66-9.62a3.18,3.18,0,0,1,2.71.31l25.14,14.51c.91.52,1.15,1.23.56,1.57Z"/><path class="cls-9" d="M509.83,500.56a3.15,3.15,0,0,1-2.73-.31L482,485.74c-.91-.52-1.15-1.23-.55-1.58l16.66-9.62a3.2,3.2,0,0,1,2.73.32l25.14,14.51c.9.52,1.14,1.22.55,1.57Z"/><path class="cls-9" d="M544.45,520.52a3.16,3.16,0,0,1-2.72-.3l-25.14-14.51c-.91-.53-1.15-1.23-.54-1.58l16.66-9.62a3.11,3.11,0,0,1,2.72.32l25.14,14.51c.89.51,1.13,1.22.54,1.56Z"/><path class="cls-9" d="M579.08,540.5a3.17,3.17,0,0,1-2.75-.32l-25.14-14.5c-.89-.52-1.14-1.23-.54-1.58l16.66-9.62a3.17,3.17,0,0,1,2.72.32l25.14,14.5c.91.53,1.16,1.24.56,1.58Z"/><path class="cls-9" d="M613.68,560.47a3.12,3.12,0,0,1-2.73-.31l-25.14-14.5c-.91-.53-1.15-1.23-.54-1.58l16.66-9.63a3.18,3.18,0,0,1,2.72.32l25.14,14.51c.9.52,1.14,1.23.55,1.57Z"/><path class="cls-9" d="M336.93,400.8a3.15,3.15,0,0,1-2.74-.32l-42.62-24.59c-.91-.53-1.16-1.24-.55-1.59l16.66-9.62a3.18,3.18,0,0,1,2.72.32L353,389.6c.9.52,1.15,1.23.56,1.57Z"/><path class="cls-9" d="M671.23,567.2a3.16,3.16,0,0,1-2.73-.32l-42.63-24.6c-.89-.51-1.15-1.23-.54-1.57L642,531.09a3.19,3.19,0,0,1,2.73.31L687.33,556c.91.52,1.16,1.23.56,1.58Z"/><path class="cls-9" d="M322.18,418.78a3.16,3.16,0,0,1-2.73-.32l-50.81-29.33c-.91-.52-1.17-1.23-.56-1.57l16.66-9.63a3.15,3.15,0,0,1,2.72.33l50.82,29.32c.91.53,1.15,1.23.56,1.57Z"/><path class="cls-9" d="M282.31,422.26a3.19,3.19,0,0,1-2.73-.32l-33.89-19.56c-.9-.52-1.15-1.23-.55-1.57l16.66-9.63a3.2,3.2,0,0,1,2.73.32l33.88,19.55c.91.53,1.15,1.24.56,1.58Z"/><path class="cls-9" d="M377,397.43a3.15,3.15,0,0,1-2.74-.32l-25.12-14.5c-.91-.52-1.16-1.23-.56-1.58l16.65-9.62a3.18,3.18,0,0,1,2.74.32l25.12,14.5c.92.53,1.16,1.23.56,1.58Z"/><path class="cls-9" d="M411.45,417.3a3.18,3.18,0,0,1-2.74-.32l-25.14-14.51c-.9-.52-1.15-1.23-.55-1.58l16.65-9.62a3.18,3.18,0,0,1,2.74.32l25.14,14.51c.9.52,1.15,1.23.55,1.58Z"/><path class="cls-9" d="M446.05,437.27a3.16,3.16,0,0,1-2.73-.32l-25.14-14.5c-.89-.52-1.14-1.23-.54-1.58l16.65-9.62a3.16,3.16,0,0,1,2.73.32l25.14,14.5c.91.53,1.14,1.23.54,1.58Z"/><path class="cls-9" d="M480.67,457.25a3.16,3.16,0,0,1-2.73-.32l-25.13-14.5c-.91-.53-1.15-1.23-.55-1.58l16.65-9.62a3.15,3.15,0,0,1,2.74.32l25.12,14.5c.91.52,1.16,1.23.56,1.58Z"/><path class="cls-9" d="M515.27,477.22a3.14,3.14,0,0,1-2.72-.32l-25.13-14.5c-.91-.53-1.16-1.23-.56-1.58l16.66-9.62a3.13,3.13,0,0,1,2.73.32L531.39,466c.91.53,1.14,1.23.54,1.58Z"/><path class="cls-9" d="M549.91,497.19a3.19,3.19,0,0,1-2.73-.32L522,482.36c-.89-.52-1.14-1.22-.54-1.57l16.66-9.62a3.13,3.13,0,0,1,2.72.31L566,486c.89.52,1.14,1.23.54,1.58Z"/><path class="cls-9" d="M584.52,517.16a3.13,3.13,0,0,1-2.73-.32l-25.14-14.5c-.91-.53-1.16-1.24-.56-1.59l16.66-9.62a3.19,3.19,0,0,1,2.74.33L600.62,506c.91.52,1.16,1.23.56,1.58Z"/><path class="cls-9" d="M619.13,537.13a3.13,3.13,0,0,1-2.72-.31L591.25,522.3c-.89-.51-1.14-1.22-.53-1.57l16.65-9.62a3.2,3.2,0,0,1,2.72.31l25.15,14.52c.9.52,1.14,1.22.54,1.57Z"/><path class="cls-9" d="M639.25,554.74a3.75,3.75,0,0,0-1.47-.48,2.09,2.09,0,0,0-1.24.17l-16.65,9.62a.59.59,0,0,0-.31.73,1.89,1.89,0,0,0,.84.85l6.56,3.78L605.14,582a.57.57,0,0,0-.29.73,1.84,1.84,0,0,0,.84.85l16.94,9.77a3.81,3.81,0,0,0,1.48.49,2.05,2.05,0,0,0,1.25-.16L665,570.83a.55.55,0,0,0,.28-.72,1.81,1.81,0,0,0-.84-.86Z"/><path class="cls-9" d="M277.8,414.14a.41.41,0,0,1-.26-.07L258.33,403c-.11-.06-.17-.13-.13-.15l1.21-.71a.45.45,0,0,1,.27.08l19.21,11.09c.11.06.17.13.13.15Z"/><path class="cls-10" d="M274.11,629.27,81.69,518.18a2.62,2.62,0,0,0-2.37.09L.6,563.72c-.71.41-.78,1-.17,1.38L192.84,676.19a2.65,2.65,0,0,0,2.37-.1l78.73-45.45C274.64,630.23,274.72,629.62,274.11,629.27Z"/><rect class="cls-10" y="531.04" width="78.83" height="33.46"/><rect class="cls-11" x="195.67" y="596.29" width="78.83" height="33.46"/><path class="cls-5" d="M274.47,629.75h0V596.29l-80.42,16.13-1.24,63.77a2.65,2.65,0,0,0,2.37-.1l78.73-45.45C274.38,630.38,274.54,630.05,274.47,629.75Z"/><path class="cls-12" d="M192.82,642.75.41,531.67c-.61-.36-.53-1,.17-1.38L79.3,484.84a2.64,2.64,0,0,1,2.38-.09L274.09,595.83c.61.36.53,1-.17,1.38L195.2,642.66A2.64,2.64,0,0,1,192.82,642.75Z"/><g class="cls-13"><path class="cls-9" d="M155.61,551.46c-11.85-6.85-29.69-7.65-39.83-1.8s-8.75,16.15,3.11,23,29.69,7.65,39.83,1.79S167.47,558.3,155.61,551.46Z"/><path class="cls-9" d="M248.79,591.4l-.67-.38a4.43,4.43,0,0,0-2.36-3.36L91.94,498.85c-2.61-1.51-6.78-1.37-9.71.31l-50.05,28.9a5.3,5.3,0,0,0-2.9,4l-.24.14.22.12s0,.08,0,.11a4.38,4.38,0,0,0,2.39,3.77L185.45,625a8.9,8.9,0,0,0,4.38,1,10.86,10.86,0,0,0,5.33-1.36l50.06-28.9a5.35,5.35,0,0,0,2.9-4Zm-73.06,23L47.84,540.53c5.17-4.27,4.28-10.48-2.21-15.24L75.7,507.93c8,3.66,18.52,4.24,25.88,1.48l128.05,73.93c-4.78,4.25-3.78,10.29,2.56,14.94l-30.06,17.36C193.89,611.9,183.12,611.38,175.73,614.37Z"/></g><polygon class="cls-14" points="74.6 607.92 74.6 574.5 98.77 588.45 98.77 621.87 74.6 607.92"/><polygon class="cls-15" points="98.77 588.45 180.67 541.9 154.4 526.73 74.6 574.5 98.77 588.45"/><ellipse class="cls-2" cx="598.67" cy="732.39" rx="18.1" ry="30.49" transform="translate(-182.75 1265.48) rotate(-85.04)"/><path class="cls-16" d="M558.3,588.53c1.7,10.9,5.65,18.86,11.07,28.25,1.78,3.08,3.71,5.82,3.11,9.41-.82,4.92-2.37,9.6-2.92,14.64-.6,5.51,8,5.46,8.63,0,1-9,5.08-15.76.81-24.43-2.25-4.55-5.25-8.67-7.6-13.16-2.77-5.3-3.87-11.13-4.78-17-.86-5.47-9.17-3.15-8.32,2.29Z"/><path class="cls-15" d="M556.19,588.75c3.52,10,8.22,19.4,12.14,29.22,2.71,6.8,13.84,3.83,11.09-3.05-3.92-9.83-8.62-19.22-12.14-29.23-2.44-6.93-13.55-4-11.09,3.06Z"/><path class="cls-16" d="M553.06,650.92c9.68,4.36,21.59,12.54,26.54,22.27,2.89,5.68,2.46,11.5,2.13,17.57l-1.71,32c-.42,7.83,11.75,7.8,12.17,0q.94-17.49,1.87-35c.44-8.12-.79-16.14-5.32-23.09-6.68-10.25-18.49-19.3-29.53-24.28-7.09-3.19-13.29,7.3-6.15,10.51Z"/><path class="cls-16" d="M627.17,695.93c-8.81-9.58-15.1-20.8-25-29.51-6.12-5.39-12.76-8.37-20.75-6-9.63,2.8-17.58,3.32-26.32-2.54-6.52-4.38-12.62,6.16-6.14,10.51a36.61,36.61,0,0,0,27,5.95c3.3-.55,6.37-1.71,9.6-2.47,1.34-.31,1.22-.37,1.93-.28,2.89.39,5.46,2.93,7.46,4.79,9.12,8.47,15.2,19.12,23.55,28.21,5.32,5.78,13.91-2.85,8.61-8.61Z"/><path class="cls-17" d="M625.49,712.22l.38-.78a.91.91,0,0,0-.42-1.2h0a.9.9,0,0,0-1.19.42l-.38.78a.89.89,0,0,0,.42,1.19h0A.89.89,0,0,0,625.49,712.22Z"/><path class="cls-18" d="M625.77,710.49l-2.42-3.26a.89.89,0,0,0-1.25-.18h0a.89.89,0,0,0-.18,1.25l2.41,3.25a.9.9,0,0,0,1.25.19h0A.9.9,0,0,0,625.77,710.49Z"/><path class="cls-19" d="M615.72,704.43c3.46,3.15,8.33,8,8.33,8l1.53-.73-3.06-3.68c-.26-.69,1.18-.8,2.05-.5,5.12,1.76,5.21,5.18,8.85,5,0,0,7.49-1.62,12.35-6.85,0,0,1.92-3-.42-3.72-4.61-1.52-19.49-4.22-22.66-5.1l-.54.19-6.51-2.56c-1.36.5-2.22,3.73-1.87,5.85A5,5,0,0,0,615.72,704.43Z"/><path class="cls-16" d="M616.1,693.58l4,.21S633.67,699,636.31,700c3.06,1.25-2.26,11.28-17.86,2.09C609.08,698.12,616.1,693.58,616.1,693.58Z"/><path class="cls-10" d="M567.78,632.25c20.87,13.23,33.61,25.34,32.81,31,0,0-10.39-5.77-18.55-1s-6.31,8.71-4.25,10.87c.65.68-3.58,5.18-4.52,5.21-9.67.29-39.61-3.24-40.2-21.49-.51-15.46,1.61-17.31,1.61-17.31S556.43,647.06,567.78,632.25Z"/><path class="cls-15" d="M561.71,588.76s8,11,7.52,18c-.27,4.43-3.17,9.57-3.55,11-3.13,11.75-.83,15.13-1.06,18.34,0,0-1.9,11.12-29.59,2.31L522.78,606Z"/><path class="cls-15" d="M525.76,613.64c-.26-.42-2.87-4.54-3-5-1.21-5.48-4.43-9.67,1.44-16.94,1.22-1.51,14.7-9.86,25.25-12.4a11.38,11.38,0,0,1,12.75,6.05,59.87,59.87,0,0,1,2.88,8.25c1.14,10.92-4.53-3.17-5,2.91,0-.14.05-.29.06-.44,0,0-.73,10.28-1.28,18.24-.33,5-.57,8.56-.58,9.07v.06l-17.65,15.64-10.74-17h0Z"/><path class="cls-16" d="M548.8,579.17s9.79,9,2.16,16.24-22.14-7.11-22.14-7.11C535.73,583.4,542.44,580,548.8,579.17Z"/><path class="cls-20" d="M522.78,608.63c1.2.49,4.52,5,7.13,7.25,5.06,4.48,12.4,7.07,18.87,5.12a105.39,105.39,0,0,0,19-8.31s-2,11.85,0,19.56c1.29,5.12-9.54,9-9.54,9-12,4.49-23.56-1.73-23.56-1.73l-8.89-23.76Z"/><path class="cls-10" d="M551.51,578.77c2.34,5,5.9,13.3.44,17.18-7.59,5.38-16.79-.64-22.69-5.74-1.48-1.28.68-3.43,2.15-2.15,4.26,3.68,11.63,9,17.38,6.14,4.09-2,3-4.41,2-7.93a38,38,0,0,0-1.89-6c-.83-1.76,1.8-3.31,2.62-1.53Z"/><path class="cls-17" d="M581.34,734.85l.76-.4a.9.9,0,0,0,.38-1.21h0a.91.91,0,0,0-1.21-.38l-.76.4a.9.9,0,0,0-.38,1.21h0A.9.9,0,0,0,581.34,734.85Z"/><path class="cls-18" d="M582.59,733.62v-4a.89.89,0,0,0-.89-.89h0a.89.89,0,0,0-.9.89v4a.9.9,0,0,0,.9.9h0A.89.89,0,0,0,582.59,733.62Z"/><path class="cls-19" d="M578.13,722.77c.9,4.6,1.9,11.43,1.9,11.43l1.67.32-.27-4.78c.2-.71,1.42.06,1.94.82,3.06,4.46,1.11,7.26,4.11,9.32,0,0,7,3.17,14,1.86,0,0,3.3-1.23,1.88-3.24-2.8-4-13.14-15-15.16-17.6l-.55-.17-3.7-5.94c-1.4-.4-4,1.68-5,3.59A5,5,0,0,0,578.13,722.77Z"/><path class="cls-16" d="M584.9,714.29l3.11,2.57s7.8,12.21,9.27,14.65c1.72,2.84-8.54,7.72-15.58-9C576.56,713.75,584.9,714.29,584.9,714.29Z"/><path class="cls-19" d="M565.06,561.5c1.23,3.46,1.56,7.64-.7,10.55a19.36,19.36,0,0,1-1.36,1.5,21.77,21.77,0,0,0-3.15,4.25,2.19,2.19,0,0,1-.55.72,1.53,1.53,0,0,1-1.9-.35,10.4,10.4,0,0,1-1.14-1.76c-1.14-1.75-25,12.16-26.2,10.44-1.59-2.34,4.28-28.75,4.9-31.51.79-3.52,18.23,1.15,21.09-1.05a17.7,17.7,0,0,0,1.68-1.28h0c.73-.72,1.39-2.25,2.59-1.73,1,.41,1.29,2.16,1.62,3C562.91,556.71,564.19,559,565.06,561.5Z"/><path class="cls-16" d="M547.47,585.33l4.81-18.56-11.64,3.68-3.91,15.16C535.9,588.08,544,594.82,547.47,585.33Z"/><path class="cls-21" d="M548.63,580.45s-5.22-2.67-5.24-2.72,1.79,3.8,4.38,5.28Z"/><rect class="cls-16" x="539.53" y="545.53" width="20.71" height="33.53" rx="8.79" transform="translate(1080.69 1142.65) rotate(-178.09)"/><path class="cls-19" d="M545.48,558.64c3.64-4.5,10.38.86,14-.54,4-1.52,2.61-5.58-.07-8.85a15,15,0,0,0-6.91-4.62c-10.22-3.86-20.47.46-20.85,12,0,0-1.34,15.71,7.88,18.05l1-2.2s-5.3-5.85.35-9.27c1.32-.79,1.38-.82,1.26-2.74S544.25,560.15,545.48,558.64Z"/><path class="cls-16" d="M537.36,572.7c1.62,1.35,3.48.88,4.15-1a5.86,5.86,0,0,0-1.73-5.93c-1.63-1.34-3.48-.88-4.15,1A5.83,5.83,0,0,0,537.36,572.7Z"/><path class="cls-19" d="M562,567.25s-.16-5.31-12.86-12.25-.57-.32-.57-.32l12.59-2.85S566.12,557.48,562,567.25Z"/><path class="cls-16" d="M518.62,604c-1.09,7.33-1,14.1-.89,21.45.13,6.67-1.79,14.44.14,21,1.24,4.23,4.68,6.1,8.83,6.6,7.08.85,14.24.5,21.34,1.4,5.49.7,5.44-7.93,0-8.62-6.11-.78-12.17-.91-18.31-1.18-3.14-.14-3.52.49-3.81-2.1-.71-6.19.63-12.65.38-18.9a90.69,90.69,0,0,1,.64-17.34c.81-5.43-7.5-7.78-8.32-2.3Z"/><path class="cls-15" d="M520,597.14c-5.27,13.56-4,26.47-3.6,40.67.18,7.39,11.68,7.41,11.5,0-.33-13.19-1.71-25,3.19-37.62,2.68-6.9-8.44-9.89-11.09-3.05Z"/><path class="cls-16" d="M572.23,649h0a5,5,0,0,0,5.7-4.11l1.71-10.6a5,5,0,0,0-4.12-5.7h0a5,5,0,0,0-5.7,4.12l-1.71,10.59A5,5,0,0,0,572.23,649Z"/><path class="cls-22" d="M544.94,656v-1l1.24.48.27-.61,31.09-17.95A1.61,1.61,0,0,1,579,637l13.39,7.73v-.22l2.48,1v1h0a.51.51,0,0,1-.24.27l-32.35,18.68a1.66,1.66,0,0,1-1.47-.06l-15.5-8.95a.61.61,0,0,1-.36-.48Z"/><path class="cls-23" d="M562.29,664.46l32.35-18.68c.38-.22.33-.6-.1-.85L579,636a1.61,1.61,0,0,0-1.46-.06L545.21,654.6c-.37.21-.32.6.11.84l15.5,9A1.66,1.66,0,0,0,562.29,664.46Z"/><path class="cls-22" d="M560.08,652.43l7.83-4.53c.09,0,.08-.14,0-.2l-3.75-2.17a.41.41,0,0,0-.36,0L555.94,650c-.09.05-.07.14,0,.2l3.75,2.17A.42.42,0,0,0,560.08,652.43Z"/><path class="cls-15" d="M563.11,643.44a3.5,3.5,0,0,1,1.49-2.26l32.12-18.25a.82.82,0,0,1,.71-.12h0a.52.52,0,0,1,.17.13l1.06,1.11-1-.08-3.05,19.73a3.52,3.52,0,0,1-1.49,2.26l-30.37,17.26-1,1.1-.13.27c-.61.13-2.08-.91-2.08-.91Z"/><path class="cls-19" d="M562.18,665.41l32.12-18.25a3.5,3.5,0,0,0,1.49-2.25l3.09-20c.13-.85-.33-1.22-1-.83l-32.12,18.25a3.55,3.55,0,0,0-1.49,2.26l-3.08,20C561,665.43,561.49,665.81,562.18,665.41Z"/><path class="cls-16" d="M560.11,654.07h0a5,5,0,0,0-3.18-6.27l-9-2.95a5,5,0,0,0-6.27,3.17h0a5,5,0,0,0,3.17,6.28l9,3A5,5,0,0,0,560.11,654.07Z"/><path class="cls-15" d="M579.25,646.09c-.17,1.06.8,1.3,2.15.53a5.76,5.76,0,0,0,2.74-3.31c.16-1.06-.8-1.29-2.15-.53A5.75,5.75,0,0,0,579.25,646.09Z"/><path class="cls-19" d="M546,558.07s-10.21,13.37-9.3,22.11c.75,7.24,8.61,11.84,10,22.76a2.28,2.28,0,0,1-4.06,1.67,31.29,31.29,0,0,0-6.88-6.67c-6.81-4.67-8-9.63-7.41-13.26s3.48-30.18,3.48-30.18L547.52,553Z"/><path class="cls-24" d="M204.68,199.05c-6.62-4.58-15.75-5.34-26.74-3.38l-22.65,4.07c-2.65.46-5.2.93-7.6,1.34l2-15.4,30.91-27.21,1.06-.38c.71.1,1.42.21,2.13.34l.62-1.34,49.92-18.16-33.64-17.32h0c-16-6.25-37.24-1.9-56.63,9.9-35.18,21.38-57.7,59.62-54.79,88.67,1.37,13.67,7.17,21.46,15,25.24l30.9,15.78,39.9-17a9.57,9.57,0,0,1,2.21,5.74c1,10.49-6.07,21.66-21.84,31.26-14,8.49-30.25,10.39-43.48,7L93,328.65h0L126.65,346l38-19.29,58.21-35.88,8.24-59.36,1.69-17.84-28.11-14.54Z"/><path class="cls-25" d="M126.65,346l19-40.38c13.23,3.37,29.5,1.46,43.47-7C204.91,289,212,277.78,211,267.29c-1.11-11-11-8.71-26.42-6.2l-23,3.68c-18,3.28-36.12-1.72-38.68-27.28-2.9-29.05,19.61-67.28,54.79-88.67,19.4-11.8,40.65-16.15,56.64-9.89l-16.9,36.81c-12-2.12-22.87-.94-36.32,7.24-13.19,8-20.88,19-19.88,28.93,1.08,10.76,12.58,7.76,27.68,5.14L211.58,213c21.29-3.82,35.65,2.58,38.13,27.32,2.91,29.06-17.84,68.5-58.19,93C169.53,346.71,145.39,352.26,126.65,346Z"/><path class="cls-26" d="M167.18,403.31h0a8.34,8.34,0,0,1-8.32-8.31V100.08a8.34,8.34,0,0,1,8.32-8.31h0a8.34,8.34,0,0,1,8.31,8.31V395A8.34,8.34,0,0,1,167.18,403.31Z"/><rect class="cls-26" x="188.92" y="62.4" width="16.63" height="311.55" rx="8.31"/><ellipse class="cls-27" cx="229.39" cy="457.7" rx="52.64" ry="29.78"/><ellipse class="cls-27" cx="316.86" cy="394.5" rx="52.64" ry="29.78"/><path class="cls-28" d="M357.75,379.94c.38,2.07-.7,10.82-1.73,13.05-2,7.12-8.47,13.87-19.06,18.84-23.25,10.89-57.69,9.06-76.93-4.09-9-6.13-13-13.63-12.5-21-.09-.69.62-9.83.62-9.83a22.87,22.87,0,0,1,4.19-7.45c3.27-4.7,8.6-9,16-12.47,23.25-10.89,57.69-9.07,76.93,4.08C353.34,366.61,357.44,373.27,357.75,379.94Z"/><ellipse class="cls-15" cx="302.69" cy="379.99" rx="54.64" ry="30.91"/><ellipse class="cls-29" cx="302.69" cy="378.3" rx="54.64" ry="30.91"/><path class="cls-30" d="M357.75,365.32c.38,2.08-.7,10.82-1.73,13.05-2,7.12-8.47,13.87-19.06,18.84-23.25,10.89-57.69,9.06-76.93-4.09-9-6.13-13-13.63-12.5-21-.09-.69.62-9.83.62-9.83a23,23,0,0,1,4.19-7.45c3.27-4.7,8.6-9,16-12.47,23.25-10.89,57.69-9.06,76.93,4.08C353.34,352,357.44,358.65,357.75,365.32Z"/><ellipse class="cls-15" cx="302.69" cy="365.37" rx="54.64" ry="30.91"/><ellipse class="cls-29" cx="302.69" cy="363.69" rx="54.64" ry="30.91"/><path class="cls-31" d="M357.75,347.94c.38,2.07-.7,10.82-1.73,13.05-2,7.12-8.47,13.87-19.06,18.83-23.25,10.89-57.69,9.07-76.93-4.08-9-6.13-13-13.63-12.5-21-.09-.69.62-9.84.62-9.84a22.93,22.93,0,0,1,4.19-7.44c3.27-4.71,8.6-9,16-12.48,23.25-10.89,57.69-9.06,76.93,4.09C353.34,334.61,357.44,341.27,357.75,347.94Z"/><ellipse class="cls-15" cx="302.69" cy="347.99" rx="54.64" ry="30.91"/><ellipse class="cls-29" cx="302.69" cy="346.3" rx="54.64" ry="30.91"/><ellipse class="cls-32" cx="302.65" cy="345.49" rx="38.19" ry="21.61"/><ellipse class="cls-33" cx="302.8" cy="346.37" rx="47.61" ry="26.94"/><path class="cls-34" d="M278.29,331.5c16.25-7.61,40.33-6.34,53.78,2.85,5.36,3.67,8.22,8,8.7,12.45.57-5.29-2.26-10.7-8.7-15.09-13.45-9.19-37.53-10.47-53.78-2.86-9.77,4.58-14.48,11.33-13.76,18C265.15,341.08,269.82,335.47,278.29,331.5Z"/><path class="cls-35" d="M326.1,332.51l-8.74,2.36L307,333.28l-6,1.59-4.37.71-.07,5a5.15,5.15,0,0,0,0,.68h0c.14,2.43,1.95,5,2.64,7.08l-3.68.73-6.14-1.55,1.67,2.11,8.41,0a2.06,2.06,0,0,1-1.31,2.08,6.27,6.27,0,0,1-5.31.23l-1.79-2.27h-1.65a8.58,8.58,0,0,1-2.26-4.66l-3.25.19-4.71-4.3v4.58A8.28,8.28,0,0,0,281,350l-2.37.77v4.57l4.53,3,5.22-2.59a19.9,19.9,0,0,0,16.94.07c2.61-1.29,3.57-2.83,3.68-4.43h0v0a5.8,5.8,0,0,0,0-.59v-4l-1.25.15c-1.36-2.73-3.06-5.14-.78-6.26s4.43-.79,6.67.71a5,5,0,0,1,2.57,4.63l7.68.21a8.15,8.15,0,0,0,0-1.78V341.7l-1.2-2.91,3.44-1.7Z"/><path class="cls-15" d="M283.62,349.15c-2.4-2-4.36-4.83-4.39-7.36l8-.48A8.32,8.32,0,0,0,291,347.2c2.62,1.74,4.94,1.95,7.25.8,5.18-2.56-7.24-10.72,1.8-15.2a19.29,19.29,0,0,1,16.4.13l5.17-2.56,4.53,3L321,335.89a7.27,7.27,0,0,1,2.83,6.68l-7.68-.21a5,5,0,0,0-2.57-4.64c-2.24-1.49-4.41-1.82-6.67-.7-4.78,2.36,7.95,10.37-1.65,15.12a19.9,19.9,0,0,1-16.94-.07l-5.22,2.58-4.53-3Z"/><path class="cls-29" d="M283.62,348.28c-2.4-2-4.36-4.83-4.39-7.37l8-.47a8.32,8.32,0,0,0,3.76,5.89c2.62,1.74,4.94,1.95,7.25.8,5.18-2.56-7.24-10.72,1.8-15.2a19.29,19.29,0,0,1,16.4.13l5.17-2.56,4.53,3L321,335a7.27,7.27,0,0,1,2.83,6.68l-7.68-.21a5,5,0,0,0-2.57-4.64c-2.24-1.49-4.41-1.83-6.67-.71-4.78,2.37,7.95,10.38-1.65,15.13a19.87,19.87,0,0,1-16.94-.08l-5.22,2.59-4.53-3Z"/><path class="cls-36" d="M271.08,441.12c.37,2.08-.7,10.83-1.73,13.06-2.05,7.12-8.47,13.87-19.07,18.83-23.24,10.89-57.68,9.06-76.92-4.09-9-6.12-13.05-13.63-12.5-21-.09-.68.62-9.83.62-9.83a23,23,0,0,1,4.19-7.45c3.26-4.7,8.6-9,16-12.47,23.24-10.89,57.68-9.06,76.92,4.08C266.67,427.79,270.77,434.45,271.08,441.12Z"/><ellipse class="cls-15" cx="216.01" cy="441.17" rx="54.64" ry="30.91"/><ellipse class="cls-29" cx="216.01" cy="439.49" rx="54.64" ry="30.91"/><ellipse class="cls-37" cx="215.97" cy="438.68" rx="38.19" ry="21.61"/><ellipse class="cls-33" cx="216.13" cy="439.55" rx="47.61" ry="26.94"/><path class="cls-34" d="M191.62,424.68c16.25-7.61,40.33-6.33,53.78,2.86,5.36,3.66,8.22,8,8.7,12.44.57-5.28-2.27-10.69-8.7-15.09C232,415.7,207.87,414.42,191.62,422c-9.77,4.57-14.49,11.33-13.77,18C178.47,434.26,183.14,428.65,191.62,424.68Z"/><path class="cls-38" d="M239.43,425.7l-8.75,2.35-10.35-1.58-6,1.58-4.38.72-.06,5a5.12,5.12,0,0,0,0,.68h0c.14,2.43,1.95,5,2.64,7.08l-3.67.73-6.14-1.56,1.67,2.11,8.41,0a2,2,0,0,1-1.31,2.07,6.21,6.21,0,0,1-5.31.23l-1.79-2.27h-1.65a8.54,8.54,0,0,1-2.26-4.66l-3.26.2-4.7-4.3v4.57a8.29,8.29,0,0,0,1.73,4.52l-2.37.76v4.58l4.53,3,5.23-2.59a19.84,19.84,0,0,0,16.93.08c2.62-1.3,3.58-2.83,3.68-4.43h0v0a2.91,2.91,0,0,0,0-.59v-4l-1.24.14c-1.37-2.72-3.06-5.13-.79-6.26s4.43-.78,6.67.71a5.06,5.06,0,0,1,2.58,4.64l7.68.21a8.24,8.24,0,0,0,0-1.79v-2.79L236,432l3.44-1.71Z"/><path class="cls-15" d="M197,442.33c-2.4-2-4.36-4.83-4.39-7.36l8-.47a8.34,8.34,0,0,0,3.76,5.89c2.61,1.74,4.94,1.94,7.25.8,5.18-2.56-7.25-10.72,1.8-15.2a19.23,19.23,0,0,1,16.39.12l5.18-2.56,4.53,3-5.08,2.51a7.24,7.24,0,0,1,2.84,6.67l-7.68-.21a5,5,0,0,0-2.58-4.63c-2.24-1.49-4.4-1.83-6.67-.71-4.77,2.36,8,10.37-1.65,15.13a19.88,19.88,0,0,1-16.93-.08l-5.23,2.59-4.53-3Z"/><path class="cls-29" d="M197,441.46c-2.4-2-4.36-4.83-4.39-7.36l8-.47a8.34,8.34,0,0,0,3.76,5.89c2.61,1.74,4.94,1.94,7.25.8,5.18-2.56-7.25-10.72,1.8-15.2a19.23,19.23,0,0,1,16.39.12l5.18-2.56,4.53,3-5.08,2.51a7.24,7.24,0,0,1,2.84,6.67l-7.68-.21a5,5,0,0,0-2.58-4.63c-2.24-1.49-4.4-1.83-6.67-.71-4.77,2.36,8,10.37-1.65,15.12a19.88,19.88,0,0,1-16.93-.07L196.45,447l-4.53-3Z"/><path class="cls-2" d="M490.54,745.61,364.84,673a6,6,0,0,0-5.4.23l-12.51,7.22-.26.12-126.41,73c-1.6.92-1.77,2.31-.39,3.11l125.7,72.58a6,6,0,0,0,5.41-.23l12.5-7.22.27-.13,126.4-73C491.75,747.81,491.92,746.41,490.54,745.61Z"/><rect class="cls-19" x="191.51" y="726.26" width="20.46" height="12.61"/><rect class="cls-39" x="430.82" y="725.06" width="20.46" height="12.61"/><path class="cls-19" d="M447.46,686v0l-107.42-62a4.69,4.69,0,0,0-6.82,2.66l-8.86,28.06,18.59,9v0L451,738.26,464.44,700a4.71,4.71,0,0,0-2.13-5.48Z"/><path class="cls-19" d="M318.15,812.45l-125.7-72.57c-1.39-.8-1.22-2.2.38-3.12l126.41-73a6,6,0,0,1,5.4-.23l125.7,72.58c1.39.79,1.21,2.19-.38,3.11l-126.41,73A6,6,0,0,1,318.15,812.45Z"/><path class="cls-40" d="M458.1,692.1l-14.85-8.58v0l-107.42-62a4.69,4.69,0,0,0-6.82,2.65l-8.66,27.44a5.09,5.09,0,0,0-1.12.47L192.83,725c-1.6.92-1.77,2.32-.38,3.12l125.7,72.57a6,6,0,0,0,5.4-.22L450,727.5a2.49,2.49,0,0,0,1.24-1.37h0l9-28.57A4.69,4.69,0,0,0,458.1,692.1Z"/><path class="cls-15" d="M319.08,681.67l-15.86-9.15c-1.14-.66-1-1.82.33-2.59l13.22-7.63a5,5,0,0,1,4.47-.18l15.85,9.15c1.15.66,1,1.82-.32,2.58l-13.22,7.63A5,5,0,0,1,319.08,681.67Z"/><path class="cls-15" d="M351.34,700.3l-15.85-9.15c-1.15-.67-1-1.82.32-2.59L349,680.93a5,5,0,0,1,4.48-.19l15.85,9.16c1.14.66,1,1.81-.32,2.58l-13.23,7.63A5,5,0,0,1,351.34,700.3Z"/><path class="cls-15" d="M383.61,718.93l-15.86-9.16c-1.14-.66-1-1.81.33-2.58l13.22-7.63a5,5,0,0,1,4.47-.19l15.85,9.15c1.15.67,1,1.82-.32,2.59l-13.22,7.63A5,5,0,0,1,383.61,718.93Z"/><path class="cls-15" d="M415.87,737.55,400,728.4c-1.15-.66-1-1.82.32-2.58l13.22-7.64A5,5,0,0,1,418,718l15.85,9.15c1.15.66,1,1.82-.32,2.58l-13.22,7.64A5,5,0,0,1,415.87,737.55Z"/><path class="cls-15" d="M288.92,699.08l-15.86-9.15c-1.14-.66-1-1.82.32-2.58l13.23-7.64a5,5,0,0,1,4.47-.18l15.85,9.15c1.15.66,1,1.82-.32,2.58l-13.22,7.64A5,5,0,0,1,288.92,699.08Z"/><path class="cls-15" d="M321.18,717.71l-15.85-9.15c-1.15-.66-1-1.82.32-2.58l13.22-7.64a5,5,0,0,1,4.48-.18l15.85,9.15c1.14.66,1,1.82-.32,2.58l-13.23,7.64A5,5,0,0,1,321.18,717.71Z"/><path class="cls-15" d="M353.45,736.34l-15.86-9.15c-1.14-.67-1-1.82.32-2.59L351.14,717a5,5,0,0,1,4.47-.19l15.85,9.16c1.15.66,1,1.81-.32,2.58l-13.22,7.63A5,5,0,0,1,353.45,736.34Z"/><path class="cls-15" d="M385.71,755l-15.85-9.16c-1.15-.66-1-1.81.32-2.58l13.22-7.63a5,5,0,0,1,4.48-.19l15.85,9.15c1.14.67,1,1.82-.32,2.59l-13.23,7.63A5,5,0,0,1,385.71,755Z"/><path class="cls-15" d="M258.75,716.5l-15.85-9.16c-1.14-.66-1-1.81.32-2.58l13.23-7.63a5,5,0,0,1,4.47-.19l15.85,9.15c1.15.67,1,1.82-.32,2.59l-13.22,7.63A5,5,0,0,1,258.75,716.5Z"/><path class="cls-15" d="M291,735.12,275.17,726c-1.15-.66-1-1.82.32-2.58l13.22-7.63a5,5,0,0,1,4.47-.19L309,724.72c1.14.66,1,1.82-.32,2.58l-13.23,7.64A5,5,0,0,1,291,735.12Z"/><path class="cls-15" d="M323.29,753.75l-15.86-9.15c-1.14-.66-1-1.82.32-2.58L321,734.38a5,5,0,0,1,4.47-.18l15.85,9.15c1.15.66,1,1.82-.32,2.58l-13.22,7.64A5,5,0,0,1,323.29,753.75Z"/><path class="cls-29" d="M355.55,772.38l-15.85-9.15c-1.15-.66-1-1.82.32-2.58L353.24,753a5,5,0,0,1,4.48-.18L373.57,762c1.14.66,1,1.82-.32,2.58L360,772.19A5,5,0,0,1,355.55,772.38Z"/><path class="cls-15" d="M228.59,733.91l-15.85-9.15c-1.14-.66-1-1.82.32-2.59l13.23-7.63a5,5,0,0,1,4.47-.18l15.85,9.15c1.15.66,1,1.82-.32,2.58l-13.22,7.63A5,5,0,0,1,228.59,733.91Z"/><path class="cls-15" d="M260.86,752.54,245,743.39c-1.15-.67-1-1.82.32-2.59l13.22-7.63A5,5,0,0,1,263,733l15.86,9.16c1.14.66,1,1.81-.33,2.58l-13.22,7.63A5,5,0,0,1,260.86,752.54Z"/><path class="cls-15" d="M293.12,771.17,277.27,762c-1.14-.66-1-1.81.32-2.58l13.23-7.63a5,5,0,0,1,4.47-.19l15.85,9.15c1.15.67,1,1.82-.32,2.59L297.6,771A5,5,0,0,1,293.12,771.17Z"/><path class="cls-29" d="M324.46,789.25l-14-8.07c-1.66-1-1.45-2.64.47-3.74l30.89-17.84a7.19,7.19,0,0,1,6.48-.27l14,8.08c1.66,1,1.45,2.63-.47,3.74L330.94,789A7.22,7.22,0,0,1,324.46,789.25Z"/><path class="cls-15" d="M447.92,693.73l-9.43-5.44v0l-74.3-42.9,0,.06-27.77-16a2,2,0,0,0-2.92,1.14L328,647.85a2,2,0,0,0,.91,2.34l10.56,6.1v0l74.3,42.9,0-.06,26,15a3.64,3.64,0,0,0,5.29-2.06L449.58,698A3.65,3.65,0,0,0,447.92,693.73Z"/><ellipse class="cls-2" cx="409.41" cy="550.34" rx="20.32" ry="35.2" transform="translate(-143.14 956.76) rotate(-89.69)"/><path class="cls-5" d="M400.27,535.71l-15.08,3.08-2,5.23c-.48,3.75-.46,5.75,2,7.73,2.09,1.66,6.36.38,8.59-.66l9.68-5.83c7.18-4,6.64-6.88,5.86-9.3h0C408.17,533.25,404.85,533.88,400.27,535.71Z"/><path class="cls-5" d="M432.28,554.1l-14.57-4.93-4.39,3.5c-2.31,3-3.29,4.74-2.14,7.7,1,2.49,5.31,3.53,7.76,3.75l11.29-.16c8.2.2,9.2-2.61,9.75-5.09h0C440.35,556,437.17,554.82,432.28,554.1Z"/><polygon class="cls-15" points="455.67 425.42 421 405.32 441.4 345.65 476.08 365.74 455.67 425.42"/><path class="cls-15" d="M400.27,534.31l-15.08,3.07-2,5.24c-.48,3.75-.46,5.74,2,7.72,2.09,1.67,6.36.38,8.59-.66l9.68-5.82c7.18-4,6.64-6.89,5.86-9.3h0C408.17,531.85,404.85,532.47,400.27,534.31Z"/><path class="cls-15" d="M432.28,552.87l-14.57-4.93-4.39,3.5c-2.31,3-3.29,4.74-2.14,7.7,1,2.49,5.31,3.53,7.76,3.75l11.29-.16c8.2.2,9.2-2.61,9.75-5.09h0C440.35,554.72,437.17,553.59,432.28,552.87Z"/><path class="cls-16" d="M380.82,366.05c-8.22,12.46-11.85,28.37-15.1,42.75-.7,3.1-1,4.95-.15,8,2.75,10.11,5.86,19.56,7,30.1.6,5.31,9,5.38,8.4,0a140.25,140.25,0,0,0-6.09-28.8c-.59-1.76-1.23-3.5-1.9-5.23.61,1.58-.21,2.75.11,1.34.2-.89.38-1.78.58-2.67,3.1-13.86,6.45-29.25,14.37-41.24,3-4.52-4.29-8.74-7.26-4.24Z"/><path class="cls-41" d="M378.45,369.36c-5.56,9.68-9.59,26.06-13.25,39.32-1.39,3.66-.51,7,1.8,6.82l7.74,1.07c1.91-.12,5.54-4.24,6.43-7.31L391,375.55c1.6-5.49.42-10.21-2.72-10.91l-.72-.11C387,362.51,382.64,362.49,378.45,369.36Z"/><path class="cls-5" d="M404.44,430.77l-38.82,22.41a2.85,2.85,0,0,1-4.28-2.47v-27a2.84,2.84,0,0,1,1.43-2.47l38.82-22.41a2.85,2.85,0,0,1,4.28,2.47v27A2.86,2.86,0,0,1,404.44,430.77Z"/><path class="cls-15" d="M389.81,423.14a10.87,10.87,0,0,1-4.94,8.52c-2.73,1.58-4.95.32-4.95-2.81a10.89,10.89,0,0,1,4.95-8.53C387.6,418.74,389.81,420,389.81,423.14Z"/><path class="cls-16" d="M383.43,448.19l-2.82,1.28a4.34,4.34,0,0,1-5.73-2.16h0a4.34,4.34,0,0,1,2.16-5.73l2.82-1.28a4.36,4.36,0,0,1,5.74,2.16h0A4.35,4.35,0,0,1,383.43,448.19Z"/><path class="cls-42" d="M416.16,338.85l.06,1.59s.21,4.79-4.5,2.31-4.57-8.45-4.57-8.45S410.73,333.88,416.16,338.85Z"/><path class="cls-43" d="M411.69,342.89c6.14,3.19,5.92-2.39,5.92-2.39l.05,0-.18-1.9c-6.85-5.89-11.21-5.61-11.21-5.61S405.54,339.7,411.69,342.89Zm-4.3-8.36s3.5-.19,8.75,4.38l0,1.38s.16,4.14-4.41,1.77S407.39,334.53,407.39,334.53Z"/><polygon class="cls-43" points="419.91 341.57 416.26 339.9 416.06 337.83 419.71 339.5 419.91 341.57"/><path class="cls-43" d="M406.57,334.6l-.65-.29a1.47,1.47,0,0,1-.72-1.1h0c0-.45.21-.68.56-.52l.65.3a1.48,1.48,0,0,1,.72,1.1h0C407.17,334.53,406.92,334.76,406.57,334.6Z"/><path class="cls-5" d="M421.15,343.22h0c-.15-.18-.2-.41-.11-.52l1.09-1.2c.1-.1.3,0,.45.14h0c.15.19.2.42.1.52l-1.09,1.2C421.5,343.47,421.3,343.4,421.15,343.22Z"/><path class="cls-44" d="M408.09,337h0c-.15-.18-.2-.41-.11-.51l1.09-1.21c.1-.1.3,0,.45.15h0c.15.18.2.41.1.51l-1.09,1.21C408.44,337.25,408.24,337.18,408.09,337Z"/><path class="cls-5" d="M406.71,460.7c5.58,16.39,6.1,34,5.57,51.17-.39,12.79-2.41,25.69-2.09,38.47.21,8.39,13.27,8.42,13.06,0-.33-13.14,1.77-26.39,2.12-39.53.49-17.88-.25-36.51-6.07-53.58-2.7-7.91-15.32-4.52-12.59,3.47Z"/><path class="cls-5" d="M380.44,446c2.93,10.65,4.25,21.63,5.32,32.59.63,6.48,1.39,12.66.71,19.12-1.37,13-3.79,26.25-3.7,39.34.06,8.4,13.12,8.42,13.06,0-.09-13.29,2.39-26.73,3.76-39.92.69-6.65-.24-13.15-.9-19.79-1.15-11.68-2.54-23.46-5.66-34.81-2.23-8.09-14.83-4.65-12.59,3.47Z"/><path class="cls-5" d="M391.14,463.25h0c1.2,1.35-4-5.22-2.43-4.29,3.23,2,21.36,14.27,25.13,14.33,4.56.08,1.91-4.33,5.3-7.37,3.22-2.89,4-7.58,4.29-11.89a5.72,5.72,0,0,0-2.94-6.34c-8.05-6.09-23.89-21.18-35.15-16.36C372.34,436.91,385.37,456.78,391.14,463.25Z"/><path class="cls-16" d="M400.1,366.24,403.51,351l9.28,6.25L410,371.12C409.73,373.37,399.42,371.41,400.1,366.24Z"/><path class="cls-16" d="M405.73,328.84s-9.3-6.48-9.39,9.27a27.45,27.45,0,0,0,15.58,24.72c5.59,2.67,12.43-.75,12.74-6.2,1.34-8,1.35-15.4-1.26-21.8.37-6.58-4.15-4.24-12-4.66Z"/><path class="cls-19" d="M400.41,359.4s-10.76-4-9.74-19.13c1.11-16.39,16.18-15,24.55-15.78,3.71-.36,6.29-.89,10.09,2.5,3.45,3.08.22,10-4.73,10.45-2,.17-1.07,5.47-1.46,7.28-.71,3.23-2.72,4.81-3.46,7.94-.71,3-5.08,7.6-7.91,7.93C402.69,361.17,400.41,359.4,400.41,359.4Z"/><path class="cls-45" d="M424,426.94c0-.63,0-1.26,0-1.89l.12-3.72c.07-1.85.16-3.68.24-5.5l.18-3.63c.28-5.46.58-10.91.72-16.64l1.62.46s2.32-15.53-5.64-20.2c-4.29-2.52-12.49-5.8-17.72-9-7.68-4.68-16.35-7.18-21.86-.07a9.13,9.13,0,0,0-1.78,3.41h0a12.64,12.64,0,0,0-.28,3.18c-2.07,24.86-2.53,65.42-.07,66.37h0a3.67,3.67,0,0,0,2.06,2.75,31.55,31.55,0,0,0,5.37,5.13h0l.6.45.8.57.69.48.79.52.7.45,1.15.69.92.53c.3.17.6.34.91.5l.77.41.9.46.76.39,1.31.62.86.4c.37.18.75.34,1.12.51l.76.33,1.08.46.71.3,1.61.66.49.19,1.49.58.65.25,1.31.5.59.22,1.86.68c3.09,1.79,8.53,1.56,12.09-.5h0c.24-.13.46-.28.67-.42l.19-.15.39-.3.2-.18.3-.3a1.54,1.54,0,0,0,.17-.19,3.15,3.15,0,0,0,.24-.3l.14-.19c.07-.11.14-.21.19-.31a2,2,0,0,0,.11-.2,3.05,3.05,0,0,0,.13-.32,1.34,1.34,0,0,0,.07-.18c0-.12.06-.24.09-.36l0-.15a4.32,4.32,0,0,0,0-.5l.12,0c-.16-1.58-.29-3.13-.41-4.65-.41-5.3-.6-10.22-.64-14.88,0-1.34,0-2.65,0-4S424,428.21,424,426.94Z"/><path class="cls-46" d="M416,372.68c-10.43-1.57-17.47,5-20-10h0a3.33,3.33,0,0,1,4.5,1c1.79,2.58,5.6,4.22,9.8,3.7a3.3,3.3,0,0,1,3.18,1.49Z"/><path class="cls-16" d="M417.73,386.26c.71,8.69,2.09,16.64,5.73,24.61,2.61,5.72,5.29,13.92,10.94,17.53,12.77,8.15,26.37-12.73,32.4-20.67,3.26-4.31-4-8.5-7.26-4.24-3.41,4.5-16,24.22-22.52,15.71-6.94-9.08-10-21.85-10.88-32.94-.44-5.35-8.85-5.4-8.41,0Z"/><path class="cls-41" d="M413.51,386.16c2.54,21.49,9.32,35.15,18.7,42.1,4.94,2.74,9.55-5.05,7.67-9.76-9.35-8.31-10.68-20.88-13.52-36.06a6.76,6.76,0,0,0-8-3.75h0A6.32,6.32,0,0,0,413.51,386.16Z"/><path class="cls-16" d="M418.18,349.48c.22,2.6-1.11,4.83-3,5a3.08,3.08,0,0,1-.61,0c-1.6-.25-3-2.07-3.16-4.38-.22-2.59,1.1-4.82,3-5S418,346.89,418.18,349.48Z"/><polygon class="cls-47" points="437.6 395.09 430.35 390.57 434.56 377.6 441.81 382.13 437.6 395.09"/><polygon class="cls-48" points="446.48 400.64 439.23 396.11 441.99 387.63 449.23 392.16 446.48 400.64"/><polygon class="cls-29" points="455.63 406.35 448.38 401.83 453.9 384.83 461.15 389.35 455.63 406.35"/><path class="cls-5" d="M463.69,374.58,460,372.24l0,0-17.87-11.45a1.14,1.14,0,0,0-1.66.47,1.43,1.43,0,0,0,.46,1.83l3.66,2.35,0,0,17.87,11.46a1.16,1.16,0,0,0,1.66-.47A1.44,1.44,0,0,0,463.69,374.58Z"/><path class="cls-48" d="M457.55,378.53a.93.93,0,0,0-.37-1.07l-16.79-10.78a1.16,1.16,0,0,0-1.67.48,1.42,1.42,0,0,0,.47,1.83l3.65,2.34,0,0,12.67,8.12a1.5,1.5,0,0,0,2-1Z"/><path class="cls-48" d="M444.74,377.43a.77.77,0,0,0-.33-.83l-5.84-3.75a1.15,1.15,0,0,0-1.66.47,1.43,1.43,0,0,0,.46,1.84L441,377.5l0,0,2.16,1.38a1,1,0,0,0,1.38-.7Z"/><path class="cls-49" d="M426.37,557.92s2.09-3.24.33-5.61"/><path class="cls-49" d="M431.38,558.22s2.1-3.24.34-5.6"/><path class="cls-49" d="M400.33,539.2s-1.06-3.7-4-3.94"/><path class="cls-49" d="M403.83,537.62s-1.06-3.71-4-3.94"/><polygon class="cls-2" points="451.44 337.87 682.1 466.49 726.39 437.46 682.1 414.78 496.85 304.26 451.44 337.87"/><polygon class="cls-50" points="540.12 290.78 495 264.52 540.14 238.46 585.56 264.68 540.12 290.78"/><polygon class="cls-51" points="540.25 387.31 495.23 361.08 495.23 264.6 540.25 290.82 540.25 387.31"/><polygon class="cls-52" points="540.25 387.31 585.26 361.08 585.26 264.6 540.25 290.82 540.25 387.31"/><polygon class="cls-15" points="451.38 276.65 405.96 250.42 451.09 224.36 496.96 250.53 451.38 276.65"/><polygon class="cls-53" points="450.58 337.98 496.96 310.18 496.96 250.53 450.58 276.76 450.58 337.98"/><polygon class="cls-20" points="451.44 337.87 451.44 276.65 406.02 250.42 406.02 311.65 451.44 337.87"/><polygon class="cls-54" points="636.52 287.1 590.94 260.88 636.22 234.74 682.1 260.88 636.52 287.1"/><polygon class="cls-29" points="590.94 260.88 590.94 318.3 590.94 414.78 636.49 441 636.52 287.1 590.94 260.88"/><polygon class="cls-55" points="636.52 287.1 636.49 441 682.1 414.78 682.1 260.88 636.52 287.1"/><polygon class="cls-56" points="112.02 288.26 145.66 305.58 126.65 345.96 93.01 328.65 112.02 288.26"/></g></g></g></svg>