<svg xmlns="http://www.w3.org/2000/svg" viewBox="0 0 162.97 110.08"><defs><style>.cls-1{isolation:isolate;}.cls-2{opacity:0.21;}.cls-10,.cls-11,.cls-2,.cls-6{mix-blend-mode:multiply;}.cls-3{fill:#072b4d;}.cls-4,.cls-6{fill:#cd9165;}.cls-5{fill:#fff;}.cls-7{fill:#f1f2f2;}.cls-11,.cls-8{fill:#223e5d;}.cls-9{fill:#d1d3d4;}.cls-12{fill:#e6e7e8;}</style></defs><g class="cls-1"><g id="Layer_2" data-name="Layer 2"><g id="graphics"><g class="cls-1"><path class="cls-2" d="M86.58,73.64C53.69,94.27,18.93,99.86,16.43,100.32c0,0-11.67,7.19-5.29,8.93,6,1.63,18.54.78,27.15-1.86C54,102.56,71.13,95.79,86.55,86.12L163,41.54l-10.15-4.73Z"/><path class="cls-3" d="M82.14,69.38C49.24,90,3.28,98.48.78,98.94c0,0,15.29,9.65,33.06,4.18C49.52,98.3,66.68,91.53,82.1,81.86L153.89,40l.41-13.12Z"/><path class="cls-4" d="M.77,98.38a.23.23,0,0,1-.2-.1.12.12,0,0,1,0-.13c3.93-6.68,19.18-29.75,50.27-46.5L122.57,9.81a2.17,2.17,0,0,1,1.09-.29,2.1,2.1,0,0,1,1.07.29l28.82,16.63a.34.34,0,0,1,.18.31.35.35,0,0,1-.17.32L81.86,68.9c-30,18.84-72.78,27.86-81,29.48Z"/><path class="cls-5" d="M123.66,10.07h0a1.63,1.63,0,0,1,.8.22L153,26.76,81.58,68.42s0,0,0,0C52.46,86.67,11.4,95.69,1.51,97.68c4.54-7.49,19.72-29.44,49.6-45.54l0,0,71.7-41.83a1.61,1.61,0,0,1,.81-.22Zm0-1.11a2.66,2.66,0,0,0-1.37.37L50.59,51.16C19,68.19,3.63,91.87.1,97.86a.73.73,0,0,0,.67,1.08.39.39,0,0,0,.15,0c8.94-1.75,51.15-10.69,81.22-29.54l71.7-41.84a.91.91,0,0,0,0-1.58L125,9.32A2.68,2.68,0,0,0,123.66,9Z"/><path class="cls-6" d="M124.46,10.29a1.63,1.63,0,0,0-.8-.22,1.61,1.61,0,0,0-.81.22L51.15,52.12l0,0C21.23,68.24,6.05,90.19,1.51,97.68L3,97.37c5.82-9,20.85-28.6,48.24-43.35l0,0L123,12.16a1.66,1.66,0,0,1,.81-.21,1.59,1.59,0,0,1,.8.21l26.85,15.5,1.55-.9Z"/></g><path class="cls-2" d="M144.47,25s-51.71,31.82-71,35.16c-12.08,2.08-19.75,1.49-20.91,3.71a1.88,1.88,0,0,0,1,2.61L57,68.36a4.08,4.08,0,0,0,3,.31C65,67.25,86.78,64,99.33,58.09L150,28.47Z"/><g class="cls-1"><path class="cls-5" d="M116.16,10.49c0-8.21,11.4-1.78,11.38-10.36L93.43,16.54a11.61,11.61,0,0,0-7,5.85L83,29,73.52,34.5a25.44,25.44,0,0,0-7.36,6.42L53,63.8s20.3-2.43,28.46-6.73C94,50.45,116.16,10.49,116.16,10.49Z"/><polygon class="cls-5" points="98.47 29.7 86.28 22.68 91.67 17.27 127.41 0 155.9 14.22 105.98 23.38 98.47 29.7"/><polygon class="cls-5" points="83.67 41.33 72.55 35.1 83.02 29.01 95.25 35.94 83.67 41.33"/><path class="cls-5" d="M59.31,67.34a2,2,0,0,1-2.46.38l-3.59-2a1.53,1.53,0,0,1-.56-2.12L68.27,38.52,79.5,44.7,68.35,57.63Z"/><path class="cls-7" d="M145,26.64c0-11.17,10.72-8.41,10.87-12.42,0,0-13.77,2.53-31.56,5.49-3.7.62-18.67,3.76-18.67,3.76a11.63,11.63,0,0,0-7,5.84l-3.38,6.63-10,5c-2.85,1.64-8.84,4.5-11.34,7.42l-5.7,9.34L58.48,67.89S83.6,61,98.33,53.18,145,26.64,145,26.64Z"/></g><path class="cls-8" d="M95.26,36l24-8.84s5.1-1.81,5.8-3.76L98.56,29.47l-12.18-7L83,29Z"/><path class="cls-8" d="M139.69,29.76c-.79.19-.43-1-17.52,3.34S72.43,50.28,72.43,50.28l-8.74-5L59.41,52.6l8.86,5.09S121.63,35.12,128,36.52Z"/><path class="cls-9" d="M152.61,16.91l-26.55,4.53s-17.6,3.23-21,4.49a29.46,29.46,0,0,0-6.45,3.53l26.45-6.1c9.09-2.09,18.73-2.93,21-1.73C147.88,18.14,152.61,16.91,152.61,16.91Z"/><path class="cls-9" d="M125.83,3.51a3.29,3.29,0,0,1,2.84,0L147,12.7a.5.5,0,0,1-.14,1L132.11,15.9a4.78,4.78,0,0,1-3-.49L117,9a.78.78,0,0,1,0-1.4Z"/><g class="cls-10"><path class="cls-9" d="M117,8.59l8.77-4.09a3.25,3.25,0,0,1,2.84,0l18.27,9.11a.5.5,0,0,0,.13-.93L128.66,3.56a3.27,3.27,0,0,0-2.83,0l-8.77,4.08a.79.79,0,0,0-.3,1.17A1,1,0,0,1,117,8.59Z"/></g><path class="cls-11" d="M124.79,23.42c-1.49,1.62-5.29,3-5.29,3L95.56,35.21l3-5.75-.49-.26-3,5.77-11.24-6.4,3.06-5.83-.5-.32L83,29l12.25,7,24-8.84s5.1-1.81,5.8-3.76Z"/><path class="cls-11" d="M129,36a12,12,0,0,0-4.18.26,107.91,107.91,0,0,0-11.1,3.17c-6,2-12,4.35-12,4.35L95.79,46l-11.27,4.4L68.58,57l3.87-6.65L72,50l-3.88,6.67L60.32,52.2l3.85-6.65-.51-.32L59.4,52.6l8.87,5.09s15.53-6.41,16.47-6.78c.56-.21,6.51-2.57,11.19-4.39,3.3-1.29,5.89-2.26,5.89-2.26s2.75-1,6.15-2.26c1.88-.67,3.93-1.37,5.88-2.07a102,102,0,0,1,10.51-3.07,13.22,13.22,0,0,1,3.67-.35C128,36.53,128.83,36,129,36Z"/><polygon class="cls-2" points="29.53 75.58 38.73 81.83 58.09 76.44 55.56 75.47 29.53 75.58"/><g class="cls-1"><polygon class="cls-12" points="55.58 74.18 55.57 76 38.99 81.06 39 79.25 55.58 74.18"/><polygon class="cls-5" points="55.58 74.18 39 81.05 29.53 75.58 38.23 64.16 55.58 74.18"/></g></g></g></g></svg>