<svg xmlns="http://www.w3.org/2000/svg" xmlns:xlink="http://www.w3.org/1999/xlink" viewBox="0 0 293.43 307.44"><defs><style>.cls-1{fill:none;}.cls-2{isolation:isolate;}.cls-3,.cls-9{opacity:0.21;}.cls-14,.cls-17,.cls-3,.cls-8,.cls-9{mix-blend-mode:multiply;}.cls-4{fill:#fbfcfb;}.cls-5{fill:#c6c7c6;}.cls-6{fill:#cd9165;}.cls-7{fill:#fff;}.cls-10{clip-path:url(#clip-path);}.cls-11{fill:#e6e7e6;}.cls-12{fill:#d8d9d8;}.cls-13{fill:#c9cac9;}.cls-14{opacity:0.2;}.cls-15{fill:#c2c3c2;}.cls-16,.cls-17{fill:#08335e;}.cls-18{fill:#bcbec0;}</style><clipPath id="clip-path"><path class="cls-1" d="M162.48,209.8l0,2.59c0,4.92-9.38,13.3-14.19,16.5C136.19,237,78.3,265,76.14,266l0-2.59c2.15-1,60-29,72.12-37.08C153.1,223.11,162.46,214.72,162.48,209.8Z"/></clipPath></defs><g class="cls-2"><g id="Layer_2" data-name="Layer 2"><g id="graphics"><g class="cls-2"><path class="cls-3" d="M231.25,181.77c-19.29,21.07-27.37,23.29-46.34,33.71-6.54,4-165.35,77.16-165.55,77.28l-7.1,4.85c1.77,1.12,12.74,8.1,16.13,9.83,5.6-.29,18.81-2.2,27.08-6.82,42.36-23.69,126.82-70.94,131.71-73.92,17.15-9.42,28.14-16,48.48-38.23,3.46-3.79,1.86-11.36,1.86-11.36C233.5,179.12,234.35,180.28,231.25,181.77Z"/><g class="cls-2"><g class="cls-2"><path class="cls-4" d="M24.12,296.37l0,5.63L6,291.51l0-5.63c2.18,1.26,15.33,8.92,18.06,10.49Z"/></g></g><path class="cls-5" d="M235.66,169.85c-19.28,21.06-34.21,30.45-53.19,40.87-6.53,4-158.14,85.54-158.35,85.65l0,5.63a52.34,52.34,0,0,0,29-6.14c42.36-23.69,126.82-70.94,131.7-73.92,17.16-9.42,30.55-18.61,50.88-40.82,2.19-2.08,6.28-17.48,6.28-17.48C239.94,165.7,237.85,167.77,235.66,169.85Z"/><path class="cls-6" d="M7.22,285.74A111,111,0,0,1,26.88,271.3c24.77-14.76,67.41-38.62,126.72-70.92l5.79-3.16c15.67-9.64,32.36-17.58,71.37-29.65,2-.71,4.22-1.29,6.35-1.85l2.61-.7-4.1,4.55c-19,20.73-32.42,29-48,38.51l-3.23,2c-11,7.34-93.93,54.09-135.74,76.16a122,122,0,0,1-24.46,9.39Z"/><path class="cls-7" d="M237.6,166.32l-1.18,1.3-1.32,1.47c-18.92,20.66-32.31,28.88-47.82,38.39l-3.28,2c-10.92,7.31-93.85,54-135.64,76.11a121.71,121.71,0,0,1-24,9.25l-9.39-5.45L8.39,285.6a114.27,114.27,0,0,1,18.85-13.69C52,257.15,94.63,233.29,153.94,201c3.1-1.68,5.12-2.78,5.85-3.19,15.59-9.59,32.25-17.5,71.24-29.58,1.94-.69,4.14-1.27,6.26-1.82l.31-.08Zm4.3-2.68c-3.55,1.14-7.78,2-11.35,3.25-38.27,11.85-55.3,19.75-71.5,29.71-5.16,2.86-89.6,48.52-132.53,74.09-13.74,8.19-20.41,15.16-20.46,15.19,2.18,1.26,15.33,8.92,18.06,10.49A122.6,122.6,0,0,0,49,286.86c42.72-22.55,125.12-69.05,135.78-76.19,17.28-10.65,31-18.42,51.35-40.63,2.26-2.5,5.58-6.16,5.76-6.4Z"/></g><g class="cls-8"><path class="cls-6" d="M155.38,202.6c3.09-1.69,5.12-2.79,5.84-3.2,15.6-9.59,32.25-17.5,71.24-29.57.87-.31,1.8-.6,2.74-.87l1.17-1.3,1.18-1.31-.31.09c-2.12.55-4.32,1.13-6.27,1.82-39,12.07-55.64,20-71.24,29.58-.72.41-2.74,1.5-5.84,3.19C94.58,233.33,52,257.19,27.19,271.94a113.21,113.21,0,0,0-18.85,13.7l1.95,1.14a115.29,115.29,0,0,1,18.39-13.27C53.44,258.75,96.07,234.9,155.38,202.6Z"/></g><g class="cls-9"><path d="M61.87,257.73c8.18-5.38,53.44-31.92,66.23-38.39,6.78-3.43,27.52-13.08,33.65-9.54,4.41,2.55-1,11-6.72,16.71-1.35.83-10.16,5.91-21.14,12.05-22,12.31-53,29.46-55.48,30.87l-16.1-9.35Z"/></g><g class="cls-2"><g class="cls-2"><g class="cls-10"><path class="cls-11" d="M162.48,209.8l0,2.59c0,4.92-9.38,13.3-14.19,16.5C136.19,237,78.3,265,76.14,266l0-2.59c2.15-1,60-29,72.12-37.08,4.81-3.2,14.17-11.59,14.19-16.51Z"/></g></g><polygon class="cls-11" points="76.17 263.39 76.14 265.98 61.87 257.73 61.89 255.15 76.17 263.39"/><path class="cls-7" d="M160.85,207.07c6.14,3.55-6.65,15.31-12.56,19.24-12.08,8.07-70,36.06-72.12,37.08l-14.28-8.24c1.74-1.25,51.9-33.72,65.79-40.75C134.46,211,154.72,203.53,160.85,207.07Z"/></g><polygon class="cls-12" points="85.47 229.5 80.92 246.44 85.47 243.79 85.47 229.5"/><polygon class="cls-13" points="92.98 248.17 85.47 243.79 85.47 229.5 95.94 235.5 92.98 248.17"/><polygon class="cls-14" points="94 248.79 89.65 246.25 89.65 237.97 95.72 241.44 94 248.79"/><polygon class="cls-14" points="89.65 246.25 80.92 246.44 85.47 243.79 89.65 246.25"/><path class="cls-7" d="M98.08,235l-13.22-7.69a204.42,204.42,0,0,1,27.37-10.13,165.77,165.77,0,0,1,25.2-4.69l13.23,7.69a163.91,163.91,0,0,0-25.2,4.69A204.81,204.81,0,0,0,98.08,235Z"/><polygon class="cls-15" points="92.98 253.44 91.86 252.79 95.94 235.5 85.47 229.5 80.94 246.45 79.76 245.76 84.86 227.28 98.08 234.97 92.98 253.44"/><path class="cls-12" d="M98.08,235a204.81,204.81,0,0,1,27.38-10.13,163.91,163.91,0,0,1,25.2-4.69L93,253.44Z"/><g class="cls-9"><path d="M96.2,256.19s11.37-5.54,23.34-11.69c4.84-2.48,9.66-4.94,13.88-7.19,2.91-1.55,7.11-3.72,8.86-4.77a94,94,0,0,0,8-5.1,53.91,53.91,0,0,0,4.9-4.21c1.83-1.74,2.69-2.75,2.69-2.75l-1.15-1.3-19.33-6.72,13.22,7.7L93,253.44l2,.78Z"/></g><path class="cls-16" d="M116.19,216.17,129,223.93l-23.83,22.5,25.2-14.54c4.14-2.39,8.27-10,8.27-10l-13.35-7.68c-2.18.46-2.12.45-4.6.93A44.87,44.87,0,0,0,116.19,216.17Z"/><path class="cls-17" d="M125.24,214.21l-4.69.93-4.36,1L129,223.93l-23.83,22.5,25.2-14.54c4.14-2.39,8.27-10,8.27-10Zm-.17.74,12.23,6.91-7.94,1.5h0l-11.52-6.86C118.52,216.35,124.43,215.07,125.07,215ZM110,242.82l9.08-8.57,3.73,1.18Zm20-11.54L123.61,235l-4-1.26,5.34-5,6.51,1.51A9.45,9.45,0,0,1,130,231.28Zm2.16-1.7-6.52-1.51,3.83-3.62.5-.48,7.46-1.41A36.83,36.83,0,0,1,132.12,229.58Z"/><path class="cls-7" d="M238.92,166.56a.92.92,0,0,1-1-1.51l54-45.71a.92.92,0,0,1,1.29.1.93.93,0,0,1-.1,1.3l-54,45.72Z"/><path class="cls-7" d="M109.73,226.36a.34.34,0,0,1,0-.31L176.46,40.62a.35.35,0,0,1,.45-.21.34.34,0,0,1,.2.44L110.34,226.28a.35.35,0,0,1-.44.21A.37.37,0,0,1,109.73,226.36Z"/><path class="cls-7" d="M237.91,166.65a.35.35,0,0,1-.34-.11L109.77,25.15a.35.35,0,0,1,0-.49.36.36,0,0,1,.49,0l127.8,141.39a.35.35,0,0,1,0,.49A.53.53,0,0,1,237.91,166.65Z"/><path class="cls-7" d="M238,166.64a.14.14,0,0,0,.09,0,.34.34,0,0,0,.15-.46L173.29,40a.36.36,0,0,0-.47-.15.35.35,0,0,0-.15.47l65,126.11A.33.33,0,0,0,238,166.64Z"/><path class="cls-7" d="M14.13,290.34a.34.34,0,0,0,.33-.3L34,148.17a.35.35,0,1,0-.69-.09L13.78,290a.34.34,0,0,0,.29.39Z"/><path class="cls-7" d="M109.43,226a.33.33,0,0,0,.13-.07.35.35,0,0,0,0-.49L35.26,147a.35.35,0,0,0-.5.48l74.31,78.35A.35.35,0,0,0,109.43,226Z"/><path class="cls-7" d="M17.23,291.24a.32.32,0,0,1-.14,0,.35.35,0,0,1-.22-.44L107.54,21.27a.36.36,0,0,1,.44-.22.34.34,0,0,1,.22.44L17.53,291A.35.35,0,0,1,17.23,291.24Z"/><g class="cls-9"><path d="M180.78,200.59c2,1.18,2,3.08,0,4.25a8.09,8.09,0,0,1-7.33,0c-2-1.17-2-3.07,0-4.25A8.07,8.07,0,0,1,180.78,200.59Z"/></g><g class="cls-2"><path class="cls-18" d="M181.78,201.27v1a2.59,2.59,0,0,1-1.51,2.1,8,8,0,0,1-7.33,0,2.56,2.56,0,0,1-1.52-2.13v-1a2.6,2.6,0,0,0,1.53,2.14,8.09,8.09,0,0,0,7.33,0,2.56,2.56,0,0,0,1.5-2.11Z"/></g><path class="cls-7" d="M180.25,199.14c2,1.17,2,3.07,0,4.24a8.09,8.09,0,0,1-7.33,0c-2-1.17-2-3.07,0-4.24A8,8,0,0,1,180.25,199.14Z"/><path class="cls-12" d="M91,230.82c7.66-3.35,16.54-7.19,24.66-9.5l.24-.07.67.62-.24,0c-9.21,2.53-17.48,6.41-24.5,9.4Z"/><g class="cls-9"><path d="M190.7,205.42l-14.39-3.72a1.49,1.49,0,0,1-1.06-1.83,1.51,1.51,0,0,1,1.84-1.06l17.09,4.43Z"/></g><g class="cls-9"><polygon points="108.11 224.04 118.71 226.89 113.71 228.62 107.34 226.93 108.11 224.04"/></g><g class="cls-9"><polygon points="35.02 279.59 51.43 283.98 47.57 286.02 34.25 282.48 35.02 279.59"/></g><path class="cls-7" d="M107.29,226.93V1.5a1.5,1.5,0,0,1,3,0V225.44a1.5,1.5,0,0,1-1.5,1.49Z"/><path class="cls-7" d="M34.66,282.52a1.84,1.84,0,0,1-1.84-1.85V144.44a1.85,1.85,0,0,1,3.69,0V280.67A1.85,1.85,0,0,1,34.66,282.52Z"/><path class="cls-7" d="M176.65,202a1.84,1.84,0,0,1-1.85-1.84V23.42a1.85,1.85,0,0,1,3.69,0V200.2A1.84,1.84,0,0,1,176.65,202Z"/><path class="cls-7" d="M216.13,177.69a.34.34,0,0,1-.37-.13.33.33,0,0,1,.07-.48L292,119.4a.36.36,0,0,1,.49.07.35.35,0,0,1-.07.48l-76.21,57.68A.24.24,0,0,1,216.13,177.69Z"/><g class="cls-2"><path class="cls-18" d="M221.17,178.43v.66a1.75,1.75,0,0,1-1,1.44,5.51,5.51,0,0,1-5,0,1.74,1.74,0,0,1-1-1.46v-.66a1.78,1.78,0,0,0,1,1.46,5.53,5.53,0,0,0,5,0,1.76,1.76,0,0,0,1-1.44Z"/></g><path class="cls-7" d="M220.13,177c1.38.8,1.39,2.09,0,2.9a5.53,5.53,0,0,1-5,0c-1.39-.81-1.39-2.1,0-2.9A5.51,5.51,0,0,1,220.13,177Z"/><g class="cls-8"><path class="cls-5" d="M238.14,175.89c-18,19.27-34.75,32.82-52.85,42.75-4.74,2.9-84.55,47.56-131.7,73.92a66.83,66.83,0,0,1-29,8.36l-.45,0L24,298.83l.51,0a64.64,64.64,0,0,0,28.05-8.09c47.14-26.35,126.92-71,131.68-73.9,18.66-10.25,36-24.49,54.65-44.85l.84-.83Z"/></g><path class="cls-7" d="M58.87,245.88a1.22,1.22,0,0,1-.93-.13L.61,212a1.22,1.22,0,0,1,1.23-2.11l57.34,33.73a1.21,1.21,0,0,1,.43,1.67A1.23,1.23,0,0,1,58.87,245.88Z"/><path class="cls-7" d="M203.81,126.62a1.23,1.23,0,0,1-.93-.13L147.31,93.87a1.22,1.22,0,1,1,1.23-2.11l55.58,32.62a1.22,1.22,0,0,1-.31,2.24Z"/><path class="cls-7" d="M127.43,34.41a1.18,1.18,0,0,1-.93-.13L93.08,14.52a1.22,1.22,0,0,1,1.24-2.1l33.42,19.76a1.22,1.22,0,0,1,.43,1.67A1.18,1.18,0,0,1,127.43,34.41Z"/><path class="cls-7" d="M132.84,165.25a1.2,1.2,0,0,1-.92-.13l-50-29.58a1.22,1.22,0,1,1,1.24-2.11l50,29.58a1.23,1.23,0,0,1-.32,2.24Z"/><path class="cls-7" d="M193.15,53.62a1.18,1.18,0,0,1-.93-.13L159,33.72a1.22,1.22,0,1,1,1.24-2.11l33.27,19.78a1.21,1.21,0,0,1-.31,2.23Z"/><path class="cls-7" d="M149.37,104.86a1.18,1.18,0,0,1-.93-.13L59.7,52.11A1.23,1.23,0,0,1,61,50l88.73,52.63a1.21,1.21,0,0,1-.31,2.23Z"/></g></g></g></svg>