<svg xmlns="http://www.w3.org/2000/svg" viewBox="0 0 283.86 178.36"><defs><style>.cls-1{isolation:isolate;}.cls-2{opacity:0.2;}.cls-18,.cls-2,.cls-20,.cls-4{mix-blend-mode:multiply;}.cls-3{fill:#cd9165;}.cls-5{fill:#838a94;}.cls-6{fill:#959ba4;}.cls-7{fill:#d8d9d8;}.cls-8{fill:#d7d8d7;}.cls-9{fill:#adaead;}.cls-10{fill:#676c80;}.cls-11{fill:#e6e7e6;}.cls-12{fill:#fff;}.cls-13{fill:#08335e;}.cls-14{fill:#12131a;}.cls-15{fill:#bcbec0;}.cls-16{fill:#dcdcdc;}.cls-17{fill:#742d2a;}.cls-18{opacity:0.34;}.cls-19{fill:#062749;}.cls-20{opacity:0.21;}.cls-21{fill:#c2c3c2;}</style></defs><g class="cls-1"><g id="Layer_2" data-name="Layer 2"><g id="graphics"><g class="cls-2"><path d="M30.6,178.36c28.62-4,86.72-27.66,119.62-48.29L283.86,52.41l-5.19-4s-107,50-158.93,69C88.05,129,81.61,151.91,37.47,160.69,35.44,161.09,30.6,178.36,30.6,178.36Z"/></g><polygon class="cls-3" points="237.07 67.18 192.95 41.54 235.11 17.2 279.23 42.84 237.07 67.18"/><g class="cls-4"><polygon class="cls-3" points="273.82 46.53 279.23 42.84 235.11 17.2 192.95 42.11 198.36 45.25 235.11 24.03 273.82 46.53"/></g><g class="cls-1"><path class="cls-3" d="M248.52,54,232.26,74.49l-28.52,3.25-53.52,29.6C106.71,134.62,19.87,147.07,3.88,147.9c-1.63-1.38-4.07-1.28-3.12-2.7,4.08-6.2,16.33-18.78,34.11-31.91C55,98.4,79.2,82.78,102.23,69.16l91.9-45.3Z"/></g><g class="cls-4"><path class="cls-3" d="M103.73,68.35c-23.82,14.08-50.45,31.07-70.24,46C11.67,130.77-2,144.58,1.2,146.43c.57.33,2.83-.33,4.57-.46,5.37-12.74,58-47.92,101.39-73.59L200.92,26,195.63,23Z"/></g><polygon class="cls-5" points="172.27 25.18 188 16.08 232.26 41.56 216.38 50.81 172.27 25.18"/><path class="cls-6" d="M214.43,43.52l-41.67-25.2a6.75,6.75,0,0,0-6.85-.08h0l42.21,25.28Z"/><g class="cls-1"><polygon class="cls-7" points="194.34 65.88 150.22 40.24 172.68 24.93 216.8 50.57 194.34 65.88"/><polygon class="cls-8" points="166.51 79.61 122.39 53.97 150.22 40.24 194.34 65.88 166.51 79.61"/><polygon class="cls-9" points="166.51 79.61 122.39 53.97 128.47 39.91 172.59 65.55 166.51 79.61"/><path class="cls-6" d="M166.09,18.14,210.7,43.55l-38.11,22c-12.46,2.77-51.13-15-44.12-25.64Z"/><polygon class="cls-6" points="127.84 101.93 83.72 76.3 122.39 53.97 166.51 79.61 127.84 101.93"/><path class="cls-10" d="M216.8,50.57h0l-1.15-5.16a3.14,3.14,0,0,0-4.64-2L172.59,65.55l-6.08,14.06-38.67,22.32-6.08,14L240.11,50.39a2.44,2.44,0,0,0,0-4.24l-7.89-4.59Z"/></g><path class="cls-11" d="M201.23.45l.54,2.41L185.1,12.92l-.4,4.5L153.86,35.09l3.57-6.35c1.8-3.15,2.69-4.69,5.1-6.08Z"/><polygon class="cls-12" points="188.22 38.13 162.02 22.98 200.79 0 227.52 15.55 188.22 38.13"/><path class="cls-9" d="M121.66,55.61c-2.5,10.74,33,26.62,44.83,24L122.37,54Z"/><path class="cls-9" d="M127.84,101.93,83.72,76.29l-6,13.87h0L77,91.8c-2.47,10.65,32.32,26.58,44.44,24.28l.31-.1Z"/><path class="cls-6" d="M83,77.94c-2.49,10.74,33,26.62,44.83,24L83.72,76.29Z"/><path class="cls-13" d="M120,112.65c-10.51,0-32.23-8.94-39.22-17.73-1.68-2.12-2.34-4-2-5.7l2.5-5.77a11.42,11.42,0,0,0,2.24,4c7.44,9.13,29.24,18.05,40.08,18.05a16.83,16.83,0,0,0,1.95-.11l-3,7h0A14,14,0,0,1,120,112.65Z"/><path class="cls-14" d="M81.29,85.14a14.9,14.9,0,0,0,1.78,2.73c7.54,9.24,29.61,18.28,40.58,18.28l.94,0-2.49,5.74A14.34,14.34,0,0,1,120,112c-10.38,0-31.82-8.82-38.71-17.49-1.54-1.94-2.17-3.65-1.87-5.11l.16-.39h0l.49-1.14,1.18-2.74Zm.52-4.44-2.88,6.67h0L78.21,89C75.91,99,106.13,113.29,120,113.29a15,15,0,0,0,2.71-.22L123,113l3.63-8.41a13.66,13.66,0,0,1-3,.29c-13.84,0-43.88-14.23-41.84-24.16Z"/><path class="cls-13" d="M164.86,76.17c-10.5,0-32.22-8.94-39.21-17.74-1.68-2.11-2.35-4-2-5.7l2.5-5.76a11.3,11.3,0,0,0,2.25,4c7.44,9.12,29.24,18,40.07,18a17.11,17.11,0,0,0,2-.1l-3.05,7h0A14.1,14.1,0,0,1,164.86,76.17Z"/><path class="cls-14" d="M126.13,48.67a14.29,14.29,0,0,0,1.78,2.71c7.54,9.25,29.61,18.29,40.57,18.29l.94,0-2.48,5.74a14.58,14.58,0,0,1-2.08.13c-10.37,0-31.81-8.81-38.71-17.49-1.53-1.93-2.16-3.65-1.87-5.1l.17-.39h0l.5-1.14,1.18-2.73Zm.52-4.45-2.89,6.67h0l-.71,1.65c-2.31,9.93,27.92,24.27,41.81,24.27a15.05,15.05,0,0,0,2.72-.22l.29-.09,3.63-8.41a13.82,13.82,0,0,1-3,.29c-13.83,0-43.87-14.23-41.83-24.16Z"/><path class="cls-13" d="M152.34,74.29l3.41-7.88Z"/><rect class="cls-14" x="149.76" y="69.71" width="8.58" height="1.29" transform="translate(28.42 183.91) rotate(-66.66)"/><path class="cls-13" d="M137.74,68l3.41-7.88Z"/><rect class="cls-14" x="135.15" y="63.37" width="8.58" height="1.29" transform="translate(25.42 166.68) rotate(-66.66)"/><path class="cls-13" d="M127.37,60.87,130.78,53Z"/><rect class="cls-14" x="124.79" y="56.29" width="8.58" height="1.29" transform="translate(25.57 152.79) rotate(-66.6)"/><g class="cls-1"><path class="cls-15" d="M99.5,78.49v1.1A2.9,2.9,0,0,1,97.8,82a9.13,9.13,0,0,1-8.27,0,2.9,2.9,0,0,1-1.72-2.41v-1.1a2.92,2.92,0,0,0,1.73,2.41,9.11,9.11,0,0,0,8.26,0,2.9,2.9,0,0,0,1.7-2.37Z"/></g><path class="cls-16" d="M97.77,76.07c2.29,1.33,2.3,3.47,0,4.79a9.11,9.11,0,0,1-8.26,0c-2.29-1.32-2.31-3.46,0-4.79A9.11,9.11,0,0,1,97.77,76.07Z"/><g class="cls-1"><path class="cls-15" d="M128.24,93.48v1.1A2.89,2.89,0,0,1,126.54,97a9.07,9.07,0,0,1-8.27,0,2.89,2.89,0,0,1-1.72-2.41V93.45a2.93,2.93,0,0,0,1.73,2.41,9.11,9.11,0,0,0,8.26,0,2.93,2.93,0,0,0,1.7-2.38Z"/></g><path class="cls-16" d="M126.51,91.07c2.29,1.32,2.3,3.46,0,4.79a9.11,9.11,0,0,1-8.26,0c-2.29-1.33-2.31-3.47,0-4.79A9.11,9.11,0,0,1,126.51,91.07Z"/><path class="cls-17" d="M122.61,86.66a1.48,1.48,0,0,1-1.47,0l-16-9.3a.5.5,0,0,1,0-.85l12.6-7.27a1.46,1.46,0,0,1,1.46,0l16,9.3a.49.49,0,0,1,0,.85Z"/><path class="cls-17" d="M5.81,147.93c2.84,1.64,36.24,2.15,59.86-5.9l-37.17-18C11.43,136.74,3.06,146.34,5.81,147.93Z"/><g class="cls-18"><path class="cls-17" d="M119.2,71.18l15.06,8.75.94-.54a.49.49,0,0,0,0-.85l-16-9.3a1.46,1.46,0,0,0-1.46,0l-12.6,7.27a.5.5,0,0,0,0,.85l.94.55,11.66-6.73A1.46,1.46,0,0,1,119.2,71.18Z"/></g><path class="cls-10" d="M138.94,40.71l-6.49,3.46c4.75,7.92,22.49,16.84,32.73,17.62l6-4.78C160.53,55.54,143.9,47.85,138.94,40.71Z"/><path class="cls-13" d="M171.83,68.4,195.64,56a14.47,14.47,0,0,1,6.64-1.62c.4,0,.81,0,1.21.05l4.27.36-39,20.73Z"/><path class="cls-14" d="M202.28,54.83h0a11.33,11.33,0,0,1,1.17.05l2.82.24L169.62,74.59l2.55-5.88L195.84,56.4a14,14,0,0,1,6.44-1.57Zm0-.86a14.86,14.86,0,0,0-6.84,1.67L171.5,68.09l-3.63,8.41,41.38-22L203.53,54c-.42,0-.83-.05-1.25-.05Z"/><path class="cls-14" d="M127,104.88l24.1-12.75A229,229,0,0,1,192,74.88c1.27-.38,3.93-1.12,6.11-1.71L171.9,87.7,150.85,99l-27,13.14Z"/><path class="cls-14" d="M194.78,74.53,171.7,87.32l-21,11.24-25.94,12.63,2.59-6,24-12.69a229.92,229.92,0,0,1,40.82-17.21c.63-.19,1.59-.46,2.66-.76Zm6.6-2.68s-7.13,1.9-9.51,2.62a231,231,0,0,0-41,17.28l-24.24,12.82L123,113l28-13.65,21.06-11.25,29.27-16.23Z"/><path class="cls-13" d="M181,69l1.6-6.12Z"/><rect class="cls-14" x="178.62" y="65.29" width="6.33" height="1.29" transform="translate(71.73 224.94) rotate(-75.25)"/><path class="cls-13" d="M193.78,62.19l1.09-5.71Z"/><rect class="cls-14" x="191.41" y="58.69" width="5.82" height="1.29" transform="translate(99.57 239.07) rotate(-79.18)"/><path class="cls-10" d="M38.57,169.76c28.25-7.86,71.87-25.24,108.89-46.4L279.21,50.65l0-7.82L227,72.54a7.32,7.32,0,0,1-4,1L213,73a17.28,17.28,0,0,0-8.17,1.63s-34.43,18.5-86.39,37.57C86.78,123.84,51,137.07,6.88,145.84a26.88,26.88,0,0,1-6.38.59Z"/><path class="cls-14" d="M142.93,118.14c-47.2,21.18-123.26,40-123.26,40s15.73,9.46,15.52,9.51l3.38,2.07c28.25-7.86,72.59-25.53,108.89-46.4L279.21,50.65V46.53S170.89,105.6,142.93,118.14Z"/><path class="cls-12" d="M29.56,164.24l9,5.52c28.25-7.86,71.15-25,108.89-46.4L279.22,50.65V48.71s-85.9,46.06-123.48,66C97.58,145.57,58.62,156.08,29.56,164.24Z"/><path class="cls-12" d="M1.93,146.6a11.25,11.25,0,0,1-1.23-.06A.76.76,0,0,1,0,146c-.7-2.16,10.6-13.42,12.61-15.24C28,116.92,51,100.36,81.13,81.54a.44.44,0,0,1,.59.14.42.42,0,0,1-.14.59c-30,18.79-53,35.33-68.36,49.16C9.23,135,.88,144.1.84,145.69c12.44,1.23,85.54-21.7,119-34.16a853.32,853.32,0,0,0,84.82-37.27A17.61,17.61,0,0,1,213,72.59l9.94.48a6.86,6.86,0,0,0,3.78-.9l51.61-29.33L235.11,17.7,216.76,28.29a.42.42,0,0,1-.58-.16.44.44,0,0,1,.15-.59L234.9,16.83a.42.42,0,0,1,.43,0l44.12,25.64a.44.44,0,0,1,.21.37.41.41,0,0,1-.22.37L227.18,72.92a7.83,7.83,0,0,1-4.24,1L213,73.44A16.84,16.84,0,0,0,205,75a856.6,856.6,0,0,1-84.9,37.31C91.82,122.88,18,146.6,1.93,146.6Z"/><path class="cls-19" d="M144.68,109.81c.88-.52,1.61-.1,1.61.92v1.36a3.52,3.52,0,0,1-1.6,2.78l-3,1.71c-.89.51-1.61.1-1.61-.92V114.3a3.55,3.55,0,0,1,1.61-2.78Z"/><path class="cls-12" d="M141,117.23c-.79,0-1.32-.63-1.32-1.57V114.3a4,4,0,0,1,1.82-3.15l3-1.72a1.93,1.93,0,0,1,.94-.27c.79,0,1.31.63,1.32,1.57v1.36a3.93,3.93,0,0,1-1.82,3.15l-3,1.71A1.85,1.85,0,0,1,141,117.23Zm4.4-7.22a1,1,0,0,0-.51.17l-3,1.71a3.12,3.12,0,0,0-1.39,2.41v1.36c0,.21,0,.71.46.71a1,1,0,0,0,.51-.16l3-1.72a3.07,3.07,0,0,0,1.38-2.4v-1.36C145.86,110.51,145.81,110,145.4,110Z"/><path class="cls-19" d="M155.33,104.48c.9-.51,1.62-.1,1.62.93v1.35a3.49,3.49,0,0,1-1.6,2.78l-3,1.72c-.89.51-1.61.1-1.61-.93V109a3.53,3.53,0,0,1,1.61-2.78Z"/><path class="cls-12" d="M151.66,111.9c-.79,0-1.32-.63-1.32-1.57V109a4,4,0,0,1,1.82-3.15l3-1.72a2,2,0,0,1,.94-.28c.79,0,1.32.63,1.32,1.58v1.35a3.91,3.91,0,0,1-1.82,3.15l-3,1.72A1.93,1.93,0,0,1,151.66,111.9Zm4.4-7.21a1.15,1.15,0,0,0-.51.16l-3,1.72a3.13,3.13,0,0,0-1.39,2.41v1.35c0,.22,0,.72.46.72a1.06,1.06,0,0,0,.51-.17l3-1.71a3.11,3.11,0,0,0,1.38-2.41v-1.35C156.52,105.19,156.47,104.69,156.06,104.69Z"/><path class="cls-19" d="M166,99.16c.89-.52,1.61-.1,1.61.92v1.36a3.56,3.56,0,0,1-1.61,2.78l-3,1.71c-.89.51-1.61.1-1.61-.92v-1.36a3.51,3.51,0,0,1,1.6-2.78Z"/><path class="cls-12" d="M162.32,106.58c-.79,0-1.32-.63-1.32-1.57v-1.36a4,4,0,0,1,1.82-3.15l3-1.71a1.82,1.82,0,0,1,.94-.28c.79,0,1.32.63,1.32,1.57v1.36a3.94,3.94,0,0,1-1.81,3.15l-3,1.71A1.85,1.85,0,0,1,162.32,106.58Zm4.4-7.21a1,1,0,0,0-.51.16l-3,1.72a3.11,3.11,0,0,0-1.39,2.4V105c0,.21,0,.71.46.71a1,1,0,0,0,.51-.16l3-1.72a3.11,3.11,0,0,0,1.39-2.4v-1.36C167.18,99.87,167.13,99.37,166.72,99.37Z"/><path class="cls-19" d="M176.66,93.83c.89-.51,1.61-.09,1.61.93v1.35a3.53,3.53,0,0,1-1.61,2.78l-3,1.72c-.88.51-1.61.1-1.61-.92V98.33a3.55,3.55,0,0,1,1.61-2.78Z"/><path class="cls-12" d="M173,101.26c-.79,0-1.32-.63-1.32-1.57V98.33a4,4,0,0,1,1.82-3.15l3-1.72a2,2,0,0,1,.94-.28,1.39,1.39,0,0,1,1.32,1.57v1.36a4,4,0,0,1-1.82,3.16l-3,1.71A1.85,1.85,0,0,1,173,101.26Zm4.4-7.22a1.06,1.06,0,0,0-.51.17l-3,1.71a3.15,3.15,0,0,0-1.39,2.41v1.35c0,.22,0,.72.46.72a1.15,1.15,0,0,0,.51-.16l3-1.72a3.09,3.09,0,0,0,1.38-2.4V94.76C177.84,94.54,177.79,94,177.38,94Z"/><path class="cls-19" d="M187.32,88.51c.89-.51,1.61-.1,1.61.92v1.36a3.55,3.55,0,0,1-1.61,2.78l-3,1.72c-.89.51-1.62.09-1.62-.93V93a3.52,3.52,0,0,1,1.6-2.78Z"/><path class="cls-12" d="M183.64,95.93c-.79,0-1.32-.63-1.32-1.57V93a4,4,0,0,1,1.81-3.16l3-1.71a1.85,1.85,0,0,1,.94-.28c.79,0,1.32.63,1.32,1.57v1.36a4,4,0,0,1-1.82,3.15l-3,1.72A1.93,1.93,0,0,1,183.64,95.93Zm4.4-7.21a1,1,0,0,0-.51.16l-3,1.72a3.11,3.11,0,0,0-1.39,2.4v1.36c0,.22,0,.72.46.72a1.06,1.06,0,0,0,.51-.17l3-1.71a3.15,3.15,0,0,0,1.39-2.41V89.43C188.5,89.22,188.46,88.72,188,88.72Z"/><path class="cls-19" d="M198,83.19c.89-.52,1.61-.1,1.61.92v1.35A3.56,3.56,0,0,1,198,88.25L195,90c-.88.51-1.61.1-1.61-.92V87.68A3.51,3.51,0,0,1,195,84.9Z"/><path class="cls-12" d="M194.31,90.61c-.8,0-1.33-.63-1.33-1.57V87.68a3.93,3.93,0,0,1,1.81-3.15l3-1.72a1.93,1.93,0,0,1,.94-.27c.79,0,1.32.63,1.32,1.57v1.35a4,4,0,0,1-1.81,3.16l-3,1.71A1.81,1.81,0,0,1,194.31,90.61Zm4.39-7.22a1.06,1.06,0,0,0-.51.17l-3,1.71a3.11,3.11,0,0,0-1.38,2.41V89c0,.21,0,.71.47.71a1,1,0,0,0,.5-.16l3-1.72a3.11,3.11,0,0,0,1.39-2.4V84.11C199.16,83.89,199.12,83.39,198.7,83.39Z"/><g class="cls-20"><path d="M127.84,101.93l32.84-19-19.12-9s8.56,4,15.67,5.22,9.28.42,9.28.42l6.08-14.06,22.64-13.07L177.52,50l50.53-29.29v7.36L257.21,45.8,202.78,75.7S171.62,90.33,158.6,95.89s-34.21,13.94-34.21,13.94Z"/></g><path class="cls-21" d="M223.59,36.66s-10.17-9.48-7.45-11.52c-2,0-11.29,7.32-11.29,7.32l1.63,2.64s5.26-3.77,13.55,3.6Z"/><path class="cls-11" d="M184.91,36.77,160,25.05l-6,9.17h0l-.43,1c-1.5,6.47,19.64,16.16,27,14.76l.18-.12,7.88-11.55Z"/><path class="cls-21" d="M227.52,15.55l.53,2.41L211.38,28l-.4,4.5-30.2,17.34,2.6-6a13,13,0,0,1,5.43-6.08Z"/><path class="cls-12" d="M161,23.73c-1.52,6.52,20.14,16,27.33,14.41L162.1,22.92Z"/></g></g></g></svg>